<?xml version="1.0" encoding="UTF-8"?>
<svg id="Layer_1" data-name="Layer 1" xmlns="http://www.w3.org/2000/svg" viewBox="0 0 92 92">
  <defs>
    <style>
      .cls-1 {
        fill: #636954;
      }

      .cls-2 {
        fill: #8c9780;
      }

      .cls-3 {
        fill: #646464;
      }

      .cls-4 {
        fill: #789276;
      }

      .cls-5 {
        fill: #a5b09a;
      }

      .cls-6 {
        fill: #6c7660;
      }

      .cls-7 {
        fill: #945e4b;
      }

      .cls-8 {
        fill: #a1aba7;
      }

      .cls-9 {
        fill: #363e2a;
      }

      .cls-10 {
        fill: #bfccb7;
      }

      .cls-11 {
        fill: #818c75;
      }

      .cls-12 {
        fill: #a4ae98;
      }

      .cls-13 {
        fill: #9fc29a;
      }

      .cls-14 {
        fill: #8f9782;
      }

      .cls-15 {
        fill: #9ca7a0;
      }

      .cls-16 {
        fill: #a1ac95;
      }

      .cls-17 {
        fill: #8a927d;
      }

      .cls-18 {
        fill: #373f2b;
      }

      .cls-19 {
        fill: #75836c;
      }

      .cls-20 {
        fill: #9c9c9c;
      }

      .cls-21 {
        fill: #777e69;
      }

      .cls-22 {
        fill: #c0afa7;
      }

      .cls-23 {
        fill: #303c2a;
      }

      .cls-24 {
        fill: #2b2c2b;
      }

      .cls-25 {
        fill: #7ba185;
      }

      .cls-26 {
        fill: #c3c3c3;
      }

      .cls-27 {
        fill: #2d3222;
      }

      .cls-28 {
        fill: #f1fff1;
      }

      .cls-29 {
        fill: #8a978a;
      }

      .cls-30 {
        fill: #fcfcfc;
      }

      .cls-31 {
        fill: #777;
      }

      .cls-32 {
        fill: #394633;
      }

      .cls-33 {
        fill: #75503d;
      }

      .cls-34 {
        fill: #7d7d7d;
      }

      .cls-35 {
        fill: #bbcdb6;
      }

      .cls-36 {
        fill: #505050;
      }

      .cls-37 {
        fill: #8f9c85;
      }

      .cls-38 {
        fill: #637359;
      }

      .cls-39 {
        fill: #b7c7af;
      }

      .cls-40 {
        fill: #7f977c;
      }

      .cls-41 {
        fill: #bacab1;
      }

      .cls-42 {
        fill: #8a967f;
      }

      .cls-43 {
        fill: #976953;
      }

      .cls-44 {
        fill: #5b6854;
      }

      .cls-45 {
        fill: #797a66;
      }

      .cls-46 {
        fill: #97a38c;
      }

      .cls-47 {
        fill: #fff;
      }

      .cls-48 {
        fill: #bacdb6;
      }

      .cls-49 {
        fill: #79846d;
      }

      .cls-50 {
        fill: #bac9b1;
      }

      .cls-51 {
        fill: #909c85;
      }

      .cls-52 {
        fill: #925b48;
      }

      .cls-53 {
        fill: #cecece;
      }

      .cls-54 {
        fill: #bccbb3;
      }

      .cls-55 {
        fill: #8d9981;
      }

      .cls-56 {
        fill: #a8b59f;
      }

      .cls-57 {
        fill: #d3bcb6;
      }

      .cls-58 {
        fill: #60765d;
      }

      .cls-59 {
        fill: #536691;
      }

      .cls-60 {
        fill: #516591;
      }

      .cls-61 {
        fill: none;
      }

      .cls-62 {
        fill: #b5c9b2;
      }

      .cls-63 {
        fill: #2d301b;
      }

      .cls-64 {
        fill: #304840;
      }

      .cls-65 {
        fill: #2c2d2c;
      }

      .cls-66 {
        fill: #86917a;
      }

      .cls-67 {
        fill: #8f9b84;
      }

      .cls-68 {
        fill: #2f4840;
      }

      .cls-69 {
        fill: #909d85;
      }

      .cls-70 {
        fill: #c0cfb7;
      }

      .cls-71 {
        fill: #8a937d;
      }

      .cls-72 {
        fill: #a0ac94;
      }

      .cls-73 {
        fill: #89947d;
      }

      .cls-74 {
        fill: #8d5946;
      }

      .cls-75 {
        fill: #9e604c;
      }

      .cls-76 {
        fill: #bac7b1;
      }

      .cls-77 {
        fill: #34412f;
      }

      .cls-78 {
        fill: #abb4b4;
      }

      .cls-79 {
        fill: #475540;
      }

      .cls-80 {
        fill: #b2c7b0;
      }

      .cls-81 {
        fill: #9faaa4;
      }

      .cls-82 {
        fill: #4e618a;
      }

      .cls-83 {
        fill: #314840;
      }

      .cls-84 {
        fill: #a3b09b;
      }

      .cls-85 {
        fill: #8a5c4a;
      }

      .cls-86 {
        fill: #916a54;
      }

      .cls-87 {
        fill: #a0a0a0;
      }

      .cls-88 {
        fill: #955e4b;
      }

      .cls-89 {
        fill: #777f69;
      }

      .cls-90 {
        fill: #919d86;
      }

      .cls-91 {
        fill: #8f9c84;
      }

      .cls-92 {
        fill: #60755d;
      }

      .cls-93 {
        fill: #86937f;
      }

      .cls-94 {
        fill: #8c9984;
      }

      .cls-95 {
        fill: #87927b;
      }

      .cls-96 {
        fill: #c1b1a9;
      }

      .cls-97 {
        fill: #636363;
      }

      .cls-98 {
        fill: #d8d8d8;
      }

      .cls-99 {
        fill: #8f9a83;
      }

      .cls-100 {
        fill: #c8c8c8;
      }

      .cls-101 {
        fill: #868f79;
      }

      .cls-102 {
        fill: #6d7b64;
      }

      .cls-103 {
        fill: #dbdbdb;
      }

      .cls-104 {
        fill: #a99f93;
      }

      .cls-105 {
        fill: #8f9882;
      }

      .cls-106 {
        fill: #8a9782;
      }

      .cls-107 {
        fill: #b2c8af;
      }

      .cls-108 {
        fill: #555f44;
      }

      .cls-109 {
        fill: silver;
      }

      .cls-110 {
        fill: #9cb096;
      }

      .cls-111 {
        fill: #b9aba2;
      }

      .cls-112 {
        fill: #526590;
      }

      .cls-113 {
        fill: #617257;
      }

      .cls-114 {
        fill: #506491;
      }

      .cls-115 {
        fill: #8d9982;
      }

      .cls-116 {
        fill: #cbcbcb;
      }

      .cls-117 {
        fill: #adb8a2;
      }

      .cls-118 {
        fill: #a8c0a8;
      }

      .cls-119 {
        fill: #8c9880;
      }

      .cls-120 {
        fill: #656c56;
      }

      .cls-121 {
        fill: #57604b;
      }

      .cls-122 {
        fill: #2c2e19;
      }

      .cls-123 {
        fill: #2b2b2b;
      }

      .cls-124 {
        fill: #c2d2bb;
      }

      .cls-125 {
        fill: #597366;
      }

      .cls-126 {
        fill: #a2c69c;
      }

      .cls-127 {
        fill: #8e9a82;
      }

      .cls-128 {
        fill: #939d87;
      }

      .cls-129 {
        fill: #5d664c;
      }

      .cls-130 {
        fill: #ddd;
      }

      .cls-131 {
        fill: #525d42;
      }

      .cls-132 {
        fill: #2e2f2d;
      }

      .cls-133 {
        fill: #88937c;
      }

      .cls-134 {
        fill: #966953;
      }

      .cls-135 {
        fill: #efefef;
      }

      .cls-136 {
        fill: #6b7962;
      }

      .cls-137 {
        fill: #895d4a;
      }

      .cls-138 {
        fill: #dfdfdf;
      }

      .cls-139 {
        fill: #a2bca3;
      }

      .cls-140 {
        fill: #7ca186;
      }

      .cls-141 {
        fill: #889480;
      }

      .cls-142 {
        fill: #aab7a2;
      }

      .cls-143 {
        fill: #beaea5;
      }

      .cls-144 {
        fill: #747f68;
      }

      .cls-145 {
        fill: #374331;
      }

      .cls-146 {
        fill: #a1af98;
      }

      .cls-147 {
        fill: #7f5441;
      }

      .cls-148 {
        fill: #a2b69c;
      }

      .cls-149 {
        fill: #a6b09a;
      }

      .cls-150 {
        fill: #9ec098;
      }

      .cls-151 {
        fill: #96a299;
      }

      .cls-152 {
        fill: #5b6855;
      }

      .cls-153 {
        fill: #c7c7c7;
      }

      .cls-154 {
        fill: #dedede;
      }

      .cls-155 {
        fill: #aab49e;
      }

      .cls-156 {
        fill: #2e301b;
      }

      .cls-157 {
        fill: #cfcfcf;
      }

      .cls-158 {
        fill: #50638f;
      }

      .cls-159 {
        fill: #a2ada8;
      }

      .cls-160 {
        fill: #a0998b;
      }

      .cls-161 {
        fill: #b3c8b0;
      }

      .cls-162 {
        fill: #abb8a3;
      }

      .cls-163 {
        fill: #9da8a2;
      }

      .cls-164 {
        fill: #6b6b6b;
      }

      .cls-165 {
        fill: #69735d;
      }

      .cls-166 {
        fill: #a5ae99;
      }

      .cls-167 {
        fill: #9eab96;
      }

      .cls-168 {
        fill: #4f638e;
      }

      .cls-169 {
        fill: #97a08b;
      }

      .cls-170 {
        fill: #b5c2ad;
      }

      .cls-171 {
        fill: #a5af99;
      }

      .cls-172 {
        fill: #949f88;
      }

      .cls-173 {
        fill: #283020;
      }

      .cls-174 {
        fill: #565656;
      }

      .cls-175 {
        fill: #c6c6c6;
      }

      .cls-176 {
        fill: #898877;
      }

      .cls-177 {
        fill: #afc5ad;
      }

      .cls-178 {
        fill: #bcada5;
      }

      .cls-179 {
        fill: #b6b6b6;
      }

      .cls-180 {
        fill: #a1ae99;
      }

      .cls-181 {
        fill: #e4e4e4;
      }

      .cls-182 {
        fill: #5f7054;
      }

      .cls-183 {
        fill: #5d5d5d;
      }

      .cls-184 {
        fill: #a6b39d;
      }

      .cls-185 {
        fill: #fefefe;
      }

      .cls-186 {
        fill: #e7e7e7;
      }

      .cls-187 {
        fill: #a0aa94;
      }

      .cls-188 {
        fill: #909c84;
      }

      .cls-189 {
        fill: #8e6b55;
      }

      .cls-190 {
        fill: #fafafa;
      }

      .cls-191 {
        fill: #526591;
      }

      .cls-192 {
        fill: #8c957f;
      }

      .cls-193 {
        fill: #99a691;
      }

      .cls-194 {
        fill: #a2c59d;
      }

      .cls-195 {
        fill: #a6b39e;
      }

      .cls-196 {
        fill: #b4c0aa;
      }

      .cls-197 {
        fill: #8e9a83;
      }

      .cls-198 {
        fill: #989385;
      }

      .cls-199 {
        fill: #d1d1d1;
      }

      .cls-200 {
        fill: #9aa59e;
      }

      .cls-201 {
        fill: #a56650;
      }

      .cls-202 {
        fill: #769173;
      }

      .cls-203 {
        fill: #d9d9d9;
      }

      .cls-204 {
        fill: #313d2b;
      }

      .cls-205 {
        fill: #b8aaa1;
      }

      .cls-206 {
        fill: #8a957e;
      }

      .cls-207 {
        fill: #9eb9a0;
      }

      .cls-208 {
        fill: #b0bca7;
      }

      .cls-209 {
        fill: #8b9780;
      }

      .cls-210 {
        fill: #fffdfd;
      }

      .cls-211 {
        fill: #5c5c5c;
      }

      .cls-212 {
        fill: #738d72;
      }

      .cls-213 {
        fill: #748e71;
      }

      .cls-214 {
        fill: #5a634e;
      }

      .cls-215 {
        fill: #69705a;
      }

      .cls-216 {
        fill: #76806a;
      }

      .cls-217 {
        fill: #e6e6e6;
      }

      .cls-218 {
        fill: #a0aba6;
      }

      .cls-219 {
        fill: #919c85;
      }

      .cls-220 {
        fill: #4e5742;
      }

      .cls-221 {
        fill: #a4b19c;
      }

      .cls-222 {
        fill: #afafaf;
      }
    </style>
  </defs>
  <circle class="cls-28" cx="46" cy="46" r="46"/>
  <path class="cls-123" d="M37.87,20.27h.25s.08.18.08.18l.2.15c3.41,9.17,6.83,18.34,10.26,27.51v.36s.09.1.09.1l-.48.93.78.04c.09,0,.1.08.07.17l.02.14c-1.72,1.28-.87,3.21-.1,4.75.27.81.67.96,1.19.45.23-.1.69-.23.87-.05l.15.02,6.51,17.53c0,.1-.07.16-.16.19-3.11,0-6.2,0-9.28,0-.08-.05-.14-.14-.2-.18l-.16-.2c-4.32-11.61-8.69-23.42-13.13-35.42l-1-2.94c-.13.02-.21-.07-.26-.25-4.85,13-9.72,25.98-14.61,38.94-3.06.07-6.14.08-9.22.05l-.03-.06c-.32,0-.43-.06-.33-.18-.06-.02-.06-.04,0-.06l-.1-.1c6.53-17.39,13.08-34.77,19.66-52.13l.15-.06c2.87-.02,5.74-.02,8.61,0l.18.12Z"/>
  <path class="cls-123" d="M83.6,20.29c.02.1.06.18.13.22v6.11c0,.12-.08.18-.2.2h-22.34c-.05-.08-.17-.12-.36-.12-.06-.04-.07-.03-.07-.12l-.13-.08.06-6.13c0-.12.08-.18.2-.2h22.34c.05.08.17.12.36.12Z"/>
  <path class="cls-123" d="M38.42,55.96h.25c.05.08.04.18.08.25l.17.16c.76,1.75,1.44,3.53,2.03,5.34l-.13.11h-14.13c-.09-.08-.23-.12-.44-.12,0-.05.05-.08.07-.12l.03-.37c.65-1.77,1.32-3.53,2.01-5.28,3.3-.07,6.62-.1,9.94-.08l.13.12Z"/>
  <path class="cls-60" d="M37.89,20.25h-8.76s-.1.04-.1.04l-19.63,52.14c-.1.02-.36-.03-.4-.12L28.63,20.04c3.01-.08,6.06-.03,9.09-.03l.18.24Z"/>
  <path class="cls-9" d="M57.75,20.52c.21,7.63.21,15.28,0,22.91-.01.06-.03.1-.07.12,0,.49-.16.89-.45,1.2l-.81.78c-.11.18-.24.3-.39.36-.11.19-.27.13-.49-.17-.55-.15-1.03-.4-1.44-.75-.34.11-.54-.05-.59-.49-.24-.09-.42-.21-.52-.39-.03.1-.07.08-.13-.06-.2.14-.8-.43-.66-.62-.24-.03-.48-.48-.39-.66l-.08-.21c-.06-.01-.06-.04,0-.06-.06,0-.08-.03-.07-.06-.29-.04-.39-.24-.46-.49-.03.03-.05,0-.07-.06-.09-.03-.11-.13-.07-.31-.27-.15-.18-.95-.04-1.19l.17-.04.09-.11c.7.18,1.19.07,1.45-.33l.18-.05c.07.06.14.1.2.12l.13-.05c.12.34.29.4.6.17-.07-.09-.04-.12.07-.06.13.03.25.02.36-.03.48-.36.97-.66,1.49-.9l.07.07c.54-.38,1.33.14,1.72.55v-19.32s.13-.08.13-.08c.07.06.08.09.07.18Z"/>
  <path class="cls-126" d="M58.08,20.5v52.48h-9.26l-.41-.41h9.28s-6.41-17.6-6.41-17.6c-.12-.14.21-.32.32-.18h.09c.06.17.07.35.04.55.06-.01.06.03,0,.12.14-.01.16.03.06.12.08,0,.14.03.19.06.11.07.07.11-.06.12,0,.03.03.07.06.12,0,.24-.08.05-.02.04.07,0,.3.37.15.45.05.11.09.21.13.31.23.4.36.81.39,1.23l.2.17c.1.4.25.77.45,1.12.06.05.04.07-.06.06.12.15.27.53.13.68.17,0,.19,0,.06.12.18.14.25.33.19.55.17-.05.18,0,.06.12.3.27.46.78.39,1.17.12-.05.11.02.06.12.23.08.31.29.19.49.54.91.93,1.92,1.1,2.95.19.03.2.12.06.25.12.03.14.08.06.12.2.08.24.19.13.37.11.06.17.1.06.18.2.08.24.19.13.37.09.04.11.08.06.12.28.3.41.64.39,1.05.28.58.49,1.18.65,1.79.27.23.39.52.32.86.04.01.07.03.11.05.17.1.23.78.22,1l.1-.57v-1.44c-.15-1.19-.17-2.41,0-3.6-.04-1.68-.03-3.36.03-5.04-.05,0-.12-.04-.11-.08.08-.95.16-1.94,0-2.9l.11-.11c-.04-2.07-.05-4.17-.03-6.29-.05-.04-.1-.08-.1-.11-.02-.87-.02-1.76,0-2.63,0-.04.04-.08.1-.11-.02-1.81,0-3.61.03-5.38,0-7.61,0-15.27,0-22.9h.32Z"/>
  <path class="cls-126" d="M33.86,34.03c.04.23,0,.4-.13.49l-14.48,38.37c-2.74.03-5.57.06-8.34.04-.39,0-.77,0-1.15-.01-.06,0-.07-.04-.03-.09-.01-.02.02-.1,0-.12-.11-.08-.48.15-.39-.19.02-.05.04-.05.07,0,0,0-.04.15.09.13h9.42s14.69-39.24,14.69-39.24l.26.62Z"/>
  <path class="cls-25" d="M47.55,34.87c-.2-.47.34-.6.44-.3.11-.14.35.06.4.18,0-.05.03-.12.06-.12.27,0,1.96.16,2.11.22l.21.15.17.03c.31.49.52,1.09.56,1.64.06,0,.09.03.08.07-.11.31-.22.62-.34.93-.02.04-.07.05-.13.04-.17.02-.25-.13-.1-.19-.01-.17,0-.33.04-.48-.11-.07-.12-.84-.12-.8.04.4.04.79,0,1.18l-.08.05c-.14-.1-.27-.24-.4-.4-.19-.09-.44-.4-.27-.55,0-.39-.1-.76-.32-1.11.01-.24.1-.02.07.02-.13.19-.32-.35-.07-.02.06.09.13.23.18.33.07.16.27.97.02.9-.18-.04-.83-.7-.75-.94-.5-1.17.07-.05.03.08-.03.09-.06.1-.14.06-.41-.18-1.35-1.48-.17-.15.14.07.61.46.59.61-.01.07-.48.04-.58.02-.27-.06-.94-.32-.28-.09.26.09.6.17.85.05.09,0,.71.5.68.61-.03.1-.51.08-.63.07-1.17-.32-1.36-.19,0,0,.21.03.44,0,.63-.07.08,0,.61.55.53.69l-.1.07c-1.57.17-.69-.05.06,0,.3.02.44.12.48.43-.41.2-.78.45-1.1.73,0,.04.02.06.07.06.22-.34.52-.58.9-.74.2-.26.46.17.09.25.02.23.17.11.26,0,.15,0,.33.32.2.43h.23c.35.3.39.34.04.03-.13.06-.11-.03-.07-.16-.25.07-.59-.77-.1-.53-.04-.03-.08-.08-.07-.13.02-.07,1.24-.25,1.43-.27.15-.07.11-.09-.13-.06-.07.11-.42.2-.53.12,0-.05-.04-.07-.13-.06.07.18-.48.27-.6.18-.08.04-.17.02-.26-.06.05.17,0,.19-.13.06l-.08-.26c.12-.36.26-.71.41-1.03-.09-.07-.06-.16.1-.26l.23-.48c.15-.33.33-.43.53-.3.16-.11.27-.07.26.12l.2-.02c.16.21.35.31.58.31.08.25.22.46.41.63,0,.16.02.29.07.37.19.07.27.41.07.49.13.03.13.09,0,.12.13.08.13.17,0,.25.11.08.11.12,0,.12.17.08.12.29-.07.31.07.02.07.06,0,.12-.05.14-.21.43-.4.37.08.09.05.13-.07.06.04.2-.33.26-.46.12.02.11-.02.11-.13,0-.02.1-.07.13-.16.08.09.15.14.3.1.47v.31c-.08.12-.12.28-.23.37-.31.27-1.1.2-1.49.12-.17.18-.81-.07-.79-.31-.44.03-.88-.52-1.14-.85-.39-.49-.7-1.06-.77-1.67-.08.08-.11.04-.07-.06-.24-.23-.38-.56-.4-.99-.01-.17-.24-.43-.31-1.01"/>
  <path class="cls-60" d="M33.73,34.5c0-.17,0-.37.13-.49,9.74,25.61,9.74,25.25,14.38,38.55.1.28.08.19-.49-.36"/>
  <path class="cls-108" d="M48.45,37.5l.11.55-.04,2.84c.54-.27,1.06-.57,1.55-.9l.13.04c.21.13.49.25.73.31-.21.41-.14.81-.12,1.23,0,.31,0,.62,0,.92-.13.26-.36-.11-.18-.25l-.07-.03c-.11-.39-.23-.76-.35-1.14-.05-.02-.07.02-.06.12.13.11.21.28.26.49.29.76.1.75-.56-.05-.22-.1-.38-.25-.5-.44h.05c.45.32.91.67,1.28,1.1.01.01,0,.04-.01.07.46.1-.18.44-.33.12-.08.03-.13,0-.19-.04-.42-.3-.84-.6-1.27-.88-.09-.03-.13-.03-.13,0,.44.21,1.07.53,1.4.88.02.02.01.06,0,.11-.11.21-.59.14-.73,0-.11-.01-.15,0-.13.06-.06.09-.14.09-.2,0l-.09.06c-.47-.04-.95-.02-1.44.06.13-.05.98-.11,1.02-.08.02.02.04.05.04.08.18.08-.38.49-.36.46.07-.08.49-.51.53-.52.09-.03.17-.02.23.06.09-.08.45-.14.47,0,.15.04.31.06.47.06,0-.06.03-.05.07,0,.26-.06.5-.08.73.06-.09-.09-.05-.12.07-.06.09-.04.15-.04.2.05.06.11-.33,1.19-.6,1.25.09.22-.28.62-.53.62-.43-.24-.87-.49-1.31-.76l-.02,2.76c-.01.12-.05.19-.2.15-.18-.02-.17-.08,0-.12-.11-1.02-.15-2.05-.13-3.07-.12-.03-.18-.1-.2-.2-.16-.08-.14-.03-.35-.09-.45-.15-1-.43-.64-.9.11-.16.21-.19.33-.37.19-.22.37-.37.6-.55.1-.12.19-.24.27-.35v-3.64c0-.14.04-.2.18-.14,0,.02.05.04.06.06Z"/>
  <path class="cls-194" d="M83.56,20.34c.15.11.02.26.44.18v6.47h-22.83c.06-.3-.14-.11-.33-.25h22.72s0-6.41,0-6.41Z"/>
  <path class="cls-158" d="M83.25,20.09c-.07.31.16.1.33.25h-22.77s0,6.28,0,6.28l-.35-.06v-6.47h22.79Z"/>
  <path class="cls-126" d="M48.85,48.12c.17.11.08.37-.13.37l-10.45-28.03.33.1c2.7,7.41,7.48,20.16,10.24,27.55"/>
  <path class="cls-126" d="M48.05,45.9l.14.05"/>
  <path class="cls-60" d="M26.32,61.6l-.4-.06,2.11-5.81h10.28l.11.25h-9.99c-.79,1.84-1.27,3.86-2.11,5.63Z"/>
  <path class="cls-13" d="M38.75,56.25l.33.04c.71,1.85,1.34,3.74,2.11,5.57.06.09-.01.14-.22.12h-14.33c.06-.31-.16-.13-.36-.19l-.03-.06h14.61c-.75-1.78-1.3-3.73-2.12-5.48Z"/>
  <path class="cls-202" d="M48.67,22.55l.19.05c.36.53.89.94,1.45,1.29.15.19,0,.22-.18.26,0,.17-.17.21-.26.06-.23-.12-.29-.12-.2,0-.07.22-.8.39-.86.12-.06,0-.09.02-.07.06.17.04.23.35.07.43-.01.06,0,.1.07.12.3.04.63,1.12.17,1l-.24-.02c-.06.17-.33.18-.4,0-.05.18-.32.17-.4,0-.05.11-.22.06-.2-.06l-.33-.06c-.12-.01-.22-.04-.33-.06.33.06-.24.04-.33-.06-.1-.09-.35-.11-.46-.25-.05-.12-.06-.25,0-.37,0,0,.16-.1.2-.12.07-.1.18-.16.33-.18.02,0,.05,0,.07,0,.1-.03.16-.09.2-.18.15-.18.24-.48.41-.7.13-.17.32-.3.45-.47l.16-.57c.05-.11.1-.16.24-.11.04-.23.13-.29.26-.18Z"/>
  <path class="cls-191" d="M48.43,25.94l.13.04c.03,1.76,0,3.52-.08,5.3.07,1.14.1,2.27.08,3.39l-.13.08c-.18.04-.35-.17-.4-.18-.17-.09-.19-.12,0-.18v-8.32c-.18-.02-.17-.08,0-.12.1,0,.26-.01.4,0Z"/>
  <path class="cls-158" d="M48.03,20.09l9.24-.04c.05.06.09.13.13.22.07.02.15-.04.26.06l-.05.08h-9.08c.06.32.02.53-.13.66.03.12.03.26,0,.42.09.2.08.34,0,.44.13.32.13.59,0,.8-.18.2-.24.46-.37.68v-3.33Z"/>
  <polygon class="cls-30" points="83.25 20.01 60.46 20.09 60.46 26.56 60.46 20.01 83.25 20.01"/>
  <path class="cls-59" d="M48.49,37.67c-.11.06.01.05.02.15.09,1.13-.08,2.28-.17,3.42-.1.18-.3.27-.4.34.08-.1.06-.22.07-.34.06-1.48.09-3.31,0-4.78.14.32.34.87.48,1.2Z"/>
  <path class="cls-30" d="M41.2,61.85s.15.13.03.21h-14.58l14.32-.08.23-.12Z"/>
  <path class="cls-30" d="M48.01,20.09l9.29-.08.1.27c-.09-.03-.02-.22-.16-.18h-9.23Z"/>
  <path class="cls-30" d="M69.73,32.26c-.19-.03-.79-.02-.99,0,.26-.1.75-.1.99,0Z"/>
  <path class="cls-185" d="M47.83,25.88c.07,0,.16.06.2.06v.12c-.17.02-.34,0-.33-.18.04-.04.08-.03.13,0Z"/>
  <path class="cls-185" d="M46.89,24.77c-.04.16-.25.14-.33.18.02-.3.26-.18.33-.18Z"/>
  <path class="cls-30" d="M46.36,25.45c-.1-.12-.12-.25,0-.37v.37Z"/>
  <path class="cls-30" d="M47.81,25.88s-.09,0-.13,0c-.07,0-.17.02-.2-.06.1.01.27-.04.33.06Z"/>
  <path class="cls-58" d="M51.05,42.82c-.05-.14.16-.16.19-.08.02.04,0,.8-.02.84,0,0,0-.17.09-.08.09-.09.16-.07.26,0-.01-.12.01-.2.07-.25.2.03.37.1.53.18.15.2.45.48.66.62.15.29.22.62.2.99.09.09.12.37,0,.43h-.11c.02.1.04.37-.03.55.01.18-.09.22-.2.06-.09.07-.34-.26-.32-.24.19.14.25.28.19.43l.02.09c-.08.07-1.01.78-1.07.73-.04-.03-.04-.09-.04-.14,0,.03,0,.06-.02.08-.04.04-1.15-.04-1.24-.08-.04.07-.16.11-.36.12.48-.08,1.04-.09,1.54-.06.02,0,.03.03.04.06.16.18-.09.24-.26.25-.09.11-.07.13.07.06.27-.24.6-.53.99-.71l.14.1c.15,0,.25.95.24.91-.08-.32-.15-.78-.11-1.09-.09-.15.31-.45.46-.31.16,0,.22-.04.2-.12,0-.19.38-.24.46-.06.11.04.32.07.26-.06-.18.06-.44.07-.3-.14-.39.22-.63.17-.45-.27-.05-.26-.08-.55-.04-.82-.12-.19-.19-.47-.13-.68.16.1.53.2.63.31.13.14.07.4.16.47.07.05.22-.06.35-.03.07.02.45.36.6.44.26.14.66.2.89.34.15.09.16.31.41.27.06.01.06.03,0,.06.05.22.06.45.03.67.14.32-.14.84-.49.99.09.04.07.08-.07.12.04.13-.04.25-.26.37.02.15,0,.16-.13.06-.18.36-.75.8-1.19.62l-.06.13c-.47-.03-.86.07-1.17.31h-.16s-.15.13-.15.13c-.54-.04-1.08-.06-1.62-.06-.15.1-.29.11-.41.05l-.04.14c-.35.07-.69.17-1.02.3l-.13-.07c-.16-.15-.88.01-.99-.13-.07-.1.43-.92.52-1.1s.08-.22.13-.37c.1-1.11.28-2.33.85-3.32l.2-.07c.16-.21.37-.4.53-.62.12-.08.22-.18.3-.31h.1c.22-.16.31-.43.26-.8-.11-.02-.09-.16,0-.18Z"/>
  <path class="cls-79" d="M50.32,49.35c.6.03,1.04.77.92,1.32l.07.04c.11-.24.63-.39.79-.18.21,0,.35.03.4.12.34.14.5.31.46.49.18-.03.18,0,.07.12.52.18.3.85.12,1.23-.07.42-.22.89-.45,1.23l-.76.92c-.16.19-.33.25-.49.19-.06.03-.31.18-.33.18-.19.05-.47.02-.71.11-.35.13-.58.55-1.01.29-.23-.14-.95-1.76-1.06-2.09-.35-.99-.56-1.96.08-2.89.09-.13.59-.64.72-.72.27-.17.86-.28,1.19-.37Z"/>
  <path class="cls-123" d="M57.64,20.34v19.77c-.45-.61-1.01-1.03-1.85-.92l-.06-.17.81-1.26c.3-.5.51-1.05.42-1.62l-.93-.05c-.67-.25-1.26-.45-2-.4l-.09-.13c.03-.21.2-.39.5-.53.8-.35,1.43-.65,1.93-1.33.67-.91.36-1.88-.97-1.49-.13-.24-.28-.47-.44-.7l.05-.13c-.29.03-.34-.17-.14-.61,0-.51-.31-.98-.59-1.41l.06-.14c-.16-.64-.37-1.27-.63-1.88-.02-.13.08-.17.21-.19,1.08.49,2.46.38,2.05-1.05-.48-.37-.94-.76-1.37-1.17l.07-.15c.17-.2.81-.11,1.1-.06.39.06.62.17.95.34-.36-1.65-1.56-3.7-3.46-4.09l-.12-.13c-.23.08-.62.2-.79,0-.04.12-.09.12-.13,0-.28.14-.58.14-.93,0-.01.05-.03.05-.07,0l-.08.08c-.89-.09-1.75-.01-2.57.22l-.2-.06c.02-.13-.03-.71,0-.74h9.26Z"/>
  <path class="cls-122" d="M52.77,35.73c-.04-.25.63-.44.46-.06.14.16.33.1.59-.18l.14.05c.32.03.78.01,1.09.07.35.06.73.3,1.08.35.21.03.9-.04.98.07.22,1.26-.75,2.11-1.29,3.15-.35.06-1.55,1.15-1.78,1.02-.03-.02-.09-.11-.13-.16-.11-.02-.21-.15-.2-.25-.24-.19-.5-.53-.6-.8.03,0,.4-.11.46-.12.3.19.57.44.79.74.1.07.1.05,0-.06-.26-.21-.54-.48-.73-.74.03-.03.15-.25.23-.31.05-.04.1-.06.17-.06.05-.03.04-.08,0-.12,0-.15.06-.25.07-.31.05-.03.05-.08,0-.12,0-.08,0-.16,0-.25.2-.08.4-.19.59-.35.23.09.51-.1.65-.28.26.03.5-.12.65-.3l.15.07v-.06c-.19.03-.29.1-.31.22-.28.03-.62.14-.77.35l-.44.07c-.18.21-.36.27-.53.16,0-.11-.06-.33-.07-.49-.1-.05-.08-.18,0-.25.04-.19.02-.29-.07-.31.03.06.06.13,0,.18l-.13.18c-.01-.2-.21-.33-.3-.5-.04-.08-.03-.23-.04-.24,0,0-.11.07-.2.03-.05-.02-.4-.32-.53-.4Z"/>
  <path class="cls-68" d="M57.73,57.97c-.19,0-.21-.08-.07-.18l-.11-.4v-4.25c-.44.04-1.16-.27-1.32-.67l-.12-.18c.01-.72-.17-1.44-.55-2.06l.02-.21c-.03-.19.04-.42.17-.58.03-.25-.34-.9-.5-1.11.04-.09.04-.16,0-.21-.06-.22.19-.27.26-.37.27-.1.3-.14.07-.12.4-.55.54-.97.46-1.65.12-.05.17-.03.19.09v.54c.21.05.38.1.53.25l.79,1.52v-4.07l.11-.75s.01-.1.07-.12v14.54Z"/>
  <path class="cls-24" d="M57.64,43.56v5.36s-1-1.93-1-1.93c-.04-.2-.55-.27-.58-.29-.03-.04,0-.47,0-.58,0-.08-.07-.14-.07-.15,0-.02,0-.04,0-.06.03-.34,1.09-1.13,1.31-1.46.19-.28.18-.58.34-.88Z"/>
  <path class="cls-72" d="M54.89,41.77c.16.01.34-.04.53-.15v.14c.16-.07.19.01.07.13.04.04.1.04.2,0,.22-.02.83-.1.99-.18.13-.06.18-.01.2.12.12.02.41-.01.46.12-.54-.04-1.05-.1-1.59.03-.44.1-.19.23-.19.34.13.08.17.17.01.15v.22c.03.09-.01.13.12.18.15.1.11.12-.07.12-.04.22,0,.24.2.31.09.06.06.08-.07.06-.09.1-.04.66.2.62-.09.1-.18.21-.26.31-.03-.15-.03-.43-.2-.37-.04-.02-.04-.04,0-.06.05-.24-.05-.49-.13-.74-.18-.04-.23-.1-.13-.18-.09-.21.06-.32-.26-.43-.13.05-.15.05-.07-.06.2-.12.07-.13,0-.31-.18-.04-.16-.06,0-.12-.09-.19-.28-.17-.46-.18.05-.06.1-.12.13-.18-.05-.05-.08-.14-.13-.18-.13-.14-.05-.23.13-.18.07.28.06.31.33.49Z"/>
  <path class="cls-57" d="M50.87,42.26c.07.2.01.21.2.25.02-.05.04-.05.07,0,.02-.05.04-.05.07,0,.02-.12.07-.11.13,0,.13-.05.26-.05.4,0,0,.02,0,.04,0,.06l.07.18-.26.04c-.03.13-.08.15-.14.08l-.07.04.12.48-.11.09c-.07,0-.03.15-.13.12v-.76c0-.07-.1-.02-.13-.04l-.1.08c0-.12-.08-.12-.17-.08-.03.02-.05.04-.07.06l-.08.03c-.11-.16-.33-.19-.65-.09-.02,0-.04,0-.07,0-.16.13-.25.12-.25-.01l-.22-.05c-.14,0-.33-.02-.46,0-.16-.09-.1-.12.07-.12.07,0,.13,0,.2,0-.04-.15,0-.15.13-.06.23,0,.49.02.73,0-.01-.11.05-.14.2-.06.13-.01.27.01.4,0,.03-.02-.07-.1-.07-.12-.09-.13-.07-.19.06-.11,0-.11.06-.1.14-.01Z"/>
  <path class="cls-156" d="M52.97,39c.27.21.51.56.66.86.11.03.2.14.2.25,0,.04.1.15.07.18-.03.03-.54.08-.62.07-.07-.01-.03-.18-.07-.25-.03-.06-.09-.1-.1-.12-.13-.02-.14-.14-.13-.25-.1,0-.11-.11-.07-.18-.11-.21-.22-.41-.33-.62.13-.05.31.06.4.06Z"/>
  <path class="cls-2" d="M56.27,40.23c-.12.2-.97,1.42-.86,1.54.5-.2.8-.6,1.19-.92.09-.08.13-.05.07.06-.33.39-.71.68-1.12.99-.02.05-.04.05-.07,0,0-.01-.12-.18-.13-.18-.13-.08-.14.17-.31.17-.13,0-.12-.09-.15-.11l-.13-.55c.13-.14.33.51.33.55.13-.06.06-.37.07-.49.16-.11.14.18.11.3h.08c.04-.06.06-.23.12-.34.18-.32.49-.79.74-1.07.09-.08.13-.05.07.06Z"/>
  <path class="cls-133" d="M55.94,43.99c.23,0,.88.26.99.49l-1.12-.37c-.2.48.47.44.59.71s-.46-.22-.53-.15c0,.18.06.34.07.52,0,.07.04.23-.07.22-.1-.36-.12-.74-.2-1.11.07-.11.07-.31.26-.31Z"/>
  <path class="cls-51" d="M54.89,42.02s-.01.09,0,.12c-.77.22-1.81.23-2.41.74-.21.01-.06-.15.03-.22l-.2-.06,2.58-.59Z"/>
  <path class="cls-188" d="M54.03,41.71s.02.05-.07.06c-.4,0-.83-.12-1.22-.06-.28.04-.51.32-.83.24l.59-.25-.53-.18c.45,0,.91.03,1.35.06.22.02.5.1.69.12Z"/>
  <path class="cls-2" d="M54.95,42.51l-1.92.99c0-.16.25-.28.38-.36.47-.3,1.04-.42,1.48-.69,0,.06.03.05.07.06Z"/>
  <path class="cls-206" d="M54.56,41.28l-.13.18c-.24-.23-.53-.46-.79-.68-.09-.09-.05-.12.07-.06.26.17.49.35.73.55-.02-.23-.11-.48-.13-.71,0-.07-.05-.23.06-.21.12.3.13.62.2.92Z"/>
  <path class="cls-108" d="M51.71,42.57l.46.86c-.33-.01-.4.11-.53-.18-.04.01-.07.02-.07.02-.13-.29-.23-.51.2-.51-.03-.06-.04-.12-.07-.18Z"/>
  <path class="cls-206" d="M55.22,42.94s.08.03.13.18c-.12-.1-.15,0-.23.06-.44.35-.69.85-1.09,1.23.19-.59.72-1.07,1.19-1.48Z"/>
  <path class="cls-2" d="M55.55,42.32l1.79.71c-.59-.03-1.14-.42-1.72-.56l-.07.22c-.11-.26-.01-.2,0-.37Z"/>
  <path class="cls-127" d="M55.81,43.31c.53.17,1.06.24,1.39.74l-.9-.48-.55-.19s.05-.04.07-.06Z"/>
  <path class="cls-11" d="M55.35,41.59c-.04.06-.02.08-.13.06-.03-.03.06-.33-.07-.37,0-.3-.01-.6,0-.89,0-.07-.05-.23.07-.21l.13,1.42Z"/>
  <path class="cls-131" d="M51.65,42.45c-.1.02-.21.04-.33.06-.04,0-.09,0-.13,0-.06-.15-.05-.4,0-.55.13.1.37.36.46.49Z"/>
  <path class="cls-95" d="M55.48,43.93c-.07.17-.32.5-.45.66-.02.03-.11.19-.15.11.09-.33.29-.64.6-.83,0,.02,0,.05,0,.06Z"/>
  <path class="cls-86" d="M52.97,44.11c.05.23.1.45.13.68,0,.1-.03.18-.07.25l-.2-.99s.09.04.13.06Z"/>
  <path class="cls-96" d="M51.12,41.89c.06.19.05.43,0,.62-.02,0-.05,0-.07,0-.07-.28-.14-.67,0-.92,0,.09.06.2.07.31Z"/>
  <path class="cls-73" d="M56.67,41.71c.16-.08.4-.45.66-.43-.04.22-.6.32-.46.55-.11-.02-.14,0-.2-.12Z"/>
  <path class="cls-95" d="M55.68,42.88c.07.03.23.03.35.08.09.03.3.08.31.17l-.73-.12s.05-.08.07-.12Z"/>
  <path class="cls-206" d="M54.56,41.65s.14.05.13.12l-.26.06c-.08,0-.22.04-.26-.06.02-.03.06-.05.13-.06.09,0,.22.03.26-.06Z"/>
  <path class="cls-45" d="M51.21,41.96v.55s-.04,0-.07,0c-.01-.2.02-.41,0-.62.02.02.04.04.07.06Z"/>
  <path class="cls-101" d="M53.1,39.98l-.03.12c-.08-.07-.13-.16-.17-.25-.02-.09,0-.13.07-.12.04.08.09.16.13.25Z"/>
  <path class="cls-17" d="M53.89,40.05s-.07.06-.07.06c-.06-.08-.13-.16-.2-.25-.07-.09-.04-.12.07-.06.06.07.14.18.2.25Z"/>
  <path class="cls-144" d="M56.61,40.85c.08-.06.11-.22.26-.18.02.02-.16.2-.2.25l-.07-.06Z"/>
  <path class="cls-6" d="M56.27,40.23l-.07-.06c.06-.06.1-.17.2-.18.04.12-.08.17-.13.25Z"/>
  <path class="cls-45" d="M51.65,42.45s.05.04.07.06c-.13,0-.26,0-.4,0,.06-.1.22-.06.33-.06Z"/>
  <path class="cls-214" d="M53.7,40.72l-.07.06c-.1-.08-.26-.17-.03-.18.05.02.07.11.1.12Z"/>
  <path class="cls-72" d="M54.29,41.71c-.02.06-.08.06-.13.06-.06,0-.13,0-.2,0l.07-.06c.08,0,.18,0,.26,0Z"/>
  <path class="cls-165" d="M55.55,41.93s.09,0,.13,0l-.26.12c-.02-.06.07-.11.07-.12h.07Z"/>
  <path class="cls-9" d="M57.66,57.79s.06.16.07.18c.18.61.08,2.1.07,2.81,0,.12-.07.24-.07.27-.01.07-.03.14-.07.18-.01.46-.15.84-.42,1.13-.44.36-.8.75-1.09,1.19l-.14.02c-.15.12-.34.04-.58-.23l-.96-.39-.25-.37c-.06-.16-.14-.33-.2-.49.24-.54.74-1,1.19-1.42l.13.06.14.03c.06.06.13.66-.01.71,0,.07.05.11.13.12.12.04.15.14.07.31.16.24.21.53.13.86.08.13.08-.14.07-.25-.08-.22-.19-.58-.07-.8.02-.04.04-.04.07,0,.05,0,.07-.02.07-.06-.2.11-.38.02-.2-.12l-.07-.43c-.06-.02-.06-.04,0-.06.03-.03.05-.06.07-.05.41.1.99.31,1.25.61.06.01.09,0,.07-.06-.41-.23-.85-.41-1.32-.54v-.07c-.19.08-.27-.05-.14-.18.04-.05.1-.12.2-.18-.22.04-.43.05-.26-.18-.06-.14-.04-.26.07-.37-.22.15-.37-.16-.22-.3.04-.03.39-.11.49-.07.02-.03.04-.06.06-.06,1.27-.3.44.07-.04,0-.05,0-.11-.04-.16-.07-.09.07-.13.04-.07-.06v-.08c-.19.18-.32.13-.4-.17-.04,0-.07-.01-.07-.02-.03-.26-.03-.88,0-1.14,0-.02.03-.03.07-.04-.06,0-.1-.07-.13-.22.07.44.1.9.07,1.37.12.08.08.19-.07.23l-.14.02c0-.11-.08-.3-.19-.26.06.14.03.18-.07.12-.19.04-.33-.22-.2-.37-.09.04-.16-.51-.16-.48.11.27.09.49-.04.67.14-.11.35.21.26.31-.07.08-.18.05-.26,0-.41.01-.81-.03-1.19-.12-.07,0-.16.03-.21-.04-.18-.41-.3-.84-.46-1.26,0-.17.18-.39.33-.49l.08-.02c.06.14.12.19.19.15.13-.03.21.06.26.26.36.06.52.04.47-.07-.05-.09-.03-.13.07-.06.28.01.46-.08.72-.25.14-.16.88-.71,1.06-.7.06,0,.1.05.14.09.16-.23.46-.17.7-.11.51.12,1.11.51,1.15,1.03Z"/>
  <path class="cls-68" d="M57.73,61.05c-.03,3.6.02,7.21,0,10.81-.06.1-.12-.12-.13-.15-.01-.32-.03-.65-.06-.99-.11.08-.19.06-.27-.06-.11-.29-.22-.57-.33-.86l-.04-.28c-.21-.4-.35-.81-.43-1.24l-.19-.26c-.13-.35-.27-.7-.4-1.05.08,0,.06-.04-.07-.12-.05-.12-.09-.25-.13-.37,0-.08-.02-.14-.07-.18-.05-.12-.09-.25-.13-.37.03-.04,0-.08-.07-.12-.03-.09-.04-.18-.07-.25-.02-.1,0-.14.07-.12.13-.05.2-.11.2-.18l-.05-.15c.24-.41.34-.86.31-1.36l.14-.09c.21,0,.27.19.18.58.24.1.43.19.62.38l.74,1.48-.05-4.03c.04-.27.09-.55.16-.81,0-.07,0-.13.07-.18Z"/>
  <path class="cls-25" d="M54.16,55.57c-.07,0-.07.03,0,.12,0,.11-.04.19-.13.25.12.12.12.14-.07.12.14.15-.15.46-.33.37.06.16,0,.17-.13.06.05.18-.25.24-.4.18-.02.05-.07.05-.13,0-.15.07-.17.2-.04.38l-.09.11c.05.15.05.25,0,.31.01.21-.14.39-.33.49-.12-.32-.25-.65-.38-.97-.03-.07-.13-.22-.02-.26l.05-.03c-.11-.08-.17-.17-.18-.28-.11-.15-.16-.31-.26-.46l.13-.03s.01-.07-.07-.12c.02-.04.05-.08.07-.12.48-.12.85-.41,1.13-.86l.13-.07c0-.07.04-.14.13-.18h.17c.24.16,1.01.73.76.99Z"/>
  <path class="cls-92" d="M56.01,63.58c.06.01.06.04,0,.06-.08.69.06.94-.4,1.6.07.05,0,.11-.2.18-.03.03-.04.09-.07.12-.37-.99-.76-1.97-1.12-2.96.33.4.93.45,1.3.66.17.09.22.3.48.32Z"/>
  <path class="cls-140" d="M52.7,53.72c.15.02.52.57.58.72l-.05.14c-.03.07-.12.12-.2.12-.32.64-.79.95-1.39.92-.06-.05-.06-.05-.07-.12.62-.79.62-.83,0-.12-.23-.14-.07-.37-.13-.55.53-.29.69-.62,1.04-1.03.07-.09.07-.19.21-.08Z"/>
  <path class="cls-9" d="M55.08,60.19c.21-.02.31.34.13.43l.04.06c-.47.37-.87.8-1.21,1.3h-.08c-.14-.39-.26-.79-.4-1.18,0-.04-.01-.07,0-.07.35-.18,1.07-.47,1.45-.59.02,0,.04.02.07.05Z"/>
  <path class="cls-18" d="M54.89,59.82c.19-.05.26.1.13.25,0,.04.01.07,0,.07-.23.15-1.15.48-1.45.59-.01,0-.04-.02-.07-.05-.07-.18-.13-.37-.2-.55,0-.04,0-.07.02-.07.37-.11,1.12-.25,1.51-.29.02,0,.04.02.06.06Z"/>
  <path class="cls-18" d="M54.03,59.45c.1-.04.24-.06.33,0,.1.04.21.06.33.06.16-.11.41.16.13.18,0,.04,0,.07-.02.07-.47.11-1.04.22-1.51.29-.02,0-.04-.02-.06-.06-.07-.19-.23-.52-.13-.68.34-.03.65.01.93.12Z"/>
  <path class="cls-35" d="M53.1,54.77c-.19.23-.38.46-.6.68.23,0,.44-.12.66-.16.07-.01.22-.08.2.03-.45.12-1.05.39-1.52.37-.11,0-.11.01-.2-.06.67-.03.96-.54,1.39-.92.09-.08.13-.05.07.06Z"/>
  <path class="cls-42" d="M55.35,60.74c-.19-.05-.17.04-.24.11-.42.4-.73.79-1.08,1.24-.02-.04-.05-.08-.07-.12l.69-.86.56-.49c.15-.1.21-.03.13.12Z"/>
  <path class="cls-62" d="M51.58,55.51s0-.09,0-.12c.02-.07.72-1.02.83-1.17.02-.02.13-.18.16-.1-.2.52-.58,1-.99,1.39Z"/>
  <path class="cls-197" d="M55.02,60.06c.13-.04.15.02.07.12l-1.52.62s-.05-.08-.07-.12l1.52-.62Z"/>
  <path class="cls-119" d="M54.82,59.7c.13-.02.16.03.07.12l-1.59.31s-.05-.08-.07-.12l1.59-.31Z"/>
  <path class="cls-7" d="M55.41,65.79c.5.05,1.08.12,1.45.46l-.79-.25-.6-.09s-.05-.07-.07-.12Z"/>
  <path class="cls-35" d="M51.78,55.81l1.39.12c.02.11-.15.06-.23.06-.3.01-.81.03-1.09-.06-.03,0-.07-.08-.13-.06-.03-.04.06-.06.07-.06Z"/>
  <path class="cls-172" d="M54.36,59.39c-.1.02-.21.04-.33.06-.31-.04-.66-.05-.93-.12.01-.02.06-.03.07-.06.38.02.82.03,1.19.12Z"/>
  <path class="cls-107" d="M51.98,56.43c.14.2.47.4.43.62-.12-.09-.21-.2-.3-.31-.08-.1-.25-.22-.13-.31Z"/>
  <path class="cls-68" d="M51.84,28.03c.12-.12.15-.1.13.06.07-.07.2-.09.4-.06.06,0,.08.04.07.12.15-.04.3-.06.46-.06.09,0,.15.06.2.18.16-.13.26-.03.33.12.04-.08.06-.19.08-.31.18.17.33.37.45.62.21-.04.34.13.4.49.28.38.66,1.05.66,1.51,0,.18-.15.41-.13.54,0,.05.1.07.14.1-.15.21-.26.44-.32.7l-.15.04c.09.05.11.1,0,.12.07.23.04.37-.08.42.09.17.05.28-.12.32.06.02.06.04,0,.06.19.11.01.41-.2.43.03.03,0,.05-.07.06.1.09.04.17-.2.25.01.17-.1.31-.33.43.07.06.03.09-.07.06.07.1.02.22-.13.38,0,.15-.04.25-.13.3l-.15-.02c-.21.22-.41.45-.58.7-.34,0-.5.59-.65.85-.05.1-.18.14-.21.2-.02.16-.08.16-.13,0,0,0-.1-.04-.13-.15-.19-.73-.18-.86-.6-1.51-.23-.11-.42-.29-.58-.52-1.7-1.29-2.44-3.44-1.07-5.19.29-.37.78-.95,1.25-1-.1-.2.5-.57.69-.59.23-.03.77.11.77.34Z"/>
  <path class="cls-123" d="M48.78,25.94c.33-.07.52.08.58.45.38.29.44.6.48,1.02.11.28.3.52.58.73l-.06.13c-1.43,1.06-2.3,2.4-1.66,4.16.43,1.16,1.44,1.59,2.05,2.55l-2.38-.25v-8.81c.13.01.27-.02.4,0Z"/>
  <path class="cls-123" d="M50.37,40.05l-.55.38c-.53.23-1.03.38-1.43.79l.07-3.7c.42.96.92,1.95,1.92,2.53Z"/>
  <path class="cls-124" d="M51.12,37.69c.12-.08.19,0,.2.25.02,0,.12-.05.13-.06.08.02.17.04.26.06.23-.04.4-.04.6-.18.11-.07.15-.07.13.06.08,0,.41-.09.53-.12.11-.02.16,0,.13.06-.44.15-.93.22-1.39.31l.64.18h.69c-.03.12-.34.13-.43.13-.3,0-.74-.1-1.03-.19-.06.08.2.42.26.49.13.13-.09.23-.2.12-.06-.12-.11-.34-.2-.43-.16.28-.35.37-.26,0,.02-.05.11-.22.03-.25-.44.16-.67.48-1.03.74-.09.08-.13.05-.07-.06.08-.07.48-.35.4-.43l-1.06.09c.22-.2,1.68-.14,1.65-.48-.05-.49-1.13-.19-1.54-.23-.16-.02-.37-.08-.52-.13-.07-.02-.2-.02-.18-.11.65.13,1.26.16,1.92.06-.04-.11-.04-.12.07-.06,0-.1.07-.17.07-.06-.02-.24.02-.39.13-.43.02.24-.05.43.07.68Z"/>
  <path class="cls-48" d="M50.79,37.58c-.05-.11-.36-.52-.44-.54-.17-.05-.55,0-.77-.02-.36-.04-.63-.15-.97-.24-.02-.11.16-.07.23-.06.44.07.88.3,1.36.15-.14-.09-.34-.38-.46-.43-.3-.13-1,.06-1.32-.37.24-.03.47.18.7.21.14.02.29,0,.43,0-.22-.29-.54-.5-.79-.77-.11-.12-.29-.31-.33-.46l.83.74c.05-.15-.1-.34-.14-.49-.02-.06-.09-.2.04-.19.24.56.33,1.05.89,1.42.14.03.1-.06.1-.15,0-.12-.07-.4-.11-.51-.09-.23-.36-.42-.32-.63.04.03.13.15.17.12.02-.02-.05-.15.07-.12.08.23.18.44.23.67.06.25.05.62.11.82.06.19.5.5.58.72.06.02.06.04,0,.06-.02,0-.05.06-.07.06Z"/>
  <path class="cls-196" d="M54.09,37.52c.79-.1.42-.78.66-1.29.12-.01.07.21.06.28-.02.24-.07.54-.13.77.03.02.47-.15.5-.18.1-.13.03-.71.26-.86l-.1.74c.51.02.48-.35.76-.62l-.1.34.13.03c.06.02.06.04,0,.06-.09.05-.23.07-.26.18.15.03.45.05.53.18-.24.11-.56-.16-.69-.16-.11,0-.51.24-.63.32l.86.34c-.54.1-1.04-.53-1.45-.09,0,.1.92.32.99.52-.48-.03-.91-.5-1.39-.43,0-.04,0-.08,0-.12Z"/>
  <path class="cls-65" d="M53.23,34.93c.27.04.32.73,0,.74,0-.04.02-.13-.03-.12l-.43.19c-.08-.05-.18-.08-.26-.12-.03-.02-.14-.07-.13-.09l.79-.89c-.05.13.05.23.07.31Z"/>
  <path class="cls-161" d="M51.45,38.38c-.15.46.02.96-.23,1.42-.18.02-.07-.09-.05-.17.05-.35.13-.69.09-1.06l-.43.67-.23.16c.14-.36.43-.67.6-1.02-.02.23.18.17.13-.06.12-.03.1.03.13.06Z"/>
  <path class="cls-62" d="M51.45,37.89c.43-.44.73-1.12,1.19-1.54-.17.56-.65.99-.98,1.46-.07.1-.15.16.05.14-.1.02-.15.17-.26-.06Z"/>
  <path class="cls-80" d="M51.84,38.69c.14.16.42.3.53.52.03.16-.11.06-.15.02-.14-.11-.2-.28-.37-.36l.33.8c-.29-.19-.39-.57-.53-.86l.2-.12Z"/>
  <path class="cls-177" d="M51.05,37.03c-.15.08-.01.41-.08.49-.02.03-.1,0-.12,0v-.06c.17-.64-.09-1.36,0-2.03.11,0,.12.26.13.34.04.41.03.85.07,1.26Z"/>
  <path class="cls-155" d="M54.09,37.89c.48.22,1.07.46,1.45.8l-1.45-.68s0-.08,0-.12Z"/>
  <path class="cls-62" d="M51.65,36.68s.05.04.02.11c-.17.37-.35.78-.35,1.19,0-.08-.18-.2-.2-.25.1-.16.43-.93.4-1.05h.13Z"/>
  <path class="cls-161" d="M52.44,37.83s-.09-.05-.13-.06c.29-.22.58-.67.93-.86-.12.39-.56.6-.79.92Z"/>
  <path class="cls-149" d="M54.03,38.32c.34.2.68.44.93.74-.27-.11-.75-.41-.93-.62-.08-.09,0-.12,0-.12Z"/>
  <path class="cls-171" d="M53.1,39c.24.24.4.55.6.8l-.07.06c-.23-.28-.47-.56-.66-.86.02,0,.13,0,.13,0Z"/>
  <path class="cls-12" d="M54.38,39.55v.06c-.29-.22-.56-.47-.79-.74,0,0,.05-.05.07-.06.32.18.5.49.73.74Z"/>
  <path class="cls-184" d="M54.03,36.78c0,.08,0,.16,0,.25-.21.06-.08-.18-.07-.37,0-.06,0-.13,0-.18.08.02.11.12.07.31Z"/>
  <path class="cls-118" d="M52.97,37.71c.14-.03.3-.13.46-.12-.04.14-.21.14-.33.18l-.13-.06Z"/>
  <path class="cls-139" d="M50.19,38.88c-.09.07-.16.22-.33.18.04-.12.18-.17.26-.25l.07.06Z"/>
  <path class="cls-146" d="M52.97,39.74c0,.06-.04.09-.07.12-.04-.1-.14-.24,0-.31.03.06.04.14.07.18Z"/>
  <path class="cls-123" d="M49.86,44.73c-.73.96-.66,2.3-1.06,3.39-.02-.34-.45-.94-.46-1.23,0-.01.07-.1.07-.21-.02-1,0-2,0-2.99.36.36.88.51,1.28.81.09.07.18.1.18.24Z"/>
  <path class="cls-112" d="M48.38,46.76c-.12-.24-.3-.61-.33-.86-.1-.74.07-1.64,0-2.4.1.05.32.02.33.22,0,1.02,0,2.03,0,3.05Z"/>
  <path class="cls-205" d="M50.85,42.24c-.06.03-.19.05-.2.12-.28-.16-.48-.59-.77-.73-.24-.11-.51,0-.62-.19h.33c-.05-.06-.14-.2-.2-.25h.07c.55.29.83.64,1.25,1.04-.05-.37-.24-.71-.4-1.04-.04-.12-.02-.17.07-.12.26.45.3.71.46,1.17Z"/>
  <path class="cls-143" d="M49.07,42.63l-.07.12c-.38.04-.38.41-.79.49l.4-.49h-1.06c0-.09.24-.11.31-.12.23-.02.46,0,.69,0l-.66-.43c.53.01.67.42,1.19.43Z"/>
  <path class="cls-111" d="M49.99,42.82c.16-.1.63-.14.73.06-.32.42-.46.97-1.06,1.17.01-.22.28-.29.42-.44.1-.11.46-.6.5-.71.05-.16-.47-.08-.59-.09Z"/>
  <path class="cls-22" d="M48.87,41.59c.51.23,1.01.59,1.45.92-.05,0-.12.06-.2.06-.39-.39-.92-.67-1.39-.99,0-.04.05-.04.13,0Z"/>
  <path class="cls-178" d="M49.93,42.82c-.35.41-.77.84-1.39.8.1-.14.36-.14.52-.22.27-.13.45-.36.67-.55l-.26-.09c.19,0,.33.05.46.06Z"/>
  <path class="cls-111" d="M51.05,42.82c0,.06-.01.13,0,.18.05.37-.04.64-.26.8-.07.12-.26.26-.36.37l-.03-.06c.22-.32.45-.71.51-1.09.02-.12.08-.23-.12-.2.14-.1.12-.05.26,0Z"/>
  <path class="cls-111" d="M49.4,42.57s-.1.06-.13.06l-.93-.68c.42.04.76.36,1.06.62Z"/>
  <path class="cls-160" d="M50.39,41.09l-.07.12c-.07-.16-.22-.3-.2-.49.12.06.2.26.26.37Z"/>
  <path class="cls-198" d="M48.87,41.61h-.13s-.27-.04-.16-.12c.12,0,.21.08.3.12Z"/>
  <path class="cls-176" d="M49.46,41.2h-.07s-.27-.04-.16-.12c.11-.02.16.09.23.12Z"/>
  <path class="cls-182" d="M51.26,20.79c.32.24-.07.28-.37.19-.4.04-.78.04-1.15,0-.15.03-.08.07.2.12.27-.14.91-.17,1.24-.08.01,0,.01.04.01.08-.68.17-.65.19.07.06.09-.2.38-.15.4.06l-.04.1c-.64.32-1.22.72-1.74,1.19-.16.2-.14.22.07.06.17-.34,1.46-1.32,1.84-1.27.05,0,.1.02.15.04.01-.06.04-.05.07,0,.03.1.12.16.26.18.15-.09.2-.02.13.12-.21.35-.19.37.07.06.06-.17.2-.11.2.06.05.06.11.1.2.12.18-.02.47.18.46.37.14,0,.31.2.16.28.02.21.02.44-.03.64.05,0,.08.02.07.06,0-.27.04-.5.13-.68l.05-.05c.21.21.45.31.71.29,0-.03.01-.06.02-.06.34-.02.82-.03,1.14.06-.1-.03-.16-.07-.17-.12-.22.09-.72.09-1.01.07-.02,0-.03-.03-.04-.07-.03.44-.87-.3-.96-.49-.08.02-.19-.11-.15-.17l1.42.05.02-.07s-.01.07-.02.07c-.38.01-.81-.02-1.17-.07-.15.18-.75-.21-.68-.35.03-.06.42-.13.51-.08.58-.12.56-.14-.07-.06-.2.15-.75.24-.89-.06-.09-.19.05-.26.23-.25.02-.14.25-.26.4-.25-.06-.08,0-.14.2-.18,1.8.09,3.37,2.55,3.69,4.05.13.6-.4.15-.6.06-.39-.16-1.13-.16-1.57-.17l-.08.12h-1s-.11-.12-.11-.12c-.04.1-.08.12-.13.06-.49-.03-.98-.05-1.46-.05v.64s-.12.09-.12.09h-.07c0-.35-.09-.66-.39-.8l-.14.02c-.14-.3-.45-.45-.94-.44l-.11-.13.17-.12c-.6-.36-1.28-.89-1.62-1.48h-.15s-.12-.62-.12-.62c-.1-.27-.17-.45-.1-.75.01-.06.1-.11.1-.12.89-.37,1.89-.24,2.84-.25Z"/>
  <path class="cls-23" d="M50.13,24.15c.25,0,.82.1,1.02.24.03.02.11.22.17.31.09.05.28.19.32.26.06.1.15.95-.06.97-.2,0-.53-.14-.6-.31-.07-.14-.12-.16-.13-.06-.18.02-.41-.12-.53-.25-.14,0-.3-.09-.4-.18-.12-.08-.12-.06,0,.06.11.01.3.09.33.18.67.25,1.4.65,2.01,1,.17,0,.32,0,.37.17.15.18,0,.18-.2.12-.79.45-.77.47.07.06.22-.23.39.2.07.12-.04.17-.14.35-.3.53-.12.25-.26.47-.43.64-.16-.06-.55-.25-.68-.24-.26.02-.57.33-.78.48-.15-.23-.44-.36-.57-.61-.15-.28-.1-.56-.19-.81-.06-.17-.26-.26-.36-.41-.2-.31.02-.45-.47-.51l.33-.03c.04-.35-.16-.64-.27-.95-.15.03-.18-.03-.07-.12-.04-.14-.08-.28-.07-.43-.08-.06-.06-.08.07-.06.32.06.63-.09.86-.12,0-.13.12-.08.2,0,.08-.01.14-.06.26-.06Z"/>
  <path class="cls-54" d="M48.8,24.83s.05.07.07.12c-.22.24-.16.46-.13.74-.17-.32-.3-.03-.33-.06-.08-.16.34-.54.26-.62-.21-.18-.42.56-.59.4l.13-.28-1.19.12.53-.15c.13-.06.89-.12.93-.15.11-.09-.24-.24-.3-.25-.19-.02-.46.19-.69.12l.33-.12-.07-.18s.4.05.48.08c.25.09.35.36.58.23Z"/>
  <path class="cls-41" d="M49.66,24.22l-1.19-.37c.06-.18.54.05.59,0l-.26-.68c.3.09.3.6.41.72.12.14.64.1.64.32-.06,0-.14,0-.2,0Z"/>
  <path class="cls-39" d="M48.8,24.34s-.06.05-.07.06l-.93-.06.53-.06-.26-.25c.29-.02.46.26.73.31Z"/>
  <path class="cls-132" d="M48.65,22.55c-.07.06-.21.13-.26.18v-.8c.04.12.21.53.26.62Z"/>
  <path class="cls-173" d="M53.89,48.79c.36.02.81.23.93.55.02-.05.04-.05.07,0,.26-.12.6.31.6.55.06-.02.08.02.07.12.49.71.72,1.62.66,2.46.19.28.09.85-.13,1.11.15.07.12.28,0,.37v.11c-.11.17-.1.28-.07.45.18.02.17.07,0,.12-.08.07-.09-.04-.09-.03.06.03.13.14.02.16-.02.21-.11.34-.26.37.04.06.03.12,0,.18,0,.13-.26.26-.4.25.11.1.08.14-.07.12-.12.2-.36.2-.73,0-.07.11-.34-.01-.33-.12-.05-.05-.06-.2-.13-.28-.19-.21-.56-.42-.8-.71-.16-.2-.46-.63-.53-.86-.09-.3.22-.7.33-1.02.19-.54.33-.92,0-1.45-.04-.07.13-.26.19-.25.04,0,.5.54.52.58.02.04,0,.26-.1.22-.17.24-.31.49-.4.77l-.07.02c.11.21.11.76,0,.99.05-.02.09.03.13.15-.1-.3-.11-.82,0-1.08-.18-.1.35-.94.45-.93.03,0,.38.42.35.44.13.24.11.39-.07.46,0,.17.01.23.07.18-.01-.77.58.17.54.55-.38.32-.63.76-.74,1.29.04.04.08.02.13-.06-.14-.38.24-.88.51-1.19.03-.04.06-.09.07-.13.05-.19-.2-.68-.43-.77-.05-.29-.16-.56-.43-.69-.06-.23-.27-.6-.51-.7-.07-.11-.25-.5-.2-.58-.03-.09.36-.16.34-.15-.18.08-.32.09-.41.03-.04-.12-.08-.12-.11-.03l-.35.09c-.04.11-.17.13-.4.06-.26.05-.53.05-.79.18-.19-.16.04-.4.2-.53.38-.22.65-.51.81-.87l.18-.07c.36-.47.88-.34,1.39-.43Z"/>
  <path class="cls-88" d="M55.22,48.12c.45-.06,1.28.2,1.65.46-.04.08-.18,0-.24-.02-.47-.17-.67-.27-1.21-.29-.09,0-.09-.07-.07.06.02.08.06.19.14.24.34.23,1.29.26,1.58.74-.24,0-.46-.22-.7-.33-.17-.08-.54-.21-.72-.25-.1-.02-.11,0-.09.08.1.42.6.42.9.67.19.16.91,1.04.95,1.24.01.07.01.13-.07.06-.3-.27-.59-.9-.96-1.2-.17-.14-.37-.21-.56-.31-.04.05.44,1.02.5,1.1.25.35.76.5.95,1.08.04.12-.02.11-.1.03-.24-.24-.33-.68-.69-.8-.03.03.26.73.3.8.15.23.65.36.56.8-.19-.09-.15-.38-.36-.49l-.1.25c-.13-.25-.19-.61-.4-.8l.3,1.23c-.27-.36-.37-.84-.43-1.27-.02-.13.06-.25.05-.36-.03-.3-.5-1.04-.67-1.33l-.16.49s-.04-.09-.07-.12l-.1-.21c.18-.36.04-.65-.16-.97l-.18.62h-.16s-.05.02-.07.01c-.24-.18.02-.76.14-1.01.03-.06.08-.11.12-.16.04-.02.05-.05.13-.06Z"/>
  <path class="cls-123" d="M52.51,49.22c-.13.17-.18.42-.33.59-.24.26-.82.49-.86.89-.03.02-.05.13-.13.12-.02-.37-.07-.74-.3-1.04l-.56-.44c.17-.05.27-.16.49-.19.48-.05,1.16.15,1.69.06Z"/>
  <path class="cls-201" d="M53.1,44.79c.04.24.09.49.07.74l.33-.43-.33.8c.08.06.83-.4,1.02-.43.07-.01.14,0,.07.06-.12.12-.36.11-.43.25l.99-.06c.01.09-.18.1-.25.11-.3.04-.75-.04-.94.2.08.01.19-.02.26,0,.09.14-.14.11-.26.06-.14.01-.33.02-.46.06.05.18-.04.17-.2.12-.1.06-.39.24-.46.31,0,.16-.05.22-.13.18-1.09.21-.76,1.03-.99,1.79-.12.01-.06-.14-.06-.21.01-.15.17-.97.12-1.02-.08-.02-.14.05-.2.06-.12.08-.16.05-.07-.06.08-.06.2-.17.26-.21h-1.56v-.1c.1.05.28-.06.34-.06h1.26s.05.06.19,0c.06-.03.6-.45.57-.49-.44-.2-.92-.23-1.37-.35-.08-.02-.28-.05-.28-.14.58.06,1.18.17,1.7.42.11.02.21-.05.28-.12-.03-.19.01-.26.13-.18.02-.02.15-.02.2-.06.04-.18.05-.35.04-.53l.09-.02c.02-.13,0-.29,0-.43,0-.08-.03-.2.07-.25Z"/>
  <path class="cls-64" d="M54.82,49.35c-.29-.2-.62-.37-.93-.55.71-.12.72-.39,1.19-.62.07.39-.32.77-.26,1.17Z"/>
  <path class="cls-86" d="M53.03,45.47c-.02.13-.07.5-.13.55.09-.86-.82-1.25-1.39-1.72.69.17,1.1.68,1.52,1.17Z"/>
  <path class="cls-43" d="M51.25,47.38c-.42.32-.83.64-1.26.95-.2.14-.42.33-.65.41.54-.55,1.23-.96,1.85-1.42-.01.04.04.07.07.06Z"/>
  <path class="cls-134" d="M53.17,46.14c.48.54.75,1.14.66,1.85-.1,0-.1-.22-.11-.29-.09-.51-.16-1.19-.75-1.43.07-.04.1-.09.2-.12Z"/>
  <path class="cls-43" d="M52.7,46.08c-.06.05-.08.15-.13.18-.17-.63-1.06-.78-1.52-1.17.63.14,1.25.5,1.65.98Z"/>
  <path class="cls-189" d="M52.51,46.58c.05.56.27,1.09.2,1.66-.12-.02-.12-.12-.13-.21-.06-.42-.06-.85-.2-1.26.05-.06.08-.13.13-.18Z"/>
  <path class="cls-134" d="M53.89,46.02c.5.11.98.48.99.99-.29-.31-.39-.69-.86-.83-.13-.04-.31,0-.4-.09.08,0,.22.04.26-.06Z"/>
  <path class="cls-129" d="M50.79,43.8c.12-.21.15-.58.26-.8.06.23.17.53-.03.74-.02.02-.22.17-.23.06Z"/>
  <path class="cls-137" d="M55.55,47.62c.31-.08.67-.1.98-.02.12.03.17-.02.14.14-.41-.1-.78-.06-1.19,0,.02-.02.03-.08.07-.12Z"/>
  <path class="cls-129" d="M51.38,42.88c.15.06.23.44.2.62-.16.15-.22,0-.26,0l-.07-.68c.06-.02.11.06.13.06Z"/>
  <path class="cls-104" d="M51.78,42.76c0,.1-.18.05-.27.06-.02.01.11.37.13.43.01.1.02.16-.07.25l-.2-.62s.18-.23.4-.12Z"/>
  <path class="cls-52" d="M53.03,50.52c.09.19.59.96.73,1.02.07.03.3-.13.44-.15.35-.05.88-.02,1.15.21-.2.05-.41-.07-.63-.09-.33-.03-.59.02-.89.12-.02.03.12.28.15.29.04.02.72.08.81.08.33-.02.68-.29,1.03.03-.26.08-.57-.17-.79.06.14-.02.84.48.73.58-.5-.37-.92-.62-1.59-.62.09.87,1.36.85,1.39,1.79-.3-.37-.42-.82-.99-.92.32.66.39,1.44.46,2.15-.11-.03-.15-.27-.17-.37-.05-.2-.04-.42-.1-.62-.1-.02-.26.57-.4.43-.04-.04.56-.86.26-1.11-.38.29-.54.74-.59,1.17-.03.1-.05.16-.13.06-.04-.68.65-1.26.66-1.45,0-.13-.27-.52-.36-.65-.06.05-.08.17-.1.25-.06.03-.08-.03-.07-.18.08-.38,0-.51-.3-.8-.12,0-.43.72-.41.83v1.08c-.07.04-.15-.12-.18-.15v-.99c.02-.2.48-.83.48-.92,0-.06-.33-.52-.4-.56l-.2.15s-.06-.12-.07-.12c0-.19-.02-.27-.15-.43l.09-.13c-.05-.11.04-.15.13-.06Z"/>
  <path class="cls-67" d="M50.79,52.06s-.06.15-.06.22c.02.25.37.43.52.62.25.31.53.68.53,1.08-.24-.28-.33-.62-.57-.92-.06-.07-.8-.79-.61-.35.05.11.23.21.32.32.28.34.61.75.6,1.2l-.37-.67c-.07-.12-.5-.68-.59-.68-.07,0-.1.11-.07.19.11.36.82.88.7,1.41l-.63-1.1-.23-.07c-.09.04-.12.01-.07-.06l-.03-.31-1.36.4c.21-.13.49-.29.73-.37.42-.14.95-.01.92-.59-.6,0-1.16.25-1.75.31-.05-.12.35-.15.43-.19l-.4-.18c.51.05,1.25.08,1.74-.07.14-.05.11-.19.11-.3.15-.1.21-.02.13.12Z"/>
  <path class="cls-69" d="M50.26,53.23c.05,0,.05.03.07.06.02.04,0,.11.04.18.25.4.5.73.49,1.24-.19.03-.11-.04-.14-.14-.05-.15-.26-.95-.42-.96-.25-.01.18.64.2.73.04.17.04.33.03.5-.16.01-.11.02-.13-.09-.02-.12-.06-.76-.23-.77-.25-.01.16.7.1.8-.21.05-.16-.26-.2-.37l-.26.31.06-.37-.16.06c-.12-.16.35-.21.3-.49-.35.03-.49.37-.73.55-.01-.16.14-.36.26-.46.29-.25.65-.13.66-.64-.06-.07-1,.54-1.19.46.37-.26.8-.47,1.26-.59Z"/>
  <path class="cls-46" d="M50.72,51.17c.13.24.17.26.4.31.11-.05.14-.03.07.06,0,0-.07.04,0,.09.43.31,1.52.05,1.92.53l-1.19-.25c.2.25.63.29.79.55-.1.07-1.3-.68-1.57-.73-.37-.06-.22.11-.22.24.09.11.06.15-.07.06h-.07s-.12-.12-.13-.12c-.08-.02-.35,0-.46,0-.09.04-.26.04-.26-.06.25-.03.51-.03.76-.06.36-.04-.17-.2-.28-.23-.39-.09-.81-.09-1.2-.14l-.02-.07c.17-.01.31-.05.42-.12.01.03-.02.11,0,.12.04.03.93.01,1.09.19.11-.09-.1-.19-.17-.25-.12-.14.06-.25.2-.12Z"/>
  <path class="cls-115" d="M49.33,50.27c.4.24.73.55,1.12.8.03-.03-.27-.65-.3-.68-.11-.1-.37-.07-.43-.25l.33.06.07-.25.27.68c.13-.02.06-.28.07-.37.07-.13.11-.06.13.06.02.36-.06.51.13.86l-.2.12c-.4-.35-.86-.64-1.26-.99-.09-.09-.05-.12.07-.06Z"/>
  <path class="cls-75" d="M52.97,50.39c.29-.03.59-.31.91-.35.27-.04.54,0,.81-.01l-.91.17-.34.2c.44,0,1.06-.02,1.39.31-.38-.04-.85-.23-1.23-.25-.18,0-.37.05-.56.06-.04,0-.09.06-.13.06-.03.17-.29.18-.4.06-.04.01-.34-.06-.4-.12.15-.03.26-.04.4-.06.17-.19.25-.16.46-.06Z"/>
  <path class="cls-90" d="M51.12,51.5c.17-.13.42-.07.6-.21.19-.15.19-.64.46-.56l-.13.28.33-.12-.46.43.66-.18c.02.14-.54.25-.4.37.04.03.66.04.73.18-.58.01-1.15-.27-1.72-.12-.01-.06-.01-.05-.07-.06Z"/>
  <path class="cls-91" d="M50.92,52c.25.11.43.52.61.66.23.17.54.19.84.51.06.1.07.16-.07.12-.15-.13-.28-.35-.53-.37l.3.68-1.22-1.54c.05,0,.07-.02.07-.06Z"/>
  <path class="cls-27" d="M52.9,50.58c.08.25.34.29.07.55-.08-.1-.39-.34-.53-.37l.07-.12c.31-.1.18-.04.4-.06Z"/>
  <path class="cls-209" d="M49.6,51.26c-.07.19-.27.07-.4.18-.2-.02-.39-.08-.59-.06-.02-.11.15-.06.23-.06.21,0,.42,0,.63,0,.02-.41-.62-.39-.79-.68.42.1.78.21.93.62Z"/>
  <path class="cls-37" d="M49.93,51.87l.26.06s.01.05-.1.06c-.52.04-1.03.08-1.55.06l.5-.12c.3.02.59-.04.88-.07Z"/>
  <path class="cls-136" d="M50.46,50.27c0-.06,0-.12,0-.18.2-.04.12.09.13.25l-.13-.06Z"/>
  <path class="cls-19" d="M49.33,50.27l-.07.06c-.06-.05-.18-.09-.2-.18.13-.03.18.07.26.12Z"/>
  <path class="cls-102" d="M52.37,53.17c.07.08.16.13.13.25-.02.02-.16-.1-.2-.12l.07-.12Z"/>
  <path class="cls-23" d="M54.69,24.77c.21.48,1.44,1.01,1.52,1.45.07.39-.05.8-.36,1.08-.54.5-1.4.09-2.02-.06.27.63.58,1.27.53,1.97-.07-.1-.34-.44-.4-.49-.09-.09-.15-.2-.2-.34-.3-.3-.49-.61-.66-1.04-.14-.09-.16-.18-.07-.29-.19.03-.3-.39-.17-.45.05-.02.97.04,1.02.05.04,0,.25.1.28.15.12-.03.41-.03.4.12.13-.04.09-.1,0-.18-.02.14-.24.07-.33,0-.24.05-.65-.17-.2-.12.2-.16.59-.23.86-.25.06-.04.04-.06-.07-.06-.23.13-.59.2-.86.25-.09.1-.14.1-.13,0-.26.05-.52.05-.79,0-.16.2-.34-.1-.07-.06-.01-.06-.02-.11,0-.14.26-.36.59-.74.92-1.03,0-.05-.02-.07-.07-.06-.12.21-.77,1.08-.92,1.07-.19,0,.31-1.1.46-1.2-.03-.14.03-.27.13-.37.27-.05.88,0,1.19,0Z"/>
  <path class="cls-213" d="M55.02,31.36c.3.28.28.38.43.74,1.2-.47,1.75.52,1.18,1.47-.14.24-.89.99-1.13,1.1-.86.39-.76.25-1.54.88-.08.06-.46.35-.51.36-.08,0-.21-.05-.26-.11-.06-.08.04-.11.04-.12.15-.21.06-.51,0-.74-.08-.38.08-.44.26-.68.27-.07.61-.22.76-.41.13.15.23.2.29.16-.16-.12-.09-.24.11-.26.07-.27.2-.43.45-.6.03-.12.09-.25.21-.21.04-.21.11-.44.36-.48,0-.05-.02-.07-.07-.06-.07.1-.16.22-.25.34.2.24-.45.31-.53.13.04-.25-.13-.55-.28-.77.06-.2.16-.79.46-.74Z"/>
  <path class="cls-78" d="M51.32,20.83c.32.05.64.15.93.25.04-.01.11.03.2.12.02-.06.04-.06.07,0,.11-.09.16-.06.07.06-.05.04-.2.1-.13.18.01.01.29.17.31.18.04,0,.4-.04.48-.05.06,0,.08,0,.07.06-.08.02-.45.04-.4.15.06.13.42.28.56.28h1.19s.26.06.23.12c-.23.09-1.52-.1-1.59-.06-.03.02.06.09.07.12.09.11.06.15-.07.06-.05-.05-.38-.31-.46-.37-.17.06-.24.02-.2-.12-.06-.04-.16-.04-.2-.06-.09.09-.13.05-.07-.06-.05-.03-.09-.1-.13-.12-.25.02-.34-.04-.26-.18-.02,0-.04,0-.07,0-.17,0-.26-.04-.26-.12-.14-.04-.23-.08-.4-.06-.07.01-.1,0-.07-.06-.23-.17-.98-.01-1.26,0-.16-.01-.22-.05-.2-.12.48-.03,1.04-.09,1.49,0l.03-.19s.04,0,.07,0Z"/>
  <path class="cls-113" d="M52.24,20.83c.1.04.09.2,0,.25.02.19-.05.12-.18.07-.25-.09-.51-.2-.75-.32.31,0,.62,0,.93,0Z"/>
  <path class="cls-38" d="M53.17,20.83c-.04.1-.12.13-.2.18-.09,0-.25.07-.46.18-.02,0-.05,0-.07,0-.14.06-.2-.32-.07-.37.26,0,.53-.01.79,0Z"/>
  <path class="cls-151" d="M52.37,20.83c0,.12-.05.3.07.37,0,0-.05.09-.13.06.03-.08-.06-.15-.07-.18-.02-.07.01-.17,0-.25.04,0,.09,0,.13,0Z"/>
  <path class="cls-192" d="M54.03,36.78c0-.1.04-.26-.07-.31.01-.08,0-.3.13-.31l-.07.62Z"/>
  <path class="cls-1" d="M56.14,36.74l.03-.06h.16c0,.11-.14.09-.2.12v-.06Z"/>
  <path class="cls-215" d="M54.38,39.55c.04.05.19.09.2.18-.14.04-.14-.08-.2-.12v-.06Z"/>
  <path class="cls-123" d="M57.64,57.79c-.3-.6-1.14-1.1-1.85-.92-.07-.18,0-.38.18-.59.5-.7.87-1.25,1-2.09.02-.15.04-.5-.18-.47-.36.09-.6.05-.74-.12.03-.38.11-.75.13-1.11.82.52,1.62,1.09,1.32-.4l.13-.46v6.16Z"/>
  <path class="cls-122" d="M55.83,56.86c-.6.15-1.15.83-1.75,1.05-.03-.09-.12-.13-.16-.18-.09-.01-.15-.1-.13-.18-.25-.21-.51-.57-.66-.86.09-.13.3-.13.4-.18.29.16.6.47.79.74l.07-.06c-.27-.17-.66-.45-.73-.74.03-.02.31-.33.33-.37.29.08.59.33.79.55l.07-.06c-.3-.14-.65-.34-.79-.62.04-.12-.1-.29.13-.25.39.07.8.33,1.12.55.11.04.15.04.13,0-.39-.12-.7-.31-.93-.55l.04-.06c.29.19.45.07.69.06.04-.04.07-.08.07-.12.14-.19.15-.21.4-.25v-.18c.05-.09.06-.23.13-.33.05-.06.13-.04.13-.04.01-.15.43.05.41.05-.07-.01-.34-.11-.34-.17,0-.03.01-.11,0-.12-.03-.16,0-.34.07-.55-.09-.28-.01-.2,0-.37.59.14,1.1-.32,1.06.52-.06,1.15-.86,1.76-1.32,2.74Z"/>
  <path class="cls-24" d="M57.66,61.24c-.1,1.76.07,3.59,0,5.36l-.94-1.87c-.03-.21-.62-.39-.64-.42-.09-.13.09-.52-.08-.67,0-.02,0-.04,0-.06.1-.48,1.13-1.18,1.38-1.58.17-.27.07-.54.27-.76Z"/>
  <path class="cls-16" d="M54.89,59.45c.11-.02.22-.05.3-.04.05-.25.21-.23.19.03.16-.01.13.03.03.13.15-.04.26-.04.33,0,.05-.06.19-.03.13.06-.23.05-.65.16-.26.37-.11.11-.13.23-.07.37.09.16.12.13.26.18-.03.06-.1.12-.2.18.03.05.09.16.13.18.15.1.11.12-.07.12,0,.02,0,.04,0,.06l.07.43s-.02.09,0,.11c.04.03.14,0,.19,0,.08.05.06.07-.07.06-.01,0-.06,0-.07,0-.03.1-.08.17-.13.18-.02-.1-.04-.21-.07-.31-.17.05-.21.01-.13-.12-.04-.16-.05-.51-.13-.74-.01-.03-.12-.09-.13-.12-.05-.13-.06-.27-.13-.43-.02-.04-.05-.08-.07-.12-.05-.1-.08-.16-.13-.25-.02-.04-.04-.08-.07-.12,0-.01.09-.13-.13-.18-.12,0-.23-.02-.33-.06-.1-.02-.23.01-.33,0,.06-.1.22-.06.33-.06.09,0,.18,0,.26,0-.05-.16,0-.17.13-.06.09-.03.16.04.13.12Z"/>
  <path class="cls-206" d="M54.82,59.14c-.02-.07-.08-.25-.03-.31l.39.55v-1.6h.04c-.03.08.07.18.13.22v1.2l.76-1.29.23-.19c-.03.29-1.08,1.54-.92,1.72.5-.27.89-.67,1.29-1.05.05,0,.04.06.03.09-.07.22-.83.81-1.06.96,0,.11-.15.14-.26.12-.05-.07-.06-.17-.07-.25-.22.18-.19.34-.46.12-.05-.1-.08-.2-.07-.31Z"/>
  <path class="cls-63" d="M52.97,56.68c.31.22.57.59.73.92.09.01.15.1.13.18,0,.04.1.1.07.18-.17-.03-.47.04-.62,0-.02,0-.12-.28-.17-.37-.18.02-.26-.28-.26-.43-.04-.07-.22-.53-.2-.55.13-.03.23.04.33.06Z"/>
  <path class="cls-219" d="M55.75,59.51c.74.1,1.07-.37,1.65-.62l-.66.52c0,.09.62.05.66.21-.53-.04-.99-.11-1.52,0-.01-.06-.08-.07-.13-.06-.06-.02-.06-.04,0-.06Z"/>
  <path class="cls-95" d="M54.56,58.89c.02.17,0,.28-.2.18-.26-.25-.58-.45-.79-.74.37.05.55.45.86.62.01-.31-.2-.62-.1-.92.19.23.16.59.23.86Z"/>
  <path class="cls-55" d="M55.61,60c.32.17.92.32,1.3.48.1.04.32.1.35.19-.5.02-1.19-.5-1.62-.55-.18-.02-.08.16-.1.25-.1-.17-.13-.27.07-.37Z"/>
  <path class="cls-99" d="M55.81,61.73c-.18.51.48.5.59.77s-.47-.23-.53-.22c0,.08,0,.17,0,.25.04.16.01.24-.07.25-.06-.28-.07-.58-.13-.86.06-.05.06-.15.13-.18Z"/>
  <path class="cls-219" d="M57.07,61.54c.09.09.05.12-.07.06-.42-.25-.81-.51-1.32-.55,0-.04.05-.08.07-.12.42.24.82.18,1.32.62Z"/>
  <path class="cls-66" d="M55.61,61.6c-.35.07-.39.52-.66.68.03-.3.26-.63.53-.8,0,.02.12.08.13.12Z"/>
  <path class="cls-99" d="M55.94,61.67c.32.05.76.15.93.43-.32-.08-.68-.3-.99-.37l.07-.06Z"/>
  <path class="cls-172" d="M54.75,59.26c.05.02.05.04,0,.06-.04.01-.1.06-.13.06-.08-.09-.18-.23-.26-.31l.2-.18c.03.11.1.29.2.37Z"/>
  <path class="cls-55" d="M55.81,60.56c.17.07.48.08.59.25-.26.05-.56-.24-.79-.06-.13-.22-.01-.05.2-.18Z"/>
  <path class="cls-128" d="M53.1,57.6c.08.38-.19.04-.26-.12-.03-.06-.02-.2-.05-.27l.05-.04c.06.13.19.3.26.43Z"/>
  <path class="cls-49" d="M55.88,62.53l.07.55c-.13-.01-.11-.22-.13-.31.1-.04.06-.17.07-.25Z"/>
  <path class="cls-220" d="M54.89,59.45s-.11-.04-.13-.12c0-.02,0-.05,0-.06,0-.02.07-.08.07-.12.02.07.22.24.07.31Z"/>
  <path class="cls-121" d="M55.79,59.51v.06c-.15.01-.26.1-.33,0,.08-.05.19-.07.26-.12l.07.06Z"/>
  <path class="cls-99" d="M55.75,61.54c-.07-.17-.08-.23-.07-.43.13.09.05.3.07.43Z"/>
  <path class="cls-216" d="M57.07,61.54c.06.05.18.09.2.18-.13.03-.18-.07-.26-.12l.07-.06Z"/>
  <path class="cls-21" d="M53.89,57.72s-.07.06-.07.06c-.04-.06-.09-.12-.13-.18-.06-.09-.04-.12.07-.06.05.06.09.14.13.18Z"/>
  <path class="cls-85" d="M55.61,65.24c.32.05.84-.13,1.06.12-.44,0-.83-.08-1.26.06.06-.08.16-.13.2-.18Z"/>
  <path class="cls-117" d="M54.16,55.57c.07.07.27.09.33.12.31.18.63.36.93.55,0,.04-.05.04-.13,0-.37-.16-.78-.34-1.12-.55-.12-.08-.24-.13,0-.12Z"/>
  <path class="cls-187" d="M53.63,56.43c.22.27.5.48.73.74.09.09.05.12-.07.06-.28-.23-.57-.46-.79-.74.05-.03.11-.05.13-.06Z"/>
  <path class="cls-166" d="M53.1,56.68c.22.14.49.65.66.86l-.07.06c-.24-.31-.51-.6-.73-.92,0,0,.05-.05.13,0Z"/>
  <path class="cls-5" d="M54.82,56.55c.09.09.05.12-.07.06-.28-.17-.54-.35-.79-.55.02-.03.06-.11.07-.12.26.21.54.4.79.62Z"/>
  <path class="cls-207" d="M53.23,54.58v.09s-.11.07-.13.09l-.07-.06s.05-.11.1-.12h.1Z"/>
  <path class="cls-172" d="M54.69,59.51c-.05-.01-.15.01-.23,0-.1-.02-.09-.06-.1-.06l.33.06Z"/>
  <path class="cls-125" d="M51.78,30.07l.2-.12c-.03.75.18.19.43-.06.16-.17.47-.51.69-.46-.26.28-.62.49-.79.83.05.04.93-.51,1.08-.57.26-.09.57-.13.84-.17.03.18-.04.1-.15.13-.63.16-1.22.35-1.7.79.81-.12,1.65-.11,2.38.28-.4.02-.75-.19-1.16-.22-.2-.02-1.32.04-1.42.13s.05.11.09.14c.4.26.88.43,1.27.73.08.06.63.54.56.61-.61-.51-1.28-1-2.05-1.29.02.21-.05.48.03.68.02.06.8.67.86.68.24.01.78-.32,1.03.13-.33-.05-.63-.27-.92.03,0,.06.88.74.69,1.02-.4-.52-.94-1.18-1.49-1.57-.07-.05-.08-.12-.2-.09-.16.72.45,1,.85,1.52.16.21.35.45.41.7-.41-.41-.7-.91-1.14-1.31-.06-.05-.06-.13-.19-.1-.15.62.25.8.54,1.25.15.24.34.57.38.84-.37-.31-.46-.84-.8-1.19-.06-.06-.06-.13-.19-.1.06.24-.12.54-.05.76.05.17.6.51.58.78l-.59-.55c.03.22-.1.42-.07.64.03.18.26.28.26.47l-.26-.18-.03.25c-.17-.31-.1-.66-.03-.99-.17-.04-.12.04-.17.12-.03.03-.42.72-.36.41.09-.43.62-.69.53-1.14l-.33.15c.03-.17.35-.29.39-.38.06-.17,0-.55.08-.76-.07-.07-.56.43-.62.5-.21.26-.38.61-.5.92-.12.02-.06-.14-.05-.2.05-.19.16-.36.25-.54-.08-.06-.4.25-.46.06.15-.11.44-.1.57-.18.08-.05.44-.49.59-.62.06-.06.21-.12.22-.13.05-.09.05-.75.08-.91-.13-.13-1.21.89-1.32,1.02-.21.23-.37.58-.56.77-.08.08-.14.09-.1-.03.12-.37.59-.81.86-1.11-.25-.1-.48.21-.66.31-.1.06-.15.06-.13-.06.2-.16.4-.29.64-.39.43-.2.51-.22.93-.49.35-.22.42-.04.35-.63-.98.14-1.74.78-2.35,1.48-.08-.18.2-.34.27-.49l.42-.38-.73-.03c0-.11.76-.08.88-.11.23-.05.85-.45,1.24-.58.07-.02.25-.02.26-.03.05-.05.05-.38-.21-.35-.47.04-.94.03-1.39.13-.52.11-.88.4-1.38.54.28-.26.68-.47,1.06-.55-.16-.27-.64-.07-.79-.31.36-.15.76.21.97.23.15.02.41-.1.59-.11.36-.02.73.01,1.09,0-.57-.53-1.35-.8-1.98-1.26l.53.15-.23-.55c.26.18.33.55.53.74.26.24.88.44,1.16.74l-.87-1.19-.52-.47c.61.23.98.86,1.32,1.35Z"/>
  <path class="cls-70" d="M54.56,32.1c.28,0,.31.67.4.74.14.12.12-.12.13-.12.19-.12.06.18.2.18,0-.26.14-.35.33-.49.09-.08.13-.05.07.06-.09.09-.22.17-.26.31.22-.05.4-.15.64-.18.07,0,.36-.06.36.05-.44.08-.91.12-1.19.49.41.05.8-.22,1.19-.06l-.59.06c.06.1.21.12.33.21.05.04.26.22.2.28-.36-.32-.76-.41-1.26-.37.06.57.58.47.86.8l-.4-.12.1.43-.27-.43c-.11-.06-.35-.54-.46-.5-.27.12,0,.85.23.98l-.26-.12-.07.31c-.12.01-.06-.14-.07-.21,0-.17,0-.35,0-.52-.29-.04-.16.06-.2.12-.1.14-.22.09-.15-.07-.16.03-.22-.05-.18-.24.04-.05,0-.11-.13-.18.02-.02.05-.04.07-.06.09-.1.22-.15.39-.15-.16-.08-.23-.17-.2-.28,0-.02,0-.04,0-.06.09-.24.27-.11.33.06l.07-.06c-.28-.03-.39-.24-.19-.48v-.26s-.02-.09-.01-.12Z"/>
  <path class="cls-50" d="M54.22,33.7l.2.12-.13.06.26.12c-.24.41-.58.8-.89,1.17-.11-.14.39-.65.36-.68l-.59.28c.26-.38.81-.45.99-.83-.07-.05-.56.23-.66.28-.07.03-.23.15-.27.03.02-.02.05-.04.07-.06.21-.12.32-.26.33-.43.15-.13.26-.15.33-.06Z"/>
  <path class="cls-84" d="M53.96,28.71s-.08.03-.14-.04c-.1-.11-.13-.41-.29-.51l.03.37c-.08,0-.1-.11-.13-.12-.19-.22-.31-.5-.36-.85-.02-.09-.05-.12-.1-.07.04.14.02.23-.07.25-.13-.06-.13-.13,0-.18l-.07-.31s-.03-.04,0-.06c-.03-.19.2-.18.1-.08l.1-.04c.08.19.24.53.34.7.18.3.57.58.58.96Z"/>
  <path class="cls-167" d="M52.57,26.86c.17-.02.54.1.26.31l-.07.23c0,.23-.06.75-.33.76-.05-.04-.07-.06-.07-.12-.09-.09-.1-.23-.01-.42-.09.23-.21.39-.38.48-.06-.02-.09-.05-.13-.06.22-.4.42-.82.73-1.17Z"/>
  <path class="cls-77" d="M52.84,27.23l.07.31c0,.06,0,.12,0,.18.11.05.14.35,0,.37,0,.06,0,.12,0,.18-.15-.04-.33-.03-.46-.12.13-.2.24-.88.4-.99,0,.02,0,.04,0,.06Z"/>
  <path class="cls-145" d="M52.37,28.03c-.02.05-.09.1-.07.19-.02.01-.27-.1-.33-.12.13-.38.38-.72.63-1.05,0,.3-.12.71-.23.99Z"/>
  <path class="cls-32" d="M53.43,28.4c-.11-.05-.16-.02-.33-.12-.12-.23-.17-.49-.13-.8,0-.06,0-.12,0-.18.09-.1.47,1,.46,1.11Z"/>
  <path class="cls-4" d="M54.16,33.46c.04-.07.17-.35.2-.43l.46.28c-.17.16-.44.16-.66.15Z"/>
  <path class="cls-4" d="M54.56,32.22l.26.62-.3-.25c-.09.1.14.26.23.37.08.09.05.12-.07.06-.1-.06-.23-.14-.33-.06.08-.24.13-.5.2-.74Z"/>
  <path class="cls-40" d="M54.09,33.56h.59c.05.18-.34.16-.46.18-.11.02-.22.07-.33.06.06-.08.15-.18.2-.25Z"/>
  <path class="cls-193" d="M53.1,28.28c-.07-.04-.14,0-.2-.18,0-.12-.01-.25,0-.37,0-.03.05-.15.07-.25.1.22.1.55.13.8Z"/>
  <path class="cls-212" d="M53.89,33.76l.33.12-.66.31c.11-.14.22-.29.33-.43Z"/>
  <path class="cls-204" d="M51.78,25.51c0-.31.05-.64-.07-.92.47.07.94.11,1.42.12.13,0,.27-.06.23.12.07.05.03.18-.07.18-.09.35-.23.7-.4,1.04-.03.23-.12.35-.26.38-.08.06-.12.03-.07-.06-.04-.26-.05-.52-.05-.78l-.08.04c.02.19.03.39.02.59.11.32-.23.19-.4.01-.38-.08-.49-.17-.31-.26l.03-.15c-.11-.06-.1-.25,0-.31Z"/>
  <path class="cls-8" d="M53.37,22.24c.2.11.61.57.82.55.06,0,.12-.06.14-.08h1.06s.2.1.17.16h-1.16s-.13.07-.07.1c.31.32.42.16.72.19.39.03.78.24,1.03.52-.25.04-.41-.24-.65-.32-.19-.07-.4-.09-.61-.08-.03.11.05.12.1.18.25.31.69.59.96.89.01.05-.07.04-.1.03-.17-.06-.55-.44-.7-.58-.06-.06-.36-.5-.46-.4.01.19-.02.39,0,.58.03.21.22.34.16.53-.47-.28-.18-1-.33-1.29-.02-.05-.72-.55-.83-.62-.09.15-.13.36-.12.62h-.08c-.03-.32.1-.67-.13-.93.04,0,.07-.03.07-.06Z"/>
  <path class="cls-163" d="M51.98,21.38s.19.14.26.18c-.15-.02-.2.05-.3.12-.34.25-.76.77-.98,1.12-.2.3-.3.68-.57.92.09-.5.44-1.01.77-1.41.26-.32.62-.58.82-.93Z"/>
  <path class="cls-15" d="M52.84,21.94c-.2-.04-.12.09-.14.2-.08.43-.16.94-.12,1.37.02.24.19.48.1.71-.43-.71-.2-1.64-.03-2.4.06.04.13.07.2.12Z"/>
  <path class="cls-81" d="M51.91,21.38c-.56-.01-1.6.86-1.98,1.23-.09.08-.13.05-.07-.06.55-.57,1.05-.94,1.79-1.29.09.03.19.06.26.12Z"/>
  <path class="cls-200" d="M52.44,21.75l-.36.62-.5,1.35c0-.72.35-1.45.79-2.03.02.01.04.04.07.06Z"/>
  <path class="cls-159" d="M51.18,21.14s.04.05.07.06l-2.18.62c.09-.12.35-.19.49-.25.52-.19,1.07-.33,1.62-.43Z"/>
  <path class="cls-151" d="M53.63,22.61c-.21.66.08,1.39.4,1.97-.13.03-.15-.06-.21-.14-.2-.26-.38-.9-.38-1.22,0,0,.06-.07.07-.15.01-.17-.01-.35,0-.53.12-.03.11.05.13.06Z"/>
  <path class="cls-180" d="M51.32,24.71c0-.32.19.11.2.12.19.13.07-.18.2-.18l.07.86c0,.1,0,.21,0,.31,0,.28-.04.44-.2.12.12-.18.04-.68-.01-.88-.04-.15-.17-.23-.25-.35Z"/>
  <path class="cls-218" d="M53.23,21.57c.28-.04.59-.2.93-.12.02.09-.12.08-.2.09-.22.04-.44.05-.66.09l-.07-.06Z"/>
  <path class="cls-163" d="M49.73,21.01l.2.12c-.31.01-.62,0-.93,0,0-.09.3-.11.37-.11.12-.01.24,0,.35,0Z"/>
  <path class="cls-151" d="M52.97,21.01c-.13.09-.28.17-.4.25,0-.05-.02-.06-.07-.06.09-.13.26-.25.42-.24l.04.06Z"/>
  <path class="cls-29" d="M49.93,22.61c-.06.06-.3.39-.4.31.06-.16.23-.26.33-.37l.07.06Z"/>
  <path class="cls-141" d="M53.37,25.14c-.07.07-.1.02-.07-.12.02-.06.03-.14.07-.18,0-.01.11-.06.13-.06,0,.14-.09.26-.13.37Z"/>
  <path class="cls-170" d="M50.85,25.57c.08-.1.1-.05.13.06.2.1.39.21.6.31.02,0,0,.09.13.06l.07-.18c0,.07-.03.19.01.24.02.03.63.28.65.26-.07-.23-.03-.44,0-.68h.09c-.02.26,0,.5.04.74,0,.02.06.04.07.06.06.02.06.04,0,.06.06.02.06.04,0,.06-.11-.07-.22-.07-.35-.05-.16.02-.79.22-.96.28-.23.08-.41.28-.67.27l.53-.34.99-.31c-.31-.42-.85.02-1.29.15-.18.06-.36.14-.56.12l1.17-.48.15-.13c-.19,0-.42-.22-.57-.23-.11,0-.38.16-.58.17-.27.02-.5-.07-.76-.06l1.12-.12c.11-.1-.51-.38-.59-.43-.09-.08-.05-.09.07-.06.17.09.36.16.53.25Z"/>
  <path class="cls-76" d="M52.68,26.49c.13-.18.49-.43.33,0,0,0-.08.01-.07.06.04,0,.1,0,.13,0,.27.05.53.05.79,0,.04,0,.09,0,.13,0,.11-.04.13-.04.07.06-.04,0-.09,0-.13,0v.06c.13-.06.31.06.33.06.08.05.06.07-.07.06-.17-.04-1.18-.18-1.26-.12.08.11.08.25.13.37.04.21-.08.05-.2.12,0-.06,0-.12,0-.18l-.13.12c.06-.34-.18,0-.13-.25,0-.03.09-.1.07-.12-.04,0-.1,0-.13,0-.12.04-.14.04-.07-.06.07-.04.15-.04.2-.12,0-.01,0-.04,0-.06Z"/>
  <path class="cls-142" d="M52.51,26.74c-.41.2-.81.53-1.26.62.29-.32.81-.46,1.19-.68.01.03.04.05.07.06Z"/>
  <path class="cls-195" d="M50.99,25.63s-.09-.04-.13-.06c0-.26-.01-.51,0-.77,0-.07-.05-.23.07-.21.09.34.07.7.07,1.05Z"/>
  <path class="cls-94" d="M50.32,25.32l-.07.06c-.1-.06-.24-.12-.33-.18-.03-.02-.03-.04,0-.06.13.06.26.12.4.18Z"/>
  <path class="cls-44" d="M49.97,25.14v.06c-.07-.05-.18-.09-.2-.18.14-.05.16.1.2.12Z"/>
  <path class="cls-83" d="M54.89,49.35c.15-.22.14-.54.26-.78.03-.05.02-.19.14-.09.03.03.33.73.33.78.02.21-.13.43-.13.64-.15-.18-.4-.42-.6-.55Z"/>
  <path class="cls-74" d="M52.51,50.46c.38-.13-.25-.39-.13-.49s.41.41.46.37c.06-.44.41-1.04.9-1.16.13-.03.12.09.09.12-.02.02-.31.1-.41.18-.28.22-.37.61-.45.92-.22.03-.25.03-.46.06Z"/>
  <path class="cls-147" d="M54.09,52.8c-.06.21-.08.42-.15.63-.02.06-.02.19-.11.17-.07-.34.13-.67.2-.99l.07.18Z"/>
  <path class="cls-105" d="M56.08,53.99s.08.03.06.14c-.02.1-.15.17-.12.29h.26s-.26.12-.26.12c0,0-.13.02-.14-.04-.01-.1.15-.41.2-.52Z"/>
  <path class="cls-12" d="M56.01,54.64c.14.04.35.04.4.18l-.46-.06s-.08-.13-.07-.18c.02-.02.09.05.13.06Z"/>
  <path class="cls-169" d="M55.68,55.14l.33.15c0,.06-.25.02-.33.03l-.13-.09s.12-.07.13-.09Z"/>
  <path class="cls-14" d="M55.28,55.57l.26.18c-.11.03-.23-.06-.33-.06,0-.06.04-.09.07-.12Z"/>
  <path class="cls-33" d="M54.03,54.58c-.02.14.06.22-.13.18,0-.04,0-.08,0-.12l.13-.06Z"/>
  <path class="cls-221" d="M53.37,25.14c-.15.41-.38.76-.46,1.17.31-.35.6-.71.92-1.05.09-.08.13-.05.07.06-.3.39-.64.77-.93,1.17.02-.1.01-.15-.1-.12-.05.01-.03.2-.23.12,0-.02,0-.05,0-.06l.66-1.42.07.12Z"/>
  <path class="cls-56" d="M54.56,26.74c.13,0,1.06-.03,1.06.03-.29.11-.61.1-.93.09-.04.1.57.18.4.31-.11.08-.43-.21-.53-.25-.08-.09-.08-.15,0-.18Z"/>
  <path class="cls-162" d="M54.82,26.31c.1-.03.12-.03.07.06-.25.09-.6.19-.86.25l-.07-.06c.26-.16.57-.19.86-.25Z"/>
  <path class="cls-10" d="M54.56,26.74l.06.15-.06.04c-.06-.03-.32-.11-.4-.12l.07-.06c.1.01.22,0,.33,0Z"/>
  <path class="cls-208" d="M53.83,26.56c-.22.13-.55.07-.79,0,.26-.02.54.02.79,0Z"/>
  <path class="cls-152" d="M53.83,25.26c.09-.09.18-.24.2-.03-.02.05-.11.07-.13.09l-.07-.06Z"/>
  <path class="cls-106" d="M54.82,26.31c.05-.01.15-.11.26-.06.02.07-.11.09-.2.12l-.07-.06Z"/>
  <path class="cls-148" d="M55.61,32.45s.05-.11.1-.12h.1c.04.13-.08.13-.13.18l-.07-.06Z"/>
  <path class="cls-89" d="M54.82,56.55c.09.07.23.13.26.25-.14.02-.22-.12-.33-.18l.07-.06Z"/>
  <path class="cls-120" d="M54.36,57.17s.22.23.2.25c-.16.04-.19-.12-.26-.18l.07-.06Z"/>
  <path class="cls-71" d="M55.41,56.23s.27.04.16.12c-.12,0-.21-.08-.3-.12h.13Z"/>
  <path class="cls-110" d="M54.75,32.96s.16.16.13.18c-.14.05-.15-.1-.2-.12l.07-.06Z"/>
  <path class="cls-167" d="M52.9,27.54c-.11-.05-.06-.21-.07-.31.11.05.06.21.07.31Z"/>
  <path class="cls-93" d="M52.57,26.37s-.05-.03-.07-.09c-.04-.21.08-.49-.07-.65.03-.25.04-.65.26-.8-.03.52-.2,1.01-.13,1.54Z"/>
  <path class="cls-123" d="M81.29,43.24c.14,0,.17,0,.28,0,0,.14,0,.15,0,.2,0,.17,0,0,0,.06l.1.23c.07,1.82.07,3.64,0,5.47l-.15.08h-20.15c-.05-.08-.17-.13-.36-.13-.06-.04-.07-.03-.07-.13l-.13-.08.06-5.63c0-.11.08-.17.18-.2h8.29s.25-.13.25-.13c.05-.14.15-.14.2,0l.1.1c.4-.02.67-.04,1.01.08.02-.12.21-.02.24.03l.02-.05"/>
  <path class="cls-123" d="M72.16,43.13c2.42.03,4.84.03,7.26,0-.05-.05.86.09-.03-.11-.18-.06-.41-.09-.58-.13l-1.82-.86c-.11.29-.35.23-.63.12-.74-.41-1.1-.39-1.89-.32-.43.04-.87.1-1.29.18-.32.24-.36.2-.6.24h-.07s-.13-.1-.13-.1c-.16.09-.22.06-.19-.09l-.64-.02-.08-.02c-.1-.01-.08.06-.25-.06-.02.05-.07-.03-.09-.09-.02.06-.04.06-.07,0-.19-.03-.52-.13-.73-.19l-.4-.13c-.09-.04-.47-.23-.6-.31-.55-.33-.85-.52-1.33-.94l-.2-.19c-.89-.84-1.25-1.33-1.33-2.58-.06-.4-.06-.79,0-1.19.13-.66.56-.72.73-1.45,0-.32.07-.63.13-.94.14-.42.16-.43.47-.75l.2-.19c.27-.21.5-.4.87-.44.33-.07.67-.07,1,0,.17.03.52.27.67.38.09.04.15.1.2.19.03.08.04.17.07.25.04.11.04.2,0,.25-.02.05-.04.05-.07,0-.11.01-.13.04-.07.06.15-.04.53.17.27.19-.14.09-.32.15-.55.17.22-.06.36-.04.42.08.16-.03.65-.06.66.1-.33.1-.91.12-.76.58.07.23,1.26.81,1.56,1.01.07.08.16.15.27.19.02.02.04.04.07.06.12.05.21.14.27.25.49.38.98.75,1.46,1.13.07.09.16.15.27.19.03.02.08.08.13.13l.2.19c.32.28.71.59,1,.88.04.1.11.18.2.25.15.21.32.42.47.63.07.14.13.28.13.44l1.6,1.01.27.19c.4.31.78.59,1.2.88l.13.19v.13c0,.25-.39,0-.53-.13-.38-.07-.81-.35-1.13-.57-.09.01-.11.03-.07.06.5.16.99.43,1.4.75.16-.11.26.11.6.41"/>
  <path class="cls-150" d="M81.72,43.44l.07,5.93h-20.44c.06-.31-.14-.11-.33-.25h20.44c-.06-1.86,0-3.78-.09-5.63.36-.05.24-.05.36-.05Z"/>
  <path class="cls-114" d="M69.4,43.02c.06-.08.3-.1.33,0l-.1.18h-8.66v5.81l-.35-.06v-5.93c2.95-.04,5.87.05,8.77,0Z"/>
  <path class="cls-123" d="M70.07,42.84c-.13-.06-.03.03.1-.02.14-.26.38-.42.57-.61.14-.12.21-.08.21.11-.1.16-.28.51-.48.45.11.1.09.15-.07.12"/>
  <path class="cls-123" d="M70.26,42.77c0,.06-.06.16-.41.22l-.12.03s-.11-.03-.27.07c-.05.03-.06.06-.09.12-.02.04,0-.11.03-.19.11-.25.6-.22.86-.25Z"/>
  <path class="cls-123" d="M70.76,33.47c.02.06.08.23.11.26.09.08.66.28.68.31.13.19-.13.2-.26.24-.11-.12-.36-.04-.53-.06-.06-.14.06-.2.36-.16l-.03-.09c-.17-.05-.28-.14-.33-.25v-.25Z"/>
  <path class="cls-123" d="M71.27,42.01c-.18.14-.17.11-.31.3l-.18-.14c.06-.06.11-.15.16-.22.02-.03.03-.04.04-.05,0,0,.03-.05.03-.05.01,0,.05,0,.05,0,.24-.02.25-.09.22.14Z"/>
  <path class="cls-30" d="M67.28,34.03c-.02.32-.06.64-.13.94"/>
  <path class="cls-30" d="M67.94,40.34c-.1-.08-.12-.12-.2-.19l.2.19Z"/>
  <path class="cls-168" d="M81.23,43.11v.22l-9.35-.12v-.19"/>
  <path class="cls-82" d="M70.59,43.02c.13,0,1.21,0,1.3,0,.26,0,.13.19,0,.19-.42,0-1.82-.02-2.26,0l.1-.18"/>
  <path class="cls-135" d="M70.69,34.21s.03-.06.06-.07.06-.02.1-.03c.21-.04.44-.02.65,0,0,.01.01.03.02.04-.07.03-.16.04-.24.05-.2.02-.41.01-.61.03-.18.02-.35.05-.53.06-.39.02-.04-.22.17-.28.1-.03.25-.04.37-.04.07,0,.13,0,.16,0,.05-.07.56.08.59.19-.18.02-.39-.02-.57,0-.08,0-.14.06-.16.06"/>
  <path class="cls-123" d="M72.49,42.14c.07.07.05.06-.02.19-.12.23-.44.73-.62.89-.05,0-.19.05-.18,0,.06-.11.22-.48.28-.59.07-.24.34-.68.55-.48Z"/>
  <path class="cls-157" d="M74.03,40.71s-.21-.34-.25-.37l.44.24h0c.12-.11.14-.15.15-.12.03.07.29.07.03.41"/>
  <path class="cls-217" d="M70.52,36.72c.19.04.4.15.46.31,0,.03.09.07.07.12-.36.09-.42-.18-.63-.31-.06-.04-.14-.04-.17-.06-.02-.06-.03-.13-.07-.19.05-.04.27.09.33.12Z"/>
  <path class="cls-175" d="M79.54,42.51l.2.11c.14.05.09.04-.08.14-.45-.26-.84-.5-1.3-.75-.09-.08-.05-.1.07-.06.38.16.76.41,1.12.56Z"/>
  <path class="cls-217" d="M70.78,36.66c.25-.11.62.16.66.37-.13.12-.25.02-.4-.06-.14-.04-.28-.13-.4-.25.03-.05.09-.05.13-.06Z"/>
  <path class="cls-190" d="M70.52,37.55c0,.16,0,.31,0,.47,0,.07.05.23-.07.22-.15-.22-.24-.41-.2-.69h.26Z"/>
  <path class="cls-98" d="M70.26,36.78s.07.08.07.12c-.12.08-.73-.28-.79-.44.31-.04.5.17.73.31Z"/>
  <path class="cls-103" d="M74.75,39.46c.26.34.07-.25.2-.12.58.66-.09.55-.2.12Z"/>
  <path class="cls-203" d="M70.98,36.53s-.06-.03-.07-.06c.35-.05.53.25.79.41,0,.2-.14.07-.2.03-.16-.02-.48-.24-.53-.37Z"/>
  <path class="cls-26" d="M73.43,40.52c.02-.05.04-.05.07,0,.09,0,.16.07.07.12-.2.31-.44-.03-.6-.19-.09-.09-.05-.12.07-.06.11.07.26.13.4.12Z"/>
  <path class="cls-153" d="M72.77,37.97c-.26.04-.51.13-.73-.12.22.11.44-.06.56-.07.02,0,.02.2.3.07.04.07,0,.11-.13.12Z"/>
  <path class="cls-186" d="M69.72,37.03c.14.11.2.54-.06.62.02-.08-.18-.81.06-.62Z"/>
  <path class="cls-181" d="M70.17,37.97c-.13-.02,0-.19-.2-.06v-.56c.32,0,.17.42.2.62Z"/>
  <path class="cls-157" d="M74.75,40.28l-.2-.5s.13.11.17.12c.02,0,.07-.33.3.06,0,.09-.05.17-.13.25.04.09-.05.12-.13.06Z"/>
  <path class="cls-157" d="M74.03,40.71c.08,0,.1.02.07.06-.04.22-.42-.03-.53-.12-.03-.02-.04-.09-.07-.12-.06-.02-.06-.04,0-.06.1.07.38.18.53.25Z"/>
  <path class="cls-154" d="M71.54,38.45s.23.19,0,.2c-.16-.17-.27-.34-.17-.56.19.05.12.26.16.36Z"/>
  <path class="cls-138" d="M70.85,37.9c.03.08.22.6.2.62-.18.19-.26-.52-.26-.56-.03-.09-.03-.11.07-.06Z"/>
  <path class="cls-154" d="M73.36,37.47s.17.34.03.44c-.36,0-.1-.2-.1-.44.02-.05.04-.05.07,0Z"/>
  <path class="cls-3" d="M71.51,36.91c-.06.02-.05.11-.07.12-.17-.22-.36-.37-.66-.37.05-.02.2-.08.2-.12.18.11.35.27.53.37Z"/>
  <path class="cls-98" d="M74.75,40.28s.09-.05.13-.06c.02-.05.04-.05.07,0,0,0,0,.1,0,.12.04.15-.15.12-.26.06-.15-.11-.21-.25-.33-.37-.07-.09-.04-.12.07-.06.08.08.22.3.33.31Z"/>
  <path class="cls-116" d="M73.36,37.47h-.07s-.13-.11-.04-.24c.02-.04.17.05.05-.2.36.17.07.36.07.44Z"/>
  <path class="cls-130" d="M72.11,38.59c-.26,0-.2-.26-.2-.44.17.07.21.28.2.44Z"/>
  <path class="cls-199" d="M75.02,39.96c.19.32-.04.22-.07.25h-.07l-.13-.19.26-.06Z"/>
  <path class="cls-157" d="M74.36,40.57c.19.39-.03.33-.27.16-.04-.02-.05-.07-.07-.08.01.01.25-.08.33-.08Z"/>
  <path class="cls-100" d="M72.31,40.15s.6.18.46.31c-.06.06-.4-.25-.46-.31Z"/>
  <path class="cls-103" d="M75.09,40.12c.02.12.06.49-.27.38-.06-.02-.09-.07-.13-.1l.4-.28Z"/>
  <path class="cls-53" d="M72.9,37.84c.19-.22.21-.17.2.12-.11.01-.23-.01-.33,0,.04-.04.09-.08.13-.12Z"/>
  <path class="cls-164" d="M70.65,36.72c.21.04.25.17.4.25-.04-.01-.07.03-.07.06-.15-.12-.29-.22-.46-.31.04,0,.09,0,.13,0Z"/>
  <path class="cls-109" d="M73.03,40.4l-.07.06c-.1-.1-.27-.21-.26-.37.15.03.24.25.33.31Z"/>
  <path class="cls-34" d="M72.31,40.15c-.13-.07-.34-.1-.33-.31.07.07.26.15.31.2.03.04,0,.1.02.11Z"/>
  <path class="cls-97" d="M71.64,36.47c.19.2-.33.08-.33-.13.06,0,.32.11.33.13Z"/>
  <path class="cls-31" d="M71.71,36.41c-.14,0-.32-.14-.4-.25.16,0,.33.12.4.25Z"/>
  <path class="cls-199" d="M71.78,37.9c-.14-.04-.14-.09,0-.12.05-.02.05-.22.2-.03,0,.12-.09.15-.2.16Z"/>
  <path class="cls-20" d="M70.39,34.35c.09.04-.3.16-.4.12.05-.16.25-.13.4-.12Z"/>
  <path class="cls-175" d="M78.42,41.95l-.07.06c-.06-.03-.41-.15-.33-.19.17-.03.27.07.4.12Z"/>
  <path class="cls-157" d="M73.83,40.78h-.09c-.06-.08-.9-.89-.88-1.03l.03-.03c.13.05.91,1.03.94,1.06Z"/>
  <path class="cls-157" d="M74.85,40.34l-.16.06c-.08-.1-1.2-1.32-1.19-1.44.06.02.39.32.68.66.34.4.63.67.67.72Z"/>
  <path class="cls-47" d="M69.53,33.91c-.1.06-.17.11-.33.03l.33-.03Z"/>
  <line class="cls-36" x1="69.2" y1="33.94" x2="69.53" y2="33.91"/>
  <path class="cls-87" d="M74.47,39.96l-.07.06"/>
  <path class="cls-211" d="M71.58,39.28c-.12-.05-.2-.2-.2-.31.12.05.2.2.2.31Z"/>
  <path class="cls-174" d="M71.78,39.78c-.14.01-.28-.12-.26-.25l.26.25Z"/>
  <path class="cls-157" d="M74.95,39.34l.14.22s-.82-.68-.87-.75l.03-.03c.13-.01.63.51.69.56Z"/>
  <path class="cls-222" d="M71.82,37.78v.12c-.05,0-.27-.05-.27-.09.04-.07.2,0,.27-.03Z"/>
  <path class="cls-183" d="M72.64,40.03l-.2-.19c.13-.02.22.07.2.19Z"/>
  <path class="cls-179" d="M70.78,37.97c-.02-.08-.19-.21.07-.19.01.04-.01.1,0,.12l-.07.06Z"/>
  <path class="cls-123" d="M70.77,42.89c.07.05.06.02.11.12,0,.01.02.17,0,.14-.03-.06-.02-.08-.1-.13-.05-.03-.14-.05-.14-.05-.09,0-.15-.03-.24-.08.01-.01.06-.14.1-.18.02.12.22.15.26.18Z"/>
  <ellipse class="cls-210" cx="69.36" cy="33.72" rx=".17" ry=".16"/>
  <path class="cls-135" d="M70.59,33.71s-.02-.02-.03-.04c.04-.02.07-.05.11-.07.01,0,.03-.01.05-.02,0,0,0,.02.03.05.02.02.03.04.04.06.02.03.04.07.07.09.06.03.13.06.2.08.07.03.15.06.22.1.04.02.07.03.11.05.05.02.08.07.12.11-.04,0-.06.02-.1.02-.03,0-.06-.01-.09-.02-.06-.02-.13-.03-.19-.05-.07-.02-.15-.05-.2-.09-.05-.03-.1-.06-.15-.1-.04-.03-.07-.06-.1-.09-.03-.03-.06-.06-.09-.09Z"/>
  <path class="cls-135" d="M70.86,33.92s.02,0,.06,0c.02.01.04.03.06.06-.04.01-.09.02-.13.02-.02,0-.04,0-.07,0-.04,0-.08-.01-.12-.02.06-.03.13-.04.2-.06Z"/>
  <path class="cls-61" d="M70.89,33.96h0"/>
</svg>