<?xml version="1.0" encoding="UTF-8"?>
<svg id="Layer_1" xmlns="http://www.w3.org/2000/svg" version="1.1" viewBox="0 0 1202.43 1121.52">
  <!-- Generator: Adobe Illustrator 29.7.1, SVG Export Plug-In . SVG Version: 2.1.1 Build 8)  -->
  <defs>
    <style>
      .st0 {
        fill: #636954;
      }

      .st1 {
        fill: #8c9780;
      }

      .st2 {
        fill: #646464;
      }

      .st3 {
        fill: #789276;
      }

      .st4 {
        fill: #a5b09a;
      }

      .st5 {
        fill: #6c7660;
      }

      .st6 {
        fill: #945e4b;
      }

      .st7 {
        fill: #a1aba7;
      }

      .st8 {
        fill: #363e2a;
      }

      .st9 {
        fill: #bfccb7;
      }

      .st10 {
        fill: #818c75;
      }

      .st11 {
        fill: #a4ae98;
      }

      .st12 {
        fill: #9fc29a;
      }

      .st13 {
        fill: #8f9782;
      }

      .st14 {
        fill: #9ca7a0;
      }

      .st15 {
        fill: #a1ac95;
      }

      .st16 {
        fill: #8a927d;
      }

      .st17 {
        fill: #373f2b;
      }

      .st18 {
        fill: #75836c;
      }

      .st19 {
        fill: #9c9c9c;
      }

      .st20 {
        fill: #777e69;
      }

      .st21 {
        fill: #c0afa7;
      }

      .st22 {
        fill: #303c2a;
      }

      .st23 {
        fill: #2b2c2b;
      }

      .st24 {
        fill: #7ba185;
      }

      .st25 {
        fill: #c3c3c3;
      }

      .st26 {
        fill: #2d3222;
      }

      .st27 {
        fill: #8a978a;
      }

      .st28 {
        fill: #fcfcfc;
      }

      .st29 {
        fill: #777;
      }

      .st30 {
        fill: #394633;
      }

      .st31 {
        fill: #75503d;
      }

      .st32 {
        fill: #7d7d7d;
      }

      .st33 {
        fill: #bbcdb6;
      }

      .st34 {
        fill: #8f9c85;
      }

      .st35 {
        fill: #637359;
      }

      .st36 {
        fill: #b7c7af;
      }

      .st37 {
        fill: #7f977c;
      }

      .st38 {
        fill: #bacab1;
      }

      .st39 {
        fill: #8a967f;
      }

      .st40 {
        fill: #976953;
      }

      .st41 {
        fill: #5b6854;
      }

      .st42 {
        fill: #797a66;
      }

      .st43 {
        fill: #97a38c;
      }

      .st44 {
        fill: #fff;
      }

      .st45 {
        fill: #bacdb6;
      }

      .st46 {
        fill: #79846d;
      }

      .st47 {
        fill: #bac9b1;
      }

      .st48 {
        fill: #909c85;
      }

      .st49 {
        fill: #8f5d4a;
      }

      .st50 {
        fill: #905f4b;
      }

      .st51 {
        fill: #925b48;
      }

      .st52 {
        fill: #cecece;
      }

      .st53 {
        fill: #bccbb3;
      }

      .st54 {
        fill: #8d9981;
      }

      .st55 {
        fill: #a8b59f;
      }

      .st56 {
        fill: #d3bcb6;
      }

      .st57 {
        fill: #60765d;
      }

      .st58 {
        fill: #536691;
      }

      .st59 {
        fill: #516591;
      }

      .st60 {
        fill: none;
      }

      .st61 {
        fill: #b5c9b2;
      }

      .st62 {
        fill: #2d301b;
      }

      .st63 {
        fill: #304840;
      }

      .st64 {
        fill: #2c2d2c;
      }

      .st65 {
        fill: #383c37;
      }

      .st66 {
        fill: #86917a;
      }

      .st67 {
        fill: #8f9b84;
      }

      .st68 {
        fill: #2f4840;
      }

      .st69 {
        fill: #909d85;
      }

      .st70 {
        fill: #c0cfb7;
      }

      .st71 {
        fill: #8a937d;
      }

      .st72 {
        fill: #a0ac94;
      }

      .st73 {
        fill: #89947d;
      }

      .st74 {
        fill: #8d5946;
      }

      .st75 {
        fill: #9e604c;
      }

      .st76 {
        fill: #bac7b1;
      }

      .st77 {
        fill: #34412f;
      }

      .st78 {
        fill: #abb4b4;
      }

      .st79 {
        fill: #475540;
      }

      .st80 {
        fill: #b2c7b0;
      }

      .st81 {
        fill: #9faaa4;
      }

      .st82 {
        fill: #4e618a;
      }

      .st83 {
        fill: #314840;
      }

      .st84 {
        fill: #a3b09b;
      }

      .st85 {
        fill: #8a5c4a;
      }

      .st86 {
        fill: #916a54;
      }

      .st87 {
        fill: #a0a0a0;
      }

      .st88 {
        fill: #955e4b;
      }

      .st89 {
        fill: #777f69;
      }

      .st90 {
        fill: #919d86;
      }

      .st91 {
        fill: #8f9c84;
      }

      .st92 {
        fill: #60755d;
      }

      .st93 {
        fill: #86937f;
      }

      .st94 {
        fill: #8c9984;
      }

      .st95 {
        fill: #87927b;
      }

      .st96 {
        fill: #c1b1a9;
      }

      .st97 {
        fill: #636363;
      }

      .st98 {
        fill: #d8d8d8;
      }

      .st99 {
        fill: #8f9a83;
      }

      .st100 {
        fill: #c8c8c8;
      }

      .st101 {
        fill: #868f79;
      }

      .st102 {
        fill: #6d7b64;
      }

      .st103 {
        fill: #dbdbdb;
      }

      .st104 {
        fill: #a99f93;
      }

      .st105 {
        fill: #8f9882;
      }

      .st106 {
        fill: #8a9782;
      }

      .st107 {
        fill: #b2c8af;
      }

      .st108 {
        fill: #555f44;
      }

      .st109 {
        fill: silver;
      }

      .st110 {
        fill: #9cb096;
      }

      .st111 {
        fill: #b9aba2;
      }

      .st112 {
        fill: #526590;
      }

      .st113 {
        fill: #617257;
      }

      .st114 {
        fill: #8e5e4b;
      }

      .st115 {
        fill: #506491;
      }

      .st116 {
        fill: #8d9982;
      }

      .st117 {
        fill: #cbcbcb;
      }

      .st118 {
        fill: #adb8a2;
      }

      .st119 {
        fill: #a8c0a8;
      }

      .st120 {
        fill: #8c9880;
      }

      .st121 {
        fill: #656c56;
      }

      .st122 {
        fill: #57604b;
      }

      .st123 {
        fill: #2c2e19;
      }

      .st124 {
        fill: #2b2b2b;
      }

      .st125 {
        fill: #c2d2bb;
      }

      .st126 {
        fill: #597366;
      }

      .st127 {
        fill: #a2c69c;
      }

      .st128 {
        fill: #8e9a82;
      }

      .st129 {
        fill: #939d87;
      }

      .st130 {
        fill: #5d664c;
      }

      .st131 {
        fill: #ddd;
      }

      .st132 {
        fill: #525d42;
      }

      .st133 {
        fill: #2e2f2d;
      }

      .st134 {
        fill: #88937c;
      }

      .st135 {
        fill: #966953;
      }

      .st136 {
        fill: #efefef;
      }

      .st137 {
        fill: #6b7962;
      }

      .st138 {
        fill: #895d4a;
      }

      .st139 {
        fill: #dfdfdf;
      }

      .st140 {
        fill: #a2bca3;
      }

      .st141 {
        fill: #7ca186;
      }

      .st142 {
        fill: #889480;
      }

      .st143 {
        fill: #aab7a2;
      }

      .st144 {
        fill: #beaea5;
      }

      .st145 {
        fill: #747f68;
      }

      .st146 {
        fill: #374331;
      }

      .st147 {
        fill: #a1af98;
      }

      .st148 {
        fill: #7f5441;
      }

      .st149 {
        fill: #a2b69c;
      }

      .st150 {
        fill: #a6b09a;
      }

      .st151 {
        fill: #9ec098;
      }

      .st152 {
        fill: #96a299;
      }

      .st153 {
        fill: #5b6855;
      }

      .st154 {
        fill: #c7c7c7;
      }

      .st155 {
        fill: #dedede;
      }

      .st156 {
        fill: #aab49e;
      }

      .st157 {
        fill: #2e301b;
      }

      .st158 {
        fill: #cfcfcf;
      }

      .st159 {
        fill: #50638f;
      }

      .st160 {
        fill: #a2ada8;
      }

      .st161 {
        fill: #a0998b;
      }

      .st162 {
        fill: #b3c8b0;
      }

      .st163 {
        fill: #abb8a3;
      }

      .st164 {
        fill: #9da8a2;
      }

      .st165 {
        fill: #6b6b6b;
      }

      .st166 {
        fill: #69735d;
      }

      .st167 {
        fill: #a5ae99;
      }

      .st168 {
        fill: #9eab96;
      }

      .st169 {
        fill: #4f638e;
      }

      .st170 {
        fill: #97a08b;
      }

      .st171 {
        fill: #b5c2ad;
      }

      .st172 {
        fill: #a5af99;
      }

      .st173 {
        fill: #949f88;
      }

      .st174 {
        fill: #283020;
      }

      .st175 {
        fill: #565656;
      }

      .st176 {
        fill: #c6c6c6;
      }

      .st177 {
        fill: #898877;
      }

      .st178 {
        fill: #afc5ad;
      }

      .st179 {
        fill: #bcada5;
      }

      .st180 {
        fill: #b6b6b6;
      }

      .st181 {
        fill: #a1ae99;
      }

      .st182 {
        fill: #e4e4e4;
      }

      .st183 {
        fill: #5f7054;
      }

      .st184 {
        fill: #5d5d5d;
      }

      .st185 {
        fill: #a6b39d;
      }

      .st186 {
        fill: #fefefe;
      }

      .st187 {
        fill: #e7e7e7;
      }

      .st188 {
        fill: #a0aa94;
      }

      .st189 {
        fill: #909c84;
      }

      .st190 {
        fill: #8e6b55;
      }

      .st191 {
        fill: #fafafa;
      }

      .st192 {
        fill: #526591;
      }

      .st193 {
        fill: #8c957f;
      }

      .st194 {
        fill: #99a691;
      }

      .st195 {
        fill: #a2c59d;
      }

      .st196 {
        fill: #a6b39e;
      }

      .st197 {
        fill: #b4c0aa;
      }

      .st198 {
        fill: #8e9a83;
      }

      .st199 {
        fill: #989385;
      }

      .st200 {
        fill: #d1d1d1;
      }

      .st201 {
        fill: #9aa59e;
      }

      .st202 {
        fill: #a56650;
      }

      .st203 {
        fill: #769173;
      }

      .st204 {
        fill: #d9d9d9;
      }

      .st205 {
        fill: #313d2b;
      }

      .st206 {
        fill: #b8aaa1;
      }

      .st207 {
        fill: #8a957e;
      }

      .st208 {
        fill: #9eb9a0;
      }

      .st209 {
        fill: #b0bca7;
      }

      .st210 {
        fill: #8b9780;
      }

      .st211 {
        fill: #fffdfd;
      }

      .st212 {
        fill: #5c5c5c;
      }

      .st213 {
        fill: #738d72;
      }

      .st214 {
        fill: #748e71;
      }

      .st215 {
        fill: #5a634e;
      }

      .st216 {
        fill: #69705a;
      }

      .st217 {
        fill: #76806a;
      }

      .st218 {
        fill: #e6e6e6;
      }

      .st219 {
        fill: #a0aba6;
      }

      .st220 {
        fill: #919c85;
      }

      .st221 {
        fill: #4e5742;
      }

      .st222 {
        fill: #a4b19c;
      }

      .st223 {
        fill: #afafaf;
      }
    </style>
  </defs>
  <path class="st28" d="M21.18,994.08v1.04c-.22-.16-.77.16-1.02,0-2.2-1.37-3.46-1.25-6.12-1.04l1.02-2.07,6.13,2.07s-.01,0,0,0Z"/>
  <path class="st158" d="M1026.38,520.6c-.13-.09-3.31-5.71-3.79-6.3l6.86,3.97h0c1.92-1.82,2.13-2.52,2.29-2.09.44,1.15,4.41,1.15.44,6.98"/>
  <path class="st176" d="M1112.5,515.73l3.07,1.86c2.16.87,1.42.65-1.3,2.34-7-4.45-12.95-8.48-20.16-12.6-1.35-1.37-.78-1.72,1.02-1.05,5.91,2.64,11.81,6.9,17.37,9.45h0Z"/>
  <path class="st25" d="M1017.19,517.45c.29-.92.63-.9,1.02,0,1.42.16,2.43,1.19,1.02,2.1-3.01,5.19-6.77-.45-9.2-3.15-1.35-1.48-.78-2.02,1.02-1.05,1.63,1.24,4.05,2.13,6.13,2.1h0Z"/>
  <path class="st158" d="M1037.63,513.25l-3.06-8.4c.44-.56,1.99,1.85,2.55,2.1.31.14,1.02-5.62,4.59,1.05-.07,1.49-.76,2.89-2.04,4.2.57,1.59-.82,2.07-2.04,1.05h0Z"/>
  <path class="st158" d="M1026.38,520.6c1.17-.04,1.51.31,1.02,1.05-.57,3.74-6.51-.46-8.17-2.1-.41-.4-.62-1.53-1.02-2.1-.87-.3-.86-.65,0-1.05,1.47,1.2,5.93,2.98,8.17,4.2Z"/>
  <path class="st155" d="M1016.17,465.99c-.02.49,2.59,5.65.51,7.36-5.63.15-1.54-3.43-1.53-7.36.29-.92.63-.9,1.02,0Z"/>
  <path class="st98" d="M1037.63,513.25c.39.05,1.46-.86,2.04-1.05.29-.92.63-.9,1.02,0-.07.08-.07,1.68,0,2.1.64,2.6-2.24,1.94-4.09,1.05-2.33-1.86-3.29-4.18-5.11-6.3-1.07-1.5-.6-2.05,1.02-1.05,1.18,1.34,3.39,5.02,5.11,5.25h.01,0Z"/>
  <path class="st117" d="M1016.17,465.99h-1.02c0-.43-1.94-1.81-.7-3.98.36-.63,2.58.81.7-3.37,5.5,2.84,1.07,6.04,1.01,7.35h.01Z"/>
  <path class="st200" d="M1041.72,508c2.88,5.36-.6,3.73-1.02,4.2h-1.02l-2.04-3.14,4.08-1.06h0Z"/>
  <path class="st158" d="M1031.56,518.26c3.01,6.64-.43,5.47-4.14,2.76-.55-.41-.84-1.24-1.03-1.38.22.19,3.88-1.27,5.17-1.38h0Z"/>
  <path class="st103" d="M1042.79,510.58c.32,2.02.88,8.25-4.24,6.4-.96-.35-1.32-1.15-1.94-1.64l6.18-4.76h0Z"/>
  <path class="st52" d="M1009.01,472.29c2.91-3.74,3.27-2.89,3.07,2.1-1.64.2-3.54-.25-5.11,0,.69-.68,1.44-1.33,2.04-2.1Z"/>
  <path class="st109" d="M1011.06,515.35l-1.02,1.05c-1.57-1.75-4.13-3.51-4.08-6.3,2.26.56,3.78,4.25,5.1,5.25h0Z"/>
  <path class="st176" d="M1095.13,506.27l-1.02,1.05c-.95-.54-6.29-2.57-5.1-3.14,2.63-.52,4.22,1.24,6.13,2.09h-.01Z"/>
  <path class="st158" d="M1023.35,521.66l-1.46-.07c-.85-1.21-13.84-14.87-13.56-17.26l.51-.53c1.95.91,13.99,17.27,14.51,17.86h0Z"/>
  <path class="st87" d="M1033.2,508l-1.02,1.05"/>
  <g>
    <path class="st124" d="M465.16,113.91l3.98.19,1.23,2.97,3.08,2.56c53.76,156.97,107.64,313.99,161.62,471.07l-.07,6.2,1.52,1.67-7.63,15.93,12.23.64c1.45.14,1.54,1.38,1.18,2.84l.34,2.44c-27.15,21.9-13.73,54.98-1.58,81.26,4.25,13.83,10.52,16.42,18.8,7.77,3.6-1.74,10.91-3.94,13.7-.78l2.3.25,102.63,300.12c-.06,1.64-1.04,2.67-2.49,3.33-49.05-.07-97.78-.06-146.2,0-1.33-.9-2.15-2.36-3.12-3.16l-2.5-3.44c-68.07-198.8-137.02-400.93-206.85-606.39l-15.73-50.32c-1.98.3-3.34-1.14-4.09-4.32-76.43,222.59-153.19,444.82-230.27,666.71-48.24,1.13-96.7,1.41-145.36.85l-.54-1.1c-5.07,0-6.82-1.02-5.27-3.04-.91-.3-.9-.65,0-1.06l-1.63-1.66C117.32,707.73,220.6,410.24,324.24,112.98l2.38-1c45.16-.28,90.4-.32,135.71-.1l2.83,2.02h0Z"/>
    <path class="st124" d="M1185.95,114.26c.24,1.75.94,3.02,2.09,3.82v104.56c.01,1.99-1.18,3.06-3.07,3.4h-352.14c-.79-1.41-2.68-2.12-5.68-2.12-.92-.72-1.17-.58-1.04-2.11l-2.07-1.3,1.01-105c0-1.98,1.2-3.04,3.09-3.38h352.14c.81,1.4,2.69,2.11,5.68,2.12h-.01Z"/>
    <path class="st124" d="M473.91,724.85l4,.15c.8,1.18.68,2.85,1.2,4.07l2.64,2.69c11.98,29.95,22.65,60.41,32,91.39l-2.03,1.88h-222.62c-1.39-1.4-3.7-2.11-6.93-2.11-.07-.79.72-1.39,1.04-2.11l.43-6.35c10.23-30.28,20.76-60.41,31.6-90.4,52.04-1.19,104.26-1.63,156.68-1.32l1.99,2.11h-.01Z"/>
    <path class="st59" d="M465.57,113.56l-138.11-.07-1.64.69L16.47,1006.76c-1.61.27-5.68-.55-6.25-2.11L319.58,109.96c47.43-1.34,95.57-.45,143.23-.46l2.77,4.05h-.01Z"/>
    <path class="st8" d="M778.54,118.13c3.34,130.7,3.35,261.6,0,392.29-.16.96-.51,1.66-1.04,2.11-.1,8.31-2.48,15.17-7.13,20.55l-12.71,13.28c-1.78,3.02-3.85,5.1-6.21,6.24-1.67,3.26-4.24,2.31-7.72-2.83-8.71-2.53-16.26-6.81-22.64-12.82-5.43,1.84-8.54-.94-9.32-8.33-3.86-1.47-6.61-3.67-8.24-6.6-.42,1.66-1.11,1.3-2.08-1.06-3.18,2.38-12.67-7.32-10.42-10.54-3.77-.5-7.53-8.29-6.08-11.24l-1.21-3.51c-.94-.25-.91-.6,0-1.06-.93-.12-1.28-.48-1.04-1.06-4.57-.74-6.18-4.19-7.29-8.44-.46.48-.81.12-1.04-1.06-1.43-.53-1.78-2.29-1.04-5.27-4.24-2.6-2.8-16.19-.55-20.35l2.64-.74,1.42-1.85c11.09,3.11,18.71,1.21,22.87-5.73l2.81-.84c1.16,1.08,2.21,1.78,3.12,2.11l2.08-.8c1.95,5.75,4.57,6.85,9.38,2.92-1.06-1.48-.56-2.04,1.04-1.06,2.05.46,3.95.31,5.7-.48,7.56-6.11,15.36-11.24,23.42-15.43l1.09,1.15c8.44-6.52,21.01,2.41,27.09,9.39V116.28l2.09-1.31c1.1,1.07,1.24,1.62,1.04,3.16h-.01Z"/>
    <path class="st127" d="M783.74,117.77v898.48l-145.93.04-6.45-7.07,146.25.08-101.05-301.39c-1.88-2.44,3.26-5.55,5.1-3.16l1.43.05c.96,2.83,1.16,5.97.61,9.43.99-.23.99.47,0,2.11,2.17-.22,2.51.48,1.02,2.11,1.26.12,2.29.48,3.06,1.06,1.72,1.14,1.03,1.94-1.02,2.11.09.48.43,1.18,1.02,2.11.08,4.14-1.2.84-.29.74,1.03-.1,4.74,6.39,2.34,7.68.73,1.86,1.42,3.62,2.04,5.27,3.69,6.91,5.73,13.94,6.12,21.07l3.1,2.92c1.64,6.8,4.01,13.2,7.1,19.2,1,.85.66,1.2-1.02,1.06,1.86,2.51,4.29,9.12,2.04,11.59,2.74-.13,2.98-.07,1.02,2.11,2.9,2.47,3.95,5.71,3.06,9.48,2.62-.86,2.86.05,1.02,2.11,4.81,4.62,7.22,13.31,6.12,20.02,1.96-.92,1.81.27,1.02,2.11,3.56,1.38,4.95,4.98,3.06,8.44,8.53,15.63,14.61,32.86,17.35,50.58,3.07.44,3.21,2.1,1.02,4.21,1.85.59,2.19,1.29,1.02,2.11,3.16,1.38,3.73,3.26,2.04,6.32,1.81.95,2.67,1.73,1.02,3.16,3.16,1.38,3.73,3.26,2.04,6.32,1.36.63,1.69,1.33,1.02,2.11,4.44,5.16,6.48,11.02,6.12,17.92,4.38,9.97,7.78,20.16,10.21,30.56,4.27,3.89,6.1,8.94,5.1,14.75.6.2,1.18.45,1.69.78,2.63,1.77,3.58,13.35,3.41,17.12l1.59-9.71-.02-24.65c-2.29-20.41-2.59-41.27.04-61.65-.59-28.79-.45-57.56.44-86.31-.84-.16-1.85-.62-1.8-1.3,1.24-16.23,2.49-33.22.12-49.56l1.67-1.82c-.65-35.51-.83-71.38-.52-107.62-.85-.64-1.51-1.29-1.53-1.96-.3-14.96-.3-30.14,0-45.1.01-.65.67-1.28,1.53-1.91-.31-31.03-.13-61.73.52-92.12.02-130.29.01-261.4,0-392.03h5.1l.02.05h0Z"/>
    <path class="st127" d="M402.01,349.35c.58,4-.11,6.81-2.08,8.44l-228.2,656.99c-43.23.55-87.78,1.03-131.4.73-6.09-.04-12.11-.09-18.15-.25-.93-.02-1.03-.62-.51-1.54-.17-.4.33-1.7-.05-2-1.78-1.39-7.63,2.49-6.19-3.27.36-.79.7-.8,1.04,0,.13.09-.64,2.6,1.49,2.19l148.44-.2,231.46-671.62,4.15,10.54h0Z"/>
    <path class="st24" d="M617.71,363.74c-3.21-7.97,5.42-10.24,6.95-5.17,1.7-2.41,5.52,1.05,6.25,3.16.09-.81.41-2.02.93-2.01,4.18.04,30.92,2.72,33.29,3.74l3.28,2.49,2.68.47c4.92,8.35,8.26,18.72,8.77,28,.91.11,1.5.53,1.24,1.28-1.75,5.36-3.54,10.68-5.43,16-.27.75-1.13.86-2.07.65-2.68.32-3.97-2.18-1.61-3.3-.16-2.83.03-5.6.57-8.3-1.75-1.25-1.83-14.45-1.82-13.74.66,6.81.69,13.51-.08,20.28l-1.22.84c-2.15-1.78-4.26-4.09-6.31-6.91-3.05-1.59-6.97-6.81-4.33-9.36-.07-6.76-1.63-13.02-5.09-18.94.2-4.16,1.59-.34,1.17.31-2.12,3.23-5.06-6.04-1.14-.27,1.01,1.48,2.07,3.98,2.77,5.72,1.13,2.8,4.31,16.53.34,15.48-2.86-.76-13.02-11.99-11.85-16.1-7.9-20.01,1.03-.9.43,1.31-.42,1.54-.96,1.7-2.26,1.09-6.53-3.02-21.3-25.29-2.6-2.51,2.19,1.22,9.66,7.82,9.26,10.37-.17,1.11-7.63.64-9.07.31-4.32-1.01-14.8-5.44-4.46-1.48,4.14,1.59,9.44,2.93,13.34.88,1.35.07,11.14,8.58,10.69,10.43-.42,1.7-8.06,1.39-9.98,1.27-18.51-5.53-21.52-3.18-.1-.02,3.36.5,6.96.08,9.85-1.19,1.26.14,9.62,9.36,8.29,11.73l-1.51,1.24c-24.8,2.9-10.87-.89.92-.06,4.79.34,6.98,1.98,7.53,7.36-6.5,3.49-12.29,7.67-17.36,12.55-.04.73.31,1.09,1.04,1.06,3.52-5.76,8.25-9.98,14.21-12.68,3.22-4.48,7.25,2.88,1.43,4.24.38,3.95,2.67,1.95,4.17,0,2.42.03,5.23,5.48,3.12,7.38l3.68-.04c5.46,5.11,6.21,5.85.62.59-2.03,1.04-1.75-.52-1.17-2.67-3.97,1.11-9.35-13.26-1.6-9.02-.66-.57-1.34-1.38-1.15-2.14.28-1.14,19.59-4.2,22.56-4.66,2.43-1.27,1.72-1.62-2.08-1.06-1.18,1.81-6.58,3.47-8.33,2.11.06-.89-.63-1.24-2.08-1.06,1.1,3.08-7.56,4.68-9.38,3.16-1.26.63-2.65.28-4.17-1.06.79,2.88-.03,3.19-2.08,1.06l-1.26-4.44c1.87-6.21,4.02-12.11,6.48-17.7-1.4-1.18-.87-2.69,1.57-4.53l3.6-8.23c2.43-5.64,5.21-7.36,8.38-5.17,2.55-1.89,4.2-1.14,4.17,2.11l3.08-.27c2.54,3.53,5.59,5.29,9.15,5.29,1.3,4.19,3.48,7.79,6.53,10.81-.09,2.78.26,4.88,1.04,6.33,3.01,1.25,4.23,7.02,1.04,8.44,2,.59,1.99,1.52,0,2.11,2.05,1.33,2.06,2.89,0,4.22,1.8,1.39,1.8,2.1,0,2.11,2.69,1.35,1.9,4.95-1.04,5.27,1.12.33,1.12,1.04,0,2.11-.81,2.36-3.3,7.31-6.25,6.33,1.33,1.57.73,2.15-1.04,1.06.66,3.42-5.15,4.41-7.29,2.11.37,1.81-.33,1.81-2.08,0-.31,1.73-1.17,2.23-2.6,1.44,1.41,2.52,2.22,5.12,1.56,8.05v5.27c-1.32,2.12-1.92,4.77-3.61,6.37-4.88,4.6-17.39,3.44-23.48,2.07-2.63,3.15-12.81-1.19-12.51-5.27-7.01.49-13.92-8.93-18.01-14.59-6.11-8.44-11.11-18.18-12.21-28.64-1.32,1.39-1.78.73-1.04-1.06-3.84-3.91-5.92-9.52-6.25-16.87-.16-2.9-3.83-7.38-4.87-17.33"/>
    <path class="st59" d="M399.93,357.51c-.08-2.88-.05-6.26,2.08-8.44,153.53,438.43,153.53,432.37,226.57,660.06,1.55,4.83,1.22,3.26-7.74-6.23"/>
    <path class="st108" d="M631.94,408.83l1.74,9.36-.7,48.59c8.52-4.66,16.68-9.83,24.49-15.49l2.1.77c3.27,2.24,7.66,4.34,11.44,5.27-3.27,7.03-2.25,13.89-1.91,21.09-.01,5.38-.01,10.65,0,15.82-2.02,4.52-5.72-1.89-2.86-4.22l-1.1-.56c-1.8-6.6-3.65-13.1-5.57-19.48-.79-.43-1.1.27-.95,2.11,1.98,1.95,3.37,4.75,4.16,8.4,4.55,13.04,1.63,12.76-8.75-.86-3.45-1.71-6.05-4.22-7.8-7.54h.74c7.09,5.54,14.33,11.42,20.14,18.77.17.22.02.7-.23,1.26,7.21,1.71-2.87,7.48-5.23,2.11-1.28.44-2.12-.02-3.07-.76-6.6-5.17-13.21-10.32-19.97-15.06-1.42-.58-2.11-.58-2.09,0,6.95,3.63,16.85,9.13,22.02,14.99.31.35.2,1.06-.02,1.88-1.66,3.51-9.35,2.37-11.52,0-1.68-.21-2.38.14-2.09,1.06-1,1.47-2.14,1.47-3.14,0l-1.43,1.06c-7.47-.66-15.03-.32-22.66,1.06,2.12-.91,15.4-1.87,16.07-1.4.38.26.56.79.69,1.4,2.81,1.33-6.04,8.35-5.68,7.94,1.13-1.31,7.77-8.79,8.36-8.97,1.44-.45,2.7-.3,3.61,1.03,1.44-1.35,7.07-2.46,7.33,0,2.39.74,4.83,1.1,7.33,1.06.11-.95.47-.9,1.05,0,4.02-1.02,7.89-1.42,11.52,1.06-1.41-1.56-.81-2.14,1.05-1.06,1.42-.76,2.44-.68,3.23.81,1.02,1.92-5.19,20.42-9.52,21.33,1.46,3.83-4.45,10.54-8.38,10.54-6.76-4.06-13.64-8.38-20.63-12.95l-.31,47.23c-.18,2.13-.85,3.17-3.15,2.63-2.79-.34-2.66-1.3,0-2.11-1.74-17.52-2.43-35.07-2.09-52.48-1.84-.55-2.89-1.68-3.15-3.41-2.49-1.4-2.13-.48-5.58-1.52-7.02-2.54-15.77-7.32-10.13-15.35,1.72-2.81,3.34-3.34,5.23-6.33,3.07-3.73,5.78-6.37,9.43-9.49,1.55-2.05,2.94-4.05,4.18-6.01l-.09-62.33c.12-2.37.78-3.47,2.96-2.31.12.34.82.68.95,1.06l-.02.02h0Z"/>
    <path class="st195" d="M1185.27,114.96c2.3,1.82.34,4.44,6.95,3.15v110.74h-359.84c.95-5.2-2.15-1.8-5.21-4.22h358.11v-109.68h0Z"/>
    <path class="st159" d="M1180.4,110.74c-1.08,5.25,2.59,1.77,5.21,4.22h-358.8v107.56l-5.56-1.06v-110.73h359.15Z"/>
    <path class="st127" d="M638.21,590.57c2.71,1.87,1.25,6.32-2.08,6.33L471.48,117.07l5.26,1.75c42.61,126.94,117.93,345.14,161.46,471.75"/>
    <path class="st127" d="M625.7,552.61l2.24.82"/>
    <path class="st59" d="M283.22,821.51l-6.25-1.06,33.3-99.47h161.96l1.68,4.22h-157.39c-12.47,31.56-20.05,66.13-33.3,96.32h0Z"/>
    <path class="st12" d="M479.12,729.76l5.26.68c11.13,31.68,21.08,64.04,33.29,95.29.96,1.47-.19,2.34-3.44,2.11h-225.81c.96-5.36-2.48-2.28-5.73-3.17l-.52-1.05h230.28c-11.86-30.52-20.51-63.89-33.34-93.86h.01Z"/>
    <path class="st203" d="M635.42,152.93l2.93.9c5.75,9.1,14.06,16.17,22.88,22.08,2.43,3.23.13,3.82-2.89,4.44-.13,2.88-2.75,3.62-4.17,1.06-3.57-2.08-4.61-2.08-3.12,0-1.16,3.84-12.57,6.63-13.55,2.11-.95-.02-1.36.3-1.04,1.06,2.62.75,3.59,6.05,1.04,7.38-.18,1.01.14,1.72,1.04,2.11,4.73.64,9.88,19.26,2.74,17.18l-3.78-.3c-.93,2.94-5.2,3.01-6.25,0-.72,3.05-5.09,2.86-6.25,0-.86,1.81-3.45,1-3.12-1.06l-5.21-1.06c-1.89-.22-3.41-.63-5.21-1.06,5.21,1.06-3.84.65-5.21-1.06-1.6-1.54-5.51-1.87-7.29-4.22-.77-2.02-.92-4.3,0-6.33.13-.14,2.53-1.72,3.12-2.11,1.14-1.67,2.89-2.73,5.21-3.16.38-.04.86.11,1.04,0,1.62-.5,2.54-1.58,3.12-3.16,2.32-3.16,3.78-8.17,6.43-11.95,2.06-2.94,5.12-5.12,7.11-8.09l2.5-9.72c.79-1.88,1.64-2.68,3.75-1.88.62-3.89,2.02-4.95,4.17-3.16l.02.02h0Z"/>
    <path class="st192" d="M631.61,210.93l2.08.73c.49,30.09.08,60.33-1.21,90.71,1.17,19.46,1.58,38.82,1.21,58.06l-2.08,1.29c-2.79.62-5.44-2.84-6.25-3.16-2.6-1.46-3.03-2.09,0-3.16v-142.36c-2.76-.34-2.65-1.3,0-2.11,1.62.13,4.05-.22,6.25,0Z"/>
    <path class="st159" d="M625.34,110.74l145.63-.6c.83,1.04,1.49,2.29,1.99,3.76,1.15.41,2.3-.75,4.17,1.06l-.72,1.4h-143.17c.98,5.55.32,9.06-1.98,11.25.47,1.98.5,4.4.09,7.23,1.37,3.37,1.34,5.88-.09,7.53,2.04,5.51,2.04,10.08,0,13.71-2.92,3.47-3.71,7.82-5.91,11.6v-56.95h-.01Z"/>
    <polygon class="st28" points="1180.4 109.34 821.25 110.74 821.25 221.47 821.25 109.34 1180.4 109.34"/>
    <path class="st58" d="M632.5,411.82c-1.72,1.1.22.85.35,2.64,1.36,19.3-1.34,39.01-2.65,58.51-1.6,3.07-4.79,4.59-6.23,5.82,1.18-1.76,1.02-3.74,1.08-5.75.88-25.33,1.42-56.69-.04-81.78,2.27,5.56,5.3,14.97,7.5,20.56h0Z"/>
    <path class="st28" d="M517.67,825.74c.26.65,2.36,2.16.52,3.51h-229.76l225.65-1.4,3.6-2.11h-.01Z"/>
    <path class="st28" d="M625.01,110.74l146.43-1.4,1.53,4.57c-1.35-.48-.39-3.73-2.54-3.16h-145.43.01Z"/>
    <path class="st28" d="M967.38,319.19c-2.92-.53-12.49-.4-15.63,0,4.07-1.78,11.77-1.76,15.63,0Z"/>
    <path class="st186" d="M622.22,209.87c1.17.14,2.47,1,3.12,1.06v2.11c-2.7.28-5.33.11-5.21-3.16.6-.76,1.31-.54,2.08,0h.01Z"/>
    <path class="st186" d="M607.3,190.89c-.68,2.71-3.96,2.35-5.21,3.16.37-5.07,4.1-3.03,5.21-3.16Z"/>
    <path class="st28" d="M598.95,202.49c-1.59-2.1-1.85-4.37,0-6.33v6.33Z"/>
    <path class="st28" d="M621.88,209.87c-.68-.08-1.4.07-2.08,0-1.12-.12-2.6.38-3.12-1.06,1.62.19,4.31-.75,5.21,1.06h-.01Z"/>
    <path class="st57" d="M672.94,499.88c-.85-2.34,2.55-2.76,3.04-1.37.23.68-.01,13.69-.34,14.33-.06.13-.05-2.92,1.47-1.35,1.47-1.57,2.57-1.22,4.17,0-.18-2.02.16-3.44,1.04-4.22,3.11.59,5.89,1.64,8.33,3.16,2.41,3.37,7.06,8.21,10.42,10.54,2.39,5.03,3.44,10.65,3.12,16.87,1.39,1.54,1.9,6.32,0,7.38l-1.68.11c.35,1.58.56,6.29-.4,9.37.19,3.14-1.49,3.72-3.12,1.06-1.43,1.18-5.29-4.48-5.09-4.18,2.94,2.31,3.95,4.76,3,7.35l.4,1.51c-1.18,1.21-15.91,13.27-16.89,12.54-.65-.49-.69-1.56-.69-2.44.01.57-.03,1.09-.31,1.4-.66.76-18.19-.69-19.49-1.4-.57,1.22-2.49,1.92-5.73,2.11,7.63-1.32,16.36-1.51,24.31-1.06.26.01.48.47.7,1.06,2.52,3.07-1.36,4.04-4.17,4.22-1.47,1.87-1.1,2.21,1.04,1.06,4.23-4.17,9.47-9,15.53-12.19l2.18,1.64c2.36-.11,3.93,16.31,3.74,15.51-1.24-5.49-2.42-13.32-1.66-18.67-1.37-2.52,4.87-7.63,7.29-5.27,2.46,0,3.5-.69,3.12-2.11.1-3.26,5.93-4.16,7.29-1.06,1.68.72,5.06,1.11,4.17-1.06-2.88,1.05-6.97,1.25-4.7-2.45-6.14,3.8-9.98,2.93-7.1-4.65-.86-4.43-1.24-9.47-.7-13.99-1.96-3.17-2.92-7.97-2.08-11.6,2.51,1.65,8.27,3.36,9.86,5.3,2.01,2.45,1.08,6.79,2.6,7.97,1.15.9,3.51-1.01,5.54-.48,1.17.31,7.03,6.13,9.39,7.47,4.1,2.34,10.44,3.44,14,5.77,2.4,1.57,2.48,5.31,6.54,4.56.91.19.87.55,0,1.06.8,3.77.95,7.62.45,11.54,2.24,5.46-2.21,14.45-7.74,16.93,1.39.64,1.04,1.35-1.04,2.11.69,2.14-.7,4.25-4.17,6.33.28,2.62-.11,2.71-2.08,1.06-2.81,6.09-11.83,13.67-18.76,10.54l-.95,2.29c-7.48-.52-13.63,1.24-18.45,5.29l-2.48-.19-2.4,2.39c-8.55-.73-17.05-1.09-25.5-1.06-2.36,1.71-4.52,1.96-6.49.77l-.65,2.39c-5.53,1.22-10.89,2.95-16.07,5.17l-2.03-1.23c-2.6-2.5-13.92.21-15.54-2.21-1.17-1.75,6.82-15.72,8.24-18.88,1.42-3.16,1.23-3.84,2.08-6.33,1.61-18.93,4.42-39.85,13.45-56.87l3.22-1.13c2.51-3.61,5.91-6.77,8.33-10.54,1.91-1.37,3.47-3.15,4.7-5.36l1.55.09c3.5-2.82,4.9-7.39,4.17-13.71-1.65-.33-1.43-2.67,0-3.16h.01Z"/>
    <path class="st79" d="M661.48,611.66c9.39.55,16.42,13.26,14.57,22.52l1.06.68c1.72-4.1,9.94-6.61,12.51-3.16,3.36-.15,5.45.55,6.25,2.11,5.38,2.45,7.8,5.26,7.29,8.44,2.8-.46,2.91,0,1.04,2.11,8.24,3,4.74,14.51,1.82,21.06-1.1,7.23-3.51,15.24-7.03,21.12l-12.02,15.71c-2.59,3.27-5.18,4.35-7.77,3.27-.98.58-4.92,3.07-5.21,3.16-2.95.91-7.43.4-11.17,1.88-5.45,2.16-9.09,9.45-15.86,4.91-3.64-2.44-14.94-30.09-16.77-35.76-5.46-16.88-8.88-33.56,1.24-49.43,1.44-2.26,9.38-11.02,11.29-12.3,4.33-2.88,13.55-4.74,18.76-6.33h0Z"/>
    <path class="st124" d="M776.8,114.96v338.52c-7.05-10.39-15.87-17.62-29.18-15.82l-.87-2.93,12.73-21.64c4.78-8.48,7.98-17.9,6.64-27.77l-14.72-.81c-10.6-4.22-19.83-7.65-31.51-6.83l-1.45-2.23c.51-3.58,3.12-6.62,7.81-9.15,12.62-6.05,22.52-11.13,30.37-22.79,10.49-15.59,5.7-32.27-15.28-25.55-2.1-4.07-4.41-8.05-6.94-11.92l.71-2.3c-4.62.53-5.33-2.97-2.13-10.48-.14-8.76-4.83-16.79-9.24-24.07l.96-2.35c-2.53-10.97-5.81-21.7-9.86-32.22-.24-2.28,1.21-2.88,3.34-3.18,16.99,8.37,38.83,6.43,32.26-18.01-7.55-6.33-14.74-12.99-21.57-19.98l1.05-2.52c2.61-3.5,12.73-1.85,17.38-1.06,6.13,1.04,9.77,2.89,14.98,5.86-5.67-28.31-24.59-63.27-54.49-70.01l-1.85-2.28c-3.59,1.36-9.84,3.41-12.51,0-.59,2.01-1.5,2.01-2.08,0-4.35,2.39-9.2,2.39-14.59,0-.19.94-.55.91-1.04,0l-1.25,1.41c-14.09-1.51-27.58-.24-40.47,3.8l-3.08-1c.39-2.24-.47-12.2,0-12.66h145.89-.02Z"/>
    <path class="st123" d="M700.03,378.6c-.63-4.24,9.95-7.46,7.29-1.06,2.15,2.7,5.24,1.69,9.29-3.01l2.17.91c5.1.5,12.27.22,17.11,1.14,5.5,1.05,11.56,5.14,17.01,5.99,3.36.53,14.18-.61,15.45,1.24,3.45,21.61-11.82,36.19-20.38,53.85-5.54,1.1-24.38,19.62-28.13,17.44-.53-.32-1.44-1.92-2.09-2.68-1.68-.26-3.28-2.5-3.12-4.22-3.77-3.23-7.82-9.02-9.38-13.71.45-.08,6.34-1.8,7.29-2.11,4.75,3.29,8.92,7.5,12.51,12.66,1.56,1.17,1.56.81,0-1.06-4.16-3.52-8.51-8.21-11.47-12.66.52-.53,2.44-4.2,3.61-5.32.75-.72,1.62-.99,2.64-1.01.74-.59.68-1.3,0-2.11.08-2.54.97-4.24,1.04-5.27.83-.59.77-1.3,0-2.11.04-1.4.02-2.82,0-4.22,3.22-1.29,6.31-3.31,9.28-6.02,3.7,1.62,7.98-1.72,10.3-4.81,4.11.46,7.8-2.08,10.31-5.12l2.41,1.2v-1.06c-2.96.57-4.6,1.8-4.93,3.69-4.38.54-9.77,2.36-12.07,6.03l-7.01,1.21c-2.85,3.67-5.61,4.6-8.3,2.77-.03-1.85-.9-5.59-1.04-8.44-1.52-.89-1.21-3.12,0-4.22.6-3.23.26-4.98-1.04-5.27.53,1.09.95,2.3,0,3.16l-2.07,3.15c-.21-3.5-3.34-5.73-4.65-8.5-.66-1.38-.45-4-.58-4.17-.09-.12-1.76,1.17-3.08.59-.75-.34-6.33-5.53-8.38-6.9h-.01Z"/>
    <path class="st68" d="M778.17,759.29c-2.98,0-3.36-1.29-1.04-3.16l-1.73-6.77v-72.78c-6.88.71-18.34-4.56-20.74-11.39l-1.96-3.03c.17-12.31-2.66-24.6-8.68-35.34l.27-3.6c-.49-3.31.68-7.27,2.65-9.87.54-4.28-5.39-15.41-7.83-19,.69-1.56.69-2.78,0-3.67-.89-3.77,2.94-4.65,4.15-6.3,4.32-1.76,4.66-2.45,1.04-2.1,6.3-9.45,8.48-16.58,7.25-28.34,1.84-.86,2.69-.43,3.01,1.5l.09,9.24c3.18.82,5.94,1.75,8.28,4.23l12.47,26.02v-69.62l1.73-12.8c.31-.6.16-1.64,1.04-2.11v248.87h0Z"/>
    <path class="st23" d="M776.8,512.53v91.74l-15.79-33.05c-.62-3.36-8.67-4.54-9.1-5.03-.55-.64,0-8.02-.07-9.99-.06-1.39-1.08-2.4-1.09-2.54-.02-.35-.03-.71,0-1.06.47-5.78,17.18-19.38,20.67-24.95,3.06-4.87,2.81-9.99,5.38-15.12h.01Z"/>
    <path class="st72" d="M733.38,481.95c2.56.25,5.33-.61,8.29-2.59l-.19,2.41c2.7-1.13,3.15.22,1.28,2.29.58.64,1.63.64,3.12,0,3.46-.37,13.07-1.66,15.63-3.16,2.12-1.04,2.87-.18,3.12,2.11,1.84.41,6.44-.21,7.28,2.1-8.58-.68-16.53-1.7-25.07.48-6.91,1.76-2.94,3.94-3.06,5.86,1.99,1.34,2.6,2.87.16,2.65l-.16,3.68c.58,1.56,0,2.27,2.08,3.16,2.4,1.69,1.76,2.12-1.04,2.11-.6,3.84-.09,4.15,3.12,5.27,1.36,1.05,1.01,1.39-1.04,1.06-1.48,1.7-.58,11.28,3.12,10.54-1.44,1.75-2.83,3.51-4.17,5.27-.52-2.65-.48-7.33-3.12-6.33-.58-.28-.56-.64,0-1.06.73-4.13-.73-8.4-2.08-12.66-2.92-.63-3.61-1.68-2.08-3.16-1.47-3.54.99-5.43-4.17-7.38-2.09.83-2.44.88-1.04-1.06,3.21-2.14,1.12-2.26,0-5.27-2.88-.6-2.55-.96,0-2.11-1.42-3.29-4.49-2.84-7.29-3.16.82-.95,1.51-2,2.08-3.16-.75-.94-1.32-2.35-2.08-3.16-2.02-2.38-.86-3.9,2.08-3.16,1.1,4.84.98,5.38,5.21,8.44l.02.02h0Z"/>
    <path class="st56" d="M670.15,490.38c1.11,3.44.19,3.61,3.12,4.22.26-.91.6-.88,1.04,0,.35-.91.69-.91,1.04,0,.33-1.99,1.14-1.87,2.08,0,2.05-.83,4.16-.79,6.25,0,.12.26-.11.71,0,1.06l1.04,3.16-4.04.71c-.51,2.17-1.24,2.64-2.21,1.39l-1.11.7,1.83,8.24-1.75,1.61c-1.09-.01-.51,2.56-2.07,2.11l.04-13.07c-.18-1.27-1.59-.42-2.13-.63l-1.51,1.34c.14-1.99-1.19-2.07-2.65-1.34-.41.32-.73.62-1.04,1.06l-1.24.56c-1.76-2.8-5.17-3.34-10.21-1.61-.35-.03-.69.03-1.04,0-2.58,2.15-3.88,2.08-3.9-.23l-3.4-.82c-2.24-.05-5.18-.27-7.29,0-2.59-1.59-1.63-1.99,1.04-2.11,1.03.03,2.09.03,3.12,0-.64-2.6.02-2.49,2.08-1.06,3.68-.15,7.73.34,11.47,0-.18-1.96.86-2.31,3.12-1.06,1.98-.25,4.22.19,6.25-.01.46-.26-1.07-1.76-1.04-2.1-1.38-2.17-1.14-3.33.95-1.92-.01-1.94.96-1.72,2.18-.18v-.02h-.01Z"/>
    <path class="st157" d="M703.16,434.49c4.33,3.62,8.09,9.57,10.42,14.76,1.75.48,3.16,2.37,3.12,4.22.04.61,1.57,2.62,1.05,3.15-.45.47-8.51,1.36-9.83,1.12-1.07-.2-.48-3-1.06-4.33-.47-1.08-1.43-1.65-1.61-2.05-2.06-.27-2.25-2.37-2.08-4.22-1.58-.03-1.68-1.84-1.04-3.16-1.68-3.53-3.5-7.02-5.21-10.53,2.1-.89,4.96,1.02,6.25,1.05h0Z"/>
    <path class="st1" d="M755.26,455.59c-1.97,3.43-15.21,24.26-13.54,26.36,7.81-3.46,12.62-10.33,18.75-15.82,1.47-1.39,2-.8,1.04,1.06-5.26,6.6-11.2,11.65-17.71,16.87-.3.84-.64.83-1.04,0,0-.19-1.95-3.03-2.1-3.14-2.02-1.42-2.13,2.83-4.85,2.99-1.98.12-1.91-1.58-2.43-1.95l-2.08-9.48c2.01-2.46,5.27,8.73,5.22,9.47,1.98-1.09,1-6.31,1.03-8.42,2.49-1.8,2.13,3.01,1.8,5.13l1.34.15c.68-1.2.95-4.09,1.9-5.99,2.8-5.56,7.72-13.48,11.65-18.26,1.47-1.39,2-.8,1.04,1.06h-.02Z"/>
    <path class="st134" d="M750.05,519.91c3.64,0,13.89,4.41,15.63,8.43l-17.71-6.32c-3.18,8.3,7.45,7.51,9.37,12.14s-7.26-3.8-8.32-2.65c.04,3.07.97,5.78,1.08,8.92.04,1.16.65,4.01-1.08,3.72-1.65-6.2-1.91-12.7-3.14-18.98,1.17-1.95,1.09-5.27,4.17-5.27h.01Z"/>
    <path class="st48" d="M733.38,486.16c.21.49-.2,1.57,0,2.11-12.19,3.73-28.48,3.91-38.05,12.65-3.28.25-.9-2.63.53-3.68l-3.13-1.05,40.65-10.02Z"/>
    <path class="st189" d="M719.83,480.89c.61.5.27.85-1.04,1.06-6.33-.02-13.03-1.98-19.21-.99-4.37.7-8,5.41-13.09,4.14l9.37-4.22-8.32-3.14c7.07.11,14.31.43,21.35,1.05,3.4.3,7.85,1.77,10.95,2.11h0Z"/>
    <path class="st1" d="M734.42,494.6l-30.21,16.87c.07-2.7,3.96-4.75,5.92-6.13,7.36-5.16,16.39-7.25,23.25-11.8-.13,1.1.52.85,1.04,1.06Z"/>
    <path class="st207" d="M728.16,473.51l-2.08,3.16c-3.82-4.02-8.41-7.83-12.51-11.6-1.38-1.49-.8-2.02,1.04-1.06,4.16,2.97,7.71,6.03,11.46,9.49-.24-3.99-1.75-8.21-2.06-12.15-.09-1.16-.78-3.93,1.01-3.66,1.87,5.06,1.97,10.67,3.14,15.81h0Z"/>
    <path class="st108" d="M683.36,495.66l7.29,14.76c-5.16-.24-6.24,1.83-8.33-3.16-.59.19-1.05.33-1.07.27-2.08-4.97-3.63-8.75,3.15-8.71-.47-1.02-.7-2.11-1.04-3.16h0Z"/>
    <path class="st207" d="M738.58,501.98c.23.56,1.24.55,2.08,3.16-1.94-1.65-2.37-.08-3.64,1.02-6.95,6.01-10.92,14.56-17.18,21.12,3.02-10.04,11.28-18.38,18.75-25.31h-.01Z"/>
    <path class="st1" d="M743.79,491.44l28.15,12.13c-9.31-.48-18-7.11-27.09-9.52l-1.06,3.72c-1.66-4.44-.18-3.49,0-6.33h0Z"/>
    <path class="st128" d="M747.96,508.31c8.33,2.92,16.71,4.11,21.88,12.65l-14.2-8.29-8.72-3.3c.32-.37.73-.67,1.04-1.06h0Z"/>
    <path class="st10" d="M740.67,478.79c-.56.99-.35,1.4-2.08,1.05-.5-.58,1.01-5.59-1.05-6.32.06-5.08-.18-10.22,0-15.3.05-1.27-.79-3.93,1.03-3.67l2.1,24.25Z"/>
    <path class="st132" d="M682.32,493.55c-1.61.37-3.35.71-5.21,1.06-.69,0-1.4.03-2.08,0-.98-2.54-.72-6.77,0-9.49,2.11,1.77,5.78,6.09,7.29,8.44h0Z"/>
    <path class="st95" d="M742.75,518.85c-1.04,2.87-5.11,8.5-7.05,11.32-.33.48-1.69,3.31-2.34,1.85,1.39-5.58,4.55-11,9.39-14.22-.06.37.1.78,0,1.06h0Z"/>
    <path class="st86" d="M703.16,522.02c.72,3.9,1.53,7.65,2.08,11.6-.13,1.75-.48,3.16-1.04,4.22l-3.12-16.87c.63.44,1.45.63,2.08,1.06h0Z"/>
    <path class="st96" d="M673.98,484.06c.95,3.29.79,7.35,0,10.54-.34-.03-.71.07-1.04,0-1.16-4.73-2.16-11.41,0-15.82.08,1.5.9,3.38,1.04,5.27h0Z"/>
    <path class="st73" d="M761.51,480.89c2.45-1.44,6.26-7.66,10.42-7.37-.67,3.75-9.41,5.46-7.29,9.48-1.66-.37-2.17-.02-3.12-2.11h0Z"/>
    <path class="st95" d="M745.88,500.93c1.12.48,3.61.6,5.47,1.3,1.35.51,4.71,1.35,4.95,2.9l-11.46-2.1c.09-.61.83-1.42,1.04-2.11Z"/>
    <path class="st207" d="M728.16,479.83c.46.56,2.18.82,2.08,2.1l-4.17,1.07c-1.33-.15-3.43.62-4.17-1.06.3-.44,1-.79,2.08-1.06,1.37.01,3.46.49,4.17-1.06h.01Z"/>
    <path class="st42" d="M675.37,485.11v9.49c-.35-.02-.69.03-1.04,0-.18-3.48.27-7.08,0-10.54.38.32.67.74,1.04,1.06h0Z"/>
    <path class="st101" d="M705.23,451.36l-.52,2.11c-1.24-1.14-2.04-2.66-2.61-4.21-.31-1.53.05-2.23,1.04-2.11.67,1.41,1.42,2.77,2.08,4.22h.01Z"/>
    <path class="st16" d="M717.75,452.42c-.15.43-1.05.98-1.04,1.06-.98-1.44-2.08-2.82-3.12-4.22-1.04-1.53-.6-2.06,1.04-1.06.91,1.26,2.2,3.16,3.12,4.22Z"/>
    <path class="st145" d="M760.47,466.13c1.24-1.11,1.68-3.82,4.17-3.15.39.32-2.56,3.5-3.12,4.21l-1.04-1.06h-.01Z"/>
    <path class="st5" d="M755.26,455.59l-1.04-1.06c.89-1.08,1.52-2.86,3.11-3.16.58,2.11-1.32,2.9-2.07,4.22h0Z"/>
    <path class="st42" d="M682.32,493.55c.22.35.84.63,1.04,1.06h-6.25c.89-1.71,3.54-1,5.21-1.06Z"/>
    <path class="st215" d="M714.61,464.02l-1.04,1.06c-1.58-1.46-4.14-2.87-.53-3.15.82.28,1.15,1.8,1.57,2.1h0Z"/>
    <path class="st72" d="M724,480.89c-.29,1.04-1.2.98-2.08,1.06-1.02.09-2.1,0-3.12,0l1.04-1.06c1.32.14,2.81-.01,4.17,0h-.01Z"/>
    <path class="st166" d="M743.79,484.76c.68-.05,1.4.07,2.08,0l-4.16,2.11c-.36-.96,1.03-1.89,1.03-2.11h1.05Z"/>
    <path class="st8" d="M777.14,756.13c.12.25.91,2.67,1.04,3.16,2.83,10.39,1.2,35.96,1.09,48.06-.02,2.04-1.08,4.04-1.09,4.67-.19,1.28-.54,2.33-1.04,3.16-.19,7.96-2.4,14.41-6.62,19.33-6.91,6.08-12.63,12.86-17.18,20.34l-2.24.4c-2.36,2.06-5.41.72-9.14-4l-15.07-6.6-3.93-6.26c-.97-2.82-2.16-5.63-3.12-8.44,3.81-9.16,11.66-17.17,18.75-24.24l2.09,1.04,2.25.56c.9.96,2.06,11.38-.17,12.1.01,1.15.71,1.85,2.08,2.11,1.96.72,2.31,2.47,1.04,5.27,2.59,4.11,3.28,9.04,2.08,14.76,1.25,2.19,1.23-2.33,1.04-4.22-1.19-3.7-3.07-10.01-1.04-13.71.3-.68.64-.66,1.04,0,.73-.05,1.11-.38,1.04-1.06-3.15,1.94-5.95.36-3.12-2.11l-1.04-7.38c-.93-.26-.9-.61,0-1.06.44-.57.85-1,1.12-.93,6.54,1.68,15.64,5.3,19.72,10.42.98.21,1.35-.12,1.04-1.06-6.48-3.92-13.4-7.01-20.79-9.29l-.05-1.26c-2.87,1.34-4.19-.8-2.08-3.16.58-.94,1.62-1.99,3.12-3.16-3.41.61-6.7.84-4.17-3.16-.97-2.39-.62-4.51,1.04-6.33-3.42,2.65-5.89-2.72-3.5-5.15.55-.56,6.22-1.84,7.66-1.18.29-.53.59-.97.98-1.07,20.01-5.17,6.87,1.12-.62.08-.78-.11-1.8-.62-2.45-1.12-1.47,1.15-2.03.65-1.04-1.06l-.11-1.3c-2.9,3.14-4.95,2.18-6.13-2.91-.58-.08-1.03-.17-1.04-.32-.44-4.48-.47-15.1,0-19.58.03-.26.48-.48,1.04-.68-.95.05-1.64-1.18-2.08-3.69,1.16,7.6,1.51,15.44,1.04,23.49,1.95,1.31,1.23,3.18-1.04,3.93l-2.15.27c.1-1.88-1.25-5.17-3.05-4.5.89,2.36.54,3.06-1.04,2.11-3.01.61-5.26-3.8-3.12-6.33-1.44.71-2.54-8.71-2.46-8.26,1.67,4.61,1.45,8.43-.67,11.43,2.2-1.91,5.51,3.67,4.17,5.27-1.06,1.37-2.89.86-4.17,0-6.51.18-12.76-.52-18.76-2.11-1.09-.07-2.54.58-3.23-.63-2.77-7.03-4.74-14.38-7.18-21.52-.11-2.91,2.89-6.6,5.21-8.44l1.23-.39c.92,2.41,1.9,3.25,2.94,2.5,2.04-.5,3.39.96,4.03,4.37,5.71,1.09,8.19.68,7.44-1.2-.84-1.61-.46-2.16,1.04-1.06,4.44.21,7.19-1.31,11.33-4.28,2.24-2.69,13.87-12.21,16.65-11.98.91.08,1.63.82,2.23,1.5,2.47-3.97,7.19-2.84,11.07-1.85,8.02,2.04,17.56,8.68,18.11,17.66v.02h-.01Z"/>
    <path class="st68" d="M778.21,812.02c-.53,61.67.39,123.39,0,185.07-.98,1.71-1.91-2.13-2.09-2.64-.16-5.48-.51-11.12-1.02-16.92-1.74,1.31-3,.95-4.19-1.01-1.69-4.91-3.52-9.8-5.21-14.76l-.61-4.78c-3.3-6.78-5.56-13.87-6.81-21.27l-2.99-4.53c-2.05-5.97-4.19-11.95-6.25-17.93,1.3.01.95-.69-1.04-2.11-.72-2.1-1.37-4.24-2.08-6.33.06-1.34-.29-2.4-1.04-3.16-.72-2.1-1.37-4.24-2.08-6.33.45-.72.1-1.42-1.04-2.11-.54-1.57-.65-3.09-1.04-4.22-.33-1.77.02-2.47,1.04-2.11,2.1-.86,3.14-1.92,3.12-3.16l-.84-2.65c3.75-7.03,5.37-14.79,4.86-23.31l2.23-1.47c3.28.03,4.25,3.33,2.91,9.89,3.76,1.78,6.86,3.24,9.7,6.51l11.68,25.42-.75-69.01c.64-4.71,1.49-9.35,2.52-13.95.06-1.22.04-2.29,1.04-3.16h0Z"/>
    <path class="st24" d="M721.91,718.16c-1.08-.15-1.08.55,0,2.11.1,1.86-.59,3.27-2.08,4.22,1.93,2.13,1.9,2.37-1.04,2.11,2.2,2.54-2.29,7.81-5.21,6.33.93,2.72.03,2.9-2.08,1.06.78,3.1-3.95,4.11-6.25,3.16-.36.93-1.05.93-2.08,0-2.4,1.21-2.6,3.37-.62,6.49l-1.47,1.94c.77,2.49.77,4.24,0,5.27.17,3.66-2.17,6.73-5.21,8.44-1.91-5.57-3.94-11.1-5.99-16.62-.44-1.17-2.12-3.76-.27-4.47l.75-.54c-1.75-1.4-2.7-2.98-2.84-4.73-1.7-2.59-2.51-5.35-4.16-7.92l2.07-.52c.51-.48.16-1.18-1.04-2.11.31-.72.74-1.38,1.04-2.11,7.49-2.06,13.44-6.94,17.82-14.66l1.98-1.16c-.02-1.26.67-2.32,2.08-3.16l2.61-.1c3.82,2.85,15.91,12.62,11.98,16.97h.01Z"/>
    <path class="st92" d="M751.08,855.26c.9.25.88.61,0,1.06-1.24,11.85.89,16.11-6.25,27.42,1.07.83.03,1.88-3.12,3.16-.44.59-.64,1.47-1.04,2.11-5.79-16.88-11.93-33.72-17.71-50.62,5.13,6.86,14.63,7.78,20.57,11.36,2.63,1.58,3.48,5.22,7.57,5.53h-.01Z"/>
    <path class="st141" d="M698.99,686.53c2.39.38,8.16,9.68,9.14,12.31l-.81,2.45c-.42,1.17-1.86,2.12-3.12,2.11-5.09,10.93-12.38,16.2-21.88,15.82-.88-.83-.9-.82-1.04-2.11,9.74-13.49,9.74-14.2,0-2.11-3.62-2.4-1.05-6.39-2.08-9.49,8.27-4.88,10.95-10.55,16.42-17.65,1.15-1.5,1.15-3.21,3.37-1.33h0Z"/>
    <path class="st8" d="M736.5,797.26c3.26-.33,4.9,5.87,2.08,7.38l.58,1.09c-7.37,6.36-13.74,13.76-19.15,22.2l-1.23-.08c-2.24-6.57-4.04-13.44-6.25-20.03-.13-.65-.19-1.18-.02-1.27,5.56-3.1,16.85-8.01,22.89-10.07.24-.08.65.3,1.09.8h.01Z"/>
    <path class="st17" d="M733.38,790.94c3.07-.83,4.06,1.78,2.08,4.22.14.62.21,1.14.02,1.27-3.59,2.52-18.14,8.3-22.89,10.07-.23.09-.64-.3-1.09-.8-1.05-3.15-2.1-6.34-3.12-9.49,0-.64.06-1.16.24-1.22,5.87-1.87,17.67-4.23,23.85-5.03.26-.03.57.41.91.98h0Z"/>
    <path class="st17" d="M719.83,784.61c1.62-.66,3.74-1.07,5.21,0,1.56.73,3.31,1.08,5.21,1.06,2.51-1.94,6.4,2.69,2.08,3.16-.02.65-.07,1.17-.24,1.22-7.37,1.91-16.34,3.8-23.85,5.03-.24.04-.56-.4-.91-.98-1.07-3.31-3.7-8.93-2.08-11.6,5.4-.46,10.26.24,14.59,2.11h-.01Z"/>
    <path class="st114" d="M755.26,931.19c6.94,5.56,14.17,11.7,15.62,21.09-1.42,1.9-8.42-16.31-12.49-14.75-.51.54,4.51,13.07,5.17,13.98,2.33,3.19,10.08,5.84,7.86,12.37l-5.22-7.37-.52,5.27c-3.47-10.16-6.93-20.42-10.42-30.59h0Z"/>
    <path class="st65" d="M776.1,994.46c-2.01-5.74-3.3-12.34-5.21-17.93,8.26.15,3.82-11.16,4.18-17.39.08-1.36.52-6.41,2.06-6.86-.11,12.11.17,24.27.03,36.4-.02,1.78.66,4.69-1.06,5.79h0Z"/>
    <path class="st33" d="M705.23,704.46c-3,4-6.05,7.87-9.38,11.59,3.62-.14,6.86-2,10.36-2.69,1.07-.2,3.42-1.38,3.17.57-7.13,2.02-16.57,6.74-23.96,6.34-1.66-.09-1.79.21-3.12-1.06,10.58-.44,15.21-9.31,21.88-15.82,1.47-1.39,2-.8,1.04,1.06h0Z"/>
    <path class="st49" d="M747.96,911.16c8.99,1.93,20.79,16.35,24.43,24.31.4.89,1.32,2.7.06,3.1-7.45-8.56-12.62-20.7-23.45-25.31-.18-.55-.74-1.24-1.04-2.11Z"/>
    <path class="st39" d="M740.67,806.75c-3.07-.81-2.61.73-3.79,1.94-6.7,6.8-11.47,13.59-17.04,21.26-.24-.72-.8-1.38-1.04-2.11l10.93-14.77,8.88-8.43c2.34-1.78,3.32-.56,2.08,2.11h-.01Z"/>
    <path class="st61" d="M681.28,717.12c-.06-.57-.11-1.62,0-2.11.27-1.17,11.33-17.45,13.1-19.96.3-.43,2.07-3.02,2.54-1.65-3.09,8.84-9.21,17.07-15.64,23.72Z"/>
    <path class="st198" d="M735.46,795.15c2.03-.69,2.44.38,1.04,2.11l-23.96,10.54c-.24-.72-.81-1.38-1.04-2.11l23.96-10.54Z"/>
    <path class="st120" d="M732.34,788.82c2.09-.3,2.53.59,1.04,2.11l-25,5.27c-.23-.72-.81-1.39-1.04-2.11l25-5.27Z"/>
    <path class="st50" d="M744.83,901.66c5.07.9,20.67,6.83,22.92,11.08.24.47.2,1.8-.51,1.57-5.36-4.08-10.66-6.96-17.01-9.17-.96-.34-3.89-1.77-4.36-.32-.37-1.06-.68-2.13-1.04-3.16h-.01Z"/>
    <path class="st6" d="M741.7,893.23c7.95.93,16.96,1.99,22.92,7.92l-12.49-4.23-9.39-1.58c-.18-.54-.73-1.23-1.04-2.11h-.01Z"/>
    <path class="st33" d="M684.4,722.39l21.88,2.12c.24,1.84-2.37.99-3.63,1.05-4.78.2-12.84.51-17.2-1.06-.46-.16-1.06-1.35-2.08-1.07-.5-.63,1.01-.97,1.04-1.04h-.01Z"/>
    <path class="st173" d="M725.04,783.55c-1.61.35-3.35.69-5.21,1.06-4.84-.61-10.44-.77-14.59-2.11.17-.28.88-.56,1.04-1.06,6.04.42,12.96.5,18.76,2.11h0Z"/>
    <path class="st107" d="M687.53,732.93c2.19,3.35,7.43,6.87,6.77,10.54-1.83-1.57-3.25-3.35-4.69-5.27-1.3-1.72-3.97-3.69-2.08-5.27h0Z"/>
    <path class="st68" d="M685.44,246.78c1.97-2.04,2.34-1.76,2.08,1.06,1.12-1.2,3.2-1.56,6.25-1.06.97-.09,1.32.61,1.04,2.11,2.37-.65,4.79-1,7.29-1.06,1.35,0,2.39,1.04,3.12,3.16,2.57-2.16,4.03-.6,5.21,2.11.55-1.4.97-3.18,1.24-5.34,2.82,2.85,5.18,6.39,7.09,10.61,3.35-.62,5.44,2.19,6.25,8.44,4.38,6.5,10.47,17.94,10.42,25.84-.02,3.01-2.38,7-2.12,9.29.09.84,1.54,1.17,2.13,1.78-2.44,3.57-4.1,7.57-4.98,11.98l-2.32.67c1.4.79,1.73,1.79,0,2.11,1.11,3.93.7,6.32-1.23,7.17,1.36,2.93.73,4.75-1.89,5.47.9.28.89.64,0,1.06,2.97,1.96.21,7.01-3.12,7.38.49.51.14.86-1.04,1.06,1.64,1.51.6,2.91-3.12,4.22.2,2.86-1.53,5.32-5.21,7.38,1.05,1.08.42,1.5-1.04,1.06,1.04,1.67.34,3.84-2.12,6.51.06,2.65-.62,4.33-2.05,5.09l-2.38-.34c-3.37,3.79-6.4,7.76-9.08,11.94-5.37.16-7.95,10.04-10.18,14.48-.85,1.67-2.85,2.39-3.36,3.45-.34,2.8-1.3,2.68-2.08,0-.05-.16-1.59-.68-2.07-2.6-3.05-12.48-2.91-14.77-9.4-25.87-3.59-1.96-6.65-4.95-9.16-8.94-26.75-22.01-38.53-58.81-16.78-88.8,4.57-6.3,12.31-16.19,19.7-17.2-1.62-3.42,7.88-9.7,10.82-10.12,3.6-.52,12.19,1.89,12.1,5.9h-.03,0Z"/>
    <path class="st124" d="M637.17,210.93c5.19-1.2,8.27,1.36,9.22,7.7,5.96,4.95,6.92,10.32,7.59,17.54,1.7,4.73,4.76,8.91,9.18,12.53l-.97,2.3c-22.46,18.18-36.32,41.13-26.09,71.23,6.72,19.79,22.73,27.28,32.34,43.72l-37.51-4.22v-150.79c2,.2,4.32-.27,6.25,0h-.02,0Z"/>
    <path class="st124" d="M662.16,452.42l-8.68,6.5c-8.3,3.89-16.24,6.48-22.57,13.53l1.03-63.27c6.63,16.45,14.46,33.38,30.22,43.23Z"/>
    <path class="st125" d="M673.98,412.13c1.97-1.37,3.01.03,3.12,4.22.38.06,1.85-.78,2.08-1.06,1.28.42,2.66.76,4.17,1.06,3.61-.73,6.25-.67,9.38-3.16,1.72-1.16,2.43-1.12,2.08,1.06,1.31.01,6.4-1.6,8.33-2.11,1.76-.31,2.46.04,2.08,1.06-6.98,2.59-14.6,3.84-21.87,5.28l10.02,3.02,10.81.14c-.46,1.84-5.32,2.17-6.72,2.14-4.69-.11-11.61-1.69-16.19-3.21-1.02,1.38,3.1,7.12,4.16,8.44,2,2.17-1.37,4.02-3.12,2.11-.94-2.13-1.82-5.77-3.12-7.38-2.44,4.81-5.57,6.37-4.17,0,.37-.82,1.68-3.71.53-4.21-6.92,2.73-10.62,8.18-16.16,12.65-1.47,1.39-2,.8-1.04-1.06,1.22-1.13,7.52-6.07,6.24-7.38l-16.66,1.59c3.47-3.45,26.46-2.34,25.93-8.26-.77-8.48-17.84-3.25-24.26-3.99-2.47-.28-5.84-1.36-8.2-2.26-1.09-.42-3.09-.36-2.85-1.84,10.24,2.19,19.79,2.74,30.22,1.05-.6-1.82-.61-2.12,1.04-1.06.06-1.73,1.17-2.97,1.11-1.01-.37-4.16.31-6.64,2.02-7.43.32,4.19-.73,7.43,1.04,11.6h-.01Z"/>
    <path class="st45" d="M668.76,410.24c-.87-1.9-5.62-8.86-6.95-9.32-2.68-.94-8.64.11-12.2-.31-5.7-.67-9.85-2.63-15.24-4.09-.29-1.8,2.5-1.14,3.55-.96,6.99,1.2,13.9,5.21,21.44,2.55-2.21-1.5-5.28-6.43-7.3-7.37-4.79-2.2-15.8,1.04-20.81-6.35,3.72-.44,7.38,3.01,11,3.63,2.16.37,4.52-.05,6.71.05-3.54-4.93-8.57-8.61-12.48-13.2-1.74-2.05-4.57-5.28-5.22-7.89l13.02,12.65c.82-2.64-1.52-5.74-2.14-8.38-.26-1.07-1.38-3.45.56-3.21,3.85,9.53,5.24,17.9,14.1,24.24,2.26.44,1.59-1.02,1.54-2.6-.07-2.06-1.06-6.82-1.74-8.79-1.38-3.97-5.71-7.18-5.02-10.73.63.51,2.11,2.53,2.6,2.11.39-.34-.85-2.52,1.04-2.11,1.3,3.86,2.84,7.54,3.69,11.56.92,4.27.77,10.61,1.74,14.05.91,3.18,7.83,8.54,9.16,12.35.91.3.9.65,0,1.06-.36.16-.73,1.01-1.04,1.06h-.01Z"/>
    <path class="st197" d="M720.87,409.19c12.48-1.73,6.65-13.33,10.44-22.14,1.85-.18,1.1,3.57,1.02,4.72-.32,4.07-1.11,9.21-2.07,13.19.44.35,7.48-2.53,7.86-3.11,1.5-2.3.51-12.07,4.13-14.79l-1.56,12.65c8,.26,7.53-6.05,11.99-10.53l-1.61,5.78,2.12.54c.91.3.9.65,0,1.06-1.46.81-3.67,1.24-4.16,3.15,2.34.44,7.11.8,8.33,3.16-3.82,1.85-8.83-2.76-10.94-2.77-1.72,0-8.08,4.07-9.9,5.41l13.54,5.78c-8.58,1.68-16.33-9.06-22.9-1.57-.02,1.76,14.51,5.48,15.61,8.95-7.56-.55-14.41-8.58-21.88-7.37-.01-.7.01-1.4,0-2.11h-.01Z"/>
    <path class="st64" d="M707.32,364.9c4.24.6,5.06,12.47,0,12.66.1-.61.34-2.19-.54-2.13l-6.75,3.18c-1.24-.83-2.91-1.28-4.17-2.11-.55-.36-2.2-1.27-2.08-1.58l12.49-15.3c-.87,2.27.73,3.96,1.05,5.27h.01Z"/>
    <path class="st162" d="M679.19,423.95c-2.38,7.93.36,16.51-3.66,24.26-2.77.39-1.04-1.51-.86-2.99.74-6.07,2.1-11.84,1.38-18.1l-6.84,11.53-3.59,2.7c2.22-6.23,6.73-11.42,9.39-17.39-.3,3.89,2.91,2.89,2.09-1.06,1.92-.5,1.62.5,2.08,1.06h.01Z"/>
    <path class="st61" d="M679.19,415.51c6.77-7.51,11.53-19.09,18.75-26.36-2.67,9.61-10.22,16.88-15.4,25-1.13,1.77-2.39,2.77.83,2.42-1.53.32-2.39,2.91-4.17-1.06Z"/>
    <path class="st80" d="M685.44,429.22c2.14,2.66,6.61,5.21,8.32,8.98.55,2.69-1.67.99-2.42.33-2.17-1.9-3.15-4.87-5.9-6.15l5.19,13.71c-4.62-3.29-6.12-9.76-8.32-14.76l3.12-2.11h0Z"/>
    <path class="st178" d="M672.94,400.74c-2.37,1.3-.16,7.02-1.19,8.32-.37.47-1.58-.05-1.94.11v-1.06c2.62-10.95-1.43-23.28.01-34.8,1.67.17,1.96,4.54,2.06,5.81.58,7.06.51,14.49,1.05,21.6h.01Z"/>
    <path class="st156" d="M720.87,415.51c7.64,3.83,16.82,7.91,22.92,13.7l-22.92-11.59c.02-.34-.02-1.4,0-2.11h0Z"/>
    <path class="st61" d="M682.32,394.77c-.04.08.82.71.34,1.81-2.7,6.33-5.47,13.35-5.55,20.34-.14-1.43-2.82-3.48-3.12-4.22,1.53-2.7,6.84-15.94,6.25-17.93h2.08Z"/>
    <path class="st162" d="M694.83,414.46c-.49,0-1.46-.85-2.08-1.06,4.63-3.7,9.08-11.43,14.58-14.76-1.82,6.76-8.86,10.26-12.5,15.82h0Z"/>
    <path class="st150" d="M719.83,422.89c5.4,3.38,10.67,7.61,14.59,12.65-4.22-1.87-11.78-7.01-14.59-10.53-1.23-1.55,0-1.97,0-2.11h0Z"/>
    <path class="st172" d="M705.23,434.49c3.73,4.06,6.27,9.4,9.38,13.71l-1.04,1.06c-3.6-4.79-7.46-9.5-10.42-14.76.35,0,1.98.02,2.08,0h0Z"/>
    <path class="st11" d="M725.38,443.99v1.06c-4.56-3.74-8.81-8.03-12.51-12.66.07-.02.81-.81,1.04-1.06,5.06,3.13,7.94,8.33,11.47,12.66Z"/>
    <path class="st185" d="M719.83,396.53c.02,1.4-.07,2.82,0,4.22-3.37.99-1.31-3.13-1.04-6.33.08-1.03-.14-2.17,0-3.16,1.33.34,1.67,2.1,1.04,5.27Z"/>
    <path class="st119" d="M703.16,412.34c2.19-.57,4.76-2.24,7.29-2.1-.67,2.43-3.37,2.47-5.21,3.15l-2.08-1.06h0Z"/>
    <path class="st140" d="M659.39,432.39c-1.49,1.2-2.56,3.72-5.21,3.15.6-2.04,2.83-2.97,4.17-4.21l1.04,1.06h0Z"/>
    <path class="st147" d="M703.16,447.15c.09,1.01-.64,1.48-1.04,2.11-.6-1.65-2.21-4.06,0-5.27.53,1.1.65,2.35,1.04,3.16Z"/>
    <path class="st124" d="M654.18,532.57c-11.45,16.48-10.35,39.39-16.67,58-.36-5.83-7.14-16.16-7.29-21.09,0-.18,1.16-1.64,1.11-3.57-.39-17.08.12-34.2-.06-51.27,5.63,6.11,13.8,8.78,20.15,13.88,1.47,1.18,2.8,1.79,2.76,4.05h0Z"/>
    <path class="st112" d="M630.91,567.37c-1.85-4.07-4.69-10.44-5.21-14.76-1.52-12.65,1.12-28.14,0-41.13,1.5.94,5.08.37,5.21,3.69v52.2Z"/>
    <path class="st206" d="M669.78,489.99c-.93.55-3.01.84-3.12,2.11-4.38-2.73-7.58-10.19-12.08-12.5-3.77-1.93-8.01.1-9.74-3.28l5.19-.02c-.81-1.09-2.26-3.46-3.12-4.19h1.04c8.65,4.88,13.02,10.88,19.74,17.88-.84-6.42-3.76-12.08-6.22-17.88-.61-2.13-.27-2.83,1.04-2.11,4.17,7.7,4.74,12.16,7.27,19.98h0Z"/>
    <path class="st144" d="M641.66,496.71l-1.04,2.11c-6,.77-6.02,7.02-12.5,8.44l6.24-8.44h-16.67c-.08-1.57,3.73-1.86,4.82-1.98,3.59-.39,7.22,0,10.81-.14l-10.42-7.36c8.4.19,10.51,7.11,18.76,7.37h-.01Z"/>
    <path class="st111" d="M656.26,499.88c2.56-1.64,9.94-2.43,11.47,1.06-5.03,7.13-7.28,16.54-16.66,20.03.16-3.77,4.48-4.88,6.69-7.46,1.57-1.83,7.31-10.23,7.88-12.07.86-2.78-7.4-1.37-9.37-1.56h-.01Z"/>
    <path class="st21" d="M638.54,478.79c8.11,3.95,15.88,10.16,22.92,15.82-.75.09-1.89.95-3.12,1.06-6.16-6.76-14.46-11.55-21.88-16.87.06-.65.75-.65,2.08,0h0Z"/>
    <path class="st179" d="M655.22,499.88c-5.58,6.99-12.18,14.32-21.88,13.7,1.55-2.38,5.67-2.41,8.22-3.79,4.2-2.26,7.14-6.13,10.52-9.39l-4.16-1.58c3.06.07,5.13.88,7.29,1.06h.01Z"/>
    <path class="st111" d="M672.94,499.88c.13,1-.2,2.27,0,3.16.73,6.41-.65,10.98-4.17,13.71-1.09,2.1-4.11,4.46-5.73,6.31l-.52-1.04c3.51-5.45,7.05-12.18,8.07-18.74.32-2.05,1.32-3.93-1.83-3.41,2.13-1.67,1.97-.85,4.17,0h.01Z"/>
    <path class="st111" d="M646.89,495.66c-.56.02-1.57,1.04-2.08,1.06l-14.59-11.59c6.62.66,12.05,6.2,16.67,10.53h0Z"/>
    <path class="st161" d="M662.52,470.35l-1.04,2.11c-1.13-2.69-3.44-5.14-3.11-8.44,1.91.99,3.12,4.41,4.16,6.32h-.01Z"/>
    <path class="st199" d="M638.54,479.13h-2.08c-.31-.21-4.19-.7-2.59-2.12,1.88-.14,3.23,1.41,4.68,2.12h-.01Z"/>
    <path class="st177" d="M647.93,472.1h-1.04c-.18-.16-4.22-.72-2.59-2.12,1.72-.34,2.58,1.52,3.64,2.12h-.01Z"/>
    <path class="st183" d="M676.22,122.74c5.07,4.14-1.04,4.76-5.91,3.22-6.23.63-12.25.62-18.06-.05-2.37.58-1.32,1.28,3.12,2.11,4.22-2.38,14.3-2.89,19.58-1.28.18.06.22.6.22,1.28-10.65,2.93-10.3,3.29,1.04,1.06,1.39-3.5,5.99-2.56,6.25,1.06l-.68,1.79c-10.08,5.53-19.23,12.31-27.45,20.36-2.6,3.5-2.25,3.85,1.04,1.06,2.74-5.85,23.09-22.55,28.93-21.75.81.11,1.58.3,2.33.66.21-.96.57-.93,1.04,0,.54,1.67,1.93,2.72,4.17,3.16,2.36-1.46,3.18-.4,2.08,2.11-3.33,5.98-2.98,6.33,1.04,1.06.97-2.97,3.2-1.92,3.12,1.06.71,1.08,1.75,1.78,3.12,2.11,2.79-.41,7.35,3.06,7.29,6.33,2.14.03,4.88,3.35,2.59,4.77.26,3.64.29,7.48-.51,11.04.8.05,1.22.36,1.1,1.03-.1-4.63.57-8.49,2.02-11.58l.72-.77c3.31,3.65,7.06,5.31,11.26,5,.08-.59.18-1.05.31-1.06,5.42-.37,13-.45,17.92,1.06-1.65-.47-2.52-1.17-2.6-2.11-3.41,1.6-11.32,1.49-15.99,1.19-.26-.02-.48-.53-.69-1.19-.45,7.45-13.7-5.06-15.11-8.44-1.29.34-2.97-1.83-2.38-2.84l22.33.94.37-1.26c-.09.7-.19,1.25-.32,1.26-6.01.18-12.73-.28-18.44-1.26-2.31,3.15-11.87-3.6-10.67-5.98.51-1,6.59-2.2,8.07-1.39,9.1-2.1,8.75-2.45-1.04-1.06-3.12,2.48-11.87,4.07-14.05-1.05-1.37-3.23.81-4.49,3.63-4.22.32-2.33,3.95-4.48,6.25-4.22-.95-1.41.1-2.47,3.12-3.16,28.42,1.58,53.12,43.6,58.1,69.35,2,10.33-6.26,2.52-9.45,1.11-6.15-2.73-17.74-2.76-24.69-2.96l-1.19,2.07-15.8-.18-1.76-1.89c-.64,1.75-1.34,2.11-2.08,1.06-7.71-.57-15.4-.89-23.08-.93l.14,11.03-2.07,1.5-1.12-.23c.05-5.81-1.42-11.04-6.17-13.47l-2.25.26c-2.19-5.16-7.13-7.69-14.79-7.6l-1.7-2.16,2.61-2.12c-9.51-6.12-20.1-15.2-25.54-25.31l-2.31-.06-1.87-10.49c-1.58-4.67-2.75-7.67-1.61-12.76.21-.97,1.58-1.8,1.61-2,13.99-6.35,29.8-4.07,44.81-4.22h.03,0Z"/>
    <path class="st22" d="M658.35,180.34c3.97-.14,12.95,1.77,16,4.12.43.33,1.74,3.79,2.75,5.37,1.49.79,4.4,3.28,5.11,4.48,1.01,1.71,2.34,16.27-.94,16.62-3.13-.11-8.38-2.4-9.38-5.27-1.17-2.38-1.87-2.74-2.08-1.06-2.87.32-6.43-1.98-8.33-4.22-2.2.1-4.74-1.5-6.25-3.16-1.88-1.43-1.88-1.08,0,1.06,1.73.22,4.71,1.48,5.21,3.16,10.6,4.33,22,11.17,31.71,17.11,2.63-.12,5,.03,5.81,2.92,2.3,3.12-.04,3.12-3.12,2.11-12.53,7.71-12.18,8.07,1.04,1.06,3.4-3.99,6.09,3.48,1.04,2.11-.62,2.92-2.2,5.95-4.73,9.09-1.9,4.33-4.14,7.99-6.72,10.95-2.52-1.05-8.65-4.22-10.68-4.03-4.16.39-9.01,5.63-12.24,8.24-2.38-3.97-6.87-6.24-8.93-10.48-2.31-4.75-1.57-9.55-3.02-13.82-1.01-2.97-4.15-4.42-5.62-6.97-3.1-5.37.34-7.7-7.45-8.81l5.23-.58c.69-6.02-2.54-10.98-4.18-16.29-2.37.48-2.85-.46-1.04-2.11-.68-2.43-1.32-4.8-1.04-7.38-1.23-.97-.89-1.31,1.04-1.06,5.04,1.01,9.94-1.51,13.55-2.11-.13-2.24,1.92-1.39,3.12,0,1.25-.21,2.24-.99,4.17-1.06h-.03Z"/>
    <path class="st53" d="M637.51,191.95c.12.44.77,1.21,1.04,2.11-3.46,4.06-2.58,7.8-2.09,12.66-2.71-5.54-4.74-.49-5.19-1.06-1.28-2.72,5.43-9.31,4.15-10.54-3.25-3.14-6.64,9.53-9.37,6.86l2.07-4.74-18.75,2.1,8.31-2.65c2.05-1.02,14.05-2.13,14.61-2.63,1.69-1.52-3.76-4.1-4.74-4.2-3.01-.33-7.22,3.23-10.89,2.09l5.21-2.11-1.05-3.14c.64-.53,6.24.83,7.54,1.32,3.9,1.47,5.58,6.17,9.13,3.94h.01Z"/>
    <path class="st38" d="M651.06,181.4l-18.75-6.34c.94-3.07,8.56.79,9.37,0l-4.15-11.59c4.75,1.5,4.78,10.21,6.51,12.38,1.92,2.43,10.08,1.7,10.15,5.55-.97.16-2.15-.16-3.12,0Z"/>
    <path class="st36" d="M637.51,183.5c-.19.4-1.02.86-1.04,1.06l-14.58-1.07,8.32-1.06-4.16-4.19c4.52-.33,7.23,4.42,11.47,5.26h-.01Z"/>
    <path class="st133" d="M635.07,152.93c-1.1,1-3.33,2.16-4.17,3.16v-13.71c.68,2.01,3.35,9.03,4.17,10.54Z"/>
    <path class="st174" d="M717.75,602.17c5.74.33,12.8,3.9,14.59,9.49.35-.92.69-.92,1.04,0,4.05-1.97,9.51,5.24,9.38,9.49.96-.31,1.32.4,1.04,2.11,7.73,12.21,11.29,27.68,10.42,42.19,3,4.85,1.49,14.61-2.08,18.99,2.42,1.24,1.92,4.77,0,6.33l.14,1.8c-1.92,2.97-1.67,4.8-1.19,7.69,2.82.39,2.66,1.24,0,2.11-1.28,1.2-1.48-.6-1.39-.55.97.57,2.09,2.31.35,2.66-.27,3.63-1.66,5.74-4.17,6.33.64,1.04.49,2.09,0,3.16-.12,2.31-4.12,4.47-6.25,4.22,1.66,1.75,1.32,2.45-1.04,2.11-1.86,3.37-5.68,3.37-11.47,0-1.12,1.84-5.3-.21-5.21-2.11-.8-.92-.91-3.37-2.05-4.77-2.92-3.59-8.9-7.28-12.54-12.1-2.55-3.39-7.26-10.83-8.33-14.76-1.41-5.2,3.48-12.06,5.22-17.38,3.03-9.22,5.25-15.72-.02-24.8-.69-1.18,2.01-4.38,2.95-4.37.64,0,7.92,9.28,8.17,9.88.32.74.1,4.43-1.53,3.7-2.71,4.06-4.88,8.47-6.35,13.15l-1.17.31c1.8,3.66,1.7,12.93,0,16.87.81-.43,1.5.46,2.08,2.64-1.61-5.07-1.73-13.97,0-18.46-2.75-1.78,5.58-16.12,7.02-15.93.49.06,5.94,7.13,5.48,7.52,2.02,4.06,1.67,6.69-1.03,7.89-.14,2.91.2,3.96,1.04,3.16-.21-13.17,9.12,2.88,8.49,9.48-6.06,5.55-9.93,12.92-11.61,22.15.63.76,1.33.42,2.08-1.06-2.17-6.58,3.75-15.02,8.02-20.42.49-.73.91-1.48,1.1-2.28.8-3.31-3.21-11.6-6.75-13.19-.73-4.89-2.57-9.63-6.85-11.87-.98-4-4.28-10.35-7.96-11.96-1.16-1.81-3.91-8.54-3.19-9.88-.43-1.53,5.71-2.67,5.4-2.6-2.87,1.42-5.01,1.59-6.45.5-.62-1.97-1.19-2.13-1.72-.45l-5.57,1.51c-.65,1.91-2.73,2.27-6.25,1.06-4.13.88-8.34.82-12.51,3.16-2.99-2.76.6-6.9,3.11-9.1,5.98-3.73,10.23-8.73,12.76-14.97l2.89-1.24c5.67-8.11,13.83-5.9,21.88-7.38l.05-.03h0Z"/>
    <path class="st88" d="M738.58,590.57c7.14-.95,20.2,3.48,26.04,7.92-.67,1.38-2.84.08-3.86-.33-7.47-2.97-10.51-4.6-19.06-5-1.4-.06-1.44-1.15-1.07,1.1.23,1.43.97,3.28,2.14,4.16,5.35,4.01,20.4,4.37,24.95,12.71-3.85.09-7.2-3.79-11.09-5.65-2.75-1.32-8.53-3.61-11.39-4.3-1.54-.38-1.76-.1-1.42,1.44,1.58,7.18,9.41,7.19,14.15,11.53,2.96,2.7,14.29,17.72,14.98,21.24.22,1.19.16,2.24-1.06,1.07-4.76-4.56-9.28-15.33-15.06-20.62-2.64-2.42-5.8-3.64-8.9-5.22-.65.78,6.92,17.41,7.89,18.9,3.87,5.95,11.93,8.58,15.02,18.56.62,2.02-.35,1.88-1.57.53-3.72-4.12-5.16-11.66-10.91-13.74-.45.56,4.04,12.46,4.74,13.63,2.4,3.98,10.29,6.22,8.77,13.78-2.96-1.61-2.33-6.47-5.73-8.43l-1.54,4.2c-2.05-4.24-2.95-10.46-6.25-13.71l4.68,21.08c-4.34-6.11-5.87-14.36-6.81-21.67-.3-2.26.93-4.32.78-6.14-.45-5.14-7.89-17.79-10.64-22.8l-2.6,8.44c-.41-.64-.61-1.53-1.04-2.11l-1.56-3.67c2.91-6.11.64-11.16-2.45-16.66l-2.9,10.59-2.48.24c-.22-.17-.82.16-1.04,0-3.71-3.07.39-12.95,2.24-17.26.45-1.03,1.19-1.94,1.93-2.79.67-.36.77-.89,2.08-1.06l.02.02h0Z"/>
    <path class="st124" d="M695.87,609.55c-1.99,2.84-2.91,7.27-5.19,10.03-3.71,4.52-12.91,8.39-13.57,15.27-.49.27-.85,2.26-2.07,2.11-.31-6.29-1.13-12.61-4.76-17.86l-8.79-7.45c2.71-.82,4.24-2.79,7.79-3.18,7.63-.86,18.34,2.63,26.6,1.08h0Z"/>
    <path class="st202" d="M705.23,533.62c.58,4.18,1.36,8.38,1.05,12.66l5.19-7.38-5.2,13.7c1.32,1.06,13.01-6.77,16.15-7.39,1.17-.23,2.22-.16,1.06,1.07-1.91,2-5.63,1.92-6.77,4.2l15.62-1.04c.22,1.5-2.9,1.66-3.93,1.8-4.78.67-11.8-.63-14.82,3.45,1.31.21,3-.26,4.17.01,1.47,2.34-2.22,1.82-4.17,1.06-2.19.23-5.27.37-7.29,1.06.82,3.11-.59,2.96-3.12,2.11-1.59.97-6.17,4.13-7.29,5.27-.08,2.67-.78,3.71-2.08,3.16-17.14,3.6-11.94,17.58-15.64,30.58-1.87.24-1.01-2.37-.91-3.55.23-2.6,2.67-16.65,1.95-17.53-1.2-.28-2.26.88-3.12,1.05-1.95,1.38-2.54.79-1.04-1.06,1.23-.99,3.19-2.92,4.17-3.51h-24.66v-1.75c1.6.9,4.46-1.07,5.39-1.07h19.8c.75,0,.87,1.04,2.94-.07.96-.52,9.47-7.78,9.05-8.35-6.92-3.51-14.52-3.95-21.66-6.04-1.2-.36-4.41-.86-4.39-2.4,9.18.98,18.54,2.93,26.82,7.23,1.72.33,3.23-.92,4.44-1.97-.51-3.32.18-4.38,2.08-3.16.39-.35,2.4-.35,3.12-1.06.58-3.01.8-6.05.64-9.12l1.44-.38c.24-2.3-.05-4.99,0-7.38.03-1.38-.52-3.49,1.04-4.22l-.02.03h0Z"/>
    <path class="st63" d="M732.34,611.66c-4.6-3.38-9.83-6.32-14.59-9.49,11.16-2.05,11.35-6.59,18.76-10.54,1.06,6.66-5.04,13.13-4.17,20.03h0Z"/>
    <path class="st86" d="M704.2,545.22c-.24,2.27-1.09,8.52-2.08,9.49,1.4-14.65-12.84-21.43-21.88-29.52,10.85,2.85,17.4,11.68,23.96,20.02h0Z"/>
    <path class="st40" d="M676.06,577.91c-6.55,5.45-13.16,11.04-19.9,16.24-3.11,2.4-6.66,5.61-10.31,6.95,8.54-9.44,19.34-16.37,29.18-24.25-.19.64.59,1.15,1.04,1.06Z"/>
    <path class="st135" d="M706.28,556.82c7.61,9.17,11.88,19.44,10.41,31.63-1.51.07-1.58-3.82-1.76-5.05-1.34-8.81-2.53-20.32-11.76-24.47,1.02-.62,1.53-1.57,3.12-2.11h0Z"/>
    <path class="st40" d="M698.99,555.77c-.93.81-1.32,2.49-2.08,3.16-2.68-10.84-16.64-13.38-23.96-20.02,9.98,2.48,19.77,8.59,26.05,16.86h-.01Z"/>
    <path class="st190" d="M695.87,564.21c.86,9.57,4.24,18.7,3.11,28.47-1.96-.42-1.89-2.09-2.1-3.66-.98-7.23-1.01-14.55-3.1-21.64.82-.95,1.2-2.27,2.08-3.16h.01Z"/>
    <path class="st135" d="M717.75,554.71c7.87,1.81,15.36,8.24,15.62,16.87-4.53-5.26-6.13-11.76-13.51-14.27-2.08-.7-4.88.16-6.28-1.56,1.34-.14,3.43.61,4.17-1.06h0Z"/>
    <path class="st130" d="M668.76,516.75c1.86-3.56,2.3-9.88,4.17-13.71.9,3.99,2.6,9.09-.47,12.71-.27.32-3.49,2.95-3.69,1.01h-.01Z"/>
    <path class="st138" d="M743.79,582.13c4.88-1.44,10.59-1.66,15.46-.31,1.85.52,2.7-.34,2.25,2.41-6.44-1.7-12.31-1.08-18.75,0,.28-.37.54-1.35,1.04-2.11h0Z"/>
    <path class="st130" d="M678.14,500.93c2.33.97,3.66,7.47,3.12,10.54-2.45,2.49-3.53,0-4.17,0l-1.03-11.6c.89-.33,1.81,1.06,2.07,1.05h.01Z"/>
    <path class="st104" d="M684.4,498.82c-.09,1.73-2.86.93-4.17,1.06-.29.25,1.69,6.41,2.09,7.38.16,1.79.34,2.82-1.04,4.22l-3.12-10.54c.36-.01,2.87-3.89,6.25-2.11h-.01Z"/>
    <path class="st51" d="M704.2,631.7c1.4,3.19,9.28,16.39,11.44,17.47,1.1.55,4.69-2.29,6.87-2.64,5.56-.91,13.83-.39,18.17,3.63-3.21.92-6.53-1.27-9.9-1.58-5.21-.46-9.23.38-14.06,2.11-.39.54,1.91,4.8,2.3,5.03.56.32,11.4,1.41,12.77,1.34,5.19-.28,10.7-5.04,16.18.48-4.05,1.36-8.96-2.86-12.5,1.06,2.26-.31,13.17,8.21,11.45,10.01-7.82-6.33-14.43-10.56-24.99-10.54,1.49,14.9,21.46,14.6,21.86,30.58-4.67-6.25-6.69-14.05-15.62-15.81,5.05,11.22,6.15,24.66,7.28,36.89-1.8-.45-2.32-4.66-2.65-6.27-.72-3.47-.63-7.14-1.52-10.59-1.6-.27-4.02,9.76-6.24,7.37-.68-.73,8.9-14.78,4.15-18.97-6.06,4.89-8.53,12.7-9.37,20.03-.43,1.74-.84,2.72-2.08,1.06-.57-11.69,10.32-21.61,10.41-24.75.05-2.15-4.23-8.95-5.71-11.1-1.02.83-1.2,2.91-1.56,4.21-.98.48-1.33-.57-1.04-3.16,1.23-6.55-.15-8.67-4.69-13.69-1.93,0-6.77,12.36-6.43,14.21v18.46c-1.15.61-2.43-2.14-2.77-2.64v-16.87c.35-3.43,7.63-14.16,7.63-15.81,0-1.08-5.21-8.89-6.24-9.5l-3.13,2.66c-.44-.75-.97-2.01-1.04-2.11-.1-3.18-.33-4.62-2.44-7.31l1.39-2.19c-.87-1.87.64-2.5,2.08-1.06l.02-.03h0Z"/>
    <path class="st67" d="M668.76,658.06c.12.83-.97,2.51-.9,3.7.24,4.24,5.78,7.33,8.17,10.55,3.91,5.27,8.36,11.62,8.34,18.43-3.77-4.78-5.17-10.69-8.94-15.73-.93-1.24-12.62-13.48-9.65-6.05.74,1.86,3.66,3.65,5.02,5.46,4.38,5.84,9.64,12.91,9.4,20.52l-5.8-11.51c-1.12-1.99-7.85-11.61-9.29-11.66-1.1-.04-1.51,1.83-1.13,3.22,1.7,6.13,12.88,15.04,11.02,24.19l-9.98-18.92-3.56-1.13c-1.37.69-1.83.22-1.04-1.06l-.47-5.24-21.41,6.83c3.28-2.28,7.76-4.97,11.49-6.31,6.6-2.38,14.94-.21,14.56-10.04-9.46-.09-18.24,4.3-27.6,5.28-.77-2.13,5.58-2.5,6.75-3.19l-6.24-3.14c8.03.85,19.73,1.44,27.43-1.24,2.26-.79,1.79-3.31,1.73-5.1,2.41-1.71,3.25-.33,2.08,2.11l.02.04h0Z"/>
    <path class="st69" d="M660.44,678.09c.86-.16.81.48,1.04,1.06.27.65-.07,1.95.57,3.07,3.95,6.86,7.9,12.56,7.76,21.17-3.04.52-1.69-.72-2.2-2.45-.74-2.49-4.12-16.34-6.64-16.5-4.02-.25,2.84,10.97,3.18,12.58.61,2.84.56,5.63.46,8.5-2.59.19-1.79.26-2.05-1.58-.3-2.05-.87-13.02-3.67-13.16-3.89-.19,2.58,12.04,1.56,13.69-3.31.78-2.51-4.5-3.13-6.32l-4.14,5.27,1.02-6.32-2.58,1.07c-1.93-2.76,5.49-3.68,4.67-8.45-5.5.55-7.76,6.32-11.45,9.48-.19-2.71,2.22-6.24,4.11-7.96,4.63-4.21,10.28-2.16,10.46-11.03-.93-1.15-15.82,9.21-18.74,7.92,5.84-4.47,12.66-8.13,19.79-10.02l-.02-.02h0Z"/>
    <path class="st43" d="M667.73,642.94c2.06,4.06,2.69,4.4,6.25,5.27,1.69-.78,2.14-.58,1.04,1.06.02.07-1.17.71-.11,1.53,6.78,5.26,23.9.91,30.33,9l-18.76-4.2c3.13,4.2,9.9,4.93,12.51,9.47-1.59,1.22-20.44-11.66-24.73-12.45-5.9-1.09-3.54,1.85-3.41,4.03,1.49,1.94.87,2.57-1.04,1.06h-1.04c-.02-.15-1.86-2.05-2.08-2.11-1.32-.35-5.59-.12-7.29,0-1.46.64-4.17.74-4.17-1.06,3.97-.46,8.1-.59,12.01-1.05,5.67-.67-2.61-3.48-4.48-3.94-6.1-1.49-12.77-1.57-18.99-2.39l-.36-1.16c2.63-.2,4.84-.88,6.6-2,.17.53-.28,1.87,0,2.09.7.53,14.72.25,17.2,3.17,1.75-1.58-1.6-3.25-2.62-4.2-1.94-2.39.98-4.2,3.12-2.11h.02Z"/>
    <path class="st116" d="M645.85,627.47c6.37,4.07,11.52,9.44,17.7,13.71.4-.48-4.24-11.13-4.68-11.59-1.69-1.78-5.79-1.23-6.76-4.21l5.2,1.05,1.04-4.21,4.19,11.59c1.99-.26.91-4.71,1.03-6.32,1.11-2.25,1.67-1.03,2.08,1.06.31,6.18-.93,8.81,2.08,14.76l-3.12,2.11c-6.31-5.93-13.51-10.94-19.8-16.87-1.38-1.49-.8-2.02,1.04-1.06h0Z"/>
    <path class="st75" d="M703.16,629.59c4.55-.56,9.35-5.23,14.31-6.07,4.18-.71,8.57-.03,12.77-.24l-14.37,2.84-5.42,3.47c6.94.08,16.72-.33,21.88,5.27-6.05-.72-13.35-4.02-19.33-4.24-2.85-.1-5.84.79-8.8,1.09-.55.05-1.46.98-2.08,1.06-.4,2.92-4.62,3.11-6.25,1.06-.65.22-5.4-1.08-6.25-2.11,2.34-.5,4.11-.67,6.25-1.06,2.62-3.3,3.93-2.68,7.29-1.06h0Z"/>
    <path class="st90" d="M673.98,648.57c2.72-2.26,6.67-1.14,9.48-3.59,2.97-2.59,2.96-10.91,7.19-9.6l-2.07,4.75,5.2-2.1-7.29,7.36,10.42-3.14c.38,2.48-8.47,4.37-6.25,6.31.59.53,10.41.63,11.46,3.15-9.15.17-18.09-4.64-27.09-2.1-.2-.95-.22-.85-1.04-1.06h0Z"/>
    <path class="st91" d="M670.85,657c3.99,1.94,6.73,8.94,9.67,11.29,3.65,2.91,8.58,3.31,13.25,8.74.97,1.68,1.03,2.74-1.04,2.11-2.37-2.18-4.49-6.04-8.33-6.32l4.69,11.59-19.28-26.36c.8.09,1.09-.25,1.04-1.06h0Z"/>
    <path class="st26" d="M702.11,632.74c1.22,4.32,5.43,4.97,1.04,9.49-1.3-1.72-6.15-5.74-8.33-6.35l1.04-2.09c4.86-1.66,2.81-.63,6.25-1.06h0Z"/>
    <path class="st210" d="M650.01,644.34c-1.08,3.31-4.31,1.16-6.25,3.16-3.12-.42-6.15-1.43-9.38-1.07-.24-1.84,2.37-.99,3.63-1.05,3.3-.13,6.62.1,9.91,0,.31-7.06-9.69-6.67-12.5-11.59,6.68,1.76,12.3,3.65,14.59,10.53h0Z"/>
    <path class="st34" d="M655.22,654.9l4.17,1.06c-.09,0,.16.88-1.55,1.03-8.18.69-16.28,1.43-24.49,1.08l7.94-1.97c4.79.36,9.28-.65,13.94-1.18h0Z"/>
    <path class="st137" d="M663.56,627.47c.08-1.04-.06-2.12,0-3.15,3.12-.7,1.95,1.56,2.08,4.21l-2.08-1.06h0Z"/>
    <path class="st18" d="M645.85,627.47l-1.04,1.06c-.97-.92-2.86-1.51-3.12-3.15,2.07-.56,2.85,1.25,4.17,2.1h-.01Z"/>
    <path class="st102" d="M693.77,677.04c1.11,1.3,2.48,2.28,2.07,4.22-.32.41-2.59-1.63-3.11-2.11l1.04-2.11h0Z"/>
    <path class="st22" d="M730.25,190.89c3.33,8.26,22.68,17.21,23.9,24.84,1.06,6.61-.86,13.7-5.63,18.44-8.58,8.52-22.14,1.61-31.82-1.09,4.2,10.76,9.13,21.78,8.33,33.74-1.1-1.64-5.29-7.55-6.25-8.44-1.36-1.48-2.39-3.41-3.08-5.81-4.7-5.15-7.78-10.48-10.45-17.77-2.15-1.47-2.51-3.09-1.05-4.89-2.97.44-4.69-6.69-2.73-7.63.72-.36,15.25.67,16.03.88.66.17,3.9,1.71,4.42,2.54,1.94-.45,6.43-.55,6.25,2.11,2-.66,1.35-1.68,0-3.16-.27,2.39-3.72,1.19-5.21,0-3.84.78-10.29-2.91-3.12-2.11,3.16-2.78,9.32-4.01,13.55-4.22,1.01-.68.66-1.03-1.04-1.06-3.67,2.23-9.26,3.42-13.55,4.22-1.46,1.79-2.16,1.79-2.08,0-4.08.91-8.24.91-12.51,0-2.5,3.35-5.34-1.79-1.04-1.06-.21-1-.3-1.89.09-2.47,4.12-6.12,9.26-12.62,14.5-17.56.06-.77-.29-1.13-1.04-1.06-1.94,3.58-12.1,18.49-14.5,18.41-3.03-.1,4.88-18.86,7.2-20.51-.46-2.33.45-4.71,2.08-6.33,4.31-.79,13.84-.14,18.76,0h-.01Z"/>
    <path class="st214" d="M735.46,303.72c4.67,4.83,4.36,6.45,6.76,12.63,18.89-8.11,27.61,8.82,18.65,25.21-2.2,4.04-14.04,16.92-17.87,18.82-13.62,6.74-12.05,4.32-24.21,15.05-1.18,1.05-7.22,6.03-7.98,6.09-1.25.11-3.39-.93-4.11-1.91-.95-1.29.58-1.84.62-2.08,2.39-3.56.92-8.81,0-12.66-1.33-6.54,1.33-7.57,4.17-11.6,4.28-1.25,9.65-3.81,12.06-7,2.1,2.58,3.64,3.51,4.61,2.78-2.46-1.97-1.47-4.03,1.71-4.37,1.09-4.68,3.12-7.3,7.03-10.31.42-2.06,1.35-4.35,3.37-3.56.69-3.62,1.8-7.45,5.61-8.14.07-.8-.27-1.17-1.04-1.06-1.16,1.78-2.48,3.71-3.93,5.79,3.19,4.09-7.03,5.25-8.41,2.16.55-4.3-2.09-9.38-4.34-13.23.93-3.41,2.52-13.57,7.29-12.66v.03h-.01Z"/>
    <path class="st78" d="M677.11,123.4c5.09.8,10.05,2.49,14.59,4.22.61-.2,1.66.51,3.12,2.11.24-.97.6-.95,1.04,0,1.81-1.58,2.45-.97,1.04,1.06-.84.63-3.14,1.65-2.08,3.14.16.23,4.61,2.95,4.89,3.01.59.14,6.27-.67,7.61-.89.91,0,1.32.05,1.04,1.06-1.33.25-7.04.61-6.24,2.63.91,2.3,6.66,4.76,8.84,4.76h18.76c.21,0,4.06.98,3.64,2.1-3.69,1.54-23.94-1.71-25-1.04-.44.27.95,1.6,1.04,2.1,1.48,1.9.89,2.51-1.04,1.06-.71-.85-6.03-5.33-7.29-6.33-2.69,1.08-3.73.38-3.12-2.11-.94-.7-2.6-.68-3.12-1.06-1.43,1.49-1.99.86-1.04-1.06-.74-.49-1.37-1.66-2.08-2.11-3.97.38-5.36-.67-4.17-3.16-.26-.08-.68,0-1.04,0-2.75-.06-4.14-.76-4.17-2.11-2.25-.72-3.66-1.44-6.25-1.06-1.16.19-1.51.06-1.04-1.06-3.58-2.97-15.47-.18-19.8,0-2.48-.2-3.52-.92-3.12-2.11,7.51-.48,16.32-1.49,23.43.02l.54-3.17h1.04Z"/>
    <path class="st113" d="M691.69,123.4c1.63.65,1.43,3.45,0,4.22.36,3.33-.84,2.08-2.83,1.27-3.94-1.59-8.01-3.5-11.76-5.49,4.85-.02,9.74-.07,14.59,0h0Z"/>
    <path class="st35" d="M706.28,123.4c-.56,1.72-1.94,2.22-3.12,3.16-1.46.16-3.89,1.21-7.29,3.16-.32-.04-.73-.04-1.04,0-2.24,1.03-3.17-5.4-1.04-6.33,4.14.08,8.38-.22,12.51,0h-.01Z"/>
    <path class="st152" d="M693.77,123.4c.15,1.98-.81,5.14,1.04,6.33-.11.02-.82,1.52-2.07,1.06.48-1.36-.92-2.53-1.05-3.16-.26-1.2.17-2.9,0-4.22.69.01,1.39-.01,2.08,0h0Z"/>
    <path class="st193" d="M719.83,396.53c-.03-1.69.62-4.39-1.04-5.27.2-1.44.07-5.08,2.07-5.27l-1.03,10.54Z"/>
    <path class="st0" d="M753.18,395.81l.53-1.04h2.6c-.14,1.95-2.2,1.58-3.12,2.1v-1.06h-.01Z"/>
    <path class="st216" d="M725.38,443.99c.7.86,2.98,1.5,3.12,3.15-2.24.7-2.24-1.37-3.12-2.1v-1.06Z"/>
    <path class="st124" d="M776.81,756.13c-4.74-10.26-17.89-18.83-29.18-15.82-1.07-3.11-.11-6.49,2.87-10.15,7.87-11.94,13.66-21.32,15.8-35.7.39-2.6.7-8.53-2.9-8-5.6,1.47-9.47.78-11.6-2.04.5-6.49,1.71-12.82,2.08-18.99,12.96,8.96,25.56,18.58,20.79-6.89l2.12-7.88v105.45h.01Z"/>
    <path class="st123" d="M748.31,740.32c-9.45,2.52-18.18,14.22-27.63,17.92-.43-1.49-1.85-2.18-2.59-3.15-1.5-.18-2.37-1.68-2.08-3.16-3.96-3.53-7.97-9.82-10.42-14.76,1.35-2.3,4.74-2.23,6.25-3.16,4.54,2.72,9.51,8.06,12.51,12.66l1.04-1.06c-4.24-2.89-10.34-7.74-11.47-12.66.49-.37,4.87-5.67,5.21-6.33,4.64,1.42,9.31,5.67,12.51,9.49l1.04-1.06c-4.7-2.32-10.17-5.88-12.51-10.54.64-2.07-1.54-4.97,2.08-4.22,6.18,1.16,12.62,5.7,17.71,9.49,1.7.65,2.4.65,2.08,0-6.1-2.09-10.96-5.25-14.59-9.49l.57-1.03c4.51,3.31,7.07,1.12,10.9,1.03.69-.62,1.04-1.32,1.04-2.11,2.17-3.34,2.42-3.6,6.25-4.22v-3.16c.75-1.58.93-3.89,2.07-5.61.71-1.06,2.04-.63,2.09-.72.21-2.57,6.82.86,6.46.78-1.11-.24-5.4-1.9-5.42-2.89-.12-.59.19-1.91,0-2.11-.46-2.68-.11-5.84,1.04-9.49-1.35-4.8-.22-3.4,0-6.33,9.33,2.4,17.33-5.57,16.66,8.94-.93,19.73-13.5,30.09-20.82,46.95h0Z"/>
    <path class="st23" d="M777.14,815.18c-1.54,30.1,1.15,61.5-.01,91.74l-14.75-31.98c-.48-3.55-9.74-6.66-10.08-7.19-1.35-2.16,1.45-8.97-1.21-11.44.04-.35-.06-.72,0-1.06,1.51-8.17,17.78-20.2,21.73-27.05,2.61-4.54,1.11-9.26,4.33-13.02h0Z"/>
    <path class="st15" d="M733.38,784.61c1.71-.42,3.41-.8,4.78-.66.79-4.29,3.25-3.94,3.07.47,2.46-.24,2.1.53.48,2.3,2.44-.65,4.17-.65,5.21,0,.77-1.04,3.05-.49,2.08,1.06-3.63.83-10.19,2.82-4.17,6.33-1.66,1.89-2.01,4-1.04,6.33,1.45,2.75,1.92,2.19,4.17,3.16-.49.96-1.53,2.01-3.12,3.16.46.83,1.46,2.77,2.08,3.16,2.42,1.75,1.78,2-1.04,2.11-.06.34.02.71,0,1.06l1.04,7.38c.15.41-.36,1.5.15,1.95.62.56,2.15,0,2.98.15,1.25.86.91,1.21-1.04,1.06-.2-.05-.87-.08-1.04,0-.51,1.79-1.2,2.85-2.08,3.16-.37-1.74-.65-3.58-1.04-5.27-2.65.91-3.35.2-2.08-2.11-.7-2.76-.74-8.67-2.08-12.66-.19-.58-1.88-1.52-2.08-2.11-.79-2.21-.97-4.66-2.08-7.38-.3-.72-.73-1.39-1.04-2.11-.72-1.7-1.31-2.69-2.08-4.22-.36-.7-.68-1.41-1.04-2.11-.1-.2,1.48-2.19-2.08-3.16-1.85.03-3.59-.32-5.21-1.06-1.56-.27-3.57.2-5.21,0,.89-1.72,3.54-.98,5.21-1.06,1.37-.06,2.82.15,4.17,0-.79-2.69.05-2.91,2.08-1.06,1.47-.56,2.54.62,2.08,2.11h-.03,0Z"/>
    <path class="st207" d="M732.34,779.34c-.33-1.18-1.34-4.33-.53-5.27l6.08,9.48v-27.42h.68c-.4,1.31,1.05,3.06,2.09,3.69v20.56l12.05-22.08,3.57-3.24c-.55,4.89-16.99,26.34-14.57,29.53,7.83-4.69,13.96-11.45,20.31-17.92.79-.16.66,1.02.5,1.56-1.16,3.82-13.01,13.82-16.66,16.36-.05,1.94-2.38,2.37-4.17,2.11-.77-1.16-1-2.83-1.05-4.21-3.51,3.03-2.96,5.88-7.28,2.11-.87-1.73-1.21-3.49-1.04-5.27h.02Z"/>
    <path class="st62" d="M703.16,737.15c4.95,3.75,8.96,10.11,11.47,15.82,1.5.25,2.4,1.67,2.08,3.16.11.76,1.59,1.64,1.04,3.15-2.74-.51-7.46.71-9.78.07-.35-.09-1.86-4.78-2.72-6.39-2.76.31-4.08-4.77-4.17-7.38-.57-1.28-3.49-9.16-3.12-9.48,2.01-.57,3.63.71,5.2,1.05h.01Z"/>
    <path class="st220" d="M746.93,785.66c11.73,1.65,16.81-6.4,26.05-10.53l-10.43,8.95c.07,1.48,9.8.92,10.43,3.68-8.33-.76-15.61-1.9-23.96.01-.23-.97-1.23-1.12-2.08-1.06-.91-.3-.9-.65,0-1.06h-.01Z"/>
    <path class="st95" d="M728.16,775.11c.26,2.97,0,4.77-3.12,3.16-4.1-4.2-9.13-7.68-12.51-12.65,5.91.82,8.72,7.64,13.54,10.53.21-5.3-3.22-10.57-1.56-15.81,3.07,3.98,2.55,10.19,3.65,14.75h0Z"/>
    <path class="st54" d="M744.83,794.09c5.06,2.95,14.55,5.48,20.5,8.25,1.58.73,4.98,1.74,5.55,3.34-7.82.31-18.81-8.6-25.53-9.49-2.82-.38-1.2,2.73-1.56,4.23-1.53-2.89-2.11-4.7,1.04-6.33h.01Z"/>
    <path class="st99" d="M747.96,823.62c-2.87,8.73,7.5,8.64,9.37,13.2,1.87,4.56-7.4-3.86-8.31-3.7-.11,1.38.11,2.83-.01,4.22.57,2.69.22,4.09-1.04,4.22-.89-4.81-1.07-9.99-2.08-14.76.91-.89.91-2.63,2.08-3.16h0Z"/>
    <path class="st220" d="M767.77,820.46c1.38,1.49.8,2.02-1.04,1.06-6.55-4.19-12.74-8.69-20.84-9.49.11-.63.82-1.41,1.04-2.11,6.57,4.13,12.88,3.13,20.84,10.54h0Z"/>
    <path class="st66" d="M744.83,821.51c-5.45,1.16-6.09,8.82-10.41,11.6.45-5.17,4.16-10.77,8.32-13.71.1.41,1.93,1.44,2.08,2.11h0Z"/>
    <path class="st99" d="M750.05,822.57c5.05.93,11.91,2.6,14.59,7.37-5.02-1.36-10.65-5.1-15.63-6.32l1.04-1.06h0Z"/>
    <path class="st173" d="M731.3,781.44c.87.28.85.64,0,1.06-.66.2-1.52.99-2.08,1.06-1.28-1.62-2.79-3.86-4.17-5.27l3.12-3.16c.47,1.96,1.56,4.95,3.12,6.33h.01Z"/>
    <path class="st54" d="M747.96,803.58c2.65,1.15,7.59,1.4,9.38,4.2-4.15.91-8.78-4.19-12.5-1.05-2.04-3.72-.22-.83,3.12-3.16h0Z"/>
    <path class="st129" d="M705.23,752.97c1.26,6.44-3.01.66-4.17-2.11-.42-1-.39-3.36-.81-4.64l.81-.63c.96,2.16,2.95,5.1,4.17,7.38Z"/>
    <path class="st46" d="M749.01,837.34l1.03,9.48c-2.05-.21-1.81-3.82-2.07-5.27,1.63-.75.92-2.86,1.04-4.22h0Z"/>
    <path class="st221" d="M733.38,784.61c-.74-.65-1.76-.75-2.08-2.11-.06-.26-.04-.77,0-1.06.05-.34,1.15-1.29,1.04-2.11.34,1.21,3.48,4.17,1.04,5.27h0Z"/>
    <path class="st122" d="M747.62,785.66v1.06c-2.3.17-4.09,1.69-5.21,0,1.3-.77,2.96-1.26,4.17-2.11l1.04,1.06h0Z"/>
    <path class="st99" d="M746.93,820.46c-1.11-2.96-1.28-4-1.04-7.38,1.98,1.5.8,5.08,1.04,7.38Z"/>
    <path class="st217" d="M767.77,820.46c.98.92,2.86,1.52,3.12,3.15-2.07.56-2.85-1.25-4.17-2.1l1.04-1.06h.01Z"/>
    <path class="st20" d="M717.75,755.08c-.19.39-1.06.96-1.04,1.06-.7-1.05-1.36-2.14-2.08-3.16-.92-1.59-.59-2.07,1.04-1.06.74,1.06,1.45,2.32,2.08,3.16Z"/>
    <path class="st85" d="M744.83,883.73c4.97.91,13.23-2.21,16.67,2.1-6.92-.14-13.05-1.36-19.8,1.07,1-1.35,2.58-2.3,3.12-3.16h.01Z"/>
    <path class="st118" d="M721.91,718.16c1.05,1.22,4.19,1.47,5.21,2.11,4.9,3.08,9.88,6.11,14.59,9.49-.06.64-.75.64-2.08,0-5.88-2.74-12.34-5.87-17.71-9.49-1.95-1.31-3.75-2.22,0-2.11h-.01Z"/>
    <path class="st188" d="M713.58,732.93c3.48,4.56,7.88,8.16,11.47,12.66,1.38,1.49.8,2.02-1.04,1.06-4.43-3.95-8.91-7.88-12.51-12.66.71-.45,1.8-.83,2.08-1.06h0Z"/>
    <path class="st167" d="M705.23,737.15c3.45,2.45,7.78,11.04,10.42,14.76l-1.04,1.06c-3.74-5.31-7.99-10.31-11.47-15.82.1.02.79-.93,2.08,0h.01Z"/>
    <path class="st4" d="M732.34,735.04c1.38,1.49.8,2.02-1.04,1.06-4.37-2.97-8.52-6.02-12.51-9.49.24-.47.96-1.85,1.04-2.11,4.1,3.57,8.46,6.9,12.51,10.54h0Z"/>
    <path class="st208" d="M707.32,701.28v1.58c-.29.82-1.75,1.15-2.08,1.59l-1.04-1.06c.48-.47.79-1.83,1.57-2.1h1.56-.01Z"/>
    <path class="st173" d="M730.25,785.66c-.85-.23-2.42.21-3.63-.03-1.63-.34-1.49-1.01-1.58-1.03l5.21,1.06h0Z"/>
    <path class="st126" d="M684.42,281.58l3.1-2.11c-.48,12.87,2.82,3.31,6.77-1.07,2.59-2.87,7.38-8.76,10.95-7.91-4.11,4.75-9.77,8.44-12.5,14.23.71.67,14.63-8.75,16.99-9.69,4.04-1.62,8.94-2.17,13.23-2.95.5,3.02-.63,1.75-2.41,2.25-9.86,2.77-19.19,6-26.76,13.55,12.72-1.97,26.05-1.82,37.52,4.75-6.37.3-11.88-3.18-18.21-3.73-3.2-.27-20.74.67-22.44,2.16s.71,1.89,1.37,2.35c6.37,4.48,13.89,7.37,19.97,12.43,1.32,1.1,9.98,9.26,8.87,10.52-9.68-8.77-20.17-17.04-32.29-22.14.38,3.58-.85,8.24.54,11.57.39.95,12.59,11.53,13.48,11.58,3.83.19,12.21-5.49,16.2,2.15-5.24-.89-9.94-4.6-14.57.54,0,1.06,13.89,12.62,10.93,17.4-6.3-8.91-14.82-20.2-23.44-26.89-1.04-.81-1.33-2.05-3.13-1.57-2.58,12.3,7.13,17.21,13.34,26.03,2.48,3.51,5.54,7.64,6.44,11.94-6.54-7.07-11.04-15.63-17.89-22.48-.92-.92-.88-2.31-2.93-1.77-2.31,10.58,3.98,13.77,8.51,21.44,2.42,4.09,5.28,9.76,6.07,14.42-5.84-5.38-7.26-14.4-12.68-20.37-.93-1.02-.93-2.27-2.93-1.77.99,4.1-1.96,9.23-.86,12.95.87,2.93,9.47,8.74,9.18,13.41l-9.35-9.49c.4,3.72-1.65,7.25-1.03,11,.52,3.11,4.05,4.81,4.13,7.98l-4.15-3.16-.53,4.23c-2.6-5.33-1.58-11.31-.53-16.88-2.66-.61-1.82.73-2.69,1.98-.4.57-6.68,12.32-5.65,6.97,1.42-7.36,9.72-11.83,8.33-19.51l-5.19,2.65c.55-2.97,5.57-4.9,6.08-6.5.93-2.88.01-9.44,1.19-13.01-1.14-1.27-8.89,7.29-9.8,8.53-3.38,4.53-6.03,10.39-7.92,15.72-1.84.27-1.02-2.38-.79-3.44.72-3.3,2.49-6.23,3.93-9.2-1.21-1.01-6.31,4.33-7.28,1.06,2.42-1.8,6.99-1.7,8.93-3.1,1.31-.94,6.99-8.42,9.27-10.68.95-.95,3.31-1.99,3.46-2.26.85-1.52.83-12.83,1.25-15.6-2-2.23-19.02,15.24-20.8,17.43-3.24,3.95-5.89,9.88-8.87,13.18-1.22,1.35-2.19,1.5-1.57-.53,1.96-6.34,9.23-13.94,13.53-19.01-4.01-1.65-7.59,3.52-10.42,5.28-1.55.97-2.44.99-2.08-1.05,3.11-2.66,6.36-4.9,10.02-6.75,6.77-3.42,8-3.71,14.65-8.37,5.47-3.84,6.56-.64,5.55-10.72-15.51,2.39-27.47,13.42-36.99,25.31-1.28-3.07,3.19-5.78,4.28-8.32l6.66-6.43-11.47-.54c0-1.82,12.04-1.39,13.86-1.8,3.6-.8,13.39-7.79,19.47-9.85,1.14-.39,4.01-.36,4.15-.51.81-.84.81-6.43-3.3-6.06-7.33.65-14.75.55-21.89,2.2-8.12,1.88-13.95,6.85-21.67,9.17,4.4-4.39,10.71-8.06,16.66-9.49-2.59-4.59-10.08-1.28-12.5-5.25,5.74-2.58,12.02,3.51,15.22,3.92,2.29.28,6.46-1.66,9.28-1.8,5.7-.28,11.48.18,17.18-.03-9.04-9.12-21.24-13.78-31.26-21.61l8.33,2.64-3.65-9.47c4.02,3.07,5.15,9.37,8.33,12.66,4.05,4.18,13.89,7.61,18.23,12.65l-13.71-20.39-8.16-8.07c9.67,3.88,15.52,14.65,20.86,23.19l-.03-.04h0Z"/>
    <path class="st70" d="M728.16,316.38c4.4-.13,4.93,11.43,6.26,12.65,2.18,1.99,1.96-2.01,2.08-2.1,3.04-2.06,1.02,3.09,3.11,3.14-.08-4.4,2.23-6.05,5.22-8.44,1.47-1.39,2-.8,1.04,1.06-1.38,1.58-3.46,2.96-4.17,5.26,3.47-.89,6.33-2.5,10.02-3.03,1.15-.16,5.63-1.04,5.6.93-6.91,1.32-14.34,2.01-18.75,8.44,6.47.77,12.54-3.75,18.75-1.03l-9.37,1.05c.88,1.76,3.37,2.05,5.23,3.65.84.72,4.07,3.71,3.09,4.77-5.64-5.48-12-7.07-19.78-6.32.89,9.71,9.15,8.06,13.54,13.7l-6.25-2.09,1.57,7.37-4.26-7.29c-1.7-1.05-5.56-9.27-7.19-8.52-4.25,1.97-.07,14.61,3.63,16.85l-4.15-2.1-1.07,5.26c-1.82.24-.98-2.4-1.03-3.67-.11-2.99.09-6,0-8.98-4.55-.68-2.52,1.01-3.12,2.12-1.56,2.46-3.51,1.62-2.35-1.14-2.45.44-3.41-.94-2.87-4.13.57-.78-.12-1.84-2.08-3.16.24-.41.85-.71,1.04-1.06,1.37-1.74,3.43-2.59,6.2-2.56-2.54-1.36-3.56-2.97-3.07-4.81.1-.32-.1-.73,0-1.06,1.42-4.12,4.26-1.88,5.21,1.06l1.04-1.06c-4.37-.5-6.19-4.07-2.96-8.16l-.17-4.5c.16-.6-.16-1.52,0-2.11h0Z"/>
    <path class="st47" d="M722.95,343.8l3.12,2.1-2.08,1.06,4.16,2.12c-3.77,6.99-9.17,13.78-14.07,20.03-1.79-2.47,6.22-11.14,5.73-11.59l-9.38,4.74c4.05-6.56,12.71-7.69,15.63-14.23-1.03-.92-8.79,3.97-10.41,4.74-1.06.51-3.55,2.65-4.18.52.26-.36.75-.65,1.04-1.06,3.36-2.08,5.1-4.54,5.21-7.38,2.29-2.19,4.02-2.53,5.21-1.06h0Z"/>
    <path class="st84" d="M718.79,258.38c-.13-.12-1.23.44-2.14-.69-1.54-1.92-2.09-6.94-4.63-8.79l.52,6.32c-1.21.16-1.62-1.9-2.07-2.11-3.04-3.76-4.94-8.64-5.7-14.63-.31-1.59-.84-1.98-1.59-1.19.6,2.45.26,3.86-1.04,4.22-2.02-.97-2.01-2.2,0-3.16l-1.04-5.27c-.46-.27-.42-.63,0-1.06-.54-3.31,3.12-3.16,1.62-1.36l1.5-.74c1.34,3.27,3.76,9.04,5.38,11.97,2.81,5.12,9.04,9.92,9.21,16.51h-.01Z"/>
    <path class="st168" d="M696.91,226.75c2.68-.33,8.46,1.75,4.17,5.27l-1.03,3.92c.07,3.95-1,12.78-5.22,12.95-.79-.62-1.09-1.05-1.04-2.11-1.43-1.62-1.5-4.02-.21-7.2-1.37,3.97-3.38,6.72-6.04,8.26-.87-.32-1.46-.79-2.08-1.06,3.43-6.86,6.58-14.05,11.47-20.03h-.01Z"/>
    <path class="st77" d="M701.07,233.08l1.04,5.27c.01,1.06,0,2.11,0,3.16,1.71.92,2.2,5.94,0,6.33-.07,1.05.06,2.12,0,3.16-2.39-.72-5.19-.46-7.28-2.11,2.06-3.5,3.76-15.13,6.25-16.87.02.35-.01.7,0,1.06h-.01Z"/>
    <path class="st146" d="M693.77,246.78c-.33.92-1.41,1.78-1.07,3.17-.28.25-4.29-1.79-5.18-2.12,1.98-6.54,6.05-12.38,9.91-17.92-.14,5.11-1.95,12.09-3.65,16.87h0Z"/>
    <path class="st30" d="M710.45,253.11c-1.73-.8-2.51-.42-5.21-2.11-1.95-3.87-2.64-8.44-2.08-13.71.15-.99-.11-2.14.01-3.16,1.39-1.67,7.42,17.17,7.28,18.98h0Z"/>
    <path class="st3" d="M721.91,339.58c.63-1.13,2.71-6.05,3.12-7.38l7.27,4.74c-2.66,2.72-6.87,2.77-10.4,2.64Z"/>
    <path class="st3" d="M728.16,318.49l4.16,10.54-4.68-4.21c-1.38,1.63,2.24,4.41,3.65,6.32,1.25,1.47.71,2.04-1.04,1.06-1.56-.97-3.56-2.44-5.21-1.06,1.23-4.07,2.03-8.5,3.12-12.66h0Z"/>
    <path class="st37" d="M720.87,341.34h9.38c.78,3.16-5.32,2.71-7.28,3.16-1.72.4-3.39,1.14-5.21,1.06.96-1.39,2.39-3,3.12-4.22Z"/>
    <path class="st194" d="M705.23,251c-1.12-.7-2.27.07-3.12-3.16.15-2.07-.21-4.28,0-6.33.05-.51.8-2.62,1.04-4.22,1.64,3.74,1.55,9.35,2.08,13.71h0Z"/>
    <path class="st213" d="M717.75,344.85l5.2,2.1-10.42,5.28c1.73-2.42,3.53-4.93,5.21-7.38h0Z"/>
    <path class="st205" d="M684.4,203.55c-.13-5.25.85-10.96-1.04-15.81,7.48,1.2,14.85,1.81,22.45,2.1,2.01.07,4.17-1.07,3.59,2.12,1.1.94.4,3.03-1.04,3.16-1.45,5.99-3.57,11.9-6.34,17.74-.54,3.89-1.9,6.06-4.08,6.52-1.24,1.11-1.82.55-1.04-1.06-.58-4.39-.84-8.85-.77-13.4l-1.32.74c.36,3.31.46,6.65.32,10.02,1.74,5.43-3.63,3.19-6.38.22-6.03-1.41-7.64-2.91-4.85-4.49l.49-2.59c-1.75-.95-1.62-4.21,0-5.27h-.01Z"/>
    <path class="st7" d="M709.41,147.66c3.23,1.86,9.59,9.78,12.91,9.49.96-.08,1.86-1.06,2.2-1.4h16.67c.5.36,3.2,1.65,2.6,2.81h-18.23c-.12-.36-2.08,1.18-1.06,1.76,4.91,5.5,6.57,2.79,11.33,3.21,6.2.54,12.33,4.09,16.29,8.92-3.89.75-6.53-4.05-10.21-5.48-3.03-1.18-6.35-1.54-9.58-1.37-.47,1.83.75,2.11,1.55,3.16,3.99,5.26,10.83,10.02,15.11,15.29.16.78-1.06.71-1.54.51-2.66-1.1-8.67-7.55-10.99-9.98-.98-1.03-5.73-8.62-7.26-6.88.19,3.24-.37,6.72.08,9.92.5,3.52,3.46,5.82,2.52,9.05-7.44-4.74-2.79-17.17-5.2-22.15-.39-.79-11.35-9.46-13.04-10.53-1.41,2.55-2.05,6.08-1.91,10.6l-1.21-.05c-.49-5.42,1.6-11.38-2.08-15.82.67.16,1.15-.48,1.04-1.06h.01Z"/>
    <path class="st164" d="M687.53,132.89c.24.08,3.05,2.45,4.17,3.16-2.38-.41-3.18.8-4.72,2.07-5.28,4.32-11.9,13.18-15.51,19.11-3.1,5.09-4.74,11.62-8.93,15.73,1.39-8.55,6.97-17.29,12.06-24.17,4.1-5.54,9.73-9.92,12.94-15.91h-.01Z"/>
    <path class="st14" d="M701.07,142.38c-3.11-.62-1.88,1.53-2.23,3.49-1.31,7.31-2.58,16.02-1.93,23.39.36,4.03,3.04,8.21,1.56,12.13-6.75-12.16-3.2-28.12-.53-41.12.92.69,1.97,1.2,3.12,2.11h.01Z"/>
    <path class="st81" d="M686.48,132.89c-8.78-.2-25.24,14.77-31.26,21.09-1.47,1.39-2,.8-1.04-1.06,8.6-9.71,16.57-16.15,28.14-22.14,1.47.48,3.04.95,4.17,2.11h-.01Z"/>
    <path class="st201" d="M694.83,139.21l-5.71,10.56-7.81,23.18c.04-12.33,5.47-24.87,12.5-34.8.33.21.62.76,1.04,1.06h-.01Z"/>
    <path class="st160" d="M675.01,128.67c.36.3.62.79,1.04,1.06l-34.38,10.53c1.46-2,5.48-3.33,7.78-4.23,8.21-3.22,16.9-5.67,25.56-7.36Z"/>
    <path class="st152" d="M713.58,153.98c-3.25,11.24,1.18,23.78,6.25,33.73-2.08.46-2.42-1.04-3.38-2.37-3.21-4.44-5.99-15.32-6-20.82,0-.14.99-1.18,1.08-2.55.21-2.99-.22-6.05-.04-9.05,1.97-.58,1.75.84,2.08,1.05h0Z"/>
    <path class="st181" d="M677.11,189.83c.13-5.55,2.95,1.95,3.14,2.1,2.93,2.22,1.05-3.12,3.09-3.15l1.05,14.75c.04,1.75-.09,3.52,0,5.27-.11,4.85-.6,7.56-3.12,2.11,1.82-3.11.69-11.67-.22-15.06-.69-2.54-2.61-3.94-3.94-6.03v.02h0Z"/>
    <path class="st219" d="M707.32,136.06c4.48-.73,9.27-3.42,14.58-2.1.28,1.53-1.97,1.36-3.09,1.59-3.43.7-7,.89-10.45,1.57l-1.04-1.06h0Z"/>
    <path class="st164" d="M652.1,126.56l3.12,2.11c-4.84.2-9.74-.14-14.58-.01.14-1.51,4.68-1.84,5.9-1.96,1.9-.2,3.71-.01,5.57-.13h-.01Z"/>
    <path class="st152" d="M703.16,126.56c-2.04,1.62-4.41,2.83-6.25,4.22.1-.86-.3-.97-1.04-1.06,1.46-2.15,4.11-4.24,6.66-4.16l.63,1.01h0Z"/>
    <path class="st27" d="M655.22,153.98c-.91.95-4.65,6.69-6.25,5.26.94-2.79,3.55-4.45,5.21-6.32l1.04,1.06h0Z"/>
    <path class="st142" d="M709.41,197.22c-1.17,1.12-1.52.42-1.04-2.11.24-.97.41-2.43,1.04-3.16.15-.17,1.78-1,2.08-1.06-.06,2.38-1.42,4.42-2.08,6.33Z"/>
    <path class="st171" d="M669.81,204.6c1.26-1.75,1.65-.78,2.08,1.06,3.14,1.74,6.12,3.65,9.38,5.27.28.14.14,1.63,2.07,1.06l1.05-3.16c.06,1.18-.4,3.17.17,4.03.32.47,9.86,4.81,10.24,4.41-1.06-3.91-.43-7.61,0-11.6l1.48.18c-.27,4.28-.06,8.45.6,12.47.09.35.91.72,1.04,1.06.96.31.95.66,0,1.06.93.28.92.63,0,1.06-1.72-1.2-3.46-1.19-5.46-.84-2.46.42-12.4,3.71-15.2,4.73-3.63,1.32-6.44,4.78-10.61,4.54l8.32-5.79,15.63-5.26c-4.93-7.16-13.43.35-20.3,2.65-2.89.97-5.69,2.36-8.87,2.09l18.43-8.22,2.4-2.3c-2.98.05-6.63-3.79-9.03-4-1.76-.15-5.94,2.67-9.21,2.94-4.27.36-7.81-1.14-11.97-1.08l17.7-2.11c1.76-1.67-8.02-6.48-9.38-7.38-1.38-1.37-.81-1.61,1.04-1.06,2.7,1.47,5.62,2.74,8.33,4.22l.04-.02h0Z"/>
    <path class="st76" d="M698.63,220.42c2.08-3.16,7.7-7.39,5.21,0-.03.17-1.31.21-1.04,1.04.66.14,1.56-.15,2.08.01,4.25.91,8.43.91,12.51,0,.68-.07,1.4.05,2.08,0,1.67-.73,2-.61,1.04,1.06-.58.14-1.41-.1-2.08.01v1.04c2-1,4.92,1.03,5.2,1.07,1.24.88.9,1.23-1.04,1.06-2.71-.72-18.55-3.02-19.8-2.1,1.25,1.89,1.29,4.35,2.08,6.32.61,3.54-1.24.79-3.12,2.11-.07-1.05.06-2.12-.01-3.15l-2.06,2.1c.94-5.83-2.83.07-2.09-4.21.1-.6,1.43-1.73,1.04-2.1-.66-.14-1.52.14-2.08,0-1.9.74-2.21.73-1.04-1.06,1.07-.66,2.42-.73,3.12-2.11.1-.19-.02-.68,0-1.06v-.02h0Z"/>
    <path class="st143" d="M695.87,224.63c-6.4,3.42-12.79,8.99-19.8,10.53,4.57-5.45,12.78-7.92,18.76-11.59.16.47.58.93,1.04,1.06h0Z"/>
    <path class="st196" d="M671.89,205.66c-.68-.38-1.4-.68-2.08-1.06.11-4.38-.16-8.8,0-13.2.05-1.28-.79-3.93,1.03-3.67,1.49,5.86,1.03,11.92,1.05,17.92h0Z"/>
    <path class="st94" d="M661.48,200.38l-1.04,1.06c-1.65-1.09-3.77-2.13-5.21-3.16-.45-.33-.44-.68,0-1.06,2.06,1.09,4.11,2,6.25,3.16Z"/>
    <path class="st41" d="M655.92,197.22v1.06c-1.15-.83-2.79-1.59-3.12-3.15,2.16-.83,2.46,1.75,3.12,2.1h0Z"/>
    <path class="st83" d="M733.38,611.66c2.31-3.84,2.24-9.24,4.07-13.28.43-.94.38-3.16,2.16-1.48.52.49,5.14,12.56,5.21,13.27.36,3.56-2.11,7.35-2.07,10.98-2.32-3.14-6.29-7.17-9.38-9.49h0Z"/>
    <path class="st74" d="M695.87,630.64c5.98-2.16-3.96-6.59-2.08-8.44,1.88-1.84,6.45,6.97,7.27,6.32,1-7.57,6.45-17.84,14.2-19.93,1.97-.53,1.96,1.47,1.45,1.99-.26.26-4.85,1.75-6.49,3.16-4.35,3.75-5.9,10.41-7.05,15.83-3.5.43-3.94.45-7.29,1.06h-.01Z"/>
    <path class="st148" d="M720.87,670.72c-.97,3.54-1.31,7.25-2.4,10.77-.35,1.1-.28,3.18-1.76,2.94-1.03-5.9,2.09-11.41,3.11-16.87l1.04,3.16h.01Z"/>
    <path class="st105" d="M752.13,691.1c.09.32,1.3.51.94,2.37-.35,1.76-2.4,2.94-1.97,5.02h4.15l-4.16,2.11c-.15-.16-2.02.42-2.13-.6-.18-1.67,2.29-6.98,3.17-8.88h0Z"/>
    <path class="st11" d="M751.08,702.35c2.18.69,5.5.71,6.25,3.15l-7.29-1.05c.13-.23-1.28-2.26-1.03-3.16.26-.33,1.4.83,2.08,1.05h-.01Z"/>
    <path class="st170" d="M745.88,710.79l5.22,2.64c-.04,1.1-4,.33-5.22.53l-2.08-1.59c.35-.79,1.93-1.25,2.08-1.58h0Z"/>
    <path class="st13" d="M739.63,718.16l4.17,3.15c-1.8.45-3.68-1.08-5.21-1.05-.07-1.01.62-1.47,1.04-2.11h0Z"/>
    <path class="st31" d="M719.83,701.29c-.27,2.32,1.01,3.7-2.08,3.15-.04-.69.03-1.4,0-2.11l2.08-1.06h0Z"/>
    <path class="st222" d="M709.41,197.22c-2.41,6.97-5.97,13-7.28,20.03,4.93-5.95,9.41-12.16,14.58-17.93,1.47-1.39,2-.8,1.04,1.06-4.71,6.77-10.03,13.15-14.59,20.03.27-1.67.19-2.56-1.55-2.12-.75.19-.42,3.34-3.65,2.12.02-.34.08-.85,0-1.06l10.42-24.26,1.04,2.11h0Z"/>
    <path class="st55" d="M728.16,224.63c1.97.09,16.69-.45,16.68.53-4.64,1.82-9.68,1.69-14.6,1.6-.64,1.74,8.96,3,6.24,5.26-1.72,1.42-6.84-3.58-8.33-4.21-1.32-1.5-1.32-2.55,0-3.16h.01Z"/>
    <path class="st163" d="M732.34,217.25c1.56-.51,1.84-.48,1.04,1.06-3.94,1.55-9.41,3.19-13.55,4.22l-1.04-1.06c4.08-2.74,8.91-3.24,13.55-4.22Z"/>
    <path class="st9" d="M728.16,224.63l.95,2.54-.95.62c-1.02-.43-5.1-1.8-6.25-2.11l1.04-1.06c1.61.2,3.51-.08,5.21,0Z"/>
    <path class="st209" d="M716.71,221.47c-3.54,2.22-8.68,1.24-12.51,0,4.04-.3,8.54.42,12.51,0Z"/>
    <path class="st153" d="M716.71,199.33c1.43-1.6,2.84-4.19,3.12-.54-.28.82-1.79,1.17-2.07,1.59l-1.04-1.06h-.01Z"/>
    <path class="st106" d="M732.34,217.25c.81-.17,2.32-1.91,4.16-1.05.36,1.23-1.72,1.55-3.12,2.1l-1.04-1.06h0Z"/>
    <path class="st149" d="M744.83,322.35c.45-.36.77-1.82,1.57-2.1h1.55c.65,2.28-1.29,2.24-2.08,3.15l-1.04-1.06h0Z"/>
    <path class="st89" d="M732.34,735.04c1.37,1.23,3.55,2.18,4.17,4.21-2.22.38-3.5-1.98-5.21-3.15l1.04-1.06h0Z"/>
    <path class="st121" d="M725.04,745.59c.56.7,3.52,3.9,3.12,4.21-2.49.67-2.93-2.05-4.17-3.15l1.04-1.06h.01Z"/>
    <path class="st71" d="M741.7,729.42c.3.21,4.19.7,2.59,2.12-1.88.15-3.23-1.44-4.68-2.12h2.09Z"/>
    <path class="st110" d="M731.3,331.14c.4.55,2.5,2.82,2.08,3.15-2.21.8-2.39-1.64-3.12-2.1l1.04-1.06h0Z"/>
    <path class="st168" d="M702.11,238.35c-1.69-.9-.97-3.58-1.04-5.27,1.65.89,1.02,3.58,1.04,5.27Z"/>
    <path class="st93" d="M696.91,218.31c-.03-.13-.87-.53-1.02-1.58-.55-3.56,1.2-8.36-1.06-11.08.46-4.19.66-11.06,4.16-13.71-.51,8.9-3.1,17.33-2.07,26.36h-.01Z"/>
    <path class="st124" d="M1149.45,507.03h4.46c.03,2.35.02,2.54.01,3.51,0,2.9,0,0,0,1.08l1.55,3.95c1.13,31.15,1.08,62.34-.14,93.6l-2.4,1.4h-317.55c-.79-1.44-2.69-2.17-5.71-2.16-.92-.74-1.18-.59-1.05-2.15l-2.08-1.32,1.02-96.36c-.03-1.84,1.21-2.96,2.83-3.43l130.65-.22,4-1.91c.85-2.34,2.31-2.33,3.15,0l1.5,1.73c6.34-.33,10.59-.65,15.85,1.39.32-2.05,3.33-.28,3.85.5l.24-.77"/>
    <path class="st124" d="M1005.55,505.15c38.08.43,76.23.43,114.42,0-.73-.94,13.63,1.47-.44-1.81-2.89-.96-6.4-1.52-9.13-2.29l-28.69-14.68c-1.73,5.04-5.56,3.87-9.91,2.14-11.6-6.96-17.39-6.63-29.79-5.51-6.78.61-13.66,1.72-20.29,3.03-4.97,4.14-5.68,3.44-9.49,4.06l-1.18.19-2.13-1.95c-2.53,1.46-3.53.97-2.99-1.47l-10.1-.36-1.24-.3c-1.55-.24-1.21.99-4.02-1.1-.35.94-1.07-.53-1.42-1.47-.26.98-.61.96-1.05,0-3.05-.57-8.19-2.3-11.54-3.23l-6.29-2.15c-1.36-.75-7.45-4.01-9.45-5.38-8.69-5.62-13.33-8.94-20.98-16.14l-3.15-3.23c-14.04-14.41-19.72-22.78-20.98-44.1-.88-6.79-.88-13.59,0-20.43,2.08-11.32,8.9-12.33,11.54-24.74.15-5.44,1.05-10.81,2.1-16.14,2.17-7.27,2.5-7.38,7.35-12.91l3.15-3.23c4.22-3.57,7.81-6.8,13.64-7.53,5.17-1.13,10.56-1.21,15.74,0,2.72.5,8.12,4.56,10.5,6.45,1.39.74,2.41,1.79,3.15,3.23.5,1.33.58,2.93,1.05,4.3.65,1.91.65,3.35,0,4.3-.34.93-.68.93-1.05,0-1.68.25-2.03.61-1.05,1.08,2.3-.6,8.41,2.83,4.19,3.23-2.2,1.54-5.11,2.53-8.74,2.97,3.41-1.09,5.62-.64,6.64,1.33,2.55-.59,10.23-1.11,10.43,1.78-5.16,1.69-14.3,2.13-11.96,9.99,1.16,3.9,19.91,13.86,24.62,17.27,1.13,1.4,2.55,2.52,4.19,3.23.36.35.67.74,1.05,1.08,1.95.77,3.37,2.39,4.19,4.3,7.66,6.48,15.46,12.86,23.09,19.36,1.08,1.47,2.5,2.59,4.19,3.23.49.42,1.28,1.39,2.1,2.15l3.15,3.23c4.97,4.77,11.19,10.04,15.74,15.06.69,1.68,1.78,3.13,3.15,4.3,2.39,3.58,5,7.19,7.35,10.76,1.18,2.33,2.07,4.85,2.1,7.53l25.19,17.21,4.19,3.23c6.3,5.22,12.35,10.14,18.89,15.06l2.1,3.23v2.15c0,4.24-6.09-.07-8.4-2.15-5.98-1.15-12.74-5.91-17.84-9.68-1.42.17-1.78.53-1.05,1.08,7.9,2.82,15.63,7.33,22.04,12.91,2.58-1.86,4.11,1.95,9.48,7.06"/>
    <path class="st151" d="M1156.27,510.49l1.03,101.5h-322.1c.95-5.27-2.15-1.82-5.21-4.27h322.1c-1-31.8-.15-64.73-1.48-96.44,5.65-.78,3.86-.78,5.65-.78h.01Z"/>
    <path class="st115" d="M962.05,503.36c.9-1.43,4.74-1.71,5.21,0l-1.53,3.14-136.41.06v99.37l-5.56-1.07v-101.51c46.52-.62,92.47.82,138.29,0h-.01Z"/>
    <path class="st124" d="M972.73,500.26c-2.02-.98-.42.56,1.6-.41,2.16-4.44,6.03-7.16,8.98-10.43,2.2-2.08,3.31-1.44,3.39,1.84-1.57,2.7-4.43,8.73-7.55,7.77,1.78,1.78,1.43,2.49-1.04,2.14"/>
    <path class="st124" d="M975.75,499.08c-.01,1.07-.93,2.72-6.43,3.72l-1.92.55c-.63.02-1.68-.46-4.29,1.18-.86.54-.91,1.09-1.43,2.08-.33.63.06-1.87.51-3.26,1.78-4.27,9.42-3.84,13.55-4.27h.01Z"/>
    <path class="st124" d="M983.58,339.89c.37,1.09,1.22,3.91,1.72,4.37,1.44,1.32,10.35,4.85,10.67,5.37,2.04,3.27-2.02,3.49-4.06,4.15-1.8-2.14-5.73-.73-8.33-1.07-.92-2.45.96-3.36,5.62-2.73l-.41-1.55c-2.64-.9-4.38-2.32-5.21-4.27v-4.27h0Z"/>
    <path class="st124" d="M991.52,486.09c-2.91,2.46-2.7,1.84-4.82,5.17l-2.87-2.31c.9-1.08,1.72-2.63,2.56-3.81.23-.46.43-.71.56-.82.1-.08.4-.86.45-.82.17.12.82-.05.71.14,3.85-.33,3.9-1.59,3.4,2.45h0Z"/>
    <path class="st28" d="M928.69,349.5c-.38,5.41-1.01,11.01-2.08,16.03"/>
    <path class="st28" d="M939.1,457.42c-1.55-1.46-1.96-2-3.13-3.21l3.13,3.21Z"/>
    <path class="st169" d="M1148.56,504.88v3.73l-147.28-1.99v-3.28"/>
    <path class="st82" d="M980.81,503.36c1.99,0,19.11-.05,20.46-.01,4.13-.1,2.01,3.3,0,3.28-6.68-.15-28.63-.25-35.55-.11l1.53-3.14"/>
    <path class="st136" d="M982.52,352.49c.12-.53.52-.96.98-1.23s.98-.41,1.5-.52c3.38-.69,6.88-.32,10.3.06.06.23.19.45.38.6-1.16.53-2.45.66-3.7.77-3.2.27-6.47.19-9.64.58-2.76.35-5.53.86-8.32,1-6.16.28-.6-3.71,2.62-4.82,1.61-.56,4.01-.64,5.85-.61,1.17.02,2.13.08,2.5.1.86-1.13,8.8,1.37,9.38,3.19-2.91.26-6.09-.36-8.94-.03-1.25.14-2.19.98-2.48,1.1"/>
    <path class="st124" d="M1010.77,488.29c1.07,1.24.71,1.05-.38,3.28-1.91,3.96-6.87,12.47-9.82,15.15-.85-.16-2.94.92-2.89-.16.87-1.87,3.54-8.28,4.38-10.07,1.05-4.06,5.43-11.69,8.71-8.19h0Z"/>
    <path class="st218" d="M979.77,395.44c2.96.62,6.26,2.54,7.29,5.34.09.44,1.36,1.14,1.04,2.13-5.67,1.56-6.64-3.13-9.9-5.38-1.01-.69-2.19-.73-2.61-1.02-.37-1.05-.47-2.2-1.04-3.19.79-.63,4.22,1.58,5.21,2.13h0Z"/>
    <path class="st218" d="M983.93,394.37c3.9-1.93,9.8,2.68,10.43,6.41-2.02,2-4,.32-6.25-1.07-2.26-.74-4.35-2.17-6.25-4.27.48-.92,1.43-.77,2.08-1.07h0Z"/>
    <path class="st191" d="M979.76,409.69c-.05,2.67.09,5.36,0,8.03-.04,1.28.79,3.98-1.03,3.71-2.42-3.75-3.72-6.95-3.13-11.74h4.16Z"/>
    <path class="st98" d="M975.6,396.51c.28.8,1.04,1.32,1.04,2.13-1.95,1.32-11.51-4.72-12.51-7.46,4.93-.64,7.87,2.87,11.47,5.33Z"/>
    <path class="st204" d="M987.05,392.24c-.02-.15-.97-.51-1.06-1.05,5.47-.88,8.42,4.3,12.52,6.94.05,3.41-2.15,1.14-3.12.52-2.45-.27-7.55-4.1-8.33-6.41h0Z"/>
    <path class="st154" d="M1015.21,416.81c-4.14.66-8.1,2.26-11.46-2.13,3.49,1.89,6.87-1.1,8.84-1.14.29,0,.4,3.4,4.7,1.12.57,1.15-.12,1.86-2.08,2.14h-.01Z"/>
    <path class="st187" d="M967.23,400.79c2.22,1.88,3.12,9.32-1.01,10.67.34-1.33-2.76-13.87,1.01-10.67Z"/>
    <path class="st182" d="M974.18,416.81c-2.1-.35.08-3.31-3.11-1.06v-9.62c5.01.12,2.66,7.14,3.11,10.67h0Z"/>
    <path class="st155" d="M995.84,425.12c.07.21,3.68,3.23.09,3.44-2.52-2.87-4.21-5.83-2.6-9.61,3.04.88,1.93,4.4,2.51,6.17h0Z"/>
    <path class="st139" d="M984.97,415.74c.54,1.4,3.49,10.27,3.12,10.67-2.89,3.3-4.03-8.9-4.16-9.61-.45-1.6-.47-1.86,1.04-1.07Z"/>
    <path class="st2" d="M995.4,398.65c-.87.37-.82,1.91-1.04,2.14-2.69-3.8-5.74-6.31-10.43-6.41.75-.34,3.21-1.33,3.13-2.14,2.82,1.82,5.58,4.65,8.33,6.41Z"/>
    <path class="st131" d="M1004.77,427.49c-4.12.15-3.12-4.52-3.11-7.48,2.74,1.19,3.31,4.73,3.11,7.48Z"/>
    <path class="st100" d="M1007.9,454.21c.66.37,9.42,3.12,7.28,5.34-.92.96-6.34-4.34-7.28-5.34Z"/>
    <path class="st165" d="M981.85,395.44c3.34.73,3.97,2.87,6.25,4.27-.67-.17-1.16.51-1.04,1.07-2.43-1.99-4.51-3.8-7.29-5.34.66.09,1.47-.13,2.08,0h0Z"/>
    <path class="st32" d="M1007.9,454.21c-2.05-1.14-5.38-1.73-5.2-5.34,1.18,1.19,4.15,2.55,4.94,3.5.51.61.13,1.71.26,1.84h.01Z"/>
    <path class="st97" d="M997.48,391.19c3.02,3.44-5.18,1.32-5.2-2.15.88,0,5.02,1.93,5.2,2.15Z"/>
    <path class="st29" d="M998.53,390.09c-2.23-.12-5.11-2.33-6.25-4.25,2.46-.06,5.21,2.02,6.25,4.25Z"/>
    <path class="st200" d="M999.57,415.74c-2.18-.63-2.25-1.54,0-2.14.75-.26.85-3.84,3.12-.52.08,1.98-1.42,2.65-3.12,2.66h0Z"/>
    <path class="st19" d="M977.68,354.85c1.47.7-4.71,2.81-6.25,2.12.81-2.71,3.97-2.19,6.25-2.12Z"/>
    <path class="st44" d="M964.13,347.37c-1.58.95-2.6,1.96-5.2.52l5.2-.52Z"/>
    <line class="st60" x1="958.92" y1="347.89" x2="964.13" y2="347.37"/>
    <path class="st212" d="M996.43,439.24c-1.94-.78-3.22-3.44-3.11-5.34,1.94.78,3.22,3.44,3.11,5.34Z"/>
    <path class="st175" d="M999.57,447.79c-2.23.22-4.43-2.14-4.16-4.26l4.16,4.26Z"/>
    <path class="st223" d="M1000.25,413.6v2.14c-.85,0-4.2-.91-4.18-1.61.64-1.28,3.14-.16,4.18-.54h0Z"/>
    <path class="st184" d="M1013.11,452.08l-3.11-3.19c1.97-.36,3.47,1.24,3.11,3.19Z"/>
    <path class="st180" d="M983.93,416.81c-.27-1.37-3.05-3.68,1.04-3.21.16.66-.17,1.66,0,2.14l-1.04,1.07Z"/>
    <path class="st124" d="M983.63,501.04c1.05.77.9.33,1.68,2.1.1.23.37,2.97.1,2.37-.45-1.02-.27-1.41-1.59-2.16-.85-.48-2.16-.91-2.27-.88-1.4.1-2.42-.48-3.71-1.3.19-.18.97-2.45,1.63-3.16.32,2.01,3.47,2.52,4.17,3.03h-.01Z"/>
    <ellipse class="st211" cx="961.53" cy="344.11" rx="2.63" ry="2.7"/>
    <path class="st136" d="M980.89,343.99c-.17-.2-.34-.42-.46-.63.6-.31,1.08-.77,1.66-1.12.19-.12.41-.21.85-.27.13.09.09.36.53.79.26.3.47.67.69,1,.32.46.68,1.24,1.16,1.56.91.59,2.11.96,3.1,1.42,1.16.55,2.32,1.1,3.48,1.66.58.27,1.16.58,1.72.89.75.41,1.26,1.21,1.97,1.91-.55.16-1.02.37-1.58.28-.5-.07-1.01-.24-1.5-.38-.99-.25-1.98-.54-2.95-.89-1.07-.39-2.32-.81-3.22-1.53-.75-.59-1.58-1.06-2.36-1.65-.59-.46-1.11-1.01-1.62-1.56-.44-.48-1.02-.97-1.48-1.5h0Z"/>
    <path class="st136" d="M985.1,347.47c.17-.04.35-.09.88.13.37.25.7.54.98,1.05-.67.18-1.36.38-2.04.35-.35,0-.68-.07-1.03-.14-.64-.12-1.3-.21-1.93-.37.95-.49,2.11-.75,3.14-1.03h0Z"/>
    <path class="st60" d="M985.56,348.18l.05.05"/>
  </g>
  <path class="st103" d="M1026.29,439.78c4.09,5.69,1.02-4.26,3.07-2.1,8.91,11.03-1.4,9.18-3.07,2.1Z"/>
  <path class="st158" d="M1027.79,454.48l-2.53,1.05c-1.29-1.72-18.55-22.22-18.38-24.15.97.3,6.1,5.34,10.57,11.07,5.29,6.78,9.74,11.35,10.35,12.03h0Z"/>
  <path class="st158" d="M1029.35,437.68l2.15,3.65c-.74-.82-12.71-11.36-13.39-12.58l.52-.53c2.06-.25,9.73,8.54,10.72,9.46Z"/>
</svg>