<?xml version="1.0" encoding="UTF-8"?>
<svg id="Layer_1" data-name="Layer 1" xmlns="http://www.w3.org/2000/svg" viewBox="0 0 1202.43 1121.52">
  <defs>
    <style>
      .cls-1 {
        fill: #636954;
      }

      .cls-2 {
        fill: #8c9780;
      }

      .cls-3 {
        letter-spacing: 0em;
      }

      .cls-4 {
        fill: #646464;
      }

      .cls-5 {
        fill: #789276;
      }

      .cls-6 {
        fill: #a5b09a;
      }

      .cls-7 {
        fill: #6c7660;
      }

      .cls-8 {
        fill: #945e4b;
      }

      .cls-9 {
        letter-spacing: 0em;
      }

      .cls-10 {
        fill: #a1aba7;
      }

      .cls-11 {
        fill: #363e2a;
      }

      .cls-12 {
        fill: #bfccb7;
      }

      .cls-13 {
        fill: #818c75;
      }

      .cls-14 {
        fill: #a4ae98;
      }

      .cls-15 {
        fill: #9fc29a;
      }

      .cls-16 {
        fill: #8f9782;
      }

      .cls-17 {
        fill: #9ca7a0;
      }

      .cls-18 {
        fill: #a1ac95;
      }

      .cls-19 {
        letter-spacing: 0em;
      }

      .cls-20 {
        fill: #8a927d;
      }

      .cls-21 {
        fill: #373f2b;
      }

      .cls-22 {
        fill: #75836c;
      }

      .cls-23 {
        fill: #9c9c9c;
      }

      .cls-24 {
        fill: #777e69;
      }

      .cls-25 {
        fill: #c0afa7;
      }

      .cls-26 {
        fill: #303c2a;
      }

      .cls-27 {
        fill: #2b2c2b;
      }

      .cls-28 {
        fill: #7ba185;
      }

      .cls-29 {
        fill: #c3c3c3;
      }

      .cls-30 {
        fill: #2d3222;
      }

      .cls-31 {
        fill: #8a978a;
      }

      .cls-32 {
        fill: #fcfcfc;
      }

      .cls-33 {
        fill: #777;
      }

      .cls-34 {
        fill: #394633;
      }

      .cls-35 {
        fill: #75503d;
      }

      .cls-36 {
        fill: #7d7d7d;
      }

      .cls-37 {
        fill: #bbcdb6;
      }

      .cls-38 {
        fill: #505050;
      }

      .cls-39 {
        fill: #8f9c85;
      }

      .cls-40 {
        fill: #637359;
      }

      .cls-41 {
        fill: #b7c7af;
      }

      .cls-42 {
        fill: #7f977c;
      }

      .cls-43 {
        fill: #bacab1;
      }

      .cls-44 {
        fill: #8a967f;
      }

      .cls-45 {
        fill: #976953;
      }

      .cls-46 {
        fill: #5b6854;
      }

      .cls-47 {
        fill: #797a66;
      }

      .cls-48 {
        fill: #97a38c;
      }

      .cls-49 {
        fill: #fff;
      }

      .cls-50 {
        letter-spacing: -.02em;
      }

      .cls-51 {
        fill: #bacdb6;
      }

      .cls-52 {
        fill: #79846d;
      }

      .cls-53 {
        fill: #bac9b1;
      }

      .cls-54 {
        fill: #909c85;
      }

      .cls-55 {
        fill: #8f5d4a;
      }

      .cls-56 {
        fill: #905f4b;
      }

      .cls-57 {
        fill: #925b48;
      }

      .cls-58 {
        letter-spacing: 0em;
      }

      .cls-59 {
        fill: #cecece;
      }

      .cls-60 {
        fill: #bccbb3;
      }

      .cls-61 {
        fill: #8d9981;
      }

      .cls-62 {
        fill: #a8b59f;
      }

      .cls-63 {
        fill: #d3bcb6;
      }

      .cls-64 {
        fill: #60765d;
      }

      .cls-65 {
        fill: #536691;
      }

      .cls-66 {
        fill: #516591;
      }

      .cls-67 {
        fill: none;
      }

      .cls-68 {
        fill: #b5c9b2;
      }

      .cls-69 {
        fill: #2d301b;
      }

      .cls-70 {
        fill: #304840;
      }

      .cls-71 {
        fill: #2c2d2c;
      }

      .cls-72 {
        fill: #383c37;
      }

      .cls-73 {
        fill: #86917a;
      }

      .cls-74 {
        fill: #8f9b84;
      }

      .cls-75 {
        fill: #2f4840;
      }

      .cls-76 {
        fill: #909d85;
      }

      .cls-77 {
        fill: #c0cfb7;
      }

      .cls-78 {
        fill: #8a937d;
      }

      .cls-79 {
        fill: #a0ac94;
      }

      .cls-80 {
        fill: #89947d;
      }

      .cls-81 {
        fill: #8d5946;
      }

      .cls-82 {
        fill: #9e604c;
      }

      .cls-83 {
        fill: #bac7b1;
      }

      .cls-84 {
        fill: #34412f;
      }

      .cls-85 {
        fill: #abb4b4;
      }

      .cls-86 {
        fill: #475540;
      }

      .cls-87 {
        fill: #b2c7b0;
      }

      .cls-88 {
        fill: #9faaa4;
      }

      .cls-89 {
        fill: #4e618a;
      }

      .cls-90 {
        fill: #314840;
      }

      .cls-91 {
        fill: #a3b09b;
      }

      .cls-92 {
        fill: #8a5c4a;
      }

      .cls-93 {
        fill: #916a54;
      }

      .cls-94 {
        fill: #a0a0a0;
      }

      .cls-95 {
        fill: #955e4b;
      }

      .cls-96 {
        fill: #777f69;
      }

      .cls-97 {
        fill: #919d86;
      }

      .cls-98 {
        fill: #8f9c84;
      }

      .cls-99 {
        fill: #60755d;
      }

      .cls-100 {
        fill: #86937f;
      }

      .cls-101 {
        fill: #8c9984;
      }

      .cls-102 {
        font-family: Overpass-Regular, Overpass;
        font-size: 138.19px;
        font-variation-settings: 'wght' 400;
      }

      .cls-102, .cls-103 {
        fill: #2b2b2b;
      }

      .cls-104 {
        fill: #87927b;
      }

      .cls-105 {
        fill: #c1b1a9;
      }

      .cls-106 {
        fill: #636363;
      }

      .cls-107 {
        fill: #d8d8d8;
      }

      .cls-108 {
        fill: #8f9a83;
      }

      .cls-109 {
        fill: #c8c8c8;
      }

      .cls-110 {
        fill: #868f79;
      }

      .cls-111 {
        fill: #6d7b64;
      }

      .cls-112 {
        fill: #dbdbdb;
      }

      .cls-113 {
        fill: #a99f93;
      }

      .cls-114 {
        fill: #8f9882;
      }

      .cls-115 {
        fill: #8a9782;
      }

      .cls-116 {
        fill: #b2c8af;
      }

      .cls-117 {
        fill: #555f44;
      }

      .cls-118 {
        fill: silver;
      }

      .cls-119 {
        fill: #9cb096;
      }

      .cls-120 {
        fill: #b9aba2;
      }

      .cls-121 {
        fill: #526590;
      }

      .cls-122 {
        fill: #617257;
      }

      .cls-123 {
        fill: #8e5e4b;
      }

      .cls-124 {
        fill: #506491;
      }

      .cls-125 {
        fill: #8d9982;
      }

      .cls-126 {
        fill: #cbcbcb;
      }

      .cls-127 {
        fill: #adb8a2;
      }

      .cls-128 {
        fill: #a8c0a8;
      }

      .cls-129 {
        fill: #8c9880;
      }

      .cls-130 {
        fill: #656c56;
      }

      .cls-131 {
        fill: #57604b;
      }

      .cls-132 {
        fill: #2c2e19;
      }

      .cls-133 {
        fill: #c2d2bb;
      }

      .cls-134 {
        fill: #597366;
      }

      .cls-135 {
        fill: #a2c69c;
      }

      .cls-136 {
        fill: #8e9a82;
      }

      .cls-137 {
        letter-spacing: 0em;
      }

      .cls-138 {
        fill: #939d87;
      }

      .cls-139 {
        fill: #5d664c;
      }

      .cls-140 {
        fill: #ddd;
      }

      .cls-141 {
        fill: #525d42;
      }

      .cls-142 {
        fill: #2e2f2d;
      }

      .cls-143 {
        fill: #88937c;
      }

      .cls-144 {
        fill: #966953;
      }

      .cls-145 {
        fill: #efefef;
      }

      .cls-146 {
        fill: #6b7962;
      }

      .cls-147 {
        fill: #895d4a;
      }

      .cls-148 {
        fill: #dfdfdf;
      }

      .cls-149 {
        fill: #a2bca3;
      }

      .cls-150 {
        fill: #7ca186;
      }

      .cls-151 {
        fill: #889480;
      }

      .cls-152 {
        fill: #aab7a2;
      }

      .cls-153 {
        fill: #beaea5;
      }

      .cls-154 {
        fill: #747f68;
      }

      .cls-155 {
        fill: #374331;
      }

      .cls-156 {
        fill: #a1af98;
      }

      .cls-157 {
        fill: #7f5441;
      }

      .cls-158 {
        fill: #a2b69c;
      }

      .cls-159 {
        letter-spacing: -.04em;
      }

      .cls-160 {
        fill: #a6b09a;
      }

      .cls-161 {
        fill: #9ec098;
      }

      .cls-162 {
        fill: #96a299;
      }

      .cls-163 {
        fill: #5b6855;
      }

      .cls-164 {
        fill: #c7c7c7;
      }

      .cls-165 {
        fill: #dedede;
      }

      .cls-166 {
        fill: #aab49e;
      }

      .cls-167 {
        fill: #2e301b;
      }

      .cls-168 {
        fill: #cfcfcf;
      }

      .cls-169 {
        fill: #50638f;
      }

      .cls-170 {
        fill: #a2ada8;
      }

      .cls-171 {
        fill: #a0998b;
      }

      .cls-172 {
        fill: #b3c8b0;
      }

      .cls-173 {
        fill: #abb8a3;
      }

      .cls-174 {
        fill: #9da8a2;
      }

      .cls-175 {
        fill: #6b6b6b;
      }

      .cls-176 {
        fill: #69735d;
      }

      .cls-177 {
        fill: #a5ae99;
      }

      .cls-178 {
        fill: #9eab96;
      }

      .cls-179 {
        fill: #4f638e;
      }

      .cls-180 {
        fill: #97a08b;
      }

      .cls-181 {
        fill: #b5c2ad;
      }

      .cls-182 {
        fill: #a5af99;
      }

      .cls-183 {
        fill: #949f88;
      }

      .cls-184 {
        fill: #283020;
      }

      .cls-185 {
        fill: #565656;
      }

      .cls-186 {
        fill: #c6c6c6;
      }

      .cls-187 {
        fill: #898877;
      }

      .cls-188 {
        fill: #afc5ad;
      }

      .cls-189 {
        fill: #bcada5;
      }

      .cls-190 {
        fill: #b6b6b6;
      }

      .cls-191 {
        fill: #a1ae99;
      }

      .cls-192 {
        fill: #e4e4e4;
      }

      .cls-193 {
        fill: #5f7054;
      }

      .cls-194 {
        fill: #5d5d5d;
      }

      .cls-195 {
        fill: #a6b39d;
      }

      .cls-196 {
        fill: #fefefe;
      }

      .cls-197 {
        fill: #e7e7e7;
      }

      .cls-198 {
        fill: #a0aa94;
      }

      .cls-199 {
        fill: #909c84;
      }

      .cls-200 {
        fill: #8e6b55;
      }

      .cls-201 {
        fill: #fafafa;
      }

      .cls-202 {
        fill: #526591;
      }

      .cls-203 {
        fill: #8c957f;
      }

      .cls-204 {
        fill: #99a691;
      }

      .cls-205 {
        fill: #a2c59d;
      }

      .cls-206 {
        fill: #a6b39e;
      }

      .cls-207 {
        fill: #b4c0aa;
      }

      .cls-208 {
        fill: #8e9a83;
      }

      .cls-209 {
        fill: #989385;
      }

      .cls-210 {
        fill: #d1d1d1;
      }

      .cls-211 {
        fill: #9aa59e;
      }

      .cls-212 {
        fill: #a56650;
      }

      .cls-213 {
        fill: #769173;
      }

      .cls-214 {
        fill: #d9d9d9;
      }

      .cls-215 {
        fill: #313d2b;
      }

      .cls-216 {
        fill: #b8aaa1;
      }

      .cls-217 {
        fill: #8a957e;
      }

      .cls-218 {
        fill: #9eb9a0;
      }

      .cls-219 {
        fill: #b0bca7;
      }

      .cls-220 {
        fill: #8b9780;
      }

      .cls-221 {
        fill: #fffdfd;
      }

      .cls-222 {
        fill: #5c5c5c;
      }

      .cls-223 {
        fill: #738d72;
      }

      .cls-224 {
        fill: #748e71;
      }

      .cls-225 {
        fill: #5a634e;
      }

      .cls-226 {
        fill: #69705a;
      }

      .cls-227 {
        fill: #76806a;
      }

      .cls-228 {
        fill: #e6e6e6;
      }

      .cls-229 {
        fill: #a0aba6;
      }

      .cls-230 {
        fill: #919c85;
      }

      .cls-231 {
        fill: #4e5742;
      }

      .cls-232 {
        fill: #a4b19c;
      }

      .cls-233 {
        fill: #afafaf;
      }
    </style>
  </defs>
  <path class="cls-103" d="M446.63,4.6l3.9.19,1.21,2.92,3.02,2.52c52.7,154.27,105.51,308.59,158.43,462.96l-.07,6.09,1.49,1.64-7.48,15.66,11.99.63c1.42.14,1.51,1.36,1.16,2.79l.33,2.4c-26.61,21.52-13.46,54.03-1.55,79.86,4.17,13.59,10.31,16.14,18.43,7.64,3.53-1.71,10.69-3.87,13.43-.77l2.25.25,100.6,294.96c-.06,1.61-1.02,2.62-2.44,3.27-48.08-.07-95.85-.06-143.31,0-1.3-.88-2.11-2.32-3.06-3.11l-2.45-3.38c-66.72-195.38-134.31-394.03-202.76-595.96l-15.42-49.45c-1.94.29-3.27-1.12-4.01-4.25-74.92,218.76-150.16,437.17-225.72,655.24-47.29,1.11-94.79,1.39-142.49.84l-.53-1.08c-4.97,0-6.69-1-5.17-2.99-.89-.29-.88-.64,0-1.04l-1.6-1.63C105.67,588.21,206.91,295.83,308.5,3.69l2.33-.98c44.27-.28,88.61-.31,133.03-.1l2.77,1.99Z"/>
  <path class="cls-103" d="M1153.19,4.95c.24,1.72.92,2.97,2.05,3.75v102.76c.01,1.96-1.16,3.01-3.01,3.34h-345.18c-.77-1.39-2.63-2.08-5.57-2.08-.9-.71-1.15-.57-1.02-2.07l-2.03-1.28.99-103.19c0-1.95,1.18-2.99,3.03-3.32h345.18c.79,1.38,2.64,2.07,5.57,2.08Z"/>
  <path class="cls-103" d="M455.21,605.03l3.92.15c.78,1.16.67,2.8,1.18,4l2.59,2.64c11.74,29.43,22.2,59.37,31.37,89.82l-1.99,1.85h-218.22c-1.36-1.38-3.63-2.07-6.79-2.07-.07-.78.71-1.37,1.02-2.07l.42-6.24c10.03-29.76,20.35-59.37,30.98-88.84,51.01-1.17,102.2-1.6,153.58-1.3l1.95,2.07Z"/>
  <path class="cls-66" d="M447.04,4.26l-135.38-.07-1.61.68L6.81,882.09c-1.58.27-5.57-.54-6.13-2.07L303.93.72c46.49-1.32,93.68-.44,140.4-.45l2.72,3.98Z"/>
  <path class="cls-11" d="M753.82,8.75c3.27,128.45,3.28,257.1,0,385.54-.16.94-.5,1.63-1.02,2.07-.1,8.17-2.43,14.91-6.99,20.2l-12.46,13.05c-1.74,2.97-3.77,5.01-6.09,6.13-1.64,3.2-4.16,2.27-7.57-2.78-8.54-2.49-15.94-6.69-22.19-12.6-5.32,1.81-8.37-.92-9.14-8.19-3.78-1.44-6.48-3.61-8.08-6.49-.41,1.63-1.09,1.28-2.04-1.04-3.12,2.34-12.42-7.19-10.21-10.36-3.7-.49-7.38-8.15-5.96-11.05l-1.19-3.45c-.92-.25-.89-.59,0-1.04-.91-.12-1.25-.47-1.02-1.04-4.48-.73-6.06-4.12-7.15-8.29-.45.47-.79.12-1.02-1.04-1.4-.52-1.74-2.25-1.02-5.18-4.16-2.56-2.74-15.91-.54-20l2.59-.73,1.39-1.82c10.87,3.06,18.34,1.19,22.42-5.63l2.75-.83c1.14,1.06,2.17,1.75,3.06,2.07l2.04-.79c1.91,5.65,4.48,6.73,9.19,2.87-1.04-1.45-.55-2,1.02-1.04,2.01.45,3.87.3,5.59-.47,7.41-6,15.06-11.05,22.96-15.16l1.07,1.13c8.27-6.41,20.59,2.37,26.55,9.23V6.93s2.05-1.29,2.05-1.29c1.08,1.05,1.22,1.59,1.02,3.11Z"/>
  <path class="cls-135" d="M758.92,8.4v883.02l-143.05.04-6.32-6.95,143.36.08-99.05-296.2c-1.84-2.4,3.2-5.45,5-3.11l1.4.05c.94,2.78,1.14,5.87.6,9.27.97-.23.97.46,0,2.07,2.13-.22,2.46.47,1,2.07,1.24.12,2.24.47,3,1.04,1.69,1.12,1.01,1.91-1,2.07.09.47.42,1.16,1,2.07.08,4.07-1.18.83-.28.73,1.01-.1,4.65,6.28,2.29,7.55.72,1.83,1.39,3.56,2,5.18,3.62,6.79,5.62,13.7,6,20.71l3.04,2.87c1.61,6.68,3.93,12.97,6.96,18.87.98.84.65,1.18-1,1.04,1.82,2.47,4.21,8.96,2,11.39,2.69-.13,2.92-.07,1,2.07,2.84,2.43,3.87,5.61,3,9.32,2.57-.85,2.8.05,1,2.07,4.71,4.54,7.08,13.08,6,19.68,1.92-.9,1.77.27,1,2.07,3.49,1.36,4.85,4.89,3,8.29,8.36,15.36,14.32,32.29,17.01,49.71,3.01.43,3.15,2.06,1,4.14,1.81.58,2.15,1.27,1,2.07,3.1,1.36,3.66,3.2,2,6.21,1.77.93,2.62,1.7,1,3.11,3.1,1.36,3.66,3.2,2,6.21,1.33.62,1.66,1.31,1,2.07,4.35,5.07,6.35,10.83,6,17.61,4.29,9.8,7.63,19.81,10.01,30.03,4.19,3.82,5.98,8.79,5,14.5.59.2,1.16.44,1.66.77,2.58,1.74,3.51,13.12,3.34,16.83l1.56-9.54-.02-24.23c-2.24-20.06-2.54-40.56.04-60.59-.58-28.29-.44-56.57.43-84.82-.82-.16-1.81-.61-1.76-1.28,1.22-15.95,2.44-32.65.12-48.71l1.64-1.79c-.64-34.9-.81-70.15-.51-105.77-.83-.63-1.48-1.27-1.5-1.93-.29-14.7-.29-29.62,0-44.32.01-.64.66-1.26,1.5-1.88-.3-30.5-.13-60.67.51-90.53.02-128.05.01-256.9,0-385.28h5Z"/>
  <path class="cls-135" d="M384.73,235.99c.57,3.93-.11,6.69-2.04,8.29l-223.69,645.68c-42.38.54-86.04,1.01-128.8.72-5.97-.04-11.87-.09-17.79-.25-.91-.02-1.01-.61-.5-1.51-.17-.39.32-1.67-.05-1.97-1.74-1.37-7.48,2.45-6.07-3.21.35-.78.69-.79,1.02,0,.13.09-.63,2.56,1.46,2.15l145.51-.2L380.66,225.63l4.07,10.36Z"/>
  <path class="cls-28" d="M596.17,250.13c-3.15-7.83,5.31-10.06,6.81-5.08,1.67-2.37,5.41,1.03,6.13,3.11.09-.8.4-1.99.91-1.98,4.1.04,30.31,2.67,32.63,3.68l3.22,2.45,2.63.46c4.82,8.21,8.1,18.4,8.6,27.52.89.11,1.47.52,1.22,1.26-1.72,5.27-3.47,10.5-5.32,15.72-.26.74-1.11.85-2.03.64-2.63.31-3.89-2.14-1.58-3.24-.16-2.78.03-5.5.56-8.16-1.72-1.23-1.79-14.2-1.78-13.5.65,6.69.68,13.28-.08,19.93l-1.2.83c-2.11-1.75-4.18-4.02-6.19-6.79-2.99-1.56-6.83-6.69-4.24-9.2-.07-6.64-1.6-12.8-4.99-18.61.2-4.09,1.56-.33,1.15.3-2.08,3.17-4.96-5.94-1.12-.27.99,1.45,2.03,3.91,2.72,5.62,1.11,2.75,4.22,16.25.33,15.21-2.8-.75-12.76-11.78-11.62-15.82-7.74-19.67,1.01-.88.42,1.29-.41,1.51-.94,1.67-2.22,1.07-6.4-2.97-20.88-24.85-2.55-2.47,2.15,1.2,9.47,7.69,9.08,10.19-.17,1.09-7.48.63-8.89.3-4.23-.99-14.51-5.35-4.37-1.45,4.06,1.56,9.25,2.88,13.08.86,1.32.07,10.92,8.43,10.48,10.25-.41,1.67-7.9,1.37-9.78,1.25-18.14-5.43-21.09-3.13-.1-.02,3.29.49,6.82.08,9.66-1.17,1.24.14,9.43,9.2,8.13,11.53l-1.48,1.22c-24.31,2.85-10.66-.87.9-.06,4.7.33,6.84,1.95,7.38,7.23-6.37,3.43-12.05,7.54-17.02,12.33-.04.72.3,1.07,1.02,1.04,3.45-5.66,8.09-9.81,13.93-12.46,3.16-4.4,7.11,2.83,1.4,4.17.37,3.88,2.62,1.92,4.09,0,2.37.03,5.13,5.39,3.06,7.25l3.61-.04c5.35,5.02,6.09,5.75.61.58-1.99,1.02-1.72-.51-1.15-2.62-3.89,1.09-9.17-13.03-1.57-8.86-.65-.56-1.31-1.36-1.13-2.1.27-1.12,19.2-4.13,22.11-4.58,2.38-1.25,1.69-1.59-2.04-1.04-1.16,1.78-6.45,3.41-8.17,2.07.06-.87-.62-1.22-2.04-1.04,1.08,3.03-7.41,4.6-9.19,3.11-1.24.62-2.6.28-4.09-1.04.77,2.83-.03,3.14-2.04,1.04l-1.24-4.36c1.83-6.1,3.94-11.9,6.35-17.4-1.37-1.16-.85-2.64,1.54-4.45l3.53-8.09c2.38-5.54,5.11-7.23,8.21-5.08,2.5-1.86,4.12-1.12,4.09,2.07l3.02-.27c2.49,3.47,5.48,5.2,8.97,5.2,1.27,4.12,3.41,7.66,6.4,10.62-.09,2.73.25,4.8,1.02,6.22,2.95,1.23,4.15,6.9,1.02,8.29,1.96.58,1.95,1.49,0,2.07,2.01,1.31,2.02,2.84,0,4.15,1.76,1.37,1.76,2.06,0,2.07,2.64,1.33,1.86,4.86-1.02,5.18,1.1.32,1.1,1.02,0,2.07-.79,2.32-3.23,7.18-6.13,6.22,1.3,1.54.72,2.11-1.02,1.04.65,3.36-5.05,4.33-7.15,2.07.36,1.78-.32,1.78-2.04,0-.3,1.7-1.15,2.19-2.55,1.42,1.38,2.48,2.18,5.03,1.53,7.91v5.18c-1.29,2.08-1.88,4.69-3.54,6.26-4.78,4.52-17.05,3.38-23.02,2.03-2.58,3.1-12.56-1.17-12.26-5.18-6.87.48-13.64-8.78-17.65-14.34-5.99-8.29-10.89-17.87-11.97-28.15-1.29,1.37-1.74.72-1.02-1.04-3.76-3.84-5.8-9.36-6.13-16.58-.16-2.85-3.75-7.25-4.77-17.03"/>
  <path class="cls-66" d="M382.69,244.01c-.08-2.83-.05-6.15,2.04-8.29,150.5,430.89,150.5,424.93,222.09,648.7,1.52,4.75,1.2,3.2-7.59-6.12"/>
  <path class="cls-117" d="M610.12,294.45l1.71,9.2-.69,47.75c8.35-4.58,16.35-9.66,24.01-15.22l2.06.76c3.21,2.2,7.51,4.27,11.21,5.18-3.21,6.91-2.21,13.65-1.87,20.73-.01,5.29-.01,10.47,0,15.55-1.98,4.44-5.61-1.86-2.8-4.15l-1.08-.55c-1.76-6.49-3.58-12.87-5.46-19.14-.77-.42-1.08.27-.93,2.07,1.94,1.92,3.3,4.67,4.08,8.26,4.46,12.82,1.6,12.54-8.58-.85-3.38-1.68-5.93-4.15-7.65-7.41h.73c6.95,5.44,14.05,11.22,19.74,18.45.17.22.02.69-.23,1.24,7.07,1.68-2.81,7.35-5.13,2.07-1.25.43-2.08-.02-3.01-.75-6.47-5.08-12.95-10.14-19.58-14.8-1.39-.57-2.07-.57-2.05,0,6.81,3.57,16.52,8.97,21.58,14.73.3.34.2,1.04-.02,1.85-1.63,3.45-9.17,2.33-11.29,0-1.65-.21-2.33.14-2.05,1.04-.98,1.44-2.1,1.44-3.08,0l-1.4,1.04c-7.32-.65-14.73-.31-22.21,1.04,2.08-.89,15.1-1.84,15.75-1.38.37.26.55.78.68,1.38,2.75,1.31-5.92,8.21-5.57,7.8,1.11-1.29,7.62-8.64,8.19-8.82,1.41-.44,2.65-.29,3.54,1.01,1.41-1.33,6.93-2.42,7.19,0,2.34.73,4.73,1.08,7.19,1.04.11-.93.46-.88,1.03,0,3.94-1,7.73-1.4,11.29,1.04-1.38-1.53-.79-2.1,1.03-1.04,1.39-.75,2.39-.67,3.17.8,1,1.89-5.09,20.07-9.33,20.96,1.43,3.76-4.36,10.36-8.21,10.36-6.63-3.99-13.37-8.24-20.22-12.73l-.3,46.42c-.18,2.09-.83,3.12-3.09,2.58-2.73-.33-2.61-1.28,0-2.07-1.71-17.22-2.38-34.47-2.05-51.58-1.8-.54-2.83-1.65-3.09-3.35-2.44-1.38-2.09-.47-5.47-1.49-6.88-2.5-15.46-7.19-9.93-15.09,1.69-2.76,3.27-3.28,5.13-6.22,3.01-3.67,5.67-6.26,9.24-9.33,1.52-2.01,2.88-3.98,4.1-5.91l-.09-61.26c.12-2.33.76-3.41,2.9-2.27.12.33.8.67.93,1.04Z"/>
  <path class="cls-205" d="M1152.51,5.64c2.25,1.79.33,4.36,6.81,3.1v108.83h-352.73c.93-5.11-2.11-1.77-5.11-4.15h351.03s0-107.79,0-107.79Z"/>
  <path class="cls-169" d="M1147.74,1.49c-1.06,5.16,2.54,1.74,5.11,4.15h-351.71s0,105.71,0,105.71l-5.45-1.04V1.49h352.05Z"/>
  <path class="cls-135" d="M616.26,473.06c2.66,1.84,1.23,6.21-2.04,6.22L452.83,7.71l5.16,1.72c41.77,124.76,115.6,339.2,158.27,463.63"/>
  <path class="cls-135" d="M604,435.75l2.2.81"/>
  <path class="cls-66" d="M268.29,700.03l-6.13-1.04,32.64-97.76h158.76l1.65,4.15h-154.28c-12.22,31.02-19.65,64.99-32.64,94.66Z"/>
  <path class="cls-15" d="M460.32,609.86l5.16.67c10.91,31.13,20.66,62.94,32.63,93.65.94,1.44-.19,2.3-3.37,2.07h-221.35c.94-5.27-2.43-2.24-5.62-3.12l-.51-1.03h225.73c-11.63-29.99-20.1-62.79-32.68-92.24Z"/>
  <path class="cls-213" d="M613.53,42.95l2.87.88c5.64,8.94,13.78,15.89,22.43,21.7,2.38,3.17.13,3.75-2.83,4.36-.13,2.83-2.7,3.56-4.09,1.04-3.5-2.04-4.52-2.04-3.06,0-1.14,3.77-12.32,6.52-13.28,2.07-.93-.02-1.33.29-1.02,1.04,2.57.74,3.52,5.95,1.02,7.25-.18.99.14,1.69,1.02,2.07,4.64.63,9.68,18.93,2.69,16.88l-3.71-.29c-.91,2.89-5.1,2.96-6.13,0-.71,3-4.99,2.81-6.13,0-.84,1.78-3.38.98-3.06-1.04l-5.11-1.04c-1.85-.22-3.34-.62-5.11-1.04,5.11,1.04-3.76.64-5.11-1.04-1.57-1.51-5.4-1.84-7.15-4.15-.75-1.99-.9-4.23,0-6.22.13-.14,2.48-1.69,3.06-2.07,1.12-1.64,2.83-2.68,5.11-3.11.37-.04.84.11,1.02,0,1.59-.49,2.49-1.55,3.06-3.11,2.27-3.11,3.71-8.03,6.3-11.74,2.02-2.89,5.02-5.03,6.97-7.95l2.45-9.55c.77-1.85,1.61-2.63,3.68-1.85.61-3.82,1.98-4.86,4.09-3.11Z"/>
  <path class="cls-202" d="M609.79,99.95l2.04.72c.48,29.57.08,59.29-1.19,89.15,1.15,19.13,1.55,38.15,1.19,57.06l-2.04,1.27c-2.73.61-5.33-2.79-6.13-3.11-2.55-1.43-2.97-2.05,0-3.11V102.02c-2.71-.33-2.6-1.28,0-2.07,1.59.13,3.97-.22,6.13,0Z"/>
  <path class="cls-169" d="M603.66,1.49l142.75-.59c.81,1.02,1.46,2.25,1.95,3.7,1.13.4,2.25-.74,4.09,1.04l-.71,1.38h-140.34c.96,5.45.31,8.9-1.94,11.06.46,1.95.49,4.32.09,7.11,1.34,3.31,1.31,5.78-.09,7.4,2,5.42,2,9.91,0,13.47-2.86,3.41-3.64,7.69-5.79,11.4V1.49Z"/>
  <polygon class="cls-32" points="1147.74 .11 795.69 1.49 795.69 110.31 795.69 .11 1147.74 .11"/>
  <path class="cls-65" d="M610.67,297.39c-1.69,1.08.22.84.34,2.59,1.33,18.97-1.31,38.34-2.6,57.5-1.57,3.02-4.7,4.51-6.11,5.72,1.16-1.73,1-3.68,1.06-5.65.86-24.89,1.39-55.71-.04-80.37,2.23,5.46,5.2,14.71,7.35,20.21Z"/>
  <path class="cls-32" d="M498.11,704.18c.25.64,2.31,2.12.51,3.45h-225.22l221.19-1.38,3.53-2.07Z"/>
  <path class="cls-32" d="M159,889.99l-2.45,1.09c-47.64-1.22-95.5,1.43-143.12-.06-1.78-.06-4.14.3-1.52-2.07.66,1.47,1.24.94,2.48,1.09l144.61-.05Z"/>
  <path class="cls-32" d="M603.32,1.49L746.86.11l1.5,4.49c-1.32-.47-.38-3.67-2.49-3.11h-142.56Z"/>
  <path class="cls-32" d="M938.93,206.35c-2.86-.52-12.24-.39-15.32,0,3.99-1.75,11.54-1.73,15.32,0Z"/>
  <path class="cls-196" d="M600.6,98.91c1.15.14,2.42.98,3.06,1.04v2.07c-2.65.28-5.22.11-5.11-3.11.59-.75,1.28-.53,2.04,0Z"/>
  <path class="cls-196" d="M585.96,80.26c-.67,2.66-3.88,2.31-5.11,3.11.36-4.98,4.02-2.98,5.11-3.11Z"/>
  <path class="cls-32" d="M7.15,882.44v1.04c-.22-.16-.77.16-1.02,0-2.2-1.37-3.46-1.25-6.12-1.04l1.02-2.07,6.13,2.07Z"/>
  <path class="cls-32" d="M577.78,91.66c-1.56-2.06-1.81-4.29,0-6.22v6.22Z"/>
  <path class="cls-32" d="M600.26,98.91c-.67-.08-1.37.07-2.04,0-1.1-.12-2.55.37-3.06-1.04,1.59.19,4.22-.74,5.11,1.04Z"/>
  <path class="cls-64" d="M650.31,383.93c-.83-2.3,2.5-2.71,2.98-1.35.23.67-.01,13.45-.33,14.08-.06.13-.05-2.87,1.44-1.33,1.44-1.54,2.52-1.2,4.09,0-.18-1.99.16-3.38,1.02-4.15,3.05.58,5.77,1.61,8.17,3.11,2.36,3.31,6.92,8.07,10.21,10.36,2.34,4.94,3.37,10.47,3.06,16.58,1.36,1.51,1.86,6.21,0,7.25l-1.65.11c.34,1.55.55,6.18-.39,9.21.19,3.09-1.46,3.66-3.06,1.04-1.4,1.16-5.19-4.4-4.99-4.11,2.88,2.27,3.87,4.68,2.94,7.22l.39,1.48c-1.16,1.19-15.6,13.04-16.56,12.32-.64-.48-.68-1.53-.68-2.4.01.56-.03,1.07-.3,1.38-.65.75-17.83-.68-19.1-1.38-.56,1.2-2.44,1.89-5.62,2.07,7.48-1.3,16.04-1.48,23.83-1.04.25.01.47.46.69,1.04,2.47,3.02-1.33,3.97-4.09,4.15-1.44,1.84-1.08,2.17,1.02,1.04,4.15-4.1,9.28-8.85,15.22-11.98l2.14,1.61c2.31-.11,3.85,16.03,3.67,15.24-1.22-5.4-2.37-13.09-1.63-18.35-1.34-2.48,4.77-7.5,7.15-5.18,2.41,0,3.43-.68,3.06-2.07.1-3.2,5.81-4.09,7.15-1.04,1.65.71,4.96,1.09,4.09-1.04-2.82,1.03-6.83,1.23-4.61-2.41-6.02,3.73-9.78,2.88-6.96-4.57-.84-4.35-1.22-9.31-.69-13.75-1.92-3.12-2.86-7.83-2.04-11.4,2.46,1.62,8.11,3.3,9.67,5.21,1.97,2.41,1.06,6.67,2.55,7.83,1.13.88,3.44-.99,5.43-.47,1.15.3,6.89,6.02,9.2,7.34,4.02,2.3,10.23,3.38,13.72,5.67,2.35,1.54,2.43,5.22,6.41,4.48.89.19.85.54,0,1.04.78,3.71.93,7.49.44,11.34,2.2,5.37-2.17,14.2-7.59,16.64,1.36.63,1.02,1.33-1.02,2.07.68,2.1-.69,4.18-4.09,6.22.27,2.57-.11,2.66-2.04,1.04-2.75,5.99-11.6,13.43-18.39,10.36l-.93,2.25c-7.33-.51-13.36,1.22-18.09,5.2l-2.43-.19-2.35,2.35c-8.38-.72-16.71-1.07-25-1.04-2.31,1.68-4.43,1.93-6.36.76l-.64,2.35c-5.42,1.2-10.67,2.9-15.75,5.08l-1.99-1.21c-2.55-2.46-13.64.21-15.23-2.17-1.15-1.72,6.69-15.45,8.08-18.56s1.21-3.77,2.04-6.22c1.58-18.6,4.33-39.16,13.18-55.89l3.16-1.11c2.46-3.55,5.79-6.65,8.17-10.36,1.87-1.35,3.4-3.1,4.61-5.27l1.52.09c3.43-2.77,4.8-7.26,4.09-13.47-1.62-.32-1.4-2.62,0-3.11Z"/>
  <path class="cls-86" d="M639.07,493.79c9.2.54,16.1,13.03,14.28,22.13l1.04.67c1.69-4.03,9.74-6.5,12.26-3.11,3.29-.15,5.34.54,6.13,2.07,5.27,2.41,7.65,5.17,7.15,8.29,2.74-.45,2.85,0,1.02,2.07,8.08,2.95,4.65,14.26,1.78,20.7-1.08,7.11-3.44,14.98-6.89,20.76l-11.78,15.44c-2.54,3.21-5.08,4.28-7.62,3.21-.96.57-4.82,3.02-5.11,3.11-2.89.89-7.28.39-10.95,1.85-5.34,2.12-8.91,9.29-15.55,4.83-3.57-2.4-14.64-29.57-16.44-35.14-5.35-16.59-8.7-32.98,1.22-48.58,1.41-2.22,9.19-10.83,11.07-12.09,4.24-2.83,13.28-4.66,18.39-6.22Z"/>
  <path class="cls-103" d="M752.11,5.64v332.69c-6.91-10.21-15.56-17.32-28.6-15.55l-.85-2.88,12.48-21.27c4.69-8.33,7.82-17.59,6.51-27.29l-14.43-.8c-10.39-4.15-19.44-7.52-30.89-6.71l-1.42-2.19c.5-3.52,3.06-6.51,7.66-8.99,12.37-5.95,22.07-10.94,29.77-22.4,10.28-15.32,5.59-31.71-14.98-25.11-2.06-4-4.32-7.91-6.8-11.71l.7-2.26c-4.53.52-5.22-2.92-2.09-10.3-.14-8.61-4.73-16.5-9.06-23.66l.94-2.31c-2.48-10.78-5.7-21.33-9.67-31.67-.24-2.24,1.19-2.83,3.27-3.13,16.65,8.23,38.06,6.32,31.62-17.7-7.4-6.22-14.45-12.77-21.14-19.64l1.03-2.48c2.56-3.44,12.48-1.82,17.04-1.04,6.01,1.02,9.58,2.84,14.68,5.76-5.56-27.82-24.1-62.18-53.41-68.81l-1.81-2.24c-3.52,1.34-9.65,3.35-12.26,0-.58,1.98-1.47,1.98-2.04,0-4.26,2.35-9.02,2.35-14.3,0-.19.92-.54.89-1.02,0l-1.23,1.39c-13.81-1.48-27.03-.24-39.67,3.73l-3.02-.98c.38-2.2-.46-11.99,0-12.44h143.01Z"/>
  <path class="cls-132" d="M676.86,264.74c-.62-4.17,9.75-7.33,7.15-1.04,2.11,2.65,5.14,1.66,9.11-2.96l2.13.89c5,.49,12.03.22,16.77,1.12,5.39,1.03,11.33,5.05,16.67,5.89,3.29.52,13.9-.6,15.14,1.22,3.38,21.24-11.59,35.57-19.98,52.92-5.43,1.08-23.9,19.28-27.57,17.14-.52-.31-1.41-1.89-2.05-2.63-1.65-.26-3.22-2.46-3.06-4.15-3.7-3.17-7.67-8.86-9.19-13.47.44-.08,6.21-1.77,7.15-2.07,4.66,3.23,8.74,7.37,12.26,12.44,1.53,1.15,1.53.8,0-1.04-4.08-3.46-8.34-8.07-11.24-12.44.51-.52,2.39-4.13,3.54-5.23.74-.71,1.59-.97,2.59-.99.73-.58.67-1.28,0-2.07.08-2.5.95-4.17,1.02-5.18.81-.58.75-1.28,0-2.07.04-1.38.02-2.77,0-4.15,3.16-1.27,6.19-3.25,9.1-5.92,3.63,1.59,7.82-1.69,10.1-4.73,4.03.45,7.65-2.04,10.11-5.03l2.36,1.18v-1.04c-2.9.56-4.51,1.77-4.83,3.63-4.29.53-9.58,2.32-11.83,5.93l-6.87,1.19c-2.79,3.61-5.5,4.52-8.14,2.72-.03-1.82-.88-5.49-1.02-8.29-1.49-.87-1.19-3.07,0-4.15.59-3.17.25-4.89-1.02-5.18.52,1.07.93,2.26,0,3.11l-2.03,3.1c-.21-3.44-3.27-5.63-4.56-8.35-.65-1.36-.44-3.93-.57-4.1-.09-.12-1.73,1.15-3.02.58-.74-.33-6.2-5.43-8.21-6.78Z"/>
  <path class="cls-75" d="M753.47,638.88c-2.92,0-3.29-1.27-1.02-3.11l-1.7-6.65v-71.53c-6.74.7-17.98-4.48-20.33-11.19l-1.92-2.98c.17-12.1-2.61-24.18-8.51-34.73l.26-3.54c-.48-3.25.67-7.14,2.6-9.7.53-4.21-5.28-15.14-7.68-18.67.68-1.53.68-2.73,0-3.61-.87-3.71,2.88-4.57,4.07-6.19,4.23-1.73,4.57-2.41,1.02-2.06,6.18-9.29,8.31-16.29,7.11-27.85,1.8-.85,2.64-.42,2.95,1.47l.09,9.08c3.12.81,5.82,1.72,8.12,4.16l12.22,25.57v-68.42l1.7-12.58c.3-.59.16-1.61,1.02-2.07v244.59Z"/>
  <path class="cls-27" d="M752.11,396.36v90.16s-15.48-32.48-15.48-32.48c-.61-3.3-8.5-4.46-8.92-4.94-.54-.63,0-7.88-.07-9.82-.06-1.37-1.06-2.36-1.07-2.5-.02-.34-.03-.7,0-1.04.46-5.68,16.84-19.05,20.26-24.52,3-4.79,2.75-9.82,5.27-14.86Z"/>
  <path class="cls-79" d="M709.55,366.31c2.51.25,5.22-.6,8.13-2.55l-.19,2.37c2.65-1.11,3.09.22,1.25,2.25.57.63,1.6.63,3.06,0,3.39-.36,12.81-1.63,15.32-3.11,2.08-1.02,2.81-.18,3.06,2.07,1.8.4,6.31-.21,7.14,2.06-8.41-.67-16.2-1.67-24.57.47-6.77,1.73-2.88,3.87-3,5.76,1.95,1.32,2.55,2.82.16,2.6l-.16,3.62c.57,1.53,0,2.23,2.04,3.11,2.35,1.66,1.73,2.08-1.02,2.07-.59,3.77-.09,4.08,3.06,5.18,1.33,1.03.99,1.37-1.02,1.04-1.45,1.67-.57,11.09,3.06,10.36-1.41,1.72-2.77,3.45-4.09,5.18-.51-2.6-.47-7.2-3.06-6.22-.57-.28-.55-.63,0-1.04.72-4.06-.72-8.26-2.04-12.44-2.86-.62-3.54-1.65-2.04-3.11-1.44-3.48.97-5.34-4.09-7.25-2.05.82-2.39.86-1.02-1.04,3.15-2.1,1.1-2.22,0-5.18-2.82-.59-2.5-.94,0-2.07-1.39-3.23-4.4-2.79-7.15-3.11.8-.93,1.48-1.97,2.04-3.11-.74-.92-1.29-2.31-2.04-3.11-1.98-2.34-.84-3.83,2.04-3.11,1.08,4.76.96,5.29,5.11,8.29Z"/>
  <path class="cls-63" d="M647.57,374.6c1.09,3.38.19,3.55,3.06,4.15.25-.89.59-.86,1.02,0,.34-.89.68-.89,1.02,0,.32-1.96,1.12-1.84,2.04,0,2.01-.82,4.08-.78,6.13,0,.12.26-.11.7,0,1.04l1.02,3.11-3.96.7c-.5,2.13-1.22,2.59-2.17,1.37l-1.09.69,1.79,8.1-1.72,1.58c-1.07-.01-.5,2.52-2.03,2.07l.04-12.85c-.18-1.25-1.56-.41-2.09-.62l-1.48,1.32c.14-1.96-1.17-2.03-2.6-1.32-.4.31-.72.61-1.02,1.04l-1.22.55c-1.73-2.75-5.07-3.28-10.01-1.58-.34-.03-.68.03-1.02,0-2.53,2.11-3.8,2.04-3.82-.23l-3.33-.81c-2.2-.05-5.08-.27-7.15,0-2.54-1.56-1.6-1.96,1.02-2.07,1.01.03,2.05.03,3.06,0-.63-2.56.02-2.45,2.04-1.04,3.61-.15,7.58.33,11.24,0-.18-1.93.84-2.27,3.06-1.04,1.94-.25,4.14.19,6.13-.01.45-.26-1.05-1.73-1.02-2.06-1.35-2.13-1.12-3.27.93-1.89-.01-1.91.94-1.69,2.14-.18Z"/>
  <path class="cls-167" d="M679.93,319.67c4.24,3.56,7.93,9.41,10.21,14.51,1.72.47,3.1,2.33,3.06,4.15.04.6,1.54,2.57,1.03,3.1-.44.46-8.34,1.34-9.64,1.1-1.05-.2-.47-2.95-1.04-4.26-.46-1.06-1.4-1.62-1.58-2.01-2.02-.27-2.21-2.33-2.04-4.15-1.55-.03-1.65-1.81-1.02-3.11-1.65-3.47-3.43-6.9-5.11-10.35,2.06-.87,4.86,1,6.13,1.03Z"/>
  <path class="cls-2" d="M731,340.4c-1.93,3.37-14.91,23.84-13.27,25.91,7.66-3.4,12.37-10.15,18.38-15.55,1.44-1.37,1.96-.79,1.02,1.04-5.16,6.49-10.98,11.45-17.36,16.58-.29.83-.63.82-1.02,0,0-.19-1.91-2.98-2.06-3.09-1.98-1.4-2.09,2.78-4.75,2.94-1.94.12-1.87-1.55-2.38-1.92l-2.04-9.32c1.97-2.42,5.17,8.58,5.12,9.31,1.94-1.07.98-6.2,1.01-8.28,2.44-1.77,2.09,2.96,1.76,5.04l1.31.15c.67-1.18.93-4.02,1.86-5.89,2.74-5.46,7.57-13.25,11.42-17.95,1.44-1.37,1.96-.79,1.02,1.04Z"/>
  <path class="cls-143" d="M725.89,403.62c3.57,0,13.62,4.33,15.32,8.28l-17.36-6.21c-3.12,8.16,7.3,7.38,9.18,11.93s-7.12-3.73-8.16-2.6c.04,3.02.95,5.68,1.06,8.77.04,1.14.64,3.94-1.06,3.66-1.62-6.09-1.87-12.48-3.08-18.65,1.15-1.92,1.07-5.18,4.09-5.18Z"/>
  <path class="cls-54" d="M709.55,370.45c.21.48-.2,1.54,0,2.07-11.95,3.67-27.92,3.84-37.3,12.43-3.22.25-.88-2.58.52-3.62l-3.07-1.03,39.85-9.85Z"/>
  <path class="cls-199" d="M696.27,365.27c.6.49.26.84-1.02,1.04-6.2-.02-12.77-1.95-18.83-.97-4.28.69-7.84,5.32-12.83,4.07l9.18-4.15-8.16-3.09c6.93.11,14.03.42,20.93,1.03,3.33.29,7.69,1.74,10.73,2.07Z"/>
  <path class="cls-2" d="M710.57,378.74l-29.61,16.58c.07-2.65,3.88-4.67,5.8-6.02,7.21-5.07,16.07-7.13,22.79-11.6-.13,1.08.51.84,1.02,1.04Z"/>
  <path class="cls-217" d="M704.44,358.02l-2.04,3.11c-3.74-3.95-8.24-7.7-12.26-11.4-1.35-1.46-.78-1.99,1.02-1.04,4.08,2.92,7.56,5.93,11.23,9.33-.24-3.92-1.72-8.07-2.02-11.94-.09-1.14-.76-3.86.99-3.6,1.83,4.97,1.93,10.49,3.08,15.54Z"/>
  <path class="cls-117" d="M660.52,379.78l7.15,14.51c-5.06-.24-6.12,1.8-8.17-3.11-.58.19-1.03.32-1.05.27-2.04-4.88-3.56-8.6,3.09-8.56-.46-1-.69-2.07-1.02-3.11Z"/>
  <path class="cls-217" d="M714.66,386c.23.55,1.22.54,2.04,3.11-1.9-1.62-2.32-.08-3.57,1-6.81,5.91-10.7,14.31-16.84,20.76,2.96-9.87,11.06-18.06,18.38-24.87Z"/>
  <path class="cls-2" d="M719.76,375.64l27.59,11.92c-9.13-.47-17.64-6.99-26.55-9.36l-1.04,3.66c-1.63-4.36-.18-3.43,0-6.22Z"/>
  <path class="cls-136" d="M723.85,392.22c8.17,2.87,16.38,4.04,21.45,12.43l-13.92-8.15-8.55-3.24c.31-.36.72-.66,1.02-1.04Z"/>
  <path class="cls-13" d="M716.7,363.2c-.55.97-.34,1.38-2.04,1.03-.49-.57.99-5.49-1.03-6.21.06-4.99-.18-10.04,0-15.04.05-1.25-.77-3.86,1.01-3.61l2.06,23.83Z"/>
  <path class="cls-141" d="M659.5,377.71c-1.58.36-3.28.7-5.11,1.04-.68,0-1.37.03-2.04,0-.96-2.5-.71-6.65,0-9.33,2.07,1.74,5.67,5.99,7.15,8.29Z"/>
  <path class="cls-104" d="M718.74,402.58c-1.02,2.82-5.01,8.35-6.91,11.13-.32.47-1.66,3.25-2.29,1.82,1.36-5.48,4.46-10.81,9.2-13.98-.06.36.1.77,0,1.04Z"/>
  <path class="cls-93" d="M679.93,405.69c.71,3.83,1.5,7.52,2.04,11.4-.13,1.72-.47,3.11-1.02,4.15l-3.06-16.58c.62.43,1.42.62,2.04,1.04Z"/>
  <path class="cls-105" d="M651.33,368.38c.93,3.23.77,7.22,0,10.36-.33-.03-.7.07-1.02,0-1.14-4.65-2.12-11.21,0-15.55.08,1.47.88,3.32,1.02,5.18Z"/>
  <path class="cls-80" d="M737.13,365.27c2.4-1.42,6.14-7.53,10.21-7.24-.66,3.69-9.22,5.37-7.15,9.32-1.63-.36-2.13-.02-3.06-2.07Z"/>
  <path class="cls-104" d="M721.81,384.96c1.1.47,3.54.59,5.36,1.28,1.32.5,4.62,1.33,4.85,2.85l-11.23-2.06c.09-.6.81-1.4,1.02-2.07Z"/>
  <path class="cls-217" d="M704.44,364.23c.45.55,2.14.81,2.04,2.06l-4.09,1.05c-1.3-.15-3.36.61-4.09-1.04.29-.43.98-.78,2.04-1.04,1.34.01,3.39.48,4.09-1.04Z"/>
  <path class="cls-47" d="M652.69,369.42v9.33c-.34-.02-.68.03-1.02,0-.18-3.42.26-6.96,0-10.36.37.31.66.73,1.02,1.04Z"/>
  <path class="cls-110" d="M681.97,336.25l-.51,2.07c-1.22-1.12-2-2.61-2.56-4.14-.3-1.5.05-2.19,1.02-2.07.66,1.39,1.39,2.72,2.04,4.15Z"/>
  <path class="cls-20" d="M694.23,337.29c-.15.42-1.03.96-1.02,1.04-.96-1.42-2.04-2.77-3.06-4.15-1.02-1.5-.59-2.02,1.02-1.04.89,1.24,2.16,3.11,3.06,4.15Z"/>
  <path class="cls-154" d="M736.11,350.76c1.22-1.09,1.65-3.75,4.09-3.1.38.31-2.51,3.44-3.06,4.14l-1.02-1.04Z"/>
  <path class="cls-7" d="M731,340.4l-1.02-1.04c.87-1.06,1.49-2.81,3.05-3.11.57,2.07-1.29,2.85-2.03,4.15Z"/>
  <path class="cls-47" d="M659.5,377.71c.22.34.82.62,1.02,1.04-2.04,0-4.09,0-6.13,0,.87-1.68,3.47-.98,5.11-1.04Z"/>
  <path class="cls-225" d="M691.16,348.69l-1.02,1.04c-1.55-1.43-4.06-2.82-.52-3.1.8.28,1.13,1.77,1.54,2.06Z"/>
  <path class="cls-79" d="M700.36,365.27c-.28,1.02-1.18.96-2.04,1.04-1,.09-2.06,0-3.06,0l1.02-1.04c1.29.14,2.75-.01,4.09,0Z"/>
  <path class="cls-176" d="M719.76,369.07c.67-.05,1.37.07,2.04,0l-4.08,2.07c-.35-.94,1.01-1.86,1.01-2.07h1.02Z"/>
  <path class="cls-11" d="M752.45,635.77c.12.25.89,2.62,1.02,3.11,2.77,10.21,1.18,35.34,1.07,47.23-.02,2-1.06,3.97-1.07,4.59-.19,1.26-.53,2.29-1.02,3.11-.19,7.82-2.35,14.16-6.49,19-6.77,5.98-12.38,12.64-16.84,19.99l-2.2.39c-2.31,2.02-5.3.71-8.96-3.93l-14.77-6.49-3.85-6.15c-.95-2.77-2.12-5.53-3.06-8.29,3.73-9,11.43-16.87,18.38-23.82l2.05,1.02,2.21.55c.88.94,2.02,11.18-.17,11.89.01,1.13.7,1.82,2.04,2.07,1.92.71,2.26,2.43,1.02,5.18,2.54,4.04,3.22,8.88,2.04,14.51,1.23,2.15,1.21-2.29,1.02-4.15-1.17-3.64-3.01-9.84-1.02-13.47.29-.67.63-.65,1.02,0,.72-.05,1.09-.37,1.02-1.04-3.09,1.91-5.83.35-3.06-2.07l-1.02-7.25c-.91-.26-.88-.6,0-1.04.43-.56.83-.98,1.1-.91,6.41,1.65,15.33,5.21,19.33,10.24.96.21,1.32-.12,1.02-1.04-6.35-3.85-13.14-6.89-20.38-9.13l-.05-1.24c-2.81,1.32-4.11-.79-2.04-3.11.57-.92,1.59-1.96,3.06-3.11-3.34.6-6.57.83-4.09-3.11-.95-2.35-.61-4.43,1.02-6.22-3.35,2.6-5.77-2.67-3.43-5.06.54-.55,6.1-1.81,7.51-1.16.28-.52.58-.95.96-1.05,19.61-5.08,6.73,1.1-.61.08-.76-.11-1.76-.61-2.4-1.1-1.44,1.13-1.99.64-1.02-1.04l-.11-1.28c-2.84,3.09-4.85,2.14-6.01-2.86-.57-.08-1.01-.17-1.02-.31-.43-4.4-.46-14.84,0-19.24.03-.26.47-.47,1.02-.67-.93.05-1.61-1.16-2.04-3.63,1.14,7.47,1.48,15.17,1.02,23.09,1.91,1.29,1.21,3.13-1.02,3.86l-2.11.27c.1-1.85-1.23-5.08-2.99-4.42.87,2.32.53,3.01-1.02,2.07-2.95.6-5.16-3.73-3.06-6.22-1.41.7-2.49-8.56-2.41-8.12,1.64,4.53,1.42,8.28-.66,11.23,2.16-1.88,5.4,3.61,4.09,5.18-1.04,1.35-2.83.85-4.09,0-6.38.18-12.51-.51-18.39-2.07-1.07-.07-2.49.57-3.17-.62-2.72-6.91-4.65-14.13-7.04-21.15-.11-2.86,2.83-6.49,5.11-8.29l1.21-.38c.9,2.37,1.86,3.19,2.88,2.46,2-.49,3.32.94,3.95,4.29,5.6,1.07,8.03.67,7.29-1.18-.82-1.58-.45-2.12,1.02-1.04,4.35.21,7.05-1.29,11.11-4.21,2.2-2.64,13.6-12,16.32-11.77.89.08,1.6.81,2.19,1.47,2.42-3.9,7.05-2.79,10.85-1.82,7.86,2,17.21,8.53,17.75,17.36Z"/>
  <path class="cls-75" d="M753.5,690.7c-.52,60.61.38,121.27,0,181.89-.96,1.68-1.87-2.09-2.05-2.59-.16-5.39-.5-10.93-1-16.63-1.71,1.29-2.94.93-4.11-.99-1.66-4.83-3.45-9.63-5.11-14.51l-.6-4.7c-3.23-6.66-5.45-13.63-6.68-20.9l-2.93-4.45c-2.01-5.87-4.11-11.74-6.13-17.62,1.27.01.93-.68-1.02-2.07-.71-2.06-1.34-4.17-2.04-6.22.06-1.32-.28-2.36-1.02-3.11-.71-2.06-1.34-4.17-2.04-6.22.44-.71.1-1.4-1.02-2.07-.53-1.54-.64-3.04-1.02-4.15-.32-1.74.02-2.43,1.02-2.07,2.06-.85,3.08-1.89,3.06-3.11l-.82-2.6c3.68-6.91,5.26-14.54,4.76-22.91l2.19-1.44c3.22.03,4.17,3.27,2.85,9.72,3.69,1.75,6.72,3.18,9.51,6.4l11.45,24.98-.74-67.82c.63-4.63,1.46-9.19,2.47-13.71.06-1.2.04-2.25,1.02-3.11Z"/>
  <path class="cls-28" d="M698.31,598.46c-1.06-.15-1.06.54,0,2.07.1,1.83-.58,3.21-2.04,4.15,1.89,2.09,1.86,2.33-1.02,2.07,2.16,2.5-2.24,7.68-5.11,6.22.91,2.67.03,2.85-2.04,1.04.76,3.05-3.87,4.04-6.13,3.11-.35.91-1.03.91-2.04,0-2.35,1.19-2.55,3.31-.61,6.38l-1.44,1.91c.75,2.45.75,4.17,0,5.18.17,3.6-2.13,6.61-5.11,8.29-1.87-5.47-3.86-10.91-5.87-16.33-.43-1.15-2.08-3.7-.26-4.39l.74-.53c-1.72-1.38-2.65-2.93-2.78-4.65-1.67-2.55-2.46-5.26-4.08-7.78l2.03-.51c.5-.47.16-1.16-1.02-2.07.3-.71.73-1.36,1.02-2.07,7.34-2.02,13.17-6.82,17.47-14.41l1.94-1.14c-.02-1.24.66-2.28,2.04-3.11l2.56-.1c3.74,2.8,15.6,12.4,11.74,16.68Z"/>
  <path class="cls-99" d="M726.91,733.2c.88.25.86.6,0,1.04-1.22,11.65.87,15.83-6.13,26.95,1.05.82.03,1.85-3.06,3.11-.43.58-.63,1.44-1.02,2.07-5.68-16.59-11.69-33.14-17.36-49.75,5.03,6.74,14.34,7.65,20.16,11.16,2.58,1.55,3.41,5.13,7.42,5.43Z"/>
  <path class="cls-150" d="M675.84,567.37c2.34.37,8,9.51,8.96,12.1l-.79,2.41c-.41,1.15-1.82,2.08-3.06,2.07-4.99,10.74-12.14,15.92-21.45,15.55-.86-.82-.88-.81-1.02-2.07,9.55-13.26,9.55-13.96,0-2.07-3.55-2.36-1.03-6.28-2.04-9.33,8.11-4.8,10.73-10.37,16.1-17.35,1.13-1.47,1.13-3.15,3.3-1.31Z"/>
  <path class="cls-11" d="M712.61,676.19c3.2-.32,4.8,5.77,2.04,7.25l.57,1.07c-7.22,6.25-13.47,13.52-18.77,21.82l-1.21-.08c-2.2-6.46-3.96-13.21-6.13-19.69-.13-.64-.19-1.16-.02-1.25,5.45-3.05,16.52-7.87,22.44-9.9.24-.08.64.29,1.07.79Z"/>
  <path class="cls-21" d="M709.55,669.98c3.01-.82,3.98,1.75,2.04,4.15.14.61.21,1.12.02,1.25-3.52,2.48-17.78,8.16-22.44,9.9-.23.09-.63-.29-1.07-.79-1.03-3.1-2.06-6.23-3.06-9.33,0-.63.06-1.14.24-1.2,5.75-1.84,17.32-4.16,23.38-4.94.25-.03.56.4.89.96Z"/>
  <path class="cls-21" d="M696.27,663.76c1.59-.65,3.67-1.05,5.11,0,1.53.72,3.24,1.06,5.11,1.04,2.46-1.91,6.27,2.64,2.04,3.11-.02.64-.07,1.15-.24,1.2-7.22,1.88-16.02,3.73-23.38,4.94-.24.04-.55-.39-.89-.96-1.05-3.25-3.63-8.78-2.04-11.4,5.29-.45,10.06.24,14.3,2.07Z"/>
  <path class="cls-123" d="M731,807.82c6.8,5.46,13.89,11.5,15.31,20.73-1.39,1.87-8.25-16.03-12.24-14.5-.5.53,4.42,12.85,5.07,13.74,2.28,3.14,9.88,5.74,7.7,12.16l-5.12-7.24-.51,5.18c-3.4-9.99-6.79-20.07-10.21-30.06Z"/>
  <path class="cls-72" d="M751.43,870c-1.97-5.64-3.23-12.13-5.11-17.62,8.1.15,3.74-10.97,4.1-17.09.08-1.34.51-6.3,2.02-6.74-.11,11.9.17,23.85.03,35.77-.02,1.75.65,4.61-1.04,5.69Z"/>
  <path class="cls-37" d="M681.97,584.99c-2.94,3.93-5.93,7.73-9.19,11.39,3.55-.14,6.72-1.97,10.16-2.64,1.05-.2,3.35-1.36,3.11.56-6.99,1.99-16.24,6.62-23.49,6.23-1.63-.09-1.75.21-3.06-1.04,10.37-.43,14.91-9.15,21.45-15.55,1.44-1.37,1.96-.79,1.02,1.04Z"/>
  <path class="cls-55" d="M723.85,788.13c8.81,1.9,20.38,16.07,23.95,23.89.39.87,1.29,2.65.06,3.05-7.3-8.41-12.37-20.34-22.99-24.87-.18-.54-.73-1.22-1.02-2.07Z"/>
  <path class="cls-44" d="M716.7,685.52c-3.01-.8-2.56.72-3.72,1.91-6.57,6.68-11.24,13.36-16.7,20.89-.24-.71-.78-1.36-1.02-2.07l10.71-14.52,8.7-8.28c2.29-1.75,3.25-.55,2.04,2.07Z"/>
  <path class="cls-68" d="M658.48,597.43c-.06-.56-.11-1.59,0-2.07.26-1.15,11.11-17.15,12.84-19.62.29-.42,2.03-2.97,2.49-1.62-3.03,8.69-9.03,16.78-15.33,23.31Z"/>
  <path class="cls-208" d="M711.59,674.12c1.99-.68,2.39.37,1.02,2.07l-23.49,10.36c-.24-.71-.79-1.36-1.02-2.07l23.49-10.36Z"/>
  <path class="cls-129" d="M708.53,667.9c2.05-.29,2.48.58,1.02,2.07l-24.51,5.18c-.23-.71-.79-1.37-1.02-2.07l24.51-5.18Z"/>
  <path class="cls-56" d="M720.78,778.8c4.97.88,20.26,6.71,22.47,10.89.24.46.2,1.77-.5,1.54-5.25-4.01-10.45-6.84-16.67-9.01-.94-.33-3.81-1.74-4.27-.31-.36-1.04-.67-2.09-1.02-3.11Z"/>
  <path class="cls-8" d="M717.72,770.51c7.79.91,16.62,1.96,22.47,7.78l-12.24-4.16-9.2-1.55c-.18-.53-.72-1.21-1.02-2.07Z"/>
  <path class="cls-37" d="M661.54,602.61l21.45,2.08c.24,1.81-2.32.97-3.56,1.03-4.69.2-12.59.5-16.86-1.04-.45-.16-1.04-1.33-2.04-1.05-.49-.62.99-.95,1.02-1.02Z"/>
  <path class="cls-183" d="M701.38,662.72c-1.58.34-3.28.68-5.11,1.04-4.74-.6-10.23-.76-14.3-2.07.17-.28.86-.55,1.02-1.04,5.92.41,12.7.49,18.39,2.07Z"/>
  <path class="cls-116" d="M664.61,612.97c2.15,3.29,7.28,6.75,6.64,10.36-1.79-1.54-3.19-3.29-4.6-5.18-1.27-1.69-3.89-3.63-2.04-5.18Z"/>
  <path class="cls-75" d="M662.56,135.19c1.93-2,2.29-1.73,2.04,1.04,1.1-1.18,3.14-1.53,6.13-1.04.95-.09,1.29.6,1.02,2.07,2.32-.64,4.7-.98,7.15-1.04,1.32-.01,2.34,1.02,3.06,3.11,2.52-2.12,3.95-.59,5.11,2.07.54-1.38.95-3.13,1.22-5.25,2.76,2.8,5.08,6.28,6.95,10.43,3.28-.61,5.33,2.15,6.13,8.29,4.29,6.39,10.26,17.63,10.21,25.4-.02,2.96-2.33,6.88-2.08,9.13.09.83,1.51,1.15,2.09,1.75-2.39,3.51-4.02,7.44-4.88,11.77l-2.27.66c1.37.78,1.7,1.76,0,2.07,1.09,3.86.69,6.21-1.21,7.05,1.33,2.88.72,4.67-1.85,5.38.88.28.87.63,0,1.04,2.91,1.93.21,6.89-3.06,7.25.48.5.14.85-1.02,1.04,1.61,1.48.59,2.86-3.06,4.15.2,2.81-1.5,5.23-5.11,7.25,1.03,1.06.41,1.47-1.02,1.04,1.02,1.64.33,3.77-2.08,6.4.06,2.6-.61,4.26-2.01,5l-2.33-.33c-3.3,3.72-6.27,7.63-8.9,11.73-5.26.16-7.79,9.87-9.98,14.23-.83,1.64-2.79,2.35-3.29,3.39-.33,2.75-1.27,2.63-2.04,0-.05-.16-1.56-.67-2.03-2.56-2.99-12.27-2.85-14.52-9.21-25.42-3.52-1.93-6.52-4.86-8.98-8.79-26.22-21.63-37.77-57.8-16.45-87.27,4.48-6.19,12.07-15.91,19.31-16.9-1.59-3.36,7.72-9.53,10.61-9.95,3.53-.51,11.95,1.86,11.86,5.8Z"/>
  <path class="cls-103" d="M615.24,99.95c5.09-1.18,8.11,1.34,9.04,7.57,5.84,4.86,6.78,10.14,7.44,17.24,1.67,4.65,4.67,8.76,9,12.31l-.95,2.26c-22.02,17.87-35.6,40.42-25.57,70,6.59,19.45,22.28,26.81,31.7,42.97l-36.77-4.15V99.95c1.96.2,4.23-.27,6.13,0Z"/>
  <path class="cls-103" d="M639.74,337.29l-8.51,6.39c-8.14,3.82-15.92,6.37-22.12,13.3l1.01-62.18c6.5,16.17,14.17,32.81,29.62,42.49Z"/>
  <path class="cls-133" d="M651.33,297.69c1.93-1.35,2.95.03,3.06,4.15.37.06,1.81-.77,2.04-1.04,1.25.41,2.61.75,4.09,1.04,3.54-.72,6.13-.66,9.19-3.11,1.69-1.14,2.38-1.1,2.04,1.04,1.28.01,6.27-1.57,8.17-2.07,1.73-.3,2.41.04,2.04,1.04-6.84,2.55-14.31,3.77-21.44,5.19l9.82,2.97,10.6.14c-.45,1.81-5.21,2.13-6.59,2.1-4.6-.11-11.38-1.66-15.87-3.15-1,1.36,3.04,7,4.08,8.29,1.96,2.13-1.34,3.95-3.06,2.07-.92-2.09-1.78-5.67-3.06-7.25-2.39,4.73-5.46,6.26-4.09,0,.36-.81,1.65-3.65.52-4.14-6.78,2.68-10.41,8.04-15.84,12.43-1.44,1.37-1.96.79-1.02-1.04,1.2-1.11,7.37-5.97,6.12-7.25l-16.33,1.56c3.4-3.39,25.94-2.3,25.42-8.12-.75-8.33-17.49-3.19-23.78-3.92-2.42-.28-5.72-1.34-8.04-2.22-1.07-.41-3.03-.35-2.79-1.81,10.04,2.15,19.4,2.69,29.62,1.03-.59-1.79-.6-2.08,1.02-1.04.06-1.7,1.15-2.92,1.09-.99-.36-4.09.3-6.53,1.98-7.3.31,4.12-.72,7.3,1.02,11.4Z"/>
  <path class="cls-51" d="M646.22,295.83c-.85-1.87-5.51-8.71-6.81-9.16-2.63-.92-8.47.11-11.96-.3-5.59-.66-9.66-2.58-14.94-4.02-.28-1.77,2.45-1.12,3.48-.94,6.85,1.18,13.63,5.12,21.02,2.51-2.17-1.47-5.18-6.32-7.16-7.24-4.7-2.16-15.49,1.02-20.4-6.24,3.65-.43,7.23,2.96,10.78,3.57,2.12.36,4.43-.05,6.58.05-3.47-4.85-8.4-8.46-12.23-12.97-1.71-2.01-4.48-5.19-5.12-7.75l12.76,12.43c.8-2.59-1.49-5.64-2.1-8.24-.25-1.05-1.35-3.39.55-3.15,3.77,9.37,5.14,17.59,13.82,23.82,2.22.43,1.56-1,1.51-2.56-.07-2.02-1.04-6.7-1.71-8.64-1.35-3.9-5.6-7.06-4.92-10.55.62.5,2.07,2.49,2.55,2.07.38-.33-.83-2.48,1.02-2.07,1.27,3.79,2.78,7.41,3.62,11.36.9,4.2.75,10.43,1.71,13.81.89,3.13,7.68,8.39,8.98,12.14.89.29.88.64,0,1.04-.35.16-.72.99-1.02,1.04Z"/>
  <path class="cls-207" d="M697.29,294.8c12.23-1.7,6.52-13.1,10.23-21.76,1.81-.18,1.08,3.51,1,4.64-.31,4-1.09,9.05-2.03,12.96.43.34,7.33-2.49,7.7-3.06,1.47-2.26.5-11.86,4.05-14.54l-1.53,12.43c7.84.26,7.38-5.95,11.75-10.35l-1.58,5.68,2.08.53c.89.29.88.64,0,1.04-1.43.8-3.6,1.22-4.08,3.1,2.29.43,6.97.79,8.17,3.11-3.74,1.82-8.66-2.71-10.72-2.72-1.69,0-7.92,4-9.7,5.32l13.27,5.68c-8.41,1.65-16.01-8.9-22.45-1.54-.02,1.73,14.22,5.39,15.3,8.8-7.41-.54-14.13-8.43-21.45-7.24-.01-.69.01-1.38,0-2.07Z"/>
  <path class="cls-71" d="M684.01,251.27c4.16.59,4.96,12.26,0,12.44.1-.6.33-2.15-.53-2.09l-6.62,3.13c-1.22-.82-2.85-1.26-4.09-2.07-.54-.35-2.16-1.25-2.04-1.55l12.24-15.04c-.85,2.23.72,3.89,1.03,5.18Z"/>
  <path class="cls-172" d="M656.43,309.31c-2.33,7.79.35,16.23-3.59,23.84-2.72.38-1.02-1.48-.84-2.94.73-5.97,2.06-11.64,1.35-17.79l-6.7,11.33-3.52,2.65c2.18-6.12,6.6-11.22,9.2-17.09-.29,3.82,2.85,2.84,2.05-1.04,1.88-.49,1.59.49,2.04,1.04Z"/>
  <path class="cls-68" d="M656.43,301.01c6.64-7.38,11.3-18.76,18.38-25.91-2.62,9.44-10.02,16.59-15.1,24.57-1.11,1.74-2.34,2.72.81,2.38-1.5.31-2.34,2.86-4.09-1.04Z"/>
  <path class="cls-87" d="M662.56,314.49c2.1,2.61,6.48,5.12,8.16,8.83.54,2.64-1.64.97-2.37.32-2.13-1.87-3.09-4.79-5.78-6.04l5.09,13.47c-4.53-3.23-6-9.59-8.16-14.51l3.06-2.07Z"/>
  <path class="cls-188" d="M650.31,286.5c-2.32,1.28-.16,6.9-1.17,8.18-.36.46-1.55-.05-1.9.11v-1.04c2.57-10.76-1.4-22.88.01-34.2,1.64.17,1.92,4.46,2.02,5.71.57,6.94.5,14.24,1.03,21.23Z"/>
  <path class="cls-166" d="M697.29,301.01c7.49,3.76,16.49,7.77,22.47,13.46l-22.47-11.39c.02-.33-.02-1.38,0-2.07Z"/>
  <path class="cls-68" d="M659.5,280.63c-.04.08.8.7.33,1.78-2.65,6.22-5.36,13.12-5.44,19.99-.14-1.41-2.76-3.42-3.06-4.15,1.5-2.65,6.7-15.67,6.13-17.62h2.04Z"/>
  <path class="cls-172" d="M671.76,299.98c-.48,0-1.43-.84-2.04-1.04,4.54-3.64,8.9-11.23,14.29-14.51-1.78,6.64-8.68,10.08-12.25,15.55Z"/>
  <path class="cls-160" d="M696.27,308.27c5.29,3.32,10.46,7.48,14.3,12.43-4.14-1.84-11.55-6.89-14.3-10.35-1.21-1.52,0-1.94,0-2.07Z"/>
  <path class="cls-182" d="M681.97,319.67c3.66,3.99,6.15,9.24,9.19,13.47l-1.02,1.04c-3.53-4.71-7.31-9.34-10.21-14.51.34,0,1.94.02,2.04,0Z"/>
  <path class="cls-14" d="M701.72,329v1.04c-4.47-3.68-8.64-7.89-12.26-12.44.07-.02.79-.8,1.02-1.04,4.96,3.08,7.78,8.19,11.24,12.44Z"/>
  <path class="cls-195" d="M696.27,282.36c.02,1.38-.07,2.77,0,4.15-3.3.97-1.28-3.08-1.02-6.22.08-1.01-.14-2.13,0-3.11,1.3.33,1.64,2.06,1.02,5.18Z"/>
  <path class="cls-128" d="M679.93,297.9c2.15-.56,4.67-2.2,7.15-2.06-.66,2.39-3.3,2.43-5.11,3.1l-2.04-1.04Z"/>
  <path class="cls-149" d="M637.03,317.6c-1.46,1.18-2.51,3.66-5.11,3.1.59-2,2.77-2.92,4.09-4.14l1.02,1.04Z"/>
  <path class="cls-156" d="M679.93,332.11c.09.99-.63,1.45-1.02,2.07-.59-1.62-2.17-3.99,0-5.18.52,1.08.64,2.31,1.02,3.11Z"/>
  <path class="cls-103" d="M631.92,416.06c-11.22,16.2-10.15,38.71-16.34,57-.35-5.73-7-15.88-7.15-20.73,0-.18,1.14-1.61,1.09-3.51-.38-16.79.12-33.61-.06-50.39,5.52,6,13.53,8.63,19.75,13.64,1.44,1.16,2.74,1.76,2.71,3.98Z"/>
  <path class="cls-121" d="M609.11,450.26c-1.81-4-4.6-10.26-5.11-14.51-1.49-12.43,1.1-27.66,0-40.42,1.47.92,4.98.36,5.11,3.63,0,17.1,0,34.21,0,51.3Z"/>
  <path class="cls-216" d="M647.21,374.21c-.91.54-2.95.83-3.06,2.07-4.29-2.68-7.43-10.01-11.84-12.28-3.7-1.9-7.85.1-9.55-3.22l5.09-.02c-.79-1.07-2.22-3.4-3.06-4.12h1.02c8.48,4.8,12.76,10.69,19.35,17.57-.82-6.31-3.69-11.87-6.1-17.57-.6-2.09-.26-2.78,1.02-2.07,4.09,7.57,4.65,11.95,7.13,19.64Z"/>
  <path class="cls-153" d="M619.66,380.82l-1.02,2.07c-5.88.76-5.9,6.9-12.25,8.29l6.12-8.29h-16.34c-.08-1.54,3.66-1.83,4.72-1.95,3.52-.38,7.08,0,10.6-.14l-10.21-7.23c8.23.19,10.3,6.99,18.39,7.24Z"/>
  <path class="cls-120" d="M633.96,383.93c2.51-1.61,9.74-2.39,11.24,1.04-4.93,7.01-7.14,16.26-16.33,19.69.16-3.71,4.39-4.8,6.56-7.33,1.54-1.8,7.17-10.05,7.72-11.86.84-2.73-7.25-1.35-9.18-1.53Z"/>
  <path class="cls-25" d="M616.6,363.2c7.95,3.88,15.57,9.99,22.47,15.55-.74.09-1.85.93-3.06,1.04-6.04-6.64-14.17-11.35-21.45-16.58.06-.64.74-.64,2.04,0Z"/>
  <path class="cls-189" d="M632.94,383.93c-5.47,6.87-11.94,14.07-21.45,13.46,1.52-2.34,5.56-2.37,8.06-3.72,4.12-2.22,7-6.02,10.31-9.23l-4.08-1.55c3,.07,5.03.86,7.15,1.04Z"/>
  <path class="cls-120" d="M650.31,383.93c.13.98-.2,2.23,0,3.11.72,6.3-.64,10.79-4.09,13.47-1.07,2.06-4.03,4.38-5.62,6.2l-.51-1.02c3.44-5.36,6.91-11.97,7.91-18.42.31-2.01,1.29-3.86-1.79-3.35,2.09-1.64,1.93-.84,4.09,0Z"/>
  <path class="cls-120" d="M624.77,379.78c-.55.02-1.54,1.02-2.04,1.04l-14.3-11.39c6.49.65,11.81,6.09,16.34,10.35Z"/>
  <path class="cls-171" d="M640.09,354.91l-1.02,2.07c-1.11-2.64-3.37-5.05-3.05-8.29,1.87.97,3.06,4.33,4.08,6.21Z"/>
  <path class="cls-209" d="M616.6,363.54h-2.04c-.3-.21-4.11-.69-2.54-2.08,1.84-.14,3.17,1.39,4.59,2.08Z"/>
  <path class="cls-187" d="M625.79,356.63h-1.02c-.18-.16-4.14-.71-2.54-2.08,1.69-.33,2.53,1.49,3.57,2.08Z"/>
  <path class="cls-193" d="M653.52,13.28c4.97,4.07-1.02,4.68-5.79,3.16-6.11.62-12.01.61-17.7-.05-2.32.57-1.29,1.26,3.06,2.07,4.14-2.34,14.02-2.84,19.19-1.26.18.06.22.59.22,1.26-10.44,2.88-10.1,3.23,1.02,1.04,1.36-3.44,5.87-2.52,6.13,1.04l-.67,1.76c-9.88,5.43-18.85,12.1-26.91,20.01-2.55,3.44-2.21,3.78,1.02,1.04,2.69-5.75,22.63-22.16,28.36-21.38.79.11,1.55.29,2.28.65.21-.94.56-.91,1.02,0,.53,1.64,1.89,2.67,4.09,3.11,2.31-1.43,3.12-.39,2.04,2.07-3.26,5.88-2.92,6.22,1.02,1.04.95-2.92,3.14-1.89,3.06,1.04.7,1.06,1.72,1.75,3.06,2.07,2.73-.4,7.2,3.01,7.15,6.22,2.1.03,4.78,3.29,2.54,4.69.25,3.58.28,7.35-.5,10.85.78.05,1.2.35,1.08,1.01-.1-4.55.56-8.34,1.98-11.38l.71-.76c3.24,3.59,6.92,5.22,11.04,4.91.08-.58.18-1.03.3-1.04,5.31-.36,12.74-.44,17.57,1.04-1.62-.46-2.47-1.15-2.55-2.07-3.34,1.57-11.1,1.46-15.67,1.17-.25-.02-.47-.52-.68-1.17-.44,7.32-13.43-4.97-14.81-8.29-1.26.33-2.91-1.8-2.33-2.79l21.89.92.36-1.24c-.09.69-.19,1.23-.31,1.24-5.89.18-12.48-.28-18.08-1.24-2.26,3.1-11.64-3.54-10.46-5.88.5-.98,6.46-2.16,7.91-1.37,8.92-2.06,8.58-2.41-1.02-1.04-3.06,2.44-11.64,4-13.77-1.03-1.34-3.17.79-4.41,3.56-4.15.31-2.29,3.87-4.4,6.13-4.15-.93-1.39.1-2.43,3.06-3.11,27.86,1.55,52.07,42.85,56.95,68.16,1.96,10.15-6.14,2.48-9.26,1.09-6.03-2.68-17.39-2.71-24.2-2.91l-1.17,2.03-15.49-.18-1.73-1.86c-.63,1.72-1.31,2.07-2.04,1.04-7.56-.56-15.1-.87-22.62-.91l.14,10.84-2.03,1.47-1.1-.23c.05-5.71-1.39-10.85-6.05-13.24l-2.21.26c-2.15-5.07-6.99-7.56-14.5-7.47l-1.67-2.12,2.56-2.08c-9.32-6.01-19.7-14.94-25.04-24.87l-2.26-.06-1.83-10.31c-1.55-4.59-2.7-7.54-1.58-12.54.21-.95,1.55-1.77,1.58-1.97,13.71-6.24,29.21-4,43.92-4.15Z"/>
  <path class="cls-26" d="M636.01,69.89c3.89-.14,12.69,1.74,15.68,4.05.42.32,1.71,3.72,2.7,5.28,1.46.78,4.31,3.22,5.01,4.4.99,1.68,2.29,15.99-.92,16.33-3.07-.11-8.21-2.36-9.19-5.18-1.15-2.34-1.83-2.69-2.04-1.04-2.81.31-6.3-1.95-8.17-4.15-2.16.1-4.65-1.47-6.13-3.11-1.84-1.41-1.84-1.06,0,1.04,1.7.22,4.62,1.45,5.11,3.11,10.39,4.26,21.57,10.98,31.08,16.82,2.58-.12,4.9.03,5.7,2.87,2.25,3.07-.04,3.07-3.06,2.07-12.28,7.58-11.94,7.93,1.02,1.04,3.33-3.92,5.97,3.42,1.02,2.07-.61,2.87-2.16,5.85-4.64,8.93-1.86,4.26-4.06,7.85-6.59,10.76-2.47-1.03-8.48-4.15-10.47-3.96-4.08.38-8.83,5.53-12,8.1-2.33-3.9-6.73-6.13-8.75-10.3-2.26-4.67-1.54-9.39-2.96-13.58-.99-2.92-4.07-4.34-5.51-6.85-3.04-5.28.33-7.57-7.3-8.66l5.13-.57c.68-5.92-2.49-10.79-4.1-16.01-2.32.47-2.79-.45-1.02-2.07-.67-2.39-1.29-4.72-1.02-7.25-1.21-.95-.87-1.29,1.02-1.04,4.94.99,9.74-1.48,13.28-2.07-.13-2.2,1.88-1.37,3.06,0,1.23-.21,2.2-.97,4.09-1.04Z"/>
  <path class="cls-60" d="M615.58,81.3c.12.43.75,1.19,1.02,2.07-3.39,3.99-2.53,7.67-2.05,12.44-2.66-5.44-4.65-.48-5.09-1.04-1.25-2.67,5.32-9.15,4.07-10.36-3.19-3.09-6.51,9.37-9.18,6.74l2.03-4.66-18.38,2.06,8.15-2.6c2.01-1,13.77-2.09,14.32-2.58,1.66-1.49-3.69-4.03-4.65-4.13-2.95-.32-7.08,3.17-10.67,2.05l5.11-2.07-1.03-3.09c.63-.52,6.12.82,7.39,1.3,3.82,1.44,5.47,6.06,8.95,3.87Z"/>
  <path class="cls-43" d="M628.86,70.93l-18.38-6.23c.92-3.02,8.39.78,9.18,0l-4.07-11.39c4.66,1.47,4.69,10.03,6.38,12.17,1.88,2.39,9.88,1.67,9.95,5.45-.95.16-2.11-.16-3.06,0Z"/>
  <path class="cls-41" d="M615.58,73c-.19.39-1,.85-1.02,1.04l-14.29-1.05,8.16-1.04-4.08-4.12c4.43-.32,7.09,4.34,11.24,5.17Z"/>
  <path class="cls-142" d="M613.19,42.95c-1.08.98-3.26,2.12-4.09,3.11v-13.47c.67,1.98,3.28,8.87,4.09,10.36Z"/>
  <path class="cls-184" d="M694.23,484.46c5.63.32,12.55,3.83,14.3,9.33.34-.9.68-.9,1.02,0,3.97-1.94,9.32,5.15,9.19,9.33.94-.3,1.29.39,1.02,2.07,7.58,12,11.07,27.2,10.21,41.46,2.94,4.77,1.46,14.36-2.04,18.66,2.37,1.22,1.88,4.69,0,6.22l.14,1.77c-1.88,2.92-1.64,4.72-1.17,7.56,2.76.38,2.61,1.22,0,2.07-1.25,1.18-1.45-.59-1.36-.54.95.56,2.05,2.27.34,2.61-.26,3.57-1.63,5.64-4.09,6.22.63,1.02.48,2.05,0,3.11-.12,2.27-4.04,4.39-6.13,4.15,1.63,1.72,1.29,2.41-1.02,2.07-1.82,3.31-5.57,3.31-11.24,0-1.1,1.81-5.2-.21-5.11-2.07-.78-.9-.89-3.31-2.01-4.69-2.86-3.53-8.72-7.15-12.29-11.89-2.5-3.33-7.12-10.64-8.17-14.51-1.38-5.11,3.41-11.85,5.12-17.08,2.97-9.06,5.15-15.45-.02-24.37-.68-1.16,1.97-4.3,2.89-4.29.63,0,7.76,9.12,8.01,9.71.31.73.1,4.35-1.5,3.64-2.66,3.99-4.78,8.32-6.22,12.92l-1.15.3c1.76,3.6,1.67,12.71,0,16.58.79-.42,1.47.45,2.04,2.59-1.58-4.98-1.7-13.73,0-18.14-2.7-1.75,5.47-15.84,6.88-15.66.48.06,5.82,7.01,5.37,7.39,1.98,3.99,1.64,6.57-1.01,7.75-.14,2.86.2,3.89,1.02,3.11-.21-12.94,8.94,2.83,8.32,9.32-5.94,5.45-9.73,12.7-11.38,21.77.62.75,1.3.41,2.04-1.04-2.13-6.47,3.68-14.76,7.86-20.07.48-.72.89-1.45,1.08-2.24.78-3.25-3.15-11.4-6.62-12.96-.72-4.81-2.52-9.46-6.71-11.67-.96-3.93-4.2-10.17-7.8-11.75-1.14-1.78-3.83-8.39-3.13-9.71-.42-1.5,5.6-2.62,5.29-2.56-2.81,1.4-4.91,1.56-6.32.49-.61-1.94-1.17-2.09-1.69-.44l-5.46,1.48c-.64,1.88-2.68,2.23-6.13,1.04-4.05.86-8.18.81-12.26,3.11-2.93-2.71.59-6.78,3.05-8.94,5.86-3.67,10.03-8.58,12.51-14.71l2.83-1.22c5.56-7.97,13.56-5.8,21.45-7.25Z"/>
  <path class="cls-95" d="M714.66,473.06c7-.93,19.8,3.42,25.53,7.78-.66,1.36-2.78.08-3.78-.32-7.32-2.92-10.3-4.52-18.68-4.91-1.37-.06-1.41-1.13-1.05,1.08.23,1.41.95,3.22,2.1,4.09,5.24,3.94,20,4.29,24.46,12.49-3.77.09-7.06-3.72-10.87-5.55-2.7-1.3-8.36-3.55-11.16-4.23-1.51-.37-1.73-.1-1.39,1.42,1.55,7.06,9.22,7.07,13.87,11.33,2.9,2.65,14.01,17.42,14.68,20.87.22,1.17.16,2.2-1.04,1.05-4.67-4.48-9.1-15.07-14.76-20.27-2.59-2.38-5.69-3.58-8.72-5.13-.64.77,6.78,17.11,7.73,18.57,3.79,5.85,11.69,8.43,14.72,18.24.61,1.99-.34,1.85-1.54.52-3.65-4.05-5.06-11.46-10.69-13.5-.44.55,3.96,12.25,4.65,13.4,2.35,3.91,10.09,6.11,8.6,13.54-2.9-1.58-2.28-6.36-5.62-8.28l-1.51,4.13c-2.01-4.17-2.89-10.28-6.13-13.47l4.59,20.72c-4.25-6-5.75-14.11-6.68-21.3-.29-2.22.91-4.25.76-6.03-.44-5.05-7.73-17.48-10.43-22.41l-2.55,8.29c-.4-.63-.6-1.5-1.02-2.07l-1.53-3.61c2.85-6,.63-10.97-2.4-16.37l-2.84,10.41-2.43.24c-.22-.17-.8.16-1.02,0-3.64-3.02.38-12.73,2.2-16.96.44-1.01,1.17-1.91,1.89-2.74.66-.35.75-.87,2.04-1.04Z"/>
  <path class="cls-103" d="M672.78,491.71c-1.95,2.79-2.85,7.14-5.09,9.86-3.64,4.44-12.65,8.25-13.3,15.01-.48.27-.83,2.22-2.03,2.07-.3-6.18-1.11-12.39-4.67-17.55l-8.62-7.32c2.66-.81,4.16-2.74,7.64-3.13,7.48-.85,17.98,2.58,26.07,1.06Z"/>
  <path class="cls-212" d="M681.97,417.09c.57,4.11,1.33,8.24,1.03,12.44l5.09-7.25-5.1,13.46c1.29,1.04,12.75-6.65,15.83-7.26,1.15-.23,2.18-.16,1.04,1.05-1.87,1.97-5.52,1.89-6.64,4.13l15.31-1.02c.22,1.47-2.84,1.63-3.85,1.77-4.69.66-11.57-.62-14.53,3.39,1.28.21,2.94-.26,4.09.01,1.44,2.3-2.18,1.79-4.09,1.04-2.15.23-5.17.36-7.15,1.04.8,3.06-.58,2.91-3.06,2.07-1.56.95-6.05,4.06-7.15,5.18-.08,2.62-.76,3.65-2.04,3.11-16.8,3.54-11.7,17.28-15.33,30.05-1.83.24-.99-2.33-.89-3.49.23-2.56,2.62-16.36,1.91-17.23-1.18-.28-2.22.86-3.06,1.03-1.91,1.36-2.49.78-1.02-1.04,1.21-.97,3.13-2.87,4.09-3.45h-24.17v-1.72c1.57.88,4.37-1.05,5.28-1.05h19.41c.74,0,.85,1.02,2.88-.07.94-.51,9.28-7.65,8.87-8.21-6.78-3.45-14.23-3.88-21.23-5.94-1.18-.35-4.32-.85-4.3-2.36,9,.96,18.17,2.88,26.29,7.11,1.69.32,3.17-.9,4.35-1.94-.5-3.26.18-4.3,2.04-3.11.38-.34,2.35-.34,3.06-1.04.57-2.96.78-5.95.63-8.96l1.41-.37c.24-2.26-.05-4.9,0-7.25.03-1.36-.51-3.43,1.02-4.15Z"/>
  <path class="cls-70" d="M708.53,493.79c-4.51-3.32-9.64-6.21-14.3-9.33,10.94-2.01,11.13-6.48,18.39-10.36,1.04,6.55-4.94,12.9-4.09,19.69Z"/>
  <path class="cls-93" d="M680.95,428.49c-.24,2.23-1.07,8.37-2.04,9.33,1.37-14.4-12.59-21.06-21.45-29.01,10.64,2.8,17.06,11.48,23.49,19.68Z"/>
  <path class="cls-45" d="M653.37,460.62c-6.42,5.36-12.9,10.85-19.51,15.96-3.05,2.36-6.53,5.51-10.11,6.83,8.37-9.28,18.96-16.09,28.6-23.83-.19.63.58,1.13,1.02,1.04Z"/>
  <path class="cls-144" d="M682.99,439.89c7.46,9.01,11.65,19.11,10.2,31.09-1.48.07-1.55-3.75-1.73-4.96-1.31-8.66-2.48-19.97-11.53-24.05,1-.61,1.5-1.54,3.06-2.07Z"/>
  <path class="cls-45" d="M675.84,438.86c-.91.8-1.29,2.45-2.04,3.11-2.63-10.65-16.31-13.15-23.49-19.68,9.78,2.44,19.38,8.44,25.54,16.57Z"/>
  <path class="cls-200" d="M672.78,447.15c.84,9.41,4.16,18.38,3.05,27.98-1.92-.41-1.85-2.05-2.06-3.6-.96-7.11-.99-14.3-3.04-21.27.8-.93,1.18-2.23,2.04-3.11Z"/>
  <path class="cls-144" d="M694.23,437.82c7.71,1.78,15.06,8.1,15.31,16.58-4.44-5.17-6.01-11.56-13.24-14.02-2.04-.69-4.78.16-6.16-1.53,1.31-.14,3.36.6,4.09-1.04Z"/>
  <path class="cls-139" d="M646.22,400.51c1.82-3.5,2.25-9.71,4.09-13.47.88,3.92,2.55,8.93-.46,12.49-.26.31-3.42,2.9-3.62.99Z"/>
  <path class="cls-147" d="M719.76,464.77c4.78-1.42,10.38-1.63,15.15-.3,1.81.51,2.65-.33,2.21,2.37-6.31-1.67-12.07-1.06-18.38,0,.27-.36.53-1.33,1.02-2.07Z"/>
  <path class="cls-139" d="M655.41,384.96c2.28.95,3.59,7.34,3.06,10.36-2.4,2.45-3.46,0-4.09,0l-1.01-11.4c.87-.32,1.77,1.04,2.03,1.03Z"/>
  <path class="cls-113" d="M661.54,382.89c-.09,1.7-2.8.91-4.09,1.04-.28.25,1.66,6.3,2.05,7.25.16,1.76.33,2.77-1.02,4.15l-3.06-10.36c.35-.01,2.81-3.82,6.13-2.07Z"/>
  <path class="cls-57" d="M680.95,513.48c1.37,3.14,9.1,16.11,11.21,17.17,1.08.54,4.6-2.25,6.73-2.59,5.45-.89,13.56-.38,17.81,3.57-3.15.9-6.4-1.25-9.7-1.55-5.11-.45-9.05.37-13.78,2.07-.38.53,1.87,4.72,2.25,4.94.55.31,11.17,1.39,12.52,1.32,5.09-.28,10.49-4.95,15.86.47-3.97,1.34-8.78-2.81-12.25,1.04,2.22-.3,12.91,8.07,11.22,9.84-7.67-6.22-14.14-10.38-24.5-10.36,1.46,14.64,21.04,14.35,21.43,30.05-4.58-6.14-6.56-13.81-15.31-15.54,4.95,11.03,6.03,24.24,7.14,36.26-1.76-.44-2.27-4.58-2.6-6.16-.71-3.41-.62-7.02-1.49-10.41-1.57-.27-3.94,9.59-6.12,7.24-.67-.72,8.72-14.53,4.07-18.64-5.94,4.81-8.36,12.48-9.18,19.69-.42,1.71-.82,2.67-2.04,1.04-.56-11.49,10.12-21.24,10.2-24.32.05-2.11-4.15-8.8-5.6-10.91-1,.82-1.18,2.86-1.53,4.14-.96.47-1.3-.56-1.02-3.11,1.21-6.44-.15-8.52-4.6-13.45-1.89,0-6.64,12.15-6.3,13.97v18.14c-1.13.6-2.38-2.1-2.72-2.59v-16.58c.34-3.37,7.48-13.92,7.48-15.54,0-1.06-5.11-8.74-6.12-9.34l-3.07,2.61c-.43-.74-.95-1.98-1.02-2.07-.1-3.13-.32-4.54-2.39-7.18l1.36-2.15c-.85-1.84.63-2.46,2.04-1.04Z"/>
  <path class="cls-74" d="M646.22,539.39c.12.82-.95,2.47-.88,3.64.24,4.17,5.67,7.2,8.01,10.37,3.83,5.18,8.19,11.42,8.18,18.11-3.7-4.7-5.07-10.51-8.76-15.46-.91-1.22-12.37-13.25-9.46-5.95.73,1.83,3.59,3.59,4.92,5.37,4.29,5.74,9.45,12.69,9.21,20.17l-5.69-11.31c-1.1-1.96-7.69-11.41-9.11-11.46-1.08-.04-1.48,1.8-1.11,3.16,1.67,6.02,12.63,14.78,10.8,23.77l-9.78-18.59-3.49-1.11c-1.34.68-1.79.22-1.02-1.04l-.46-5.15-20.99,6.71c3.22-2.24,7.61-4.88,11.26-6.2,6.47-2.34,14.64-.21,14.27-9.87-9.27-.09-17.88,4.23-27.05,5.19-.75-2.09,5.47-2.46,6.62-3.14l-6.12-3.09c7.87.84,19.34,1.42,26.89-1.22,2.22-.78,1.75-3.25,1.7-5.01,2.36-1.68,3.19-.32,2.04,2.07Z"/>
  <path class="cls-76" d="M638.05,559.08c.84-.16.79.47,1.02,1.04.26.64-.07,1.92.56,3.02,3.87,6.74,7.74,12.34,7.61,20.81-2.98.51-1.66-.71-2.16-2.41-.73-2.45-4.04-16.06-6.51-16.22-3.94-.25,2.78,10.78,3.12,12.36.6,2.79.55,5.53.45,8.35-2.54.19-1.75.26-2.01-1.55-.29-2.01-.85-12.8-3.6-12.93-3.81-.19,2.53,11.83,1.53,13.45-3.24.77-2.46-4.42-3.07-6.21l-4.06,5.18,1-6.21-2.53,1.05c-1.89-2.71,5.38-3.62,4.58-8.3-5.39.54-7.61,6.21-11.22,9.32-.19-2.66,2.18-6.13,4.03-7.82,4.54-4.14,10.08-2.12,10.25-10.84-.91-1.13-15.51,9.05-18.37,7.78,5.72-4.39,12.41-7.99,19.4-9.85Z"/>
  <path class="cls-48" d="M645.2,524.53c2.02,3.99,2.64,4.32,6.13,5.18,1.66-.77,2.1-.57,1.02,1.04.02.07-1.15.7-.11,1.5,6.65,5.17,23.43.89,29.73,8.85l-18.39-4.13c3.07,4.13,9.7,4.85,12.26,9.31-1.56,1.2-20.04-11.46-24.24-12.24-5.78-1.07-3.47,1.82-3.34,3.96,1.46,1.91.85,2.53-1.02,1.04h-1.02c-.02-.15-1.82-2.01-2.04-2.07-1.29-.34-5.48-.12-7.15,0-1.43.63-4.09.73-4.09-1.04,3.89-.45,7.94-.58,11.77-1.03,5.56-.66-2.56-3.42-4.39-3.87-5.98-1.46-12.52-1.54-18.61-2.35l-.35-1.14c2.58-.2,4.74-.86,6.47-1.97.17.52-.27,1.84,0,2.05.69.52,14.43.25,16.86,3.12,1.72-1.55-1.57-3.19-2.57-4.13-1.9-2.35.96-4.13,3.06-2.07Z"/>
  <path class="cls-125" d="M623.75,509.33c6.24,4,11.29,9.28,17.35,13.47.39-.47-4.16-10.94-4.59-11.39-1.66-1.75-5.68-1.21-6.63-4.14l5.1,1.03,1.02-4.14,4.11,11.39c1.95-.26.89-4.63,1.01-6.21,1.09-2.21,1.64-1.01,2.04,1.04.3,6.07-.91,8.66,2.04,14.51l-3.06,2.07c-6.19-5.83-13.24-10.75-19.41-16.58-1.35-1.46-.78-1.99,1.02-1.04Z"/>
  <path class="cls-82" d="M679.93,511.41c4.46-.55,9.17-5.14,14.03-5.97,4.1-.7,8.4-.03,12.52-.24l-14.09,2.79-5.31,3.41c6.8.08,16.39-.32,21.45,5.18-5.93-.71-13.09-3.95-18.95-4.17-2.79-.1-5.72.78-8.63,1.07-.54.05-1.43.96-2.04,1.04-.39,2.87-4.53,3.06-6.13,1.04-.64.22-5.29-1.06-6.13-2.07,2.29-.49,4.03-.66,6.13-1.04,2.57-3.24,3.85-2.63,7.15-1.04Z"/>
  <path class="cls-97" d="M651.33,530.06c2.67-2.22,6.54-1.12,9.29-3.53,2.91-2.55,2.9-10.72,7.05-9.43l-2.03,4.67,5.1-2.06-7.15,7.23,10.21-3.09c.37,2.44-8.3,4.29-6.13,6.2.58.52,10.2.62,11.23,3.1-8.97.17-17.73-4.56-26.55-2.06-.2-.93-.22-.84-1.02-1.04Z"/>
  <path class="cls-98" d="M648.26,538.35c3.91,1.91,6.6,8.79,9.48,11.1,3.58,2.86,8.41,3.25,12.99,8.59.95,1.65,1.01,2.69-1.02,2.07-2.32-2.14-4.4-5.94-8.17-6.21l4.6,11.39-18.9-25.91c.78.09,1.07-.25,1.02-1.04Z"/>
  <path class="cls-30" d="M678.91,514.51c1.2,4.25,5.32,4.88,1.02,9.33-1.27-1.69-6.03-5.64-8.17-6.24l1.02-2.05c4.76-1.63,2.75-.62,6.13-1.04Z"/>
  <path class="cls-220" d="M627.83,525.91c-1.06,3.25-4.22,1.14-6.13,3.11-3.06-.41-6.03-1.41-9.19-1.05-.24-1.81,2.32-.97,3.56-1.03,3.23-.13,6.49.1,9.71,0,.3-6.94-9.5-6.56-12.25-11.39,6.55,1.73,12.06,3.59,14.3,10.35Z"/>
  <path class="cls-39" d="M632.94,536.28l4.09,1.04c-.09,0,.16.86-1.52,1.01-8.02.68-15.96,1.41-24.01,1.06l7.78-1.94c4.7.35,9.1-.64,13.66-1.16Z"/>
  <path class="cls-146" d="M641.11,509.33c.08-1.02-.06-2.08,0-3.1,3.06-.69,1.91,1.53,2.04,4.14l-2.04-1.04Z"/>
  <path class="cls-22" d="M623.75,509.33l-1.02,1.04c-.95-.9-2.8-1.48-3.06-3.1,2.03-.55,2.79,1.23,4.09,2.06Z"/>
  <path class="cls-111" d="M670.73,558.04c1.09,1.28,2.43,2.24,2.03,4.15-.31.4-2.54-1.6-3.05-2.07l1.02-2.07Z"/>
  <path class="cls-26" d="M706.48,80.26c3.26,8.12,22.23,16.91,23.43,24.41,1.04,6.5-.84,13.46-5.52,18.12-8.41,8.37-21.7,1.58-31.19-1.07,4.12,10.57,8.95,21.41,8.17,33.16-1.08-1.61-5.19-7.42-6.13-8.29-1.33-1.45-2.34-3.35-3.02-5.71-4.61-5.06-7.63-10.3-10.24-17.46-2.11-1.44-2.46-3.04-1.03-4.81-2.91.43-4.6-6.57-2.68-7.5.71-.35,14.95.66,15.71.86.65.17,3.82,1.68,4.33,2.5,1.9-.44,6.3-.54,6.13,2.07,1.96-.65,1.32-1.65,0-3.11-.26,2.35-3.65,1.17-5.11,0-3.76.77-10.09-2.86-3.06-2.07,3.1-2.73,9.14-3.94,13.28-4.15.99-.67.65-1.01-1.02-1.04-3.6,2.19-9.08,3.36-13.28,4.15-1.43,1.76-2.12,1.76-2.04,0-4,.89-8.08.89-12.26,0-2.45,3.29-5.23-1.76-1.02-1.04-.21-.98-.29-1.86.09-2.43,4.04-6.01,9.08-12.4,14.21-17.26.06-.76-.28-1.11-1.02-1.04-1.9,3.52-11.86,18.17-14.21,18.09-2.97-.1,4.78-18.54,7.06-20.16-.45-2.29.44-4.63,2.04-6.22,4.22-.78,13.57-.14,18.39,0Z"/>
  <path class="cls-224" d="M711.59,191.15c4.58,4.75,4.27,6.34,6.63,12.41,18.52-7.97,27.06,8.67,18.28,24.78-2.16,3.97-13.76,16.63-17.52,18.5-13.35,6.62-11.81,4.25-23.73,14.79-1.16,1.03-7.08,5.93-7.82,5.99-1.23.11-3.32-.91-4.03-1.88-.93-1.27.57-1.81.61-2.04,2.34-3.5.9-8.66,0-12.44-1.3-6.43,1.3-7.44,4.09-11.4,4.2-1.23,9.46-3.74,11.82-6.88,2.06,2.54,3.57,3.45,4.52,2.73-2.41-1.94-1.44-3.96,1.68-4.29,1.07-4.6,3.06-7.17,6.89-10.13.41-2.02,1.32-4.28,3.3-3.5.68-3.56,1.76-7.32,5.5-8,.07-.79-.26-1.15-1.02-1.04-1.14,1.75-2.43,3.65-3.85,5.69,3.13,4.02-6.89,5.16-8.24,2.12.54-4.23-2.05-9.22-4.25-13,.91-3.35,2.47-13.34,7.15-12.44Z"/>
  <path class="cls-85" d="M654.39,13.93c4.99.79,9.85,2.45,14.3,4.15.6-.2,1.63.5,3.06,2.07.24-.95.59-.93,1.02,0,1.77-1.55,2.4-.95,1.02,1.04-.82.62-3.08,1.62-2.04,3.09.16.23,4.52,2.9,4.79,2.96.58.14,6.15-.66,7.46-.87.89,0,1.29.05,1.02,1.04-1.3.25-6.9.6-6.12,2.58.89,2.26,6.53,4.68,8.67,4.68h18.39c.21,0,3.98.96,3.57,2.06-3.62,1.51-23.47-1.68-24.51-1.02-.43.27.93,1.57,1.02,2.06,1.45,1.87.87,2.47-1.02,1.04-.7-.84-5.91-5.24-7.15-6.22-2.64,1.06-3.66.37-3.06-2.07-.92-.69-2.55-.67-3.06-1.04-1.4,1.46-1.95.85-1.02-1.04-.73-.48-1.34-1.63-2.04-2.07-3.89.37-5.25-.66-4.09-3.11-.25-.08-.67,0-1.02,0-2.7-.06-4.06-.75-4.09-2.07-2.21-.71-3.59-1.42-6.13-1.04-1.14.19-1.48.06-1.02-1.04-3.51-2.92-15.16-.18-19.41,0-2.43-.2-3.45-.9-3.06-2.07,7.36-.47,16-1.46,22.97.02l.53-3.12c.34,0,.68,0,1.02,0Z"/>
  <path class="cls-122" d="M668.69,13.93c1.6.64,1.4,3.39,0,4.15.35,3.27-.82,2.04-2.77,1.25-3.86-1.56-7.85-3.44-11.53-5.4,4.75-.02,9.55-.07,14.3,0Z"/>
  <path class="cls-40" d="M682.99,13.93c-.55,1.69-1.9,2.18-3.06,3.11-1.43.16-3.81,1.19-7.15,3.11-.31-.04-.72-.04-1.02,0-2.2,1.01-3.11-5.31-1.02-6.22,4.06.08,8.21-.22,12.26,0Z"/>
  <path class="cls-162" d="M670.73,13.93c.15,1.95-.79,5.05,1.02,6.22-.11.02-.8,1.49-2.03,1.04.47-1.34-.9-2.49-1.03-3.11-.25-1.18.17-2.85,0-4.15.68.01,1.36-.01,2.04,0Z"/>
  <path class="cls-203" d="M696.27,282.36c-.03-1.66.61-4.31-1.02-5.18.2-1.42.07-4.99,2.03-5.18l-1.01,10.36Z"/>
  <path class="cls-1" d="M728.96,281.65l.52-1.02h2.55c-.14,1.92-2.16,1.55-3.06,2.06v-1.04Z"/>
  <path class="cls-226" d="M701.72,329c.69.85,2.92,1.47,3.06,3.1-2.2.69-2.2-1.35-3.06-2.06v-1.04Z"/>
  <path class="cls-103" d="M752.12,635.77c-4.65-10.08-17.54-18.51-28.6-15.55-1.05-3.06-.11-6.38,2.81-9.98,7.71-11.73,13.39-20.95,15.49-35.09.38-2.56.69-8.38-2.84-7.86-5.49,1.44-9.28.77-11.37-2,.49-6.38,1.68-12.6,2.04-18.66,12.7,8.81,25.05,18.26,20.38-6.77l2.08-7.74v103.64Z"/>
  <path class="cls-132" d="M724.19,620.23c-9.26,2.48-17.82,13.98-27.08,17.61-.42-1.46-1.81-2.14-2.54-3.1-1.47-.18-2.32-1.65-2.04-3.11-3.88-3.47-7.81-9.65-10.21-14.51,1.32-2.26,4.65-2.19,6.13-3.11,4.45,2.67,9.32,7.92,12.26,12.44l1.02-1.04c-4.16-2.84-10.14-7.61-11.24-12.44.48-.36,4.77-5.57,5.11-6.22,4.55,1.4,9.13,5.57,12.26,9.33l1.02-1.04c-4.61-2.28-9.97-5.78-12.26-10.36.63-2.03-1.51-4.88,2.04-4.15,6.06,1.14,12.37,5.6,17.36,9.33,1.67.64,2.35.64,2.04,0-5.98-2.05-10.74-5.16-14.3-9.33l.56-1.01c4.42,3.25,6.93,1.1,10.68,1.01.68-.61,1.02-1.3,1.02-2.07,2.13-3.28,2.37-3.54,6.13-4.15v-3.11c.74-1.55.91-3.82,2.03-5.51.7-1.04,2-.62,2.05-.71.21-2.53,6.69.85,6.33.77-1.09-.24-5.29-1.87-5.31-2.84-.12-.58.19-1.88,0-2.07-.45-2.63-.11-5.74,1.02-9.33-1.32-4.72-.22-3.34,0-6.22,9.15,2.36,16.99-5.47,16.33,8.79-.91,19.39-13.23,29.57-20.41,46.14Z"/>
  <path class="cls-27" d="M752.45,693.81c-1.51,29.58,1.13,60.44-.01,90.16l-14.46-31.43c-.47-3.49-9.55-6.55-9.88-7.07-1.32-2.12,1.42-8.82-1.19-11.24.04-.34-.06-.71,0-1.04,1.48-8.03,17.43-19.85,21.3-26.58,2.56-4.46,1.09-9.1,4.24-12.8Z"/>
  <path class="cls-18" d="M709.55,663.76c1.68-.41,3.34-.79,4.69-.65.77-4.22,3.19-3.87,3.01.46,2.41-.24,2.06.52.47,2.26,2.39-.64,4.09-.64,5.11,0,.75-1.02,2.99-.48,2.04,1.04-3.56.82-9.99,2.77-4.09,6.22-1.63,1.86-1.97,3.93-1.02,6.22,1.42,2.7,1.88,2.15,4.09,3.11-.48.94-1.5,1.98-3.06,3.11.45.82,1.43,2.72,2.04,3.11,2.37,1.72,1.74,1.97-1.02,2.07-.06.33.02.7,0,1.04l1.02,7.25c.15.4-.35,1.47.15,1.92.61.55,2.11,0,2.92.15,1.23.85.89,1.19-1.02,1.04-.2-.05-.85-.08-1.02,0-.5,1.76-1.18,2.8-2.04,3.11-.36-1.71-.64-3.52-1.02-5.18-2.6.89-3.28.2-2.04-2.07-.69-2.71-.73-8.52-2.04-12.44-.19-.57-1.84-1.49-2.04-2.07-.77-2.17-.95-4.58-2.04-7.25-.29-.71-.72-1.37-1.02-2.07-.71-1.67-1.28-2.64-2.04-4.15-.35-.69-.67-1.39-1.02-2.07-.1-.2,1.45-2.15-2.04-3.11-1.81.03-3.52-.31-5.11-1.04-1.53-.27-3.5.2-5.11,0,.87-1.69,3.47-.96,5.11-1.04,1.34-.06,2.76.15,4.09,0-.77-2.64.05-2.86,2.04-1.04,1.44-.55,2.49.61,2.04,2.07Z"/>
  <path class="cls-217" d="M708.53,658.58c-.32-1.16-1.31-4.26-.52-5.18l5.96,9.32v-26.95h.67c-.39,1.29,1.03,3.01,2.05,3.63v20.21l11.81-21.7,3.5-3.18c-.54,4.81-16.65,25.89-14.28,29.02,7.68-4.61,13.68-11.25,19.91-17.61.77-.16.65,1,.49,1.53-1.14,3.75-12.75,13.58-16.33,16.08-.05,1.91-2.33,2.33-4.09,2.07-.75-1.14-.98-2.78-1.03-4.14-3.44,2.98-2.9,5.78-7.14,2.07-.85-1.7-1.19-3.43-1.02-5.18Z"/>
  <path class="cls-69" d="M679.93,617.12c4.85,3.69,8.78,9.94,11.24,15.55,1.47.25,2.35,1.64,2.04,3.11.11.75,1.56,1.61,1.02,3.1-2.69-.5-7.31.7-9.59.07-.34-.09-1.82-4.7-2.67-6.28-2.71.3-4-4.69-4.09-7.25-.56-1.26-3.42-9-3.06-9.32,1.97-.56,3.56.7,5.1,1.03Z"/>
  <path class="cls-230" d="M722.83,664.79c11.5,1.62,16.48-6.29,25.54-10.35l-10.22,8.8c.07,1.45,9.61.9,10.22,3.62-8.17-.75-15.3-1.87-23.49.01-.23-.95-1.21-1.1-2.04-1.04-.89-.29-.88-.64,0-1.04Z"/>
  <path class="cls-104" d="M704.44,654.43c.25,2.92,0,4.69-3.06,3.11-4.02-4.13-8.95-7.55-12.26-12.43,5.79.81,8.55,7.51,13.27,10.35.21-5.21-3.16-10.39-1.53-15.54,3.01,3.91,2.5,10.01,3.58,14.5Z"/>
  <path class="cls-61" d="M720.78,673.08c4.96,2.9,14.26,5.39,20.09,8.11,1.55.72,4.88,1.71,5.44,3.28-7.67.3-18.44-8.45-25.03-9.33-2.76-.37-1.18,2.68-1.53,4.16-1.5-2.84-2.07-4.62,1.02-6.22Z"/>
  <path class="cls-108" d="M723.85,702.1c-2.81,8.58,7.35,8.49,9.18,12.97s-7.25-3.79-8.15-3.64c-.11,1.36.11,2.78-.01,4.15.56,2.64.22,4.02-1.02,4.15-.87-4.73-1.05-9.82-2.04-14.51.89-.87.89-2.58,2.04-3.11Z"/>
  <path class="cls-230" d="M743.26,699c1.35,1.46.78,1.99-1.02,1.04-6.42-4.12-12.49-8.54-20.43-9.33.11-.62.8-1.39,1.02-2.07,6.44,4.06,12.63,3.08,20.43,10.36Z"/>
  <path class="cls-73" d="M720.78,700.03c-5.34,1.14-5.97,8.67-10.2,11.4.44-5.08,4.08-10.58,8.16-13.47.1.4,1.89,1.42,2.04,2.07Z"/>
  <path class="cls-108" d="M725.89,701.07c4.95.91,11.67,2.56,14.3,7.24-4.92-1.34-10.44-5.01-15.32-6.21l1.02-1.04Z"/>
  <path class="cls-183" d="M707.51,660.65c.85.28.83.63,0,1.04-.65.2-1.49.97-2.04,1.04-1.25-1.59-2.73-3.79-4.09-5.18l3.06-3.11c.46,1.93,1.53,4.86,3.06,6.22Z"/>
  <path class="cls-61" d="M723.85,682.41c2.6,1.13,7.44,1.38,9.19,4.13-4.07.89-8.61-4.12-12.25-1.03-2-3.66-.22-.82,3.06-3.11Z"/>
  <path class="cls-138" d="M681.97,632.67c1.24,6.33-2.95.65-4.09-2.07-.41-.98-.38-3.3-.79-4.56l.79-.62c.94,2.12,2.89,5.01,4.09,7.25Z"/>
  <path class="cls-52" d="M724.87,715.58l1.01,9.32c-2.01-.21-1.77-3.75-2.03-5.18,1.6-.74.9-2.81,1.02-4.15Z"/>
  <path class="cls-231" d="M709.55,663.76c-.73-.64-1.73-.74-2.04-2.07-.06-.26-.04-.76,0-1.04.05-.33,1.13-1.27,1.02-2.07.33,1.19,3.41,4.1,1.02,5.18Z"/>
  <path class="cls-131" d="M723.51,664.79v1.04c-2.25.17-4.01,1.66-5.11,0,1.27-.76,2.9-1.24,4.09-2.07l1.02,1.04Z"/>
  <path class="cls-108" d="M722.83,699c-1.09-2.91-1.25-3.93-1.02-7.25,1.94,1.47.78,4.99,1.02,7.25Z"/>
  <path class="cls-227" d="M743.26,699c.96.9,2.8,1.49,3.06,3.1-2.03.55-2.79-1.23-4.09-2.06l1.02-1.04Z"/>
  <path class="cls-24" d="M694.23,634.74c-.19.38-1.04.94-1.02,1.04-.69-1.03-1.33-2.1-2.04-3.11-.9-1.56-.58-2.03,1.02-1.04.73,1.04,1.42,2.28,2.04,3.11Z"/>
  <path class="cls-92" d="M720.78,761.18c4.87.89,12.97-2.17,16.34,2.06-6.78-.14-12.79-1.34-19.41,1.05.98-1.33,2.53-2.26,3.06-3.11Z"/>
  <path class="cls-127" d="M698.31,598.46c1.03,1.2,4.11,1.44,5.11,2.07,4.8,3.03,9.68,6,14.3,9.33-.06.63-.74.63-2.04,0-5.76-2.69-12.1-5.77-17.36-9.33-1.91-1.29-3.68-2.18,0-2.07Z"/>
  <path class="cls-198" d="M690.14,612.97c3.41,4.48,7.72,8.02,11.24,12.44,1.35,1.46.78,1.99-1.02,1.04-4.34-3.88-8.73-7.74-12.26-12.44.7-.44,1.76-.82,2.04-1.04Z"/>
  <path class="cls-177" d="M681.97,617.12c3.38,2.41,7.63,10.85,10.21,14.51l-1.02,1.04c-3.67-5.22-7.83-10.13-11.24-15.55.1.02.77-.91,2.04,0Z"/>
  <path class="cls-6" d="M708.53,615.05c1.35,1.46.78,1.99-1.02,1.04-4.28-2.92-8.35-5.92-12.26-9.33.24-.46.94-1.82,1.02-2.07,4.02,3.51,8.29,6.78,12.26,10.36Z"/>
  <path class="cls-218" d="M684.01,581.87v1.55c-.28.81-1.72,1.13-2.04,1.56l-1.02-1.04c.47-.46.77-1.8,1.54-2.06h1.53Z"/>
  <path class="cls-183" d="M706.48,664.79c-.83-.23-2.37.21-3.56-.03-1.6-.33-1.46-.99-1.55-1.01l5.11,1.04Z"/>
  <path class="cls-134" d="M661.56,169.39l3.04-2.07c-.47,12.65,2.76,3.25,6.64-1.05,2.54-2.82,7.23-8.61,10.73-7.77-4.03,4.67-9.58,8.29-12.25,13.99.7.66,14.34-8.6,16.65-9.52,3.96-1.59,8.76-2.13,12.97-2.9.49,2.97-.62,1.72-2.36,2.21-9.67,2.72-18.81,5.9-26.23,13.32,12.47-1.94,25.54-1.79,36.78,4.67-6.24.29-11.65-3.13-17.85-3.67-3.14-.27-20.33.66-22,2.12s.7,1.86,1.34,2.31c6.24,4.4,13.62,7.24,19.58,12.22,1.29,1.08,9.78,9.1,8.69,10.34-9.49-8.62-19.77-16.75-31.65-21.76.37,3.52-.83,8.1.53,11.37.38.93,12.34,11.33,13.21,11.38,3.75.19,11.97-5.4,15.88,2.11-5.14-.87-9.74-4.52-14.28.53,0,1.04,13.62,12.4,10.71,17.1-6.18-8.76-14.53-19.85-22.98-26.43-1.02-.8-1.3-2.01-3.07-1.54-2.53,12.09,6.99,16.91,13.08,25.58,2.43,3.45,5.43,7.51,6.31,11.73-6.41-6.95-10.82-15.36-17.54-22.09-.9-.9-.86-2.27-2.87-1.74-2.26,10.4,3.9,13.53,8.34,21.07,2.37,4.02,5.18,9.59,5.95,14.17-5.72-5.29-7.12-14.15-12.43-20.02-.91-1-.91-2.23-2.87-1.74.97,4.03-1.92,9.07-.84,12.73.85,2.88,9.28,8.59,9,13.18l-9.17-9.33c.39,3.66-1.62,7.13-1.01,10.81.51,3.06,3.97,4.73,4.05,7.84l-4.07-3.11-.52,4.16c-2.55-5.24-1.55-11.12-.52-16.59-2.61-.6-1.78.72-2.64,1.95-.39.56-6.55,12.11-5.54,6.85,1.39-7.23,9.53-11.63,8.17-19.17l-5.09,2.6c.54-2.92,5.46-4.82,5.96-6.39.91-2.83.01-9.28,1.17-12.79-1.12-1.25-8.71,7.16-9.61,8.38-3.31,4.45-5.91,10.21-7.76,15.45-1.8.27-1-2.34-.77-3.38.71-3.24,2.44-6.12,3.85-9.04-1.19-.99-6.19,4.26-7.14,1.04,2.37-1.77,6.85-1.67,8.75-3.05,1.28-.92,6.85-8.28,9.09-10.5.93-.93,3.24-1.96,3.39-2.22.83-1.49.81-12.61,1.23-15.33-1.96-2.19-18.64,14.98-20.39,17.13-3.18,3.88-5.77,9.71-8.69,12.95-1.2,1.33-2.15,1.47-1.54-.52,1.92-6.23,9.05-13.7,13.26-18.68-3.93-1.62-7.44,3.46-10.21,5.19-1.52.95-2.39.97-2.04-1.03,3.05-2.61,6.23-4.82,9.82-6.63,6.64-3.36,7.84-3.65,14.36-8.23,5.36-3.77,6.43-.63,5.44-10.54-15.2,2.35-26.93,13.19-36.26,24.87-1.25-3.02,3.13-5.68,4.2-8.18l6.53-6.32-11.24-.53c0-1.79,11.8-1.37,13.59-1.77,3.53-.79,13.13-7.66,19.09-9.68,1.12-.38,3.93-.35,4.07-.5.79-.83.79-6.32-3.23-5.96-7.19.64-14.46.54-21.46,2.16-7.96,1.85-13.67,6.73-21.24,9.01,4.31-4.31,10.5-7.92,16.33-9.33-2.54-4.51-9.88-1.26-12.25-5.16,5.63-2.54,11.78,3.45,14.92,3.85,2.24.28,6.33-1.63,9.1-1.77,5.59-.28,11.25.18,16.84-.03-8.86-8.96-20.82-13.54-30.64-21.24l8.17,2.59-3.58-9.31c3.94,3.02,5.05,9.21,8.17,12.44,3.97,4.11,13.62,7.48,17.87,12.43l-13.44-20.04-8-7.93c9.48,3.81,15.21,14.4,20.45,22.79Z"/>
  <path class="cls-77" d="M704.44,203.59c4.31-.13,4.83,11.23,6.14,12.43,2.14,1.96,1.92-1.98,2.04-2.06,2.98-2.02,1,3.04,3.05,3.09-.08-4.32,2.19-5.95,5.12-8.29,1.44-1.37,1.96-.79,1.02,1.04-1.35,1.55-3.39,2.91-4.09,5.17,3.4-.87,6.2-2.46,9.82-2.98,1.13-.16,5.52-1.02,5.49.91-6.77,1.3-14.06,1.98-18.38,8.29,6.34.76,12.29-3.69,18.38-1.01l-9.18,1.03c.86,1.73,3.3,2.01,5.13,3.59.82.71,3.99,3.65,3.03,4.69-5.53-5.39-11.76-6.95-19.39-6.21.87,9.54,8.97,7.92,13.27,13.46l-6.13-2.05,1.54,7.24-4.18-7.16c-1.67-1.03-5.45-9.11-7.05-8.37-4.17,1.94-.07,14.36,3.56,16.56l-4.07-2.06-1.05,5.17c-1.78.24-.96-2.36-1.01-3.61-.11-2.94.09-5.9,0-8.83-4.46-.67-2.47.99-3.06,2.08-1.53,2.42-3.44,1.59-2.3-1.12-2.4.43-3.34-.92-2.81-4.06.56-.77-.12-1.81-2.04-3.11.24-.4.83-.7,1.02-1.04,1.34-1.71,3.36-2.55,6.08-2.52-2.49-1.34-3.49-2.92-3.01-4.73.1-.31-.1-.72,0-1.04,1.39-4.05,4.18-1.85,5.11,1.04l1.02-1.04c-4.28-.49-6.07-4-2.9-8.02l-.17-4.42c.16-.59-.16-1.49,0-2.07Z"/>
  <path class="cls-53" d="M699.33,230.54l3.06,2.06-2.04,1.04,4.08,2.08c-3.7,6.87-8.99,13.54-13.79,19.69-1.75-2.43,6.1-10.95,5.62-11.39l-9.19,4.66c3.97-6.45,12.46-7.56,15.32-13.99-1.01-.9-8.62,3.9-10.2,4.66-1.04.5-3.48,2.6-4.1.51.25-.35.74-.64,1.02-1.04,3.29-2.04,5-4.46,5.11-7.25,2.24-2.15,3.94-2.49,5.11-1.04Z"/>
  <path class="cls-91" d="M695.25,146.59c-.13-.12-1.21.43-2.1-.68-1.51-1.89-2.05-6.82-4.54-8.64l.51,6.21c-1.19.16-1.59-1.87-2.03-2.07-2.98-3.7-4.84-8.49-5.59-14.38-.3-1.56-.82-1.95-1.56-1.17.59,2.41.25,3.79-1.02,4.15-1.98-.95-1.97-2.16,0-3.11l-1.02-5.18c-.45-.27-.41-.62,0-1.04-.53-3.25,3.06-3.11,1.59-1.34l1.47-.73c1.31,3.21,3.69,8.88,5.27,11.76,2.75,5.03,8.86,9.75,9.03,16.23Z"/>
  <path class="cls-178" d="M673.8,115.5c2.63-.32,8.29,1.72,4.09,5.18l-1.01,3.85c.07,3.88-.98,12.56-5.12,12.73-.77-.61-1.07-1.03-1.02-2.07-1.4-1.59-1.47-3.95-.21-7.08-1.34,3.9-3.31,6.6-5.92,8.12-.85-.31-1.43-.78-2.04-1.04,3.36-6.74,6.45-13.81,11.24-19.69Z"/>
  <path class="cls-84" d="M677.88,121.72l1.02,5.18c.01,1.04,0,2.07,0,3.11,1.68.9,2.16,5.84,0,6.22-.07,1.03.06,2.08,0,3.11-2.34-.71-5.09-.45-7.14-2.07,2.02-3.44,3.69-14.87,6.13-16.58.02.34-.01.69,0,1.04Z"/>
  <path class="cls-155" d="M670.73,135.19c-.32.9-1.38,1.75-1.05,3.12-.27.25-4.21-1.76-5.08-2.08,1.94-6.43,5.93-12.17,9.71-17.61-.14,5.02-1.91,11.88-3.58,16.58Z"/>
  <path class="cls-34" d="M687.08,141.41c-1.7-.79-2.46-.41-5.11-2.07-1.91-3.8-2.59-8.29-2.04-13.47.15-.97-.11-2.1.01-3.11,1.36-1.64,7.27,16.87,7.14,18.65Z"/>
  <path class="cls-5" d="M698.31,226.39c.62-1.11,2.66-5.95,3.06-7.25l7.13,4.66c-2.61,2.67-6.73,2.72-10.19,2.59Z"/>
  <path class="cls-5" d="M704.44,205.66l4.08,10.36-4.59-4.14c-1.35,1.6,2.2,4.33,3.58,6.21,1.23,1.44.7,2-1.02,1.04-1.53-.95-3.49-2.4-5.11-1.04,1.21-4,1.99-8.35,3.06-12.44Z"/>
  <path class="cls-42" d="M697.29,228.12h9.19c.76,3.11-5.21,2.66-7.14,3.11-1.69.39-3.32,1.12-5.11,1.04.94-1.37,2.34-2.95,3.06-4.15Z"/>
  <path class="cls-204" d="M681.97,139.33c-1.1-.69-2.23.07-3.06-3.11.15-2.03-.21-4.21,0-6.22.05-.5.78-2.57,1.02-4.15,1.61,3.68,1.52,9.19,2.04,13.47Z"/>
  <path class="cls-223" d="M694.23,231.57l5.1,2.06-10.21,5.19c1.7-2.38,3.46-4.85,5.11-7.25Z"/>
  <path class="cls-215" d="M661.54,92.7c-.13-5.16.83-10.77-1.02-15.54,7.33,1.18,14.56,1.78,22.01,2.06,1.97.07,4.09-1.05,3.52,2.08,1.08.92.39,2.98-1.02,3.11-1.42,5.89-3.5,11.7-6.21,17.43-.53,3.82-1.86,5.96-4,6.41-1.22,1.09-1.78.54-1.02-1.04-.57-4.31-.82-8.7-.75-13.17l-1.29.73c.35,3.25.45,6.54.31,9.85,1.71,5.34-3.56,3.14-6.25.22-5.91-1.39-7.49-2.86-4.75-4.41l.48-2.55c-1.72-.93-1.59-4.14,0-5.18Z"/>
  <path class="cls-10" d="M686.06,37.77c3.17,1.83,9.4,9.61,12.65,9.33.94-.08,1.82-1.04,2.16-1.38h16.34c.49.35,3.14,1.62,2.55,2.76h-17.87c-.12-.35-2.04,1.16-1.04,1.73,4.81,5.41,6.44,2.74,11.11,3.15,6.08.53,12.09,4.02,15.97,8.77-3.81.74-6.4-3.98-10.01-5.39-2.97-1.16-6.22-1.51-9.39-1.35-.46,1.8.74,2.07,1.52,3.11,3.91,5.17,10.62,9.85,14.81,15.03.16.77-1.04.7-1.51.5-2.61-1.08-8.5-7.42-10.77-9.81-.96-1.01-5.62-8.47-7.12-6.76.19,3.18-.36,6.6.08,9.75.49,3.46,3.39,5.72,2.47,8.89-7.29-4.66-2.73-16.87-5.1-21.77-.38-.78-11.13-9.3-12.78-10.35-1.38,2.51-2.01,5.98-1.87,10.42l-1.19-.05c-.48-5.33,1.57-11.18-2.04-15.55.66.16,1.13-.47,1.02-1.04Z"/>
  <path class="cls-174" d="M664.61,23.26c.24.08,2.99,2.41,4.09,3.11-2.33-.4-3.12.79-4.63,2.03-5.18,4.25-11.66,12.95-15.2,18.78-3.04,5-4.65,11.42-8.75,15.46,1.36-8.4,6.83-16.99,11.82-23.75,4.02-5.44,9.54-9.75,12.68-15.64Z"/>
  <path class="cls-17" d="M677.88,32.58c-3.05-.61-1.84,1.5-2.19,3.43-1.28,7.18-2.53,15.74-1.89,22.99.35,3.96,2.98,8.07,1.53,11.92-6.62-11.95-3.14-27.64-.52-40.41.9.68,1.93,1.18,3.06,2.07Z"/>
  <path class="cls-88" d="M663.58,23.26c-8.61-.2-24.74,14.52-30.64,20.73-1.44,1.37-1.96.79-1.02-1.04,8.43-9.54,16.24-15.87,27.58-21.76,1.44.47,2.98.93,4.09,2.07Z"/>
  <path class="cls-211" d="M671.76,29.47l-5.6,10.38-7.66,22.78c.04-12.12,5.36-24.44,12.25-34.2.32.21.61.75,1.02,1.04Z"/>
  <path class="cls-170" d="M652.35,19.11c.35.29.61.78,1.02,1.04l-33.7,10.35c1.43-1.97,5.37-3.27,7.63-4.16,8.05-3.16,16.57-5.57,25.05-7.23Z"/>
  <path class="cls-162" d="M690.14,43.98c-3.19,11.05,1.16,23.37,6.13,33.15-2.04.45-2.37-1.02-3.31-2.33-3.15-4.36-5.87-15.06-5.88-20.46,0-.14.97-1.16,1.06-2.51.21-2.94-.22-5.95-.04-8.89,1.93-.57,1.72.83,2.04,1.03Z"/>
  <path class="cls-191" d="M654.39,79.22c.13-5.45,2.89,1.92,3.08,2.06,2.87,2.18,1.03-3.07,3.03-3.1l1.03,14.5c.04,1.72-.09,3.46,0,5.18-.11,4.77-.59,7.43-3.06,2.07,1.78-3.06.68-11.47-.22-14.8-.68-2.5-2.56-3.87-3.86-5.93Z"/>
  <path class="cls-229" d="M684.01,26.37c4.39-.72,9.09-3.36,14.29-2.06.27,1.5-1.93,1.34-3.03,1.56-3.36.69-6.86.87-10.24,1.54l-1.02-1.04Z"/>
  <path class="cls-174" d="M629.88,17.04l3.06,2.07c-4.74.2-9.55-.14-14.29-.01.14-1.48,4.59-1.81,5.78-1.93,1.86-.2,3.64-.01,5.46-.13Z"/>
  <path class="cls-162" d="M679.93,17.04c-2,1.59-4.32,2.78-6.13,4.15.1-.85-.29-.95-1.02-1.04,1.43-2.11,4.03-4.17,6.53-4.09l.62.99Z"/>
  <path class="cls-31" d="M632.94,43.98c-.89.93-4.56,6.57-6.13,5.17.92-2.74,3.48-4.37,5.11-6.21l1.02,1.04Z"/>
  <path class="cls-151" d="M686.06,86.48c-1.15,1.1-1.49.41-1.02-2.07.24-.95.4-2.39,1.02-3.11.15-.17,1.74-.98,2.04-1.04-.06,2.34-1.39,4.34-2.04,6.22Z"/>
  <path class="cls-181" d="M647.24,93.73c1.24-1.72,1.62-.77,2.04,1.04,3.08,1.71,6,3.59,9.19,5.18.27.14.14,1.6,2.03,1.04l1.03-3.11c.06,1.16-.39,3.12.17,3.96.31.46,9.67,4.73,10.04,4.33-1.04-3.84-.42-7.48,0-11.4l1.45.18c-.26,4.21-.06,8.3.59,12.26.09.34.89.71,1.02,1.04.94.3.93.65,0,1.04.91.28.9.62,0,1.04-1.69-1.18-3.39-1.17-5.35-.83-2.41.41-12.15,3.65-14.9,4.65-3.56,1.3-6.31,4.7-10.4,4.46l8.16-5.69,15.32-5.17c-4.83-7.04-13.16.34-19.9,2.6-2.83.95-5.58,2.32-8.69,2.05l18.07-8.08,2.35-2.26c-2.92.05-6.5-3.72-8.85-3.93-1.73-.15-5.82,2.62-9.03,2.89-4.19.35-7.66-1.12-11.73-1.06l17.35-2.07c1.73-1.64-7.86-6.37-9.19-7.25-1.35-1.35-.79-1.58,1.02-1.04,2.65,1.44,5.51,2.69,8.17,4.15Z"/>
  <path class="cls-83" d="M675.49,109.28c2.04-3.11,7.55-7.26,5.11,0-.03.17-1.28.21-1.02,1.02.65.14,1.53-.15,2.04.01,4.17.89,8.26.89,12.26,0,.67-.07,1.37.05,2.04,0,1.64-.72,1.96-.6,1.02,1.04-.57.14-1.38-.1-2.04.01v1.02c1.96-.98,4.82,1.01,5.1,1.05,1.22.86.88,1.21-1.02,1.04-2.66-.71-18.18-2.97-19.41-2.06,1.23,1.86,1.26,4.28,2.04,6.21.6,3.48-1.22.78-3.06,2.07-.07-1.03.06-2.08-.01-3.1l-2.02,2.06c.92-5.73-2.77.07-2.05-4.14.1-.59,1.4-1.7,1.02-2.06-.65-.14-1.49.14-2.04,0-1.86.73-2.17.72-1.02-1.04,1.05-.65,2.37-.72,3.06-2.07.1-.19-.02-.67,0-1.04Z"/>
  <path class="cls-152" d="M672.78,113.42c-6.27,3.36-12.54,8.84-19.41,10.35,4.48-5.36,12.53-7.78,18.39-11.39.16.46.57.91,1.02,1.04Z"/>
  <path class="cls-206" d="M649.28,94.77c-.67-.37-1.37-.67-2.04-1.04.11-4.3-.16-8.65,0-12.97.05-1.26-.77-3.86,1.01-3.61,1.46,5.76,1.01,11.71,1.03,17.61Z"/>
  <path class="cls-101" d="M639.07,89.59l-1.02,1.04c-1.62-1.07-3.7-2.09-5.11-3.11-.44-.32-.43-.67,0-1.04,2.02,1.07,4.03,1.97,6.13,3.11Z"/>
  <path class="cls-46" d="M633.62,86.48v1.04c-1.13-.82-2.73-1.56-3.06-3.1,2.12-.82,2.41,1.72,3.06,2.06Z"/>
  <path class="cls-90" d="M709.55,493.79c2.26-3.77,2.2-9.08,3.99-13.05.42-.92.37-3.11,2.12-1.45.51.48,5.04,12.34,5.11,13.04.35,3.5-2.07,7.22-2.03,10.79-2.27-3.09-6.17-7.05-9.19-9.33Z"/>
  <path class="cls-81" d="M672.78,512.44c5.86-2.12-3.88-6.48-2.04-8.29s6.32,6.85,7.13,6.21c.98-7.44,6.32-17.53,13.92-19.59,1.93-.52,1.92,1.44,1.42,1.96-.25.26-4.75,1.72-6.36,3.11-4.26,3.69-5.78,10.23-6.91,15.56-3.43.42-3.86.44-7.15,1.04Z"/>
  <path class="cls-157" d="M697.29,551.83c-.95,3.48-1.28,7.13-2.35,10.58-.34,1.08-.27,3.13-1.73,2.89-1.01-5.8,2.05-11.21,3.05-16.58l1.02,3.11Z"/>
  <path class="cls-114" d="M727.93,571.86c.09.31,1.27.5.92,2.33-.34,1.73-2.35,2.89-1.93,4.93h4.07s-4.08,2.07-4.08,2.07c-.15-.16-1.98.41-2.09-.59-.18-1.64,2.24-6.86,3.11-8.73Z"/>
  <path class="cls-14" d="M726.91,582.92c2.14.68,5.39.7,6.13,3.1l-7.15-1.03c.13-.23-1.25-2.22-1.01-3.11.25-.32,1.37.82,2.04,1.03Z"/>
  <path class="cls-180" d="M721.81,591.21l5.12,2.59c-.04,1.08-3.92.32-5.12.52l-2.04-1.56c.34-.78,1.89-1.23,2.04-1.55Z"/>
  <path class="cls-16" d="M715.68,598.46l4.09,3.1c-1.76.44-3.61-1.06-5.11-1.03-.07-.99.61-1.44,1.02-2.07Z"/>
  <path class="cls-35" d="M696.27,581.88c-.26,2.28.99,3.64-2.04,3.1-.04-.68.03-1.38,0-2.07l2.04-1.04Z"/>
  <path class="cls-232" d="M686.06,86.48c-2.36,6.85-5.85,12.78-7.14,19.69,4.83-5.85,9.22-11.95,14.29-17.62,1.44-1.37,1.96-.79,1.02,1.04-4.62,6.65-9.83,12.92-14.3,19.69.26-1.64.19-2.52-1.52-2.08-.74.19-.41,3.28-3.58,2.08.02-.33.08-.84,0-1.04l10.21-23.84,1.02,2.07Z"/>
  <path class="cls-62" d="M704.44,113.42c1.93.09,16.36-.44,16.35.52-4.55,1.79-9.49,1.66-14.31,1.57-.63,1.71,8.78,2.95,6.12,5.17-1.69,1.4-6.7-3.52-8.17-4.14-1.29-1.47-1.29-2.51,0-3.11Z"/>
  <path class="cls-173" d="M708.53,106.17c1.53-.5,1.8-.47,1.02,1.04-3.86,1.52-9.22,3.14-13.28,4.15l-1.02-1.04c4-2.69,8.73-3.18,13.28-4.15Z"/>
  <path class="cls-12" d="M704.44,113.42l.93,2.5-.93.61c-1-.42-5-1.77-6.13-2.07l1.02-1.04c1.58.2,3.44-.08,5.11,0Z"/>
  <path class="cls-219" d="M693.21,110.31c-3.47,2.18-8.51,1.22-12.26,0,3.96-.29,8.37.41,12.26,0Z"/>
  <path class="cls-163" d="M693.21,88.55c1.4-1.57,2.78-4.12,3.06-.53-.27.81-1.75,1.15-2.03,1.56l-1.02-1.04Z"/>
  <path class="cls-115" d="M708.53,106.17c.79-.17,2.27-1.88,4.08-1.03.35,1.21-1.69,1.52-3.06,2.06l-1.02-1.04Z"/>
  <path class="cls-158" d="M720.78,209.46c.44-.35.75-1.79,1.54-2.06h1.52c.64,2.24-1.26,2.2-2.04,3.1l-1.02-1.04Z"/>
  <path class="cls-96" d="M708.53,615.05c1.34,1.21,3.48,2.14,4.09,4.14-2.18.37-3.43-1.95-5.11-3.1l1.02-1.04Z"/>
  <path class="cls-130" d="M701.38,625.41c.55.69,3.45,3.83,3.06,4.14-2.44.66-2.87-2.01-4.09-3.1l1.02-1.04Z"/>
  <path class="cls-78" d="M717.72,609.52c.29.21,4.11.69,2.54,2.08-1.84.15-3.17-1.42-4.59-2.08h2.04Z"/>
  <path class="cls-119" d="M707.51,218.1c.39.54,2.45,2.77,2.04,3.1-2.17.79-2.34-1.61-3.06-2.06l1.02-1.04Z"/>
  <path class="cls-178" d="M678.91,126.9c-1.66-.88-.95-3.52-1.02-5.18,1.62.87,1,3.52,1.02,5.18Z"/>
  <path class="cls-100" d="M673.8,107.21c-.03-.13-.85-.52-1-1.55-.54-3.5,1.18-8.22-1.04-10.89.45-4.12.65-10.87,4.08-13.47-.5,8.75-3.04,17.03-2.03,25.91Z"/>
  <text class="cls-102" transform="translate(0 1069.28) scale(1.15 1)"><tspan class="cls-50" x="0" y="0">A</tspan><tspan class="cls-137" x="91.07" y="0">N</tspan><tspan class="cls-9" x="188.35" y="0">D</tspan><tspan x="281.97" y="0">R</tspan><tspan class="cls-19" x="373.87" y="0">E</tspan><tspan class="cls-159" x="457.4" y="0">A</tspan><tspan x="545.7" y="0" xml:space="preserve"> F</tspan><tspan class="cls-58" x="655.83" y="0">O</tspan><tspan class="cls-50" x="756.09" y="0">R</tspan><tspan class="cls-3" x="845.22" y="0">T</tspan><tspan x="925.3" y="0">IS</tspan></text>
  <path class="cls-103" d="M1117.4,390.96c2.13,0,2.61,0,4.37,0,.03,2.31.02,2.5.01,3.45,0,2.85,0,0,0,1.06l1.52,3.88c1.11,30.61,1.06,61.27-.14,91.99l-2.35,1.38h-311.27c-.77-1.42-2.64-2.13-5.6-2.12-.9-.73-1.16-.58-1.03-2.11l-2.04-1.3,1-94.7c-.03-1.81,1.19-2.91,2.77-3.37l128.07-.22,3.92-1.88c.83-2.3,2.26-2.29,3.09,0l1.47,1.7c6.21-.32,10.38-.64,15.54,1.37.31-2.01,3.26-.28,3.77.49l.24-.76"/>
  <path class="cls-103" d="M976.35,389.11c37.33.42,74.72.42,112.16,0-.72-.92,13.36,1.44-.43-1.78-2.83-.94-6.27-1.49-8.95-2.25l-28.12-14.43c-1.7,4.95-5.45,3.8-9.71,2.1-11.37-6.84-17.05-6.52-29.2-5.42-6.65.6-13.39,1.69-19.89,2.98-4.87,4.07-5.57,3.38-9.3,3.99l-1.16.19-2.09-1.92c-2.48,1.43-3.46.95-2.93-1.44l-9.9-.35-1.22-.29c-1.52-.24-1.19.97-3.94-1.08-.34.92-1.05-.52-1.39-1.44-.25.96-.6.94-1.03,0-2.99-.56-8.03-2.26-11.31-3.17l-6.17-2.11c-1.33-.74-7.3-3.94-9.26-5.29-8.52-5.52-13.07-8.79-20.57-15.86l-3.09-3.17c-13.76-14.16-19.33-22.39-20.57-43.34-.86-6.67-.86-13.36,0-20.08,2.04-11.13,8.72-12.12,11.31-24.31.15-5.35,1.03-10.62,2.06-15.86,2.13-7.14,2.45-7.25,7.2-12.69l3.09-3.17c4.14-3.51,7.66-6.68,13.37-7.4,5.07-1.11,10.35-1.19,15.43,0,2.67.49,7.96,4.48,10.29,6.34,1.36.73,2.36,1.76,3.09,3.17.49,1.31.57,2.88,1.03,4.23.64,1.88.64,3.29,0,4.23-.33.91-.67.91-1.03,0-1.65.25-1.99.6-1.03,1.06,2.25-.59,8.24,2.78,4.11,3.17-2.16,1.51-5.01,2.49-8.57,2.92,3.34-1.07,5.51-.63,6.51,1.31,2.5-.58,10.03-1.09,10.22,1.75-5.06,1.66-14.02,2.09-11.72,9.82,1.14,3.83,19.52,13.62,24.13,16.97,1.11,1.38,2.5,2.48,4.11,3.17.35.34.66.73,1.03,1.06,1.91.76,3.3,2.35,4.11,4.23,7.51,6.37,15.15,12.64,22.63,19.03,1.06,1.44,2.45,2.55,4.11,3.17.48.41,1.25,1.37,2.06,2.11l3.09,3.17c4.87,4.69,10.97,9.87,15.43,14.8.68,1.65,1.74,3.08,3.09,4.23,2.34,3.52,4.9,7.07,7.2,10.57,1.16,2.29,2.03,4.77,2.06,7.4l24.69,16.91,4.11,3.17c6.18,5.13,12.11,9.97,18.52,14.8l2.06,3.17v2.11c0,4.17-5.97-.07-8.23-2.11-5.86-1.13-12.49-5.81-17.49-9.51-1.39.17-1.74.52-1.03,1.06,7.74,2.77,15.32,7.2,21.6,12.69,2.53-1.83,4.03,1.92,9.29,6.94"/>
  <path class="cls-161" d="M1124.09,394.36l1.01,99.75h-315.73c.93-5.18-2.11-1.79-5.11-4.2h315.73c-.98-31.25-.15-63.62-1.45-94.78,5.54-.77,3.78-.77,5.54-.77Z"/>
  <path class="cls-124" d="M933.7,387.35c.88-1.41,4.65-1.68,5.11,0l-1.5,3.09-133.71.06v97.66l-5.45-1.05v-99.76c45.6-.61,90.64.81,135.56,0Z"/>
  <path class="cls-103" d="M944.17,384.31c-1.98-.96-.41.55,1.57-.4,2.12-4.36,5.91-7.04,8.8-10.25,2.16-2.04,3.24-1.42,3.32,1.81-1.54,2.65-4.34,8.58-7.4,7.64,1.74,1.75,1.4,2.45-1.02,2.1"/>
  <path class="cls-103" d="M947.13,383.15c-.01,1.05-.91,2.67-6.3,3.66l-1.88.54c-.62.02-1.65-.45-4.21,1.16-.84.53-.89,1.07-1.4,2.04-.32.62.06-1.84.5-3.2,1.74-4.2,9.23-3.77,13.28-4.2Z"/>
  <path class="cls-103" d="M954.81,226.69c.36,1.07,1.2,3.84,1.69,4.29,1.41,1.3,10.15,4.77,10.46,5.28,2,3.21-1.98,3.43-3.98,4.08-1.76-2.1-5.62-.72-8.17-1.05-.9-2.41.94-3.3,5.51-2.68l-.4-1.52c-2.59-.88-4.29-2.28-5.11-4.2v-4.2Z"/>
  <path class="cls-103" d="M962.59,370.38c-2.85,2.42-2.65,1.81-4.72,5.08l-2.81-2.27c.88-1.06,1.69-2.58,2.51-3.74.23-.45.42-.7.55-.81.1-.08.39-.85.44-.81.17.12.8-.05.7.14,3.77-.32,3.82-1.56,3.33,2.41Z"/>
  <path class="cls-32" d="M901,236.14c-.37,5.32-.99,10.82-2.04,15.75"/>
  <path class="cls-32" d="M911.22,342.2c-1.52-1.43-1.92-1.97-3.07-3.15l3.07,3.15Z"/>
  <path class="cls-179" d="M1116.53,388.85v3.67l-144.37-1.96v-3.22"/>
  <path class="cls-89" d="M952.09,387.35c1.95,0,18.73-.05,20.06-.01,4.05-.1,1.97,3.24,0,3.22-6.55-.15-28.06-.25-34.85-.11l1.5-3.09"/>
  <path class="cls-145" d="M953.77,239.08c.12-.52.51-.94.96-1.21s.96-.4,1.47-.51c3.31-.68,6.74-.31,10.1.06.06.23.19.44.37.59-1.14.52-2.4.65-3.63.76-3.14.27-6.34.19-9.45.57-2.71.34-5.42.85-8.16.98-6.04.28-.59-3.65,2.57-4.74,1.58-.55,3.93-.63,5.73-.6,1.15.02,2.09.08,2.45.1.84-1.11,8.63,1.35,9.19,3.14-2.85.26-5.97-.35-8.76-.03-1.23.14-2.15.96-2.43,1.08"/>
  <path class="cls-103" d="M981.47,372.54c1.05,1.22.7,1.03-.37,3.22-1.87,3.89-6.73,12.26-9.63,14.89-.83-.16-2.88.9-2.83-.16.85-1.84,3.47-8.14,4.29-9.9,1.03-3.99,5.32-11.49,8.54-8.05Z"/>
  <path class="cls-168" d="M1005.22,348.5c-.13-.09-3.31-5.71-3.79-6.3l6.86,3.97h0c1.92-1.82,2.13-2.52,2.29-2.09.44,1.15,4.41,1.15.44,6.98"/>
  <path class="cls-228" d="M951.07,281.29c2.9.61,6.14,2.5,7.15,5.25.09.43,1.33,1.12,1.02,2.09-5.56,1.53-6.51-3.08-9.7-5.29-.99-.68-2.15-.72-2.56-1-.36-1.03-.46-2.16-1.02-3.14.77-.62,4.14,1.55,5.11,2.09Z"/>
  <path class="cls-186" d="M1090.47,378.83l3.07,1.86c2.16.87,1.42.65-1.3,2.34-7-4.45-12.95-8.48-20.16-12.6-1.35-1.37-.78-1.72,1.02-1.05,5.91,2.64,11.81,6.9,17.37,9.45Z"/>
  <path class="cls-228" d="M955.15,280.24c3.82-1.9,9.61,2.63,10.22,6.3-1.98,1.97-3.92.31-6.13-1.05-2.22-.73-4.26-2.13-6.13-4.2.47-.9,1.4-.76,2.04-1.05Z"/>
  <path class="cls-201" d="M951.06,295.29c-.05,2.62.09,5.27,0,7.89-.04,1.26.77,3.91-1.01,3.65-2.37-3.69-3.65-6.83-3.07-11.54h4.07Z"/>
  <path class="cls-107" d="M946.98,282.34c.27.79,1.02,1.3,1.02,2.09-1.91,1.3-11.28-4.64-12.26-7.33,4.83-.63,7.71,2.82,11.24,5.24Z"/>
  <path class="cls-112" d="M1016.46,327.5c4.09,5.69,1.02-4.26,3.07-2.1,8.91,11.03-1.4,9.18-3.07,2.1Z"/>
  <path class="cls-214" d="M958.22,278.14c-.02-.15-.95-.5-1.04-1.03,5.36-.86,8.25,4.23,12.27,6.82.05,3.35-2.11,1.12-3.06.51-2.4-.27-7.4-4.03-8.17-6.3Z"/>
  <path class="cls-29" d="M996.02,345.35c.29-.92.63-.9,1.02,0,1.42.16,2.43,1.19,1.02,2.1-3.01,5.19-6.77-.45-9.2-3.15-1.35-1.48-.78-2.02,1.02-1.05,1.63,1.24,4.05,2.13,6.13,2.1Z"/>
  <path class="cls-164" d="M985.81,302.29c-4.06.65-7.94,2.22-11.23-2.09,3.42,1.86,6.73-1.08,8.67-1.12.28,0,.39,3.34,4.61,1.1.56,1.13-.12,1.83-2.04,2.1Z"/>
  <path class="cls-197" d="M938.78,286.55c2.18,1.85,3.06,9.16-.99,10.49.33-1.31-2.71-13.63.99-10.49Z"/>
  <path class="cls-192" d="M945.6,302.29c-2.06-.34.08-3.25-3.05-1.04v-9.45c4.91.12,2.61,7.02,3.05,10.49Z"/>
  <path class="cls-168" d="M1016.46,341.15l-3.06-8.4c.44-.56,1.99,1.85,2.55,2.1.31.14,1.02-5.62,4.59,1.05-.07,1.49-.76,2.89-2.04,4.2.57,1.59-.82,2.07-2.04,1.05Z"/>
  <path class="cls-168" d="M1005.22,348.5c1.17-.04,1.51.31,1.02,1.05-.57,3.74-6.51-.46-8.17-2.1-.41-.4-.62-1.53-1.02-2.1-.87-.3-.86-.65,0-1.05,1.47,1.2,5.93,2.98,8.17,4.2Z"/>
  <path class="cls-165" d="M966.82,310.46c.07.21,3.61,3.17.09,3.38-2.47-2.82-4.13-5.73-2.55-9.44,2.98.86,1.89,4.32,2.46,6.06Z"/>
  <path class="cls-148" d="M956.17,301.24c.53,1.38,3.42,10.09,3.06,10.49-2.83,3.24-3.95-8.75-4.08-9.44-.44-1.57-.46-1.83,1.02-1.05Z"/>
  <path class="cls-165" d="M995,293.89c-.02.49,2.59,5.65.51,7.36-5.63.15-1.54-3.43-1.53-7.36.29-.92.63-.9,1.02,0Z"/>
  <path class="cls-4" d="M966.39,284.44c-.85.36-.8,1.88-1.02,2.1-2.64-3.73-5.63-6.2-10.22-6.3.74-.33,3.15-1.31,3.07-2.1,2.76,1.79,5.47,4.57,8.17,6.3Z"/>
  <path class="cls-107" d="M1016.46,341.15c.39.05,1.46-.86,2.04-1.05.29-.92.63-.9,1.02,0-.07.08-.07,1.68,0,2.1.64,2.6-2.24,1.94-4.09,1.05-2.33-1.86-3.29-4.18-5.11-6.3-1.07-1.5-.6-2.05,1.02-1.05,1.18,1.34,3.39,5.02,5.11,5.25Z"/>
  <path class="cls-126" d="M995,293.89h-1.02c0-.43-1.94-1.81-.7-3.98.36-.63,2.58.81.7-3.37,5.5,2.84,1.07,6.04,1.01,7.35Z"/>
  <path class="cls-140" d="M975.58,312.79c-4.04.15-3.06-4.44-3.05-7.35,2.69,1.17,3.24,4.65,3.05,7.35Z"/>
  <path class="cls-210" d="M1020.55,335.9c2.88,5.36-.6,3.73-1.02,4.2h-1.02l-2.04-3.14,4.08-1.06Z"/>
  <path class="cls-168" d="M1010.39,346.16c3.01,6.64-.43,5.47-4.14,2.76-.55-.41-.84-1.24-1.03-1.38.22.19,3.88-1.27,5.17-1.38Z"/>
  <path class="cls-109" d="M978.65,339.05c.65.36,9.23,3.07,7.14,5.25-.9.94-6.21-4.27-7.14-5.25Z"/>
  <path class="cls-112" d="M1021.62,338.48c.32,2.02.88,8.25-4.24,6.4-.96-.35-1.32-1.15-1.94-1.64l6.18-4.76Z"/>
  <path class="cls-59" d="M987.85,300.19c2.91-3.74,3.27-2.89,3.07,2.1-1.64.2-3.54-.25-5.11,0,.69-.68,1.44-1.33,2.04-2.1Z"/>
  <path class="cls-175" d="M953.11,281.29c3.27.72,3.89,2.82,6.13,4.2-.66-.17-1.14.5-1.02,1.05-2.38-1.96-4.42-3.73-7.15-5.25.65.09,1.44-.13,2.04,0Z"/>
  <path class="cls-118" d="M989.89,343.25l-1.02,1.05c-1.57-1.75-4.13-3.51-4.08-6.3,2.26.56,3.78,4.25,5.1,5.25Z"/>
  <path class="cls-36" d="M978.65,339.05c-2.01-1.12-5.27-1.7-5.1-5.25,1.16,1.17,4.07,2.51,4.84,3.44.5.6.13,1.68.25,1.81Z"/>
  <path class="cls-106" d="M968.43,277.11c2.96,3.38-5.08,1.3-5.1-2.11.86,0,4.92,1.9,5.1,2.11Z"/>
  <path class="cls-33" d="M969.46,276.03c-2.19-.12-5.01-2.29-6.13-4.18,2.41-.06,5.11,1.99,6.13,4.18Z"/>
  <path class="cls-210" d="M970.48,301.24c-2.14-.62-2.21-1.51,0-2.1.74-.26.83-3.77,3.06-.51.08,1.95-1.39,2.6-3.06,2.61Z"/>
  <path class="cls-23" d="M949.02,241.4c1.44.69-4.62,2.76-6.13,2.08.79-2.66,3.89-2.15,6.13-2.08Z"/>
  <path class="cls-186" d="M1073.1,369.37l-1.02,1.05c-.95-.54-6.29-2.57-5.1-3.14,2.63-.52,4.22,1.24,6.13,2.09Z"/>
  <path class="cls-168" d="M1002.18,349.56l-1.46-.07c-.85-1.21-13.84-14.87-13.56-17.26l.51-.53c1.95.91,13.99,17.27,14.51,17.86Z"/>
  <path class="cls-168" d="M1017.97,342.2l-2.53,1.05c-1.29-1.72-18.55-22.22-18.38-24.15.97.3,6.1,5.34,10.57,11.07,5.29,6.78,9.74,11.35,10.35,12.03Z"/>
  <path class="cls-49" d="M935.74,234.05c-1.55.93-2.55,1.93-5.1.51l5.1-.51Z"/>
  <line class="cls-38" x1="930.63" y1="234.56" x2="935.74" y2="234.05"/>
  <path class="cls-94" d="M1012.03,335.9l-1.02,1.05"/>
  <path class="cls-222" d="M967.4,324.34c-1.9-.77-3.16-3.38-3.05-5.25,1.9.77,3.16,3.38,3.05,5.25Z"/>
  <path class="cls-185" d="M970.48,332.74c-2.19.22-4.34-2.1-4.08-4.19l4.08,4.19Z"/>
  <path class="cls-168" d="M1019.52,325.4l2.15,3.65c-.74-.82-12.71-11.36-13.39-12.58l.52-.53c2.06-.25,9.73,8.54,10.72,9.46Z"/>
  <path class="cls-233" d="M971.16,299.14v2.1c-.83,0-4.12-.89-4.1-1.58.63-1.26,3.08-.16,4.1-.53Z"/>
  <path class="cls-194" d="M983.75,336.95l-3.05-3.14c1.93-.35,3.4,1.22,3.05,3.14Z"/>
  <path class="cls-190" d="M955.15,302.29c-.26-1.35-2.99-3.62,1.02-3.15.16.65-.17,1.63,0,2.1l-1.02,1.05Z"/>
  <path class="cls-103" d="M954.86,385.07c1.03.76.88.32,1.65,2.06.1.23.36,2.92.1,2.33-.44-1-.26-1.39-1.56-2.12-.83-.47-2.12-.89-2.23-.86-1.37.1-2.37-.47-3.64-1.28.19-.18.95-2.41,1.6-3.11.31,1.98,3.4,2.48,4.09,2.98Z"/>
  <ellipse class="cls-221" cx="933.19" cy="230.84" rx="2.58" ry="2.65"/>
  <path class="cls-145" d="M952.17,230.72c-.17-.2-.33-.41-.45-.62.59-.3,1.06-.76,1.63-1.1.19-.12.4-.21.83-.27.13.09.09.35.52.78.25.29.46.66.68.98.31.45.67,1.22,1.14,1.53.89.58,2.07.94,3.04,1.4,1.14.54,2.27,1.08,3.41,1.63.57.27,1.14.57,1.69.87.74.4,1.24,1.19,1.93,1.88-.54.16-1,.36-1.55.28-.49-.07-.99-.24-1.47-.37-.97-.25-1.94-.53-2.89-.87-1.05-.38-2.27-.8-3.16-1.5-.74-.58-1.55-1.04-2.31-1.62-.58-.45-1.09-.99-1.59-1.53-.43-.47-1-.95-1.45-1.47Z"/>
  <path class="cls-145" d="M956.3,234.14c.17-.04.34-.09.86.13.36.25.69.53.96,1.03-.66.18-1.33.37-2,.34-.34-.01-.67-.07-1.01-.14-.63-.12-1.27-.21-1.89-.36.93-.48,2.07-.74,3.08-1.01Z"/>
  <path class="cls-67" d="M956.75,234.84l.05.05"/>
</svg>